<?xml version="1.0" encoding="utf-8"?>
<!-- Generator: Adobe Illustrator 25.0.1, SVG Export Plug-In . SVG Version: 6.00 Build 0)  -->
<svg version="1.1" id="Layer_1" xmlns="http://www.w3.org/2000/svg" xmlns:xlink="http://www.w3.org/1999/xlink" x="0px" y="0px"
	 viewBox="0 0 708 708" style="enable-background:new 0 0 708 708;" xml:space="preserve">
<style type="text/css">
	.st0{fill-rule:evenodd;clip-rule:evenodd;fill:#101823;}
	.st1{fill-rule:evenodd;clip-rule:evenodd;fill:#181B21;filter:url(#Adobe_OpacityMaskFilter);}
	.st2{mask:url(#mask0_1_);}
	.st3{fill:none;stroke:#67748F;}
	.st4{fill:none;stroke:#67748F;stroke-width:2;}
	.st5{fill:none;stroke:#67748F;stroke-miterlimit:10;}
	.st6{fill:#FF4654;}
	.st7{fill:#16E5B4;}
	.st8{fill:#67748F;}
	.st9{opacity:0.15;fill:#FF4654;}
	.st10{fill:#101823;}
	.st11{fill:#BDC5CC;}
</style>
<path class="st0" d="M360.6,51.4L379,14h82.9v46.2H500l24.6,29l20.2,37.1h0.7v87.3h39.3l120.7,79.3v53.6h-16.9l-11,30.8h-1.1
	l-23.9,60.9h-17.6v4.4H652v32.3l-2.2,12.5v5.9l0.7,0.7v8.1l0.7,0.7v15.4l-0.7,0.7v10.3l-18.3,51.7l-12.8,12.5L594,605.5h-66.1v18
	c0,7.3-12.7,14.8-19.1,17.6l-15.4,1.8h-7.7l-11-1.8c-9.4-7.6-15.9-13.7-20.9-18.4v0h0c-4-3.8-6.9-6.6-9.5-8.3
	c-9.4-4.4-29.4-5.7-38.2-5.9v-7.3H401v10.3h-42.6v2.2l-3.7,8.1v2.9l0.7,0.7v5.1l0.7,0.7v3.7l4.4,11.7l3.7,2.2v48.4l-12.8,6.6H347
	l-61.3-5.1l-91-35.2l-8.8-45.5v-37.4c0-4.8-4.4-8.1-5.9-8.1h-7.7c-20.5-7.7-28.3-34.9-28.3-38.5v-37.8H56v-47.7H45V333.2h23.5v-37.4
	H40.6l-38.2-11V145.4l10.3-10.3h0.7l10.3-10.3h84.4l54.3-30.5l4,1.8l16.1-20.5l-8.1-7.3l12.1-16.9h127v7.3h8.8v-7.3H360.6z
	 M202.4,92.5l-4.4-4.4l-18,19.8l4.4,4.4L202.4,92.5z M314.4,77.8v8.8h8.8v-8.8H314.4z M385.6,134.3v-5.1h-62.4v-22.8h-8.8v6.6h-59.4
	v-3.7H252v3.7h-23.5l-11-8.4l-25.7,30.8v54.7h68.3v-2.9h21.3v-2.9h-10.3v-11h-11v-25.7l8.1-13.2h54.3v4.4h5.9v-4.4H385.6z
	 M428.1,129.9v4.4h57.2v23.5h33v-2.2h-8.8l-19.1-15.4v-10.3H428.1z M486.1,179.1h32.3v3.7h-3.7l-24.2,14.7v74.1h-4.4v-3.7h-3.7
	v-13.2h-2.9v-5.1h6.6V179.1z M322.4,155.6h5.9v5.1l56.5,21.3h58v67.5h7.3v5.9h-7.3v5.1H434v31.6h8.8v36.7h-4.4v-11h-58V207h-58
	V155.6z M180.8,275.3h78.5v-47h-68.3v8.8l-37.4,23.5l-10.6,9.5l8.1,9.5l-15,16.9h-36v36.7h19.1v2.9h2.9v-2.9h33v-29.4
	c0-5.1,6.2-16.9,10.6-19.4C170.5,277.8,177.2,276,180.8,275.3z M119.1,358.2h2.9v1.5h22.8v105.7h-42.6v-16.9l8.1-7.3h0.7l8.1-8.1
	V358.2z M406.1,407.4v-32.3h36.7v32.3H406.1z M233.6,313.4V334h-10.3v9.2c1.5,20.5,20.2,79.6,88.8,79.6v48.4h-42.6l-88.8-80v-77.8
	H233.6z M161.7,448.5h-2.2v2.9h2.2V448.5z M175.7,448.5h11v6.6l82.2,71.9v31.6h11.7v5.9h-11.7v47h6.6v5.1h-25
	c0-28.3-10.3-61.3-43.3-72.7c-1.3-0.4-3.4-0.4-6-0.4c-8.4,0-21.6-0.1-25.6-15V448.5z M304.8,611.4h-5.1v4.4l0.7,0.7h4.4V611.4z
	 M329.8,611.4h5.1v5.1h-5.1V611.4z M307,564.4v-5.9h8.1v-21.3h47v21.3h6.6v5.9H307z M401,574v-9.5h-5.1v-5.1h10.3v-89.5H365v-47
	h41.1c-0.2-1.7-0.6-5.1,0-5.1h36.7v152.7h-36.7v3.7H401z M527.2,542.4v22.8h27.9l0.7-0.7v-31.6h31.6v-67.5h-19.4l-13.6,36L518,524.8
	L527.2,542.4z M456,446.3v-4.4h15.4v4.4H456z M506.7,510.5l23.9-15.4l12.8-52.5h59.4v-4.4h-38.9v-46.2h-52.1l-20.5-19.1v-8.8h-5.9
	V469h5.9v16.9L506.7,510.5z M486.1,299.5v-2.9h5.1v31.6H470v-28.6H486.1z M298.2,184.2v2.9h4.4v-2.9H298.2z"/>
<defs>
	<filter id="Adobe_OpacityMaskFilter" filterUnits="userSpaceOnUse" x="28.7" y="50.5" width="609.9" height="568.4">
		<feColorMatrix  type="matrix" values="1 0 0 0 0  0 1 0 0 0  0 0 1 0 0  0 0 0 1 0"/>
	</filter>
</defs>
<mask maskUnits="userSpaceOnUse" x="28.7" y="50.5" width="609.9" height="568.4" id="mask0_1_">
	<path class="st1" d="M360.6,51.4L379,14h82.9v46.2H500l24.6,29l20.2,37.1h0.7v87.3h39.3l120.7,79.3v53.6h-16.9l-11,30.8h-1.1
		l-23.9,60.9h-17.6v4.4H652v32.3l-2.2,12.5v5.9l0.7,0.7v8.1l0.7,0.7v15.4l-0.7,0.7v10.3l-18.3,51.7l-12.8,12.5L594,605.5h-66.1v18
		c0,7.3-12.7,14.8-19.1,17.6l-15.4,1.8h-7.7l-11-1.8c-9.4-7.6-15.9-13.7-20.9-18.4v0h0c-4-3.8-6.9-6.6-9.5-8.3
		c-9.4-4.4-29.4-5.7-38.2-5.9v-7.3H401v10.3h-42.6v2.2l-3.7,8.1v2.9l0.7,0.7v5.1l0.7,0.7v3.7l4.4,11.7l3.7,2.2v48.4l-12.8,6.6H347
		l-61.3-5.1l-91-35.2l-8.8-45.5v-37.4c0-4.8-4.4-8.1-5.9-8.1h-7.7c-20.5-7.7-28.3-34.9-28.3-38.5v-37.8H56v-47.7H45V333.2h23.5
		v-37.4H40.6l-38.2-11V145.4l10.3-10.3h0.7l10.3-10.3h84.4l54.3-30.5l4,1.8l16.1-20.5l-8.1-7.3l12.1-16.9h127v7.3h8.8v-7.3H360.6z
		 M202.4,92.5l-4.4-4.4l-18,19.8l4.4,4.4L202.4,92.5z M314.4,77.8v8.8h8.8v-8.8H314.4z M385.6,134.3v-5.1h-62.4v-22.8h-8.8v6.6
		h-59.4v-3.7H252v3.7h-23.5l-11-8.4l-25.7,30.8v54.7h68.3v-2.9h21.3v-2.9h-10.3v-11h-11v-25.7l8.1-13.2h54.3v4.4h5.9v-4.4H385.6z
		 M428.1,129.9v4.4h57.2v23.5h33v-2.2h-8.8l-19.1-15.4v-10.3H428.1z M486.1,179.1h32.3v3.7h-3.7l-24.2,14.7v74.1h-4.4v-3.7h-3.7
		v-13.2h-2.9v-5.1h6.6V179.1z M322.4,155.6h5.9v5.1l56.5,21.3h58v67.5h7.3v5.9h-7.3v5.1H434v31.6h8.8v36.7h-4.4v-11h-58V207h-58
		V155.6z M180.8,275.3h78.5v-47h-68.3v8.8l-37.4,23.5l-10.6,9.5l8.1,9.5l-15,16.9h-36v36.7h19.1v2.9h2.9v-2.9h33v-29.4
		c0-5.1,6.2-16.9,10.6-19.4C170.5,277.8,177.2,276,180.8,275.3z M119.1,358.2h2.9v1.5h22.8v105.7h-42.6v-16.9l8.1-7.3h0.7l8.1-8.1
		V358.2z M406.1,407.4v-32.3h36.7v32.3H406.1z M233.6,313.4V334h-10.3v9.2c1.5,20.5,20.2,79.6,88.8,79.6v48.4h-42.6l-88.8-80v-77.8
		H233.6z M161.7,448.5h-2.2v2.9h2.2V448.5z M175.7,448.5h11v6.6l82.2,71.9v31.6h11.7v5.9h-11.7v47h6.6v5.1h-25
		c0-28.3-10.3-61.3-43.3-72.7c-1.3-0.4-3.4-0.4-6-0.4c-8.4,0-21.6-0.1-25.6-15V448.5z M304.8,611.4h-5.1v4.4l0.7,0.7h4.4V611.4z
		 M329.8,611.4h5.1v5.1h-5.1V611.4z M307,564.4v-5.9h8.1v-21.3h47v21.3h6.6v5.9H307z M401,574v-9.5h-5.1v-5.1h10.3v-89.5H365v-47
		h41.1c-0.2-1.7-0.6-5.1,0-5.1h36.7v152.7h-36.7v3.7H401z M527.2,542.4v22.8h27.9l0.7-0.7v-31.6h31.6v-67.5h-19.4l-13.6,36
		L518,524.8L527.2,542.4z M456,446.3v-4.4h15.4v4.4H456z M506.7,510.5l23.9-15.4l12.8-52.5h59.4v-4.4h-38.9v-46.2h-52.1l-20.5-19.1
		v-8.8h-5.9V469h5.9v16.9L506.7,510.5z M486.1,299.5v-2.9h5.1v31.6H470v-28.6H486.1z M298.2,184.2v2.9h4.4v-2.9H298.2z"/>
</mask>
<g class="st2">
	<path class="st3" d="M563.6,271.3h10.6"/>
	<circle class="st4" cx="87.2" cy="211.8" r="12.1"/>
	<path class="st3" d="M29.2,170.7v-21.3h21.3v21.3H29.2z"/>
	<path class="st3" d="M29.2,170.7v26.4h2.2v-26.4H29.2z"/>
	<path class="st3" d="M29.2,250.1v21.3h21.3v-21.3H29.2z"/>
	<path class="st3" d="M29.2,250.1v-26.4h2.2v26.4H29.2z"/>
	<path class="st3" d="M160.8,191.1v-46.7h-3.7v46.7H160.8z"/>
	<path class="st3" d="M200.1,202.3v-12.2h22.8v12.2H200.1z"/>
	<path class="st3" d="M228.2,202.3v-12.2h-5.3v12.2H228.2z"/>
	<path class="st3" d="M65.8,396H44v10.6h21.8V396z"/>
	<path class="st3" d="M54.7,396v10.6"/>
	<path class="st3" d="M55.7,449.1h46.7"/>
	<path class="st3" d="M102.4,454.4H55.7"/>
	<path class="st3" d="M248.9,288.2V275H259v13.3H248.9z"/>
	<path class="st3" d="M297.2,318h-63.7v-3.7h60v-38.7h3.7V318z"/>
	<path class="st3" d="M289.8,302h3.7v12.2h-12.2l6.9-6.9L289.8,302z"/>
	<path class="st5" d="M281.8,328.6h-11.7v-5.3V318h11.7v5.3V328.6z"/>
	<path class="st3" d="M281.8,323.3v5.3h-11.7v-5.3 M281.8,323.3V318h-11.7v5.3 M281.8,323.3h-11.7"/>
	<path class="st3" d="M281.3,186.6h41.4"/>
	<path class="st3" d="M311.5,197.5v-10.6h11.7v14.9h-0.5h-8v-4.2H311.5z"/>
	<path class="st3" d="M314.7,197.5h8"/>
	<path class="st3" d="M311.5,192.7h11.1"/>
	<path class="st3" d="M307.3,233l-20.2,3.7l2.1,10.6l20.7-4.8L307.3,233z"/>
	<path class="st3" d="M322.2,247.9l-1.1-11.1l10.6-1.1l1.6,11.1L322.2,247.9z"/>
	<path class="st3" d="M349.8,247.4l-3.7-2.1l-4.8,9l4.2,2.7L349.8,247.4z"/>
	<path class="st3" d="M364.6,260.1h15.9v11.1h-11.7v-5.8h-4.2V260.1z"/>
	<path class="st3" d="M368.9,265.4v-5.3"/>
	<circle class="st4" cx="338.1" cy="370.5" r="13.8"/>
	<path class="st3" d="M303,365.2h22.3l-1.1,4.2v4.2l1.1,3.2H303V365.2z"/>
	<path class="st3" d="M361.4,348.2l-12.7,12.2l1.6,3.7l1.6,3.7v4.2l17.5-17L361.4,348.2z"/>
	<path class="st3" d="M441.8,327.8l-12.5,11.3"/>
	<path class="st3" d="M406.7,365.2h35.6v10.6h-35.6V365.2z"/>
	<path class="st3" d="M442.3,328.6v4.8H438v26.5h4.2v15.4"/>
	<path class="st3" d="M412.9,407.1v10.6"/>
	<path class="st3" d="M436.8,407.1v10.6"/>
	<path class="st3" d="M442.6,466.4h17.5v2.1h-17.5"/>
	<path class="st3" d="M485.6,466.4h-17v2.1h17"/>
	<path class="st3" d="M473.9,476.1v-7.4h18.6V483h-1.1L473.9,476.1z"/>
	<path class="st3" d="M479.8,468.7v5.8h-0.5v3.7"/>
	<path class="st3" d="M491.5,474.5h-11.7"/>
	<path class="st3" d="M483.5,479.8v-5.3"/>
	<path class="st3" d="M478.7,607.7c0.5-2.1,2.7-3.2,4.8-3.2h6.4c2.1,0,6.9-2.1,10.1-2.7s2.1,0.5,2.7,2.7c0.5,2.1-2.1,5.8-2.7,6.9
		s-3.7,3.7-5.3,3.7c-1.6,0-2.7,3.2-4.2,3.2h-6.9c-2.1,0-4.8-3.7-4.8-4.8S478.2,609.9,478.7,607.7z"/>
	<path class="st3" d="M489.9,570.1c-0.5,2.1-4.2,2.1-6.4,1.6c-0.4,0-1.3-0.2-2.1-1.1c-1.1-1.1-3.2,0.5-6.4-0.5
		c-3.2-1.1-2.1-4.2-2.7-4.8c-0.5-0.5,0.5-2.1,1.1-2.1c0.5,0,0-2.7,1.6-3.7c1.6-1.1-0.5-3.7-0.5-4.8c0-1.1,1.1-3.7,2.1-3.7
		c1.1,0,2.1-1.1,2.7-2.7c0.5-1.6,2.7-2.7,5.3-2.7c2.7,0,4.2,1.1,7.4,2.7c3.2,1.6,3.2,7.4,3.2,9.6s-0.5,4.8-1.6,5.3
		C492.5,563.7,490.4,567.9,489.9,570.1z"/>
	<path class="st3" d="M586.9,532.2c0,4.2-0.5,29.7-32.3,32.3"/>
	<path class="st3" d="M549.1,605.5c8.4-4,55.4-14.4,74.7-76.3c3.4-38.6,9.8-69.4,14.5-86.8"/>
	<path class="st3" d="M579.6,402.5H562v-10.1h17.5V402.5z"/>
	<path class="st3" d="M542.9,386.4v7.4H527v-13.3h10.1v5.8H542.9z"/>
	<path class="st3" d="M537.1,386.4v5.8"/>
	<path class="st3" d="M574.3,281.3v-27.1h-4.8v5.3H553v11.7h10.6v10.1H574.3z"/>
	<path class="st3" d="M569.5,259.6h4.8"/>
	<path class="st3" d="M563.6,271.3v-11.7"/>
	<path class="st3" d="M508.4,220.1v77h-17.5"/>
	<path class="st3" d="M495.2,311.9h-4.8v-14.9h15.9v10.6h-11.1V311.9z"/>
	<path class="st3" d="M502.1,307.7v-10.6"/>
	<path class="st3" d="M495.2,307.7h-4.2"/>
	<path class="st3" d="M488.8,296.7v-25.5"/>
	<path class="st3" d="M479.8,253.2h-14.9"/>
	<path class="st3" d="M449.5,250.6l8.5-11.7"/>
	<path class="st3" d="M518,157.9h27.6"/>
	<path class="st3" d="M518,181.9h27.6"/>
	<path class="st3" d="M518,155.6h27.6"/>
	<path class="st3" d="M518,179.1h27.6"/>
	<path class="st5" d="M497.3,69.6h10.6l1.1-3.2l-6.4-8h-7.4V60L497.3,69.6z"/>
	<path class="st5" d="M487.2,64.8V60v-1.6h-7.4V60v4.8H487.2z"/>
	<path class="st5" d="M466,64.3V60v-1.6h-3.6v1.1v1.2h-2.3v3.5H466z"/>
	<path class="st3" d="M497.3,69.6h10.6l1.1-3.2l-6.4-8h-7.4V60L497.3,69.6z"/>
	<path class="st3" d="M487.2,64.8V60v-1.6h-7.4V60v4.8H487.2z"/>
	<path class="st3" d="M466,64.3V60v-1.6h-3.6v1.1v1.2h-2.3v3.5H466z"/>
	<path class="st3" d="M375.8,134.3v10.1h-11.1v-10.1H375.8z"/>
	<path class="st3" d="M375.8,149.7h-11.1v-5.3h11.1V149.7z"/>
	<path class="st3" d="M251.6,55.2V51h5.3v4.2H251.6z"/>
	<path class="st3" d="M305.7,54.7V51h8.5v5.3h-4.8v-1.6H305.7z"/>
	<path class="st3" d="M310.5,79.7h4.2V85h-4.2V79.7z"/>
	<path class="st3" d="M311,107.8h3.7v5.8h-5.8v-4.8h2.1V107.8z"/>
	<path class="st3" d="M470.8,328v36.6h14.9"/>
</g>
<g>
	<path class="st6" d="M293,670.5h-2.5l-1-3.1h-5l-1,3.1h-2l4.3-13.1h2.9L293,670.5z M288.8,665.5l-1.9-5.8l-1.9,5.8H288.8z"/>
	<path class="st6" d="M298.8,668.8v1.7c-0.7,0.1-1.2,0.2-1.5,0.2c-0.6,0-1.1-0.1-1.5-0.3c-0.4-0.2-0.7-0.6-0.9-1
		c-0.2-0.4-0.3-1-0.3-1.9v-5h-1.2v-1.7h1.3l0.2-2.5l1.8-0.2v2.7h1.9v1.7h-1.9v4.7c0,0.6,0.1,1,0.3,1.2s0.6,0.3,1.3,0.3
		C298.4,668.8,298.6,668.8,298.8,668.8z"/>
	<path class="st6" d="M305.1,668.8v1.7c-0.7,0.1-1.2,0.2-1.5,0.2c-0.6,0-1.1-0.1-1.5-0.3c-0.4-0.2-0.7-0.6-0.9-1
		c-0.2-0.4-0.3-1-0.3-1.9v-5h-1.2v-1.7h1.3l0.2-2.5l1.8-0.2v2.7h1.9v1.7H303v4.7c0,0.6,0.1,1,0.3,1.2s0.6,0.3,1.3,0.3
		C304.7,668.8,304.9,668.8,305.1,668.8z"/>
	<path class="st6" d="M315.2,670.5h-2.1c-0.2-0.6-0.3-1.2-0.3-2c-0.6,1.4-1.7,2.2-3.3,2.2c-1,0-1.7-0.3-2.3-0.8
		c-0.6-0.6-0.9-1.3-0.9-2.1c0-2.2,2-3.3,5.9-3.3c0.2,0,0.4,0,0.6,0v-0.7c0-1-0.7-1.5-2.1-1.5c-1.3,0-2.1,0.5-2.3,1.5l-1.9-0.3
		c0.1-0.8,0.5-1.5,1.2-2s1.8-0.8,3.2-0.8c0.7,0,1.4,0.1,1.8,0.2c0.5,0.1,0.9,0.3,1.2,0.6c0.3,0.3,0.6,0.6,0.7,1s0.2,0.9,0.2,1.8v4.4
		C314.9,669.2,315,669.8,315.2,670.5z M312.8,665.6c-2.8,0-4.2,0.7-4.2,2c0,0.4,0.1,0.7,0.4,1c0.3,0.3,0.7,0.4,1.3,0.4
		c0.8,0,1.5-0.3,1.9-0.8c0.4-0.5,0.6-1.1,0.6-1.8V665.6z"/>
	<path class="st6" d="M323.2,666.9l1.9,0.2c-0.2,1.2-0.7,2.1-1.4,2.7s-1.5,0.9-2.5,0.9c-1.3,0-2.4-0.5-3.1-1.5s-1.1-2.2-1.1-3.6
		c0-1.5,0.4-2.7,1.2-3.6s1.8-1.4,3.1-1.4c2.1,0,3.4,1.1,3.8,3.3l-1.9,0.3c-0.2-1.2-0.8-1.8-1.8-1.8c-0.7,0-1.3,0.3-1.6,1
		s-0.5,1.4-0.5,2.4c0,1,0.2,1.7,0.5,2.3s0.8,0.8,1.5,0.8C322.2,668.8,322.8,668.2,323.2,666.9z"/>
	<path class="st6" d="M335.8,670.5h-2.3l-2.5-5l-2.1,2.4v2.6h-2.1v-13.1h2.1v8.1c0.2-0.2,0.3-0.4,0.4-0.5l3.8-4.2h2.4l-2.9,3.2
		L335.8,670.5z"/>
</g>
<g>
	<path class="st7" d="M381.9,47.6V34.5h4.8c1.8,0,3.2,0.6,4.3,1.9c1.1,1.3,1.6,2.8,1.6,4.7c0,1.9-0.6,3.4-1.7,4.7
		c-1.1,1.2-2.7,1.9-4.8,1.9H381.9z M384.3,45.7h2c1.1,0,2-0.4,2.7-1.2c0.7-0.8,1.1-2,1.1-3.5c0-1.3-0.3-2.4-1-3.2
		c-0.6-0.9-1.5-1.3-2.5-1.3h-2.2V45.7z"/>
	<path class="st7" d="M400.9,44.5l2,0.3c-0.3,0.9-0.8,1.6-1.5,2.2s-1.7,0.9-2.8,0.9c-1.3,0-2.4-0.5-3.2-1.4
		c-0.8-0.9-1.2-2.1-1.2-3.7c0-1.5,0.4-2.7,1.2-3.6c0.8-1,1.9-1.4,3.4-1.4c1.4,0,2.4,0.5,3.2,1.4s1.1,2.2,1.1,3.6l0,0.2h-6.6
		c0,0.7,0.1,1.2,0.2,1.6s0.4,0.7,0.7,1c0.4,0.3,0.8,0.4,1.4,0.4C399.8,46.1,400.5,45.6,400.9,44.5z M400.7,41.6
		c0-0.7-0.2-1.3-0.6-1.7c-0.4-0.4-0.9-0.7-1.5-0.7c-0.6,0-1.1,0.2-1.5,0.6c-0.4,0.4-0.6,1-0.7,1.8H400.7z"/>
	<path class="st7" d="M407.5,47.6h-2.1v-8h-1.4v-1.7h1.4v-0.5c0-0.9,0.2-1.7,0.7-2.3s1.4-0.9,2.8-0.9c0.2,0,0.5,0,0.8,0V36
		c-0.3,0-0.5,0-0.6,0c-0.5,0-0.9,0.1-1.1,0.2c-0.2,0.1-0.3,0.3-0.4,0.5c0,0.2-0.1,0.6-0.1,1.2h2.1v1.7h-2.1V47.6z"/>
	<path class="st7" d="M417.2,44.5l2,0.3c-0.3,0.9-0.8,1.6-1.5,2.2s-1.7,0.9-2.8,0.9c-1.3,0-2.4-0.5-3.2-1.4
		c-0.8-0.9-1.2-2.1-1.2-3.7c0-1.5,0.4-2.7,1.2-3.6c0.8-1,1.9-1.4,3.4-1.4c1.4,0,2.4,0.5,3.2,1.4s1.1,2.2,1.1,3.6l0,0.2h-6.6
		c0,0.7,0.1,1.2,0.2,1.6s0.4,0.7,0.7,1c0.4,0.3,0.8,0.4,1.4,0.4C416.1,46.1,416.8,45.6,417.2,44.5z M417.1,41.6
		c0-0.7-0.2-1.3-0.6-1.7c-0.4-0.4-0.9-0.7-1.5-0.7c-0.6,0-1.1,0.2-1.5,0.6c-0.4,0.4-0.6,1-0.7,1.8H417.1z"/>
	<path class="st7" d="M429.4,47.6h-2.2v-6.1c0-0.6-0.1-1.1-0.4-1.4c-0.3-0.3-0.6-0.5-1.1-0.5c-0.6,0-1.1,0.2-1.5,0.7
		c-0.4,0.5-0.6,1.3-0.6,2.3v5h-2.2v-9.7h2v2.2c0.7-1.6,1.7-2.4,2.9-2.4c0.9,0,1.6,0.3,2.2,0.8c0.6,0.5,0.9,1.5,0.9,2.8V47.6z"/>
	<path class="st7" d="M430.8,45.4l2.1-0.4c0.3,0.8,1,1.2,2.1,1.2c1.4,0,2-0.4,2-1.2c0-0.3-0.1-0.5-0.3-0.6c-0.2-0.2-0.5-0.3-0.7-0.3
		l-1.8-0.3c-2-0.4-2.9-1.3-2.9-2.9c0-0.9,0.3-1.6,0.9-2.2s1.5-0.9,2.8-0.9c2,0,3.3,0.8,3.8,2.3l-1.9,0.4c-0.2-0.7-0.8-1.1-1.7-1.1
		c-1.2,0-1.7,0.4-1.7,1.1c0,0.5,0.5,0.9,1.4,1l2.1,0.4c1.6,0.3,2.4,1.3,2.4,2.8c0,1.1-0.4,1.9-1.2,2.4c-0.8,0.5-1.8,0.8-3,0.8
		c-1,0-1.9-0.2-2.6-0.6C431.5,46.8,431,46.2,430.8,45.4z"/>
	<path class="st7" d="M447.1,44.5l2,0.3c-0.3,0.9-0.8,1.6-1.5,2.2s-1.7,0.9-2.8,0.9c-1.3,0-2.4-0.5-3.2-1.4
		c-0.8-0.9-1.2-2.1-1.2-3.7c0-1.5,0.4-2.7,1.2-3.6c0.8-1,1.9-1.4,3.4-1.4c1.4,0,2.4,0.5,3.2,1.4s1.1,2.2,1.1,3.6l0,0.2h-6.6
		c0,0.7,0.1,1.2,0.2,1.6s0.4,0.7,0.7,1c0.4,0.3,0.8,0.4,1.4,0.4C446,46.1,446.7,45.6,447.1,44.5z M446.9,41.6c0-0.7-0.2-1.3-0.6-1.7
		c-0.4-0.4-0.9-0.7-1.5-0.7c-0.6,0-1.1,0.2-1.5,0.6c-0.4,0.4-0.6,1-0.7,1.8H446.9z"/>
</g>
<g>
	<path class="st8" d="M185.1,569.6l1.7-0.4c0.2,0.9,1,1.4,2.3,1.4c0.6,0,1.1-0.1,1.4-0.4c0.3-0.2,0.5-0.5,0.5-0.9
		c0-0.3-0.1-0.5-0.2-0.7c-0.1-0.2-0.5-0.4-1-0.5l-1.8-0.5c-0.6-0.2-1.1-0.3-1.4-0.6s-0.5-0.5-0.7-0.9c-0.2-0.4-0.3-0.8-0.3-1.2
		c0-0.9,0.3-1.5,1-2.1c0.6-0.5,1.4-0.8,2.4-0.8c0.8,0,1.6,0.2,2.2,0.5c0.6,0.4,1.1,0.9,1.2,1.5l-1.6,0.4c-0.3-0.7-0.8-1.1-1.8-1.1
		c-0.5,0-0.9,0.1-1.2,0.3s-0.4,0.5-0.4,0.9c0,0.5,0.4,0.9,1.3,1.2l1.6,0.4c1,0.2,1.6,0.6,2,1.1c0.3,0.5,0.5,1,0.5,1.6
		c0,0.9-0.4,1.7-1.1,2.2s-1.6,0.8-2.8,0.8c-0.9,0-1.8-0.2-2.5-0.6C185.8,571.1,185.3,570.5,185.1,569.6z"/>
	<path class="st8" d="M200.1,571.9h-1.6v-4.4c0-0.5-0.1-0.8-0.3-1.1c-0.2-0.2-0.5-0.4-0.8-0.4c-0.4,0-0.8,0.2-1.1,0.5
		c-0.3,0.4-0.5,0.9-0.5,1.6v3.6h-1.6v-7.1h1.5v1.6c0.5-1.2,1.2-1.8,2.1-1.8c0.6,0,1.2,0.2,1.6,0.6c0.4,0.4,0.7,1.1,0.7,2.1V571.9z"
		/>
	<path class="st8" d="M208,571.9h-1.5c-0.1-0.4-0.2-0.9-0.2-1.4c-0.4,1.1-1.2,1.6-2.4,1.6c-0.7,0-1.3-0.2-1.7-0.6s-0.6-0.9-0.6-1.6
		c0-1.6,1.4-2.4,4.3-2.4c0.1,0,0.3,0,0.5,0v-0.5c0-0.7-0.5-1.1-1.5-1.1c-1,0-1.5,0.4-1.7,1.1l-1.4-0.2c0.1-0.6,0.4-1.1,0.9-1.5
		c0.5-0.4,1.3-0.6,2.3-0.6c0.5,0,1,0,1.3,0.1c0.3,0.1,0.6,0.2,0.9,0.5c0.2,0.2,0.4,0.5,0.5,0.7c0.1,0.3,0.1,0.7,0.1,1.3v3.2
		C207.8,571,207.9,571.5,208,571.9z M206.3,568.3c-2.1,0-3.1,0.5-3.1,1.5c0,0.3,0.1,0.5,0.3,0.8s0.5,0.3,0.9,0.3
		c0.6,0,1.1-0.2,1.4-0.6s0.5-0.8,0.5-1.3V568.3z"/>
	<path class="st8" d="M216.3,571.9h-1.7l-1.8-3.6l-1.6,1.8v1.9h-1.5v-9.6h1.5v5.9c0.1-0.2,0.2-0.3,0.3-0.4l2.8-3.1h1.7l-2.1,2.3
		L216.3,571.9z"/>
	<path class="st8" d="M221.7,569.7l1.4,0.2c-0.2,0.6-0.6,1.2-1.1,1.6c-0.5,0.4-1.2,0.6-2,0.6c-1,0-1.8-0.3-2.4-1s-0.9-1.6-0.9-2.7
		c0-1.1,0.3-2,0.9-2.7c0.6-0.7,1.4-1.1,2.5-1.1c1,0,1.8,0.3,2.3,1s0.8,1.6,0.8,2.7l0,0.2h-4.9c0,0.5,0,0.9,0.1,1.2s0.3,0.5,0.5,0.8
		s0.6,0.3,1,0.3C220.9,570.8,221.4,570.5,221.7,569.7z M221.6,567.6c0-0.5-0.2-0.9-0.5-1.2c-0.3-0.3-0.7-0.5-1.1-0.5
		c-0.4,0-0.8,0.2-1.1,0.5c-0.3,0.3-0.5,0.7-0.5,1.3H221.6z"/>
</g>
<g>
	<path class="st8" d="M66.9,483v-9.6h3.7c0.6,0,1.2,0.1,1.6,0.2c0.4,0.1,0.8,0.4,1.1,0.8c0.3,0.4,0.5,0.9,0.5,1.5
		c0,0.5-0.2,1-0.5,1.4s-0.7,0.6-1.3,0.7c0.7,0.1,1.2,0.4,1.5,0.8c0.3,0.4,0.5,0.9,0.5,1.5c0,0.7-0.2,1.4-0.7,1.9
		c-0.5,0.5-1.2,0.8-2.2,0.8H66.9z M68.5,477.5h2.1c0.4,0,0.8-0.1,1-0.4c0.2-0.3,0.4-0.6,0.4-1c0-0.4-0.1-0.8-0.4-1s-0.6-0.3-1-0.3
		h-2.1V477.5z M68.5,481.6h2.2c0.5,0,0.8-0.1,1.1-0.4s0.4-0.6,0.4-1c0-0.4-0.1-0.7-0.4-1c-0.3-0.3-0.6-0.4-1.1-0.4h-2.2V481.6z"/>
	<path class="st8" d="M90.7,473.4l-2.6,9.6h-1.8l-1.9-7l-1.7,7h-1.8l-2.6-9.6h1.8l1.9,7l1.7-7h1.7l1.9,7l1.8-7H90.7z"/>
	<path class="st8" d="M93.4,475.1h-1.6v-1.7h1.6V475.1z M93.4,483h-1.6v-7.1h1.6V483z"/>
	<path class="st8" d="M101.2,483h-1.6v-4.4c0-0.5-0.1-0.8-0.3-1.1c-0.2-0.2-0.5-0.4-0.8-0.4c-0.4,0-0.8,0.2-1.1,0.5
		c-0.3,0.4-0.5,0.9-0.5,1.6v3.6h-1.6v-7.1h1.5v1.6c0.5-1.2,1.2-1.8,2.1-1.8c0.6,0,1.2,0.2,1.6,0.6c0.4,0.4,0.7,1.1,0.7,2.1V483z"/>
	<path class="st8" d="M108.9,483h-1.5v-1.4c-0.4,1.1-1.1,1.6-2.1,1.6c-0.9,0-1.5-0.4-2-1.1c-0.5-0.7-0.7-1.6-0.7-2.7
		c0-1,0.2-1.9,0.7-2.6c0.5-0.7,1.2-1.1,2.1-1.1c0.9,0,1.5,0.4,1.9,1.2v-3.5h1.6V483z M107.3,478.8c0-0.6-0.1-1-0.4-1.3
		s-0.6-0.5-1.1-0.5c-0.5,0-0.8,0.2-1.1,0.6s-0.4,1-0.4,1.8c0,1.6,0.5,2.4,1.5,2.4c0.4,0,0.7-0.2,1-0.5s0.5-0.8,0.5-1.3V478.8z"/>
	<path class="st8" d="M113.6,483.2c-1,0-1.8-0.4-2.4-1.1c-0.6-0.8-0.8-1.6-0.8-2.6c0-1,0.3-1.9,0.9-2.6c0.6-0.7,1.4-1,2.4-1
		c0.9,0,1.7,0.3,2.3,1c0.6,0.7,0.9,1.6,0.9,2.6c0,1.1-0.3,2-1,2.7C115.4,482.8,114.5,483.2,113.6,483.2z M113.6,481.8
		c1.1,0,1.6-0.8,1.6-2.4c0-0.7-0.1-1.3-0.4-1.7c-0.3-0.4-0.7-0.6-1.2-0.6c-0.6,0-1,0.2-1.2,0.6c-0.3,0.4-0.4,1-0.4,1.7
		c0,0.8,0.1,1.4,0.4,1.8C112.8,481.6,113.1,481.8,113.6,481.8z"/>
	<path class="st8" d="M127.2,475.9l-2.1,7.1h-1.4l-1.3-5l-1.3,5h-1.5l-2.2-7.1h1.7l1.4,4.8l1.2-4.8h1.5l1.2,4.8l1.4-4.8H127.2z"/>
</g>
<g>
	<path class="st8" d="M61.7,360.2v-9.6h3.7c0.6,0,1.2,0.1,1.6,0.2c0.4,0.1,0.8,0.4,1.1,0.8c0.3,0.4,0.5,0.9,0.5,1.5
		c0,0.5-0.2,1-0.5,1.4s-0.7,0.6-1.3,0.7c0.7,0.1,1.2,0.4,1.5,0.8c0.3,0.4,0.5,0.9,0.5,1.5c0,0.7-0.2,1.4-0.7,1.9
		c-0.5,0.5-1.2,0.8-2.2,0.8H61.7z M63.3,354.6h2.1c0.4,0,0.8-0.1,1-0.4c0.2-0.3,0.4-0.6,0.4-1c0-0.4-0.1-0.8-0.4-1s-0.6-0.3-1-0.3
		h-2.1V354.6z M63.3,358.7h2.2c0.5,0,0.8-0.1,1.1-0.4s0.4-0.6,0.4-1c0-0.4-0.1-0.7-0.4-1c-0.3-0.3-0.6-0.4-1.1-0.4h-2.2V358.7z"/>
	<path class="st8" d="M83.4,360.2h-1.8v-8.4l-2.7,8.4h-0.9l-2.7-8.4v8.4H74v-9.6h2.7l2,6.2l2-6.2h2.7V360.2z"/>
	<path class="st8" d="M91.5,360.2h-1.5c-0.1-0.4-0.2-0.9-0.2-1.4c-0.4,1.1-1.2,1.6-2.4,1.6c-0.7,0-1.3-0.2-1.7-0.6s-0.6-0.9-0.6-1.6
		c0-1.6,1.4-2.4,4.3-2.4c0.1,0,0.3,0,0.5,0v-0.5c0-0.7-0.5-1.1-1.5-1.1c-1,0-1.5,0.4-1.7,1.1l-1.4-0.2c0.1-0.6,0.4-1.1,0.9-1.5
		c0.5-0.4,1.3-0.6,2.3-0.6c0.5,0,1,0,1.3,0.1c0.3,0.1,0.6,0.2,0.9,0.5c0.2,0.2,0.4,0.5,0.5,0.7c0.1,0.3,0.1,0.7,0.1,1.3v3.2
		C91.2,359.2,91.3,359.7,91.5,360.2z M89.7,356.5c-2.1,0-3.1,0.5-3.1,1.5c0,0.3,0.1,0.5,0.3,0.8s0.5,0.3,0.9,0.3
		c0.6,0,1.1-0.2,1.4-0.6s0.5-0.8,0.5-1.3V356.5z"/>
	<path class="st8" d="M94.8,352.2h-1.6v-1.7h1.6V352.2z M94.8,360.2h-1.6v-7.1h1.6V360.2z"/>
	<path class="st8" d="M102.5,360.2h-1.6v-4.4c0-0.5-0.1-0.8-0.3-1.1c-0.2-0.2-0.5-0.4-0.8-0.4c-0.4,0-0.8,0.2-1.1,0.5
		c-0.3,0.4-0.5,0.9-0.5,1.6v3.6h-1.6v-7.1h1.5v1.6c0.5-1.2,1.2-1.8,2.1-1.8c0.6,0,1.2,0.2,1.6,0.6c0.4,0.4,0.7,1.1,0.7,2.1V360.2z"
		/>
</g>
<g>
	<path class="st8" d="M181.1,302v-9.6h3.7c0.6,0,1.2,0.1,1.6,0.2c0.4,0.1,0.8,0.4,1.1,0.8c0.3,0.4,0.5,0.9,0.5,1.5
		c0,0.5-0.2,1-0.5,1.4s-0.7,0.6-1.3,0.7c0.7,0.1,1.2,0.4,1.5,0.8c0.3,0.4,0.5,0.9,0.5,1.5c0,0.7-0.2,1.4-0.7,1.9
		c-0.5,0.5-1.2,0.8-2.2,0.8H181.1z M182.8,296.5h2.1c0.4,0,0.8-0.1,1-0.4c0.2-0.3,0.4-0.6,0.4-1c0-0.4-0.1-0.8-0.4-1
		c-0.3-0.2-0.6-0.3-1-0.3h-2.1V296.5z M182.8,300.6h2.2c0.5,0,0.8-0.1,1.1-0.4s0.4-0.6,0.4-1c0-0.4-0.1-0.7-0.4-1
		c-0.3-0.3-0.6-0.4-1.1-0.4h-2.2V300.6z"/>
	<path class="st8" d="M199.7,302h-6.2v-9.6h6.2v1.4h-4.4v2.6h3.6v1.4h-3.6v2.7h4.5V302z"/>
	<path class="st8" d="M202.6,302H201v-9.6h1.6V302z"/>
	<path class="st8" d="M205.3,302h-0.7v-9.6h1.6v3.5c0.3-0.5,0.6-0.9,0.9-1c0.3-0.2,0.7-0.3,1.1-0.3c0.8,0,1.4,0.3,1.9,1
		s0.8,1.6,0.8,2.7c0,1.1-0.3,2-0.8,2.7c-0.5,0.7-1.2,1.1-2.2,1.1c-0.9,0-1.7-0.4-2.2-1.3L205.3,302z M206.2,299
		c0,0.6,0.1,1.1,0.4,1.4c0.3,0.3,0.6,0.5,1.1,0.5c0.4,0,0.8-0.2,1.1-0.5c0.3-0.3,0.4-1,0.5-2c0-0.7-0.1-1.3-0.4-1.7
		c-0.3-0.4-0.6-0.6-1.1-0.6c-0.4,0-0.8,0.2-1.1,0.5s-0.4,0.8-0.4,1.4V299z"/>
	<path class="st8" d="M215.1,302.2c-1,0-1.8-0.4-2.4-1.1s-0.8-1.6-0.8-2.6c0-1,0.3-1.9,0.9-2.6s1.4-1,2.4-1c0.9,0,1.7,0.3,2.3,1
		s0.9,1.6,0.9,2.6c0,1.1-0.3,2-1,2.7C216.8,301.8,216,302.2,215.1,302.2z M215.1,300.9c1.1,0,1.6-0.8,1.6-2.4c0-0.7-0.1-1.3-0.4-1.7
		c-0.3-0.4-0.7-0.6-1.2-0.6c-0.6,0-1,0.2-1.2,0.6s-0.4,1-0.4,1.7c0,0.8,0.1,1.4,0.4,1.8C214.2,300.7,214.6,300.9,215.1,300.9z"/>
	<path class="st8" d="M228.7,295l-2.1,7.1h-1.4l-1.3-5l-1.3,5h-1.5l-2.2-7.1h1.7l1.4,4.8l1.2-4.8h1.5l1.2,4.8l1.4-4.8H228.7z"/>
</g>
<g>
	<path class="st8" d="M201.1,220.1v-9.6h3.7c0.6,0,1.2,0.1,1.6,0.2c0.4,0.1,0.8,0.4,1.1,0.8c0.3,0.4,0.5,0.9,0.5,1.5
		c0,0.5-0.2,1-0.5,1.4s-0.7,0.6-1.3,0.7c0.7,0.1,1.2,0.4,1.5,0.8c0.3,0.4,0.5,0.9,0.5,1.5c0,0.7-0.2,1.4-0.7,1.9
		c-0.5,0.5-1.2,0.8-2.2,0.8H201.1z M202.8,214.6h2.1c0.4,0,0.8-0.1,1-0.4c0.2-0.3,0.4-0.6,0.4-1c0-0.4-0.1-0.8-0.4-1
		c-0.3-0.2-0.6-0.3-1-0.3h-2.1V214.6z M202.8,218.7h2.2c0.5,0,0.8-0.1,1.1-0.4s0.4-0.6,0.4-1c0-0.4-0.1-0.7-0.4-1
		c-0.3-0.3-0.6-0.4-1.1-0.4h-2.2V218.7z"/>
	<path class="st8" d="M216.8,220.1h-1.9V212h-2.5v-1.5h6.9v1.5h-2.5V220.1z"/>
	<path class="st8" d="M225.4,220.1h-1.5v-1.5c-0.4,1.1-1.1,1.7-2.2,1.7c-0.6,0-1.2-0.2-1.5-0.6c-0.4-0.4-0.6-1-0.6-1.7v-5h1.6v4.6
		c0,0.5,0.1,0.8,0.3,1c0.2,0.2,0.4,0.2,0.7,0.2c0.3,0,0.7-0.2,1.1-0.5c0.4-0.3,0.5-1,0.5-2V213h1.6V220.1z"/>
	<path class="st8" d="M233.1,220.1h-1.6v-4.4c0-0.5-0.1-0.8-0.3-1.1c-0.2-0.2-0.5-0.4-0.8-0.4c-0.4,0-0.8,0.2-1.1,0.5
		c-0.3,0.4-0.5,0.9-0.5,1.6v3.6h-1.6V213h1.5v1.6c0.5-1.2,1.2-1.8,2.1-1.8c0.6,0,1.2,0.2,1.6,0.6c0.4,0.4,0.7,1.1,0.7,2.1V220.1z"/>
	<path class="st8" d="M240.9,220.1h-1.6v-4.4c0-0.5-0.1-0.8-0.3-1.1c-0.2-0.2-0.5-0.4-0.8-0.4c-0.4,0-0.8,0.2-1.1,0.5
		c-0.3,0.4-0.5,0.9-0.5,1.6v3.6h-1.6V213h1.5v1.6c0.5-1.2,1.2-1.8,2.1-1.8c0.6,0,1.2,0.2,1.6,0.6c0.4,0.4,0.7,1.1,0.7,2.1V220.1z"/>
	<path class="st8" d="M247.3,217.9l1.4,0.2c-0.2,0.6-0.6,1.2-1.1,1.6c-0.5,0.4-1.2,0.6-2,0.6c-1,0-1.8-0.3-2.4-1
		c-0.6-0.7-0.9-1.6-0.9-2.7c0-1.1,0.3-2,0.9-2.7c0.6-0.7,1.4-1.1,2.5-1.1c1,0,1.8,0.3,2.3,1s0.8,1.6,0.8,2.7l0,0.2H244
		c0,0.5,0,0.9,0.1,1.2c0.1,0.3,0.3,0.5,0.5,0.8c0.3,0.2,0.6,0.3,1,0.3C246.5,219,247.1,218.6,247.3,217.9z M247.2,215.7
		c0-0.5-0.2-0.9-0.5-1.2c-0.3-0.3-0.7-0.5-1.1-0.5c-0.4,0-0.8,0.2-1.1,0.5c-0.3,0.3-0.5,0.7-0.5,1.3H247.2z"/>
	<path class="st8" d="M252,220.1h-1.6v-9.6h1.6V220.1z"/>
</g>
<g>
	<path class="st8" d="M139.4,170.7v-9.6h3.7c0.6,0,1.2,0.1,1.6,0.2c0.4,0.1,0.8,0.4,1.1,0.8c0.3,0.4,0.5,0.9,0.5,1.5
		c0,0.5-0.2,1-0.5,1.4s-0.7,0.6-1.3,0.7c0.7,0.1,1.2,0.4,1.5,0.8c0.3,0.4,0.5,0.9,0.5,1.5c0,0.7-0.2,1.4-0.7,1.9
		c-0.5,0.5-1.2,0.8-2.2,0.8H139.4z M141.1,165.1h2.1c0.4,0,0.8-0.1,1-0.4c0.2-0.3,0.4-0.6,0.4-1c0-0.4-0.1-0.8-0.4-1
		c-0.3-0.2-0.6-0.3-1-0.3h-2.1V165.1z M141.1,169.2h2.2c0.5,0,0.8-0.1,1.1-0.4s0.4-0.6,0.4-1c0-0.4-0.1-0.7-0.4-1
		c-0.3-0.3-0.6-0.4-1.1-0.4h-2.2V169.2z"/>
	<path class="st8" d="M163.2,161.1l-2.6,9.6h-1.8l-1.9-7l-1.7,7h-1.8l-2.6-9.6h1.8l1.9,7l1.7-7h1.7l1.9,7l1.8-7H163.2z"/>
	<path class="st8" d="M170,170.7h-1.5c-0.1-0.4-0.2-0.9-0.2-1.4c-0.4,1.1-1.2,1.6-2.4,1.6c-0.7,0-1.3-0.2-1.7-0.6
		c-0.4-0.4-0.6-0.9-0.6-1.6c0-1.6,1.4-2.4,4.3-2.4c0.1,0,0.3,0,0.5,0v-0.5c0-0.7-0.5-1.1-1.5-1.1c-1,0-1.5,0.4-1.7,1.1l-1.4-0.2
		c0.1-0.6,0.4-1.1,0.9-1.5c0.5-0.4,1.3-0.6,2.3-0.6c0.5,0,1,0,1.3,0.1c0.3,0.1,0.6,0.2,0.9,0.5c0.2,0.2,0.4,0.5,0.5,0.7
		s0.1,0.7,0.1,1.3v3.2C169.8,169.7,169.9,170.2,170,170.7z M168.2,167.1c-2.1,0-3.1,0.5-3.1,1.5c0,0.3,0.1,0.5,0.3,0.8
		s0.5,0.3,0.9,0.3c0.6,0,1.1-0.2,1.4-0.6s0.5-0.8,0.5-1.3V167.1z"/>
	<path class="st8" d="M173.3,170.7h-1.6v-9.6h1.6V170.7z"/>
	<path class="st8" d="M176.8,170.7h-1.6v-9.6h1.6V170.7z"/>
</g>
<g>
	<path class="st8" d="M5.6,213v-9.6h3.7c0.6,0,1.2,0.1,1.6,0.2c0.4,0.1,0.8,0.4,1.1,0.8c0.3,0.4,0.5,0.9,0.5,1.5
		c0,0.5-0.2,1-0.5,1.4s-0.7,0.6-1.3,0.7c0.7,0.1,1.2,0.4,1.5,0.8c0.3,0.4,0.5,0.9,0.5,1.5c0,0.7-0.2,1.4-0.7,1.9
		c-0.5,0.5-1.2,0.8-2.2,0.8H5.6z M7.3,207.5h2.1c0.4,0,0.8-0.1,1-0.4c0.2-0.3,0.4-0.6,0.4-1c0-0.4-0.1-0.8-0.4-1
		c-0.3-0.2-0.6-0.3-1-0.3H7.3V207.5z M7.3,211.6h2.2c0.5,0,0.8-0.1,1.1-0.4s0.4-0.6,0.4-1c0-0.4-0.1-0.7-0.4-1
		c-0.3-0.3-0.6-0.4-1.1-0.4H7.3V211.6z"/>
	<path class="st8" d="M17.9,213v-9.6h3.7c0.6,0,1.2,0.1,1.6,0.2c0.4,0.1,0.8,0.4,1.1,0.8c0.3,0.4,0.5,0.9,0.5,1.5
		c0,0.5-0.2,1-0.5,1.4s-0.7,0.6-1.3,0.7c0.7,0.1,1.2,0.4,1.5,0.8c0.3,0.4,0.5,0.9,0.5,1.5c0,0.7-0.2,1.4-0.7,1.9
		c-0.5,0.5-1.2,0.8-2.2,0.8H17.9z M19.6,207.5h2.1c0.4,0,0.8-0.1,1-0.4c0.2-0.3,0.4-0.6,0.4-1c0-0.4-0.1-0.8-0.4-1
		c-0.3-0.2-0.6-0.3-1-0.3h-2.1V207.5z M19.6,211.6h2.2c0.5,0,0.8-0.1,1.1-0.4s0.4-0.6,0.4-1c0-0.4-0.1-0.7-0.4-1
		c-0.3-0.3-0.6-0.4-1.1-0.4h-2.2V211.6z"/>
	<path class="st8" d="M32.6,213h-1.5c-0.1-0.4-0.2-0.9-0.2-1.4c-0.4,1.1-1.2,1.6-2.4,1.6c-0.7,0-1.3-0.2-1.7-0.6
		c-0.4-0.4-0.6-0.9-0.6-1.6c0-1.6,1.4-2.4,4.3-2.4c0.1,0,0.3,0,0.5,0V208c0-0.7-0.5-1.1-1.5-1.1c-1,0-1.5,0.4-1.7,1.1l-1.4-0.2
		c0.1-0.6,0.4-1.1,0.9-1.5c0.5-0.4,1.3-0.6,2.3-0.6c0.5,0,1,0,1.3,0.1c0.3,0.1,0.6,0.2,0.9,0.5c0.2,0.2,0.4,0.5,0.5,0.7
		s0.1,0.7,0.1,1.3v3.2C32.4,212.1,32.5,212.5,32.6,213z M30.9,209.4c-2.1,0-3.1,0.5-3.1,1.5c0,0.3,0.1,0.5,0.3,0.8s0.5,0.3,0.9,0.3
		c0.6,0,1.1-0.2,1.4-0.6s0.5-0.8,0.5-1.3V209.4z"/>
	<path class="st8" d="M38.4,210.4l1.4,0.1c-0.2,0.9-0.5,1.5-1,2c-0.5,0.4-1.1,0.6-1.8,0.6c-1,0-1.7-0.4-2.3-1.1
		c-0.5-0.7-0.8-1.6-0.8-2.6c0-1.1,0.3-1.9,0.9-2.6s1.3-1,2.3-1c1.5,0,2.5,0.8,2.8,2.4l-1.4,0.2c-0.1-0.9-0.6-1.3-1.3-1.3
		c-0.5,0-0.9,0.2-1.2,0.7c-0.2,0.5-0.4,1-0.4,1.7c0,0.7,0.1,1.3,0.4,1.7s0.6,0.6,1.1,0.6C37.7,211.8,38.2,211.3,38.4,210.4z"/>
	<path class="st8" d="M47.7,213H46l-1.8-3.6l-1.6,1.8v1.9h-1.5v-9.6h1.5v5.9c0.1-0.2,0.2-0.3,0.3-0.4l2.8-3.1h1.7l-2.1,2.3L47.7,213
		z"/>
</g>
<g>
	<path class="st8" d="M324.6,228.3h-1.8v-8.4l-2.7,8.4h-0.9l-2.7-8.4v8.4h-1.4v-9.6h2.7l2,6.2l2-6.2h2.7V228.3z"/>
	<path class="st8" d="M328.3,220.4h-1.6v-1.7h1.6V220.4z M328.3,228.3h-1.6v-7.1h1.6V228.3z"/>
	<path class="st8" d="M336,228.3h-1.5v-1.4c-0.4,1.1-1.1,1.6-2.1,1.6c-0.9,0-1.5-0.4-2-1.1c-0.5-0.7-0.7-1.6-0.7-2.7
		c0-1,0.2-1.9,0.7-2.6c0.5-0.7,1.2-1.1,2.1-1.1c0.9,0,1.5,0.4,1.9,1.2v-3.5h1.6V228.3z M334.4,224.1c0-0.6-0.1-1-0.4-1.3
		s-0.6-0.5-1.1-0.5c-0.5,0-0.8,0.2-1.1,0.6s-0.4,1-0.4,1.8c0,1.6,0.5,2.4,1.5,2.4c0.4,0,0.7-0.2,1-0.5c0.3-0.3,0.5-0.8,0.5-1.3
		V224.1z"/>
	<path class="st8" d="M344.9,228.3h-1.9v-8.1h-2.5v-1.5h6.9v1.5h-2.5V228.3z"/>
	<path class="st8" d="M350.4,228.4c-1,0-1.8-0.4-2.4-1.1s-0.8-1.6-0.8-2.6c0-1,0.3-1.9,0.9-2.6s1.4-1,2.4-1c0.9,0,1.7,0.3,2.3,1
		s0.9,1.6,0.9,2.6c0,1.1-0.3,2-1,2.7C352.2,228.1,351.4,228.4,350.4,228.4z M350.5,227.1c1.1,0,1.6-0.8,1.6-2.4
		c0-0.7-0.1-1.3-0.4-1.7c-0.3-0.4-0.7-0.6-1.2-0.6c-0.6,0-1,0.2-1.2,0.6s-0.4,1-0.4,1.7c0,0.8,0.1,1.4,0.4,1.8
		C349.6,226.9,350,227.1,350.5,227.1z"/>
	<path class="st8" d="M356.9,230.7h-1.6v-9.5h1.5v1.2c0.5-0.9,1.2-1.4,2.2-1.4c0.8,0,1.4,0.3,1.9,1c0.5,0.7,0.7,1.6,0.7,2.6
		c0,1-0.2,1.9-0.7,2.6c-0.4,0.7-1.1,1.1-2,1.1c-0.9,0-1.6-0.4-2-1.1V230.7z M356.9,225.4c0,0.5,0.2,0.9,0.5,1.3
		c0.3,0.3,0.6,0.5,1,0.5c0.5,0,0.9-0.2,1.1-0.7c0.2-0.4,0.4-1,0.4-1.7c0-0.7-0.1-1.3-0.4-1.8c-0.2-0.5-0.6-0.7-1.1-0.7
		c-0.4,0-0.8,0.2-1.1,0.6c-0.3,0.4-0.4,0.9-0.4,1.5V225.4z"/>
</g>
<g>
	<path class="st8" d="M320.4,375.1h-1.8v-8.4l-2.7,8.4h-0.9l-2.7-8.4v8.4H311v-9.6h2.7l2,6.2l2-6.2h2.7V375.1z"/>
	<path class="st8" d="M324,367.2h-1.6v-1.7h1.6V367.2z M324,375.1h-1.6V368h1.6V375.1z"/>
	<path class="st8" d="M331.7,375.1h-1.5v-1.4c-0.4,1.1-1.1,1.6-2.1,1.6c-0.9,0-1.5-0.4-2-1.1c-0.5-0.7-0.7-1.6-0.7-2.7
		c0-1,0.2-1.9,0.7-2.6c0.5-0.7,1.2-1.1,2.1-1.1c0.9,0,1.5,0.4,1.9,1.2v-3.5h1.6V375.1z M330.1,370.9c0-0.6-0.1-1-0.4-1.3
		s-0.6-0.5-1.1-0.5c-0.5,0-0.8,0.2-1.1,0.6s-0.4,1-0.4,1.8c0,1.6,0.5,2.4,1.5,2.4c0.4,0,0.7-0.2,1-0.5s0.5-0.8,0.5-1.3V370.9z"/>
	<path class="st8" d="M339.1,375.1h-1.7v-9.6h3.9c1.1,0,1.9,0.3,2.5,0.8s0.8,1.2,0.8,2c0,0.9-0.3,1.6-0.9,2.1
		c-0.6,0.5-1.3,0.8-2.2,0.8h-2.4V375.1z M339.1,369.8h2c0.5,0,0.9-0.1,1.2-0.4s0.4-0.6,0.4-1c0-0.4-0.1-0.7-0.4-1
		c-0.3-0.3-0.7-0.4-1.4-0.4h-1.9V369.8z"/>
	<path class="st8" d="M347.5,367.2h-1.6v-1.7h1.6V367.2z M347.5,375.1h-1.6V368h1.6V375.1z"/>
	<path class="st8" d="M351,375.1h-1.6v-9.6h1.6V375.1z"/>
	<path class="st8" d="M354.5,375.1h-1.6v-9.6h1.6V375.1z"/>
	<path class="st8" d="M362.5,375.1h-1.5c-0.1-0.4-0.2-0.9-0.2-1.4c-0.4,1.1-1.2,1.6-2.4,1.6c-0.7,0-1.3-0.2-1.7-0.6
		c-0.4-0.4-0.6-0.9-0.6-1.6c0-1.6,1.4-2.4,4.3-2.4c0.1,0,0.3,0,0.5,0v-0.5c0-0.7-0.5-1.1-1.5-1.1c-1,0-1.5,0.4-1.7,1.1l-1.4-0.2
		c0.1-0.6,0.4-1.1,0.9-1.5c0.5-0.4,1.3-0.6,2.3-0.6c0.5,0,1,0,1.3,0.1c0.3,0.1,0.6,0.2,0.9,0.5c0.2,0.2,0.4,0.5,0.5,0.7
		c0.1,0.3,0.1,0.7,0.1,1.3v3.2C362.3,374.1,362.3,374.6,362.5,375.1z M360.7,371.5c-2.1,0-3.1,0.5-3.1,1.5c0,0.3,0.1,0.5,0.3,0.8
		c0.2,0.2,0.5,0.3,0.9,0.3c0.6,0,1.1-0.2,1.4-0.6c0.3-0.4,0.5-0.8,0.5-1.3V371.5z"/>
	<path class="st8" d="M365.8,375.1h-1.6V368h1.4v1.7c0.2-0.7,0.5-1.1,0.8-1.4c0.4-0.3,0.7-0.5,1.1-0.5c0.1,0,0.1,0,0.2,0v1.7
		c-0.8,0-1.4,0.3-1.6,0.8c-0.3,0.5-0.4,1-0.4,1.5V375.1z"/>
</g>
<g>
	<path class="st8" d="M250.1,334.1h-1.8v-8.4l-2.7,8.4h-0.9l-2.7-8.4v8.4h-1.4v-9.6h2.7l2,6.2l2-6.2h2.7V334.1z"/>
	<path class="st8" d="M253.8,326.2h-1.6v-1.7h1.6V326.2z M253.8,334.1h-1.6v-7.1h1.6V334.1z"/>
	<path class="st8" d="M261.5,334.1H260v-1.4c-0.4,1.1-1.1,1.6-2.1,1.6c-0.9,0-1.5-0.4-2-1.1c-0.5-0.7-0.7-1.6-0.7-2.7
		c0-1,0.2-1.9,0.7-2.6c0.5-0.7,1.2-1.1,2.1-1.1c0.9,0,1.5,0.4,1.9,1.2v-3.5h1.6V334.1z M259.9,330c0-0.6-0.1-1-0.4-1.3
		s-0.6-0.5-1.1-0.5c-0.5,0-0.8,0.2-1.1,0.6s-0.4,1-0.4,1.8c0,1.6,0.5,2.4,1.5,2.4c0.4,0,0.7-0.2,1-0.5c0.3-0.3,0.5-0.8,0.5-1.3V330z
		"/>
	<path class="st8" d="M266.1,331.8l1.7-0.4c0.2,0.9,1,1.4,2.3,1.4c0.6,0,1.1-0.1,1.4-0.4c0.3-0.2,0.5-0.5,0.5-0.9
		c0-0.3-0.1-0.5-0.2-0.7c-0.1-0.2-0.5-0.4-1-0.5l-1.8-0.5c-0.6-0.2-1.1-0.3-1.4-0.6s-0.5-0.5-0.7-0.9c-0.2-0.4-0.3-0.8-0.3-1.2
		c0-0.9,0.3-1.5,1-2.1c0.6-0.5,1.4-0.8,2.4-0.8c0.8,0,1.6,0.2,2.2,0.5c0.6,0.4,1.1,0.9,1.2,1.5l-1.6,0.4c-0.3-0.7-0.8-1.1-1.8-1.1
		c-0.5,0-0.9,0.1-1.2,0.3c-0.3,0.2-0.4,0.5-0.4,0.9c0,0.5,0.4,0.9,1.3,1.2l1.6,0.4c1,0.2,1.6,0.6,2,1.1c0.3,0.5,0.5,1,0.5,1.6
		c0,0.9-0.4,1.7-1.1,2.2c-0.7,0.5-1.6,0.8-2.8,0.8c-0.9,0-1.8-0.2-2.5-0.6C266.8,333.3,266.3,332.7,266.1,331.8z"/>
	<path class="st8" d="M278.4,332.9v1.2c-0.5,0.1-0.8,0.2-1.1,0.2c-0.4,0-0.8-0.1-1.1-0.3c-0.3-0.2-0.5-0.4-0.7-0.7s-0.2-0.8-0.2-1.4
		v-3.7h-0.9v-1.2h1l0.1-1.8l1.3-0.1v2h1.4v1.2h-1.4v3.5c0,0.4,0.1,0.7,0.2,0.9c0.2,0.2,0.5,0.2,0.9,0.2
		C278.2,332.9,278.3,332.9,278.4,332.9z"/>
	<path class="st8" d="M285.8,334.1h-1.5c-0.1-0.4-0.2-0.9-0.2-1.4c-0.4,1.1-1.2,1.6-2.4,1.6c-0.7,0-1.3-0.2-1.7-0.6
		c-0.4-0.4-0.6-0.9-0.6-1.6c0-1.6,1.4-2.4,4.3-2.4c0.1,0,0.3,0,0.5,0v-0.5c0-0.7-0.5-1.1-1.5-1.1c-1,0-1.5,0.4-1.7,1.1l-1.4-0.2
		c0.1-0.6,0.4-1.1,0.9-1.5c0.5-0.4,1.3-0.6,2.3-0.6c0.5,0,1,0,1.3,0.1c0.3,0.1,0.6,0.2,0.9,0.5c0.2,0.2,0.4,0.5,0.5,0.7
		s0.1,0.7,0.1,1.3v3.2C285.6,333.2,285.7,333.6,285.8,334.1z M284.1,330.5c-2.1,0-3.1,0.5-3.1,1.5c0,0.3,0.1,0.5,0.3,0.8
		s0.5,0.3,0.9,0.3c0.6,0,1.1-0.2,1.4-0.6s0.5-0.8,0.5-1.3V330.5z"/>
	<path class="st8" d="M291.6,331.5l1.4,0.1c-0.2,0.9-0.5,1.5-1,2c-0.5,0.4-1.1,0.6-1.8,0.6c-1,0-1.7-0.4-2.3-1.1
		c-0.5-0.7-0.8-1.6-0.8-2.6c0-1.1,0.3-1.9,0.9-2.6s1.3-1,2.3-1c1.5,0,2.5,0.8,2.8,2.4l-1.4,0.2c-0.1-0.9-0.6-1.3-1.3-1.3
		c-0.5,0-0.9,0.2-1.2,0.7c-0.2,0.5-0.4,1-0.4,1.7c0,0.7,0.1,1.3,0.4,1.7s0.6,0.6,1.1,0.6C290.9,332.9,291.4,332.4,291.6,331.5z"/>
	<path class="st8" d="M300.9,334.1h-1.7l-1.8-3.6l-1.6,1.8v1.9h-1.5v-9.6h1.5v5.9c0.1-0.2,0.2-0.3,0.3-0.4l2.8-3.1h1.7l-2.1,2.3
		L300.9,334.1z"/>
</g>
<g>
	<path class="st8" d="M400,417.8h-1.8v-8.4l-2.7,8.4h-0.9l-2.7-8.4v8.4h-1.4v-9.6h2.7l2,6.2l2-6.2h2.7V417.8z"/>
	<path class="st8" d="M403.6,409.9H402v-1.7h1.6V409.9z M403.6,417.8H402v-7.1h1.6V417.8z"/>
	<path class="st8" d="M411.3,417.8h-1.5v-1.4c-0.4,1.1-1.1,1.6-2.1,1.6c-0.9,0-1.5-0.4-2-1.1c-0.5-0.7-0.7-1.6-0.7-2.7
		c0-1,0.2-1.9,0.7-2.6c0.5-0.7,1.2-1.1,2.1-1.1c0.9,0,1.5,0.4,1.9,1.2v-3.5h1.6V417.8z M409.7,413.7c0-0.6-0.1-1-0.4-1.3
		c-0.3-0.3-0.6-0.5-1.1-0.5c-0.5,0-0.8,0.2-1.1,0.6s-0.4,1-0.4,1.8c0,1.6,0.5,2.4,1.5,2.4c0.4,0,0.7-0.2,1-0.5
		c0.3-0.3,0.5-0.8,0.5-1.3V413.7z"/>
	<path class="st8" d="M422.3,414.5l1.6,0.2c-0.1,1-0.5,1.7-1.1,2.4c-0.6,0.6-1.5,0.9-2.5,0.9c-0.9,0-1.6-0.2-2.1-0.7s-1-1-1.3-1.8
		c-0.3-0.8-0.4-1.6-0.4-2.5c0-1.5,0.3-2.6,1-3.6c0.7-0.9,1.6-1.4,2.9-1.4c0.9,0,1.7,0.3,2.4,0.9c0.6,0.6,1,1.4,1.2,2.5l-1.6,0.2
		c-0.3-1.4-0.9-2.2-1.9-2.2c-0.6,0-1.1,0.3-1.5,0.9c-0.4,0.6-0.5,1.5-0.5,2.6c0,1.2,0.2,2,0.6,2.6c0.4,0.6,0.9,0.9,1.5,0.9
		c0.5,0,0.9-0.2,1.3-0.6S422.2,415.1,422.3,414.5z"/>
	<path class="st8" d="M431,417.8h-1.6v-4.6c0-0.5-0.1-0.9-0.3-1.1c-0.2-0.2-0.5-0.3-0.7-0.3c-0.5,0-0.8,0.2-1.1,0.5s-0.5,1-0.5,1.8
		v3.7h-1.6v-9.6h1.6v3.7c0.4-1,1.1-1.5,2.1-1.5c1.5,0,2.2,0.8,2.2,2.5V417.8z"/>
	<path class="st8" d="M438.8,417.8h-1.5v-1.5c-0.4,1.1-1.1,1.7-2.2,1.7c-0.6,0-1.2-0.2-1.5-0.6c-0.4-0.4-0.6-1-0.6-1.7v-5h1.6v4.6
		c0,0.5,0.1,0.8,0.3,1s0.4,0.2,0.7,0.2c0.3,0,0.7-0.2,1.1-0.5c0.4-0.3,0.5-1,0.5-2v-3.4h1.6V417.8z"/>
	<path class="st8" d="M444,416.6v1.2c-0.5,0.1-0.8,0.2-1.1,0.2c-0.4,0-0.8-0.1-1.1-0.3s-0.5-0.4-0.7-0.7c-0.1-0.3-0.2-0.8-0.2-1.4
		V412H440v-1.2h1l0.1-1.8l1.3-0.1v2h1.4v1.2h-1.4v3.5c0,0.4,0.1,0.7,0.2,0.9c0.2,0.2,0.5,0.2,0.9,0.2
		C443.7,416.6,443.8,416.6,444,416.6z"/>
	<path class="st8" d="M449.6,415.6l1.4,0.2c-0.2,0.6-0.6,1.2-1.1,1.6c-0.5,0.4-1.2,0.6-2,0.6c-1,0-1.8-0.3-2.4-1
		c-0.6-0.7-0.9-1.6-0.9-2.7c0-1.1,0.3-2,0.9-2.7c0.6-0.7,1.4-1.1,2.5-1.1c1,0,1.8,0.3,2.3,1s0.8,1.6,0.8,2.7l0,0.2h-4.9
		c0,0.5,0,0.9,0.1,1.2c0.1,0.3,0.3,0.5,0.5,0.8s0.6,0.3,1,0.3C448.8,416.7,449.3,416.4,449.6,415.6z M449.5,413.5
		c0-0.5-0.2-0.9-0.5-1.2c-0.3-0.3-0.7-0.5-1.1-0.5c-0.4,0-0.8,0.2-1.1,0.5c-0.3,0.3-0.5,0.7-0.5,1.3H449.5z"/>
</g>
<g>
	<path class="st8" d="M459.5,393.9h-1.7v-4.2h-3.7v4.2h-1.7v-9.6h1.7v3.9h3.7v-3.9h1.7V393.9z"/>
	<path class="st8" d="M467.6,393.9h-1.5c-0.1-0.4-0.2-0.9-0.2-1.4c-0.4,1.1-1.2,1.6-2.4,1.6c-0.7,0-1.3-0.2-1.7-0.6
		c-0.4-0.4-0.6-0.9-0.6-1.6c0-1.6,1.4-2.4,4.3-2.4c0.1,0,0.3,0,0.5,0v-0.5c0-0.7-0.5-1.1-1.5-1.1c-1,0-1.5,0.4-1.7,1.1l-1.4-0.2
		c0.1-0.6,0.4-1.1,0.9-1.5c0.5-0.4,1.3-0.6,2.3-0.6c0.5,0,1,0,1.3,0.1c0.3,0.1,0.6,0.2,0.9,0.5c0.2,0.2,0.4,0.5,0.5,0.7
		c0.1,0.3,0.1,0.7,0.1,1.3v3.2C467.4,392.9,467.5,393.4,467.6,393.9z M465.9,390.2c-2.1,0-3.1,0.5-3.1,1.5c0,0.3,0.1,0.5,0.3,0.8
		c0.2,0.2,0.5,0.3,0.9,0.3c0.6,0,1.1-0.2,1.4-0.6c0.3-0.4,0.5-0.8,0.5-1.3V390.2z"/>
	<path class="st8" d="M470.9,393.9h-1.6v-9.6h1.6V393.9z"/>
	<path class="st8" d="M474.4,393.9h-1.6v-9.6h1.6V393.9z"/>
</g>
<g>
	<path class="st8" d="M457.7,489.3h-1.8l-1.5-3.9H452v3.9h-1.7v-9.6h4.2c1.2,0,2,0.3,2.5,0.8c0.5,0.5,0.8,1.2,0.8,2
		c0,1.2-0.6,2.1-1.7,2.5L457.7,489.3z M452,484h2.1c0.6,0,1.1-0.1,1.4-0.4c0.3-0.3,0.5-0.6,0.5-1.1c0-0.4-0.1-0.8-0.4-1
		c-0.3-0.3-0.7-0.4-1.3-0.4H452V484z"/>
	<path class="st8" d="M462,489.4c-1,0-1.8-0.4-2.4-1.1c-0.6-0.8-0.8-1.6-0.8-2.6c0-1,0.3-1.9,0.9-2.6c0.6-0.7,1.4-1,2.4-1
		c0.9,0,1.7,0.3,2.3,1c0.6,0.7,0.9,1.6,0.9,2.6c0,1.1-0.3,2-1,2.7C463.8,489.1,463,489.4,462,489.4z M462.1,488.1
		c1.1,0,1.6-0.8,1.6-2.4c0-0.7-0.1-1.3-0.4-1.7c-0.3-0.4-0.7-0.6-1.2-0.6c-0.6,0-1,0.2-1.2,0.6c-0.3,0.4-0.4,1-0.4,1.7
		c0,0.8,0.1,1.4,0.4,1.8C461.2,487.9,461.6,488.1,462.1,488.1z"/>
	<path class="st8" d="M468.5,491.7h-1.6v-9.5h1.5v1.2c0.5-0.9,1.2-1.4,2.2-1.4c0.8,0,1.4,0.3,1.9,1s0.7,1.6,0.7,2.6
		c0,1-0.2,1.9-0.7,2.6s-1.1,1.1-2,1.1c-0.9,0-1.6-0.4-2-1.1V491.7z M468.5,486.4c0,0.5,0.2,0.9,0.5,1.3c0.3,0.3,0.6,0.5,1,0.5
		c0.5,0,0.9-0.2,1.1-0.7c0.2-0.4,0.4-1,0.4-1.7c0-0.7-0.1-1.3-0.4-1.8s-0.6-0.7-1.1-0.7c-0.4,0-0.8,0.2-1.1,0.6
		c-0.3,0.4-0.4,0.9-0.4,1.5V486.4z"/>
	<path class="st8" d="M479.1,487l1.4,0.2c-0.2,0.6-0.6,1.2-1.1,1.6c-0.5,0.4-1.2,0.6-2,0.6c-1,0-1.8-0.3-2.4-1
		c-0.6-0.7-0.9-1.6-0.9-2.7c0-1.1,0.3-2,0.9-2.7c0.6-0.7,1.4-1.1,2.5-1.1c1,0,1.8,0.3,2.3,1s0.8,1.6,0.8,2.7l0,0.2h-4.9
		c0,0.5,0,0.9,0.1,1.2c0.1,0.3,0.3,0.5,0.5,0.8s0.6,0.3,1,0.3C478.3,488.2,478.8,487.8,479.1,487z M479,484.9c0-0.5-0.2-0.9-0.5-1.2
		c-0.3-0.3-0.7-0.5-1.1-0.5c-0.4,0-0.8,0.2-1.1,0.5c-0.3,0.3-0.5,0.7-0.5,1.3H479z"/>
</g>
<g>
	<path class="st8" d="M535.6,483.2h-1.8l-0.8-2.3h-3.7l-0.8,2.3h-1.5l3.2-9.6h2.1L535.6,483.2z M532.5,479.5l-1.4-4.3l-1.4,4.3
		H532.5z"/>
	<path class="st8" d="M539.3,480.9l1.7-0.4c0.2,0.9,1,1.4,2.3,1.4c0.6,0,1.1-0.1,1.4-0.4c0.3-0.2,0.5-0.5,0.5-0.9
		c0-0.3-0.1-0.5-0.2-0.7c-0.1-0.2-0.5-0.4-1-0.5l-1.8-0.5c-0.6-0.2-1.1-0.3-1.4-0.6s-0.5-0.5-0.7-0.9c-0.2-0.4-0.3-0.8-0.3-1.2
		c0-0.9,0.3-1.5,1-2.1s1.4-0.8,2.4-0.8c0.8,0,1.6,0.2,2.2,0.5c0.6,0.4,1.1,0.9,1.2,1.5l-1.6,0.4c-0.3-0.7-0.8-1.1-1.8-1.1
		c-0.5,0-0.9,0.1-1.2,0.3s-0.4,0.5-0.4,0.9c0,0.5,0.4,0.9,1.3,1.2l1.6,0.4c1,0.2,1.6,0.6,2,1.1c0.3,0.5,0.5,1,0.5,1.6
		c0,0.9-0.4,1.7-1.1,2.2c-0.7,0.5-1.6,0.8-2.8,0.8c-0.9,0-1.8-0.2-2.5-0.6C540,482.3,539.6,481.7,539.3,480.9z"/>
	<path class="st8" d="M554.3,483.2h-1.6v-4.6c0-0.5-0.1-0.9-0.3-1.1c-0.2-0.2-0.5-0.3-0.7-0.3c-0.5,0-0.8,0.2-1.1,0.5
		s-0.5,1-0.5,1.8v3.7h-1.6v-9.6h1.6v3.7c0.4-1,1.1-1.5,2.1-1.5c1.5,0,2.2,0.8,2.2,2.5V483.2z"/>
	<path class="st8" d="M559,483.3c-1,0-1.8-0.4-2.4-1.1c-0.6-0.8-0.8-1.6-0.8-2.6c0-1,0.3-1.9,0.9-2.6c0.6-0.7,1.4-1,2.4-1
		c0.9,0,1.7,0.3,2.3,1c0.6,0.7,0.9,1.6,0.9,2.6c0,1.1-0.3,2-1,2.7C560.8,483,560,483.3,559,483.3z M559.1,482c1.1,0,1.6-0.8,1.6-2.4
		c0-0.7-0.1-1.3-0.4-1.7c-0.3-0.4-0.7-0.6-1.2-0.6c-0.6,0-1,0.2-1.2,0.6c-0.3,0.4-0.4,1-0.4,1.7c0,0.8,0.1,1.4,0.4,1.8
		C558.2,481.8,558.6,482,559.1,482z"/>
	<path class="st8" d="M565.4,485.6h-1.6v-9.5h1.5v1.2c0.5-0.9,1.2-1.4,2.2-1.4c0.8,0,1.4,0.3,1.9,1s0.7,1.6,0.7,2.6
		c0,1-0.2,1.9-0.7,2.6s-1.1,1.1-2,1.1c-0.9,0-1.6-0.4-2-1.1V485.6z M565.4,480.3c0,0.5,0.2,0.9,0.5,1.3c0.3,0.3,0.6,0.5,1,0.5
		c0.5,0,0.9-0.2,1.1-0.7c0.2-0.4,0.4-1,0.4-1.7c0-0.7-0.1-1.3-0.4-1.8s-0.6-0.7-1.1-0.7c-0.4,0-0.8,0.2-1.1,0.6
		c-0.3,0.4-0.4,0.9-0.4,1.5V480.3z"/>
</g>
<g>
	<path class="st8" d="M593.8,537.8l1.6,0.2c-0.1,1-0.5,1.7-1.1,2.4c-0.6,0.6-1.5,0.9-2.5,0.9c-0.9,0-1.6-0.2-2.1-0.7s-1-1-1.3-1.8
		c-0.3-0.8-0.4-1.6-0.4-2.5c0-1.5,0.3-2.6,1-3.6c0.7-0.9,1.6-1.4,2.9-1.4c0.9,0,1.7,0.3,2.4,0.9c0.6,0.6,1,1.4,1.2,2.5l-1.6,0.2
		c-0.3-1.4-0.9-2.2-1.9-2.2c-0.6,0-1.1,0.3-1.5,0.9c-0.4,0.6-0.5,1.5-0.5,2.6c0,1.2,0.2,2,0.6,2.6c0.4,0.6,0.9,0.9,1.5,0.9
		c0.5,0,0.9-0.2,1.3-0.6S593.7,538.3,593.8,537.8z"/>
	<path class="st8" d="M602.7,541.1h-1.5c-0.1-0.4-0.2-0.9-0.2-1.4c-0.4,1.1-1.2,1.6-2.4,1.6c-0.7,0-1.3-0.2-1.7-0.6
		c-0.4-0.4-0.6-0.9-0.6-1.6c0-1.6,1.4-2.4,4.3-2.4c0.1,0,0.3,0,0.5,0v-0.5c0-0.7-0.5-1.1-1.5-1.1c-1,0-1.5,0.4-1.7,1.1l-1.4-0.2
		c0.1-0.6,0.4-1.1,0.9-1.5c0.5-0.4,1.3-0.6,2.3-0.6c0.5,0,1,0,1.3,0.1c0.3,0.1,0.6,0.2,0.9,0.5c0.2,0.2,0.4,0.5,0.5,0.7
		c0.1,0.3,0.1,0.7,0.1,1.3v3.2C602.5,540.1,602.6,540.6,602.7,541.1z M601,537.5c-2.1,0-3.1,0.5-3.1,1.5c0,0.3,0.1,0.5,0.3,0.8
		c0.2,0.2,0.5,0.3,0.9,0.3c0.6,0,1.1-0.2,1.4-0.6c0.3-0.4,0.5-0.8,0.5-1.3V537.5z"/>
	<path class="st8" d="M609.6,534l-2.4,7.1h-1.3l-2.5-7.1h1.7l1.7,4.8l1.6-4.8H609.6z"/>
	<path class="st8" d="M615,538.9l1.4,0.2c-0.2,0.6-0.6,1.2-1.1,1.6c-0.5,0.4-1.2,0.6-2,0.6c-1,0-1.8-0.3-2.4-1
		c-0.6-0.7-0.9-1.6-0.9-2.7c0-1.1,0.3-2,0.9-2.7c0.6-0.7,1.4-1.1,2.5-1.1c1,0,1.8,0.3,2.3,1s0.8,1.6,0.8,2.7l0,0.2h-4.9
		c0,0.5,0,0.9,0.1,1.2c0.1,0.3,0.3,0.5,0.5,0.8s0.6,0.3,1,0.3C614.2,540,614.7,539.6,615,538.9z M614.9,536.7c0-0.5-0.2-0.9-0.5-1.2
		c-0.3-0.3-0.7-0.5-1.1-0.5c-0.4,0-0.8,0.2-1.1,0.5c-0.3,0.3-0.5,0.7-0.5,1.3H614.9z"/>
</g>
<g>
	<path class="st8" d="M464.6,589.4h-1.8l-0.8-2.3h-3.7l-0.8,2.3h-1.5l3.2-9.6h2.1L464.6,589.4z M461.5,585.7l-1.4-4.3l-1.4,4.3
		H461.5z"/>
	<path class="st8" d="M475.2,589.4h-5.9v-9.6h1.8v8h4.1V589.4z"/>
	<path class="st8" d="M479.2,589.5c-1,0-1.8-0.4-2.4-1.1c-0.6-0.8-0.8-1.6-0.8-2.6c0-1,0.3-1.9,0.9-2.6c0.6-0.7,1.4-1,2.4-1
		c0.9,0,1.7,0.3,2.3,1c0.6,0.7,0.9,1.6,0.9,2.6c0,1.1-0.3,2-1,2.7C480.9,589.2,480.1,589.5,479.2,589.5z M479.2,588.2
		c1.1,0,1.6-0.8,1.6-2.4c0-0.7-0.1-1.3-0.4-1.7c-0.3-0.4-0.7-0.6-1.2-0.6c-0.6,0-1,0.2-1.2,0.6c-0.3,0.4-0.4,1-0.4,1.7
		c0,0.8,0.1,1.4,0.4,1.8C478.3,588,478.7,588.2,479.2,588.2z"/>
	<path class="st8" d="M484.7,589.4H484v-9.6h1.6v3.5c0.3-0.5,0.6-0.9,0.9-1c0.3-0.2,0.7-0.3,1.1-0.3c0.8,0,1.4,0.3,1.9,1
		s0.8,1.6,0.8,2.7c0,1.1-0.3,2-0.8,2.7s-1.2,1.1-2.2,1.1c-0.9,0-1.7-0.4-2.2-1.3L484.7,589.4z M485.6,586.4c0,0.6,0.1,1.1,0.4,1.4
		s0.6,0.5,1.1,0.5c0.4,0,0.8-0.2,1.1-0.5s0.4-1,0.5-2c0-0.7-0.1-1.3-0.4-1.7c-0.3-0.4-0.6-0.6-1.1-0.6c-0.4,0-0.8,0.2-1.1,0.5
		c-0.3,0.3-0.4,0.8-0.4,1.4V586.4z"/>
	<path class="st8" d="M492.4,589.4h-0.7v-9.6h1.6v3.5c0.3-0.5,0.6-0.9,0.9-1c0.3-0.2,0.7-0.3,1.1-0.3c0.8,0,1.4,0.3,1.9,1
		s0.8,1.6,0.8,2.7c0,1.1-0.3,2-0.8,2.7s-1.2,1.1-2.2,1.1c-0.9,0-1.7-0.4-2.2-1.3L492.4,589.4z M493.3,586.4c0,0.6,0.1,1.1,0.4,1.4
		s0.6,0.5,1.1,0.5c0.4,0,0.8-0.2,1.1-0.5s0.4-1,0.5-2c0-0.7-0.1-1.3-0.4-1.7c-0.3-0.4-0.6-0.6-1.1-0.6c-0.4,0-0.8,0.2-1.1,0.5
		c-0.3,0.3-0.4,0.8-0.4,1.4V586.4z"/>
	<path class="st8" d="M504.6,582.3l-2.8,8.1c-0.2,0.5-0.4,0.9-0.7,1.2c-0.3,0.3-0.7,0.4-1.2,0.4c-0.2,0-0.5,0-0.9,0v-1.3l0.8,0
		c0.3,0,0.6-0.1,0.7-0.2c0.2-0.1,0.3-0.3,0.4-0.6c0.1-0.3,0.1-0.4,0.1-0.5c0,0,0-0.2-0.1-0.4l-2.4-6.6h1.7l1.7,4.7l1.5-4.7H504.6z"
		/>
</g>
<g>
	<path class="st8" d="M335.3,444.1h-1.8v-8.4l-2.7,8.4H330l-2.7-8.4v8.4H326v-9.6h2.7l2,6.2l2-6.2h2.7V444.1z"/>
	<path class="st8" d="M339,436.1h-1.6v-1.7h1.6V436.1z M339,444.1h-1.6V437h1.6V444.1z"/>
	<path class="st8" d="M346.7,444.1h-1.5v-1.4c-0.4,1.1-1.1,1.6-2.1,1.6c-0.9,0-1.5-0.4-2-1.1c-0.5-0.7-0.7-1.6-0.7-2.7
		c0-1,0.2-1.9,0.7-2.6c0.5-0.7,1.2-1.1,2.1-1.1c0.9,0,1.5,0.4,1.9,1.2v-3.5h1.6V444.1z M345.1,439.9c0-0.6-0.1-1-0.4-1.3
		s-0.6-0.5-1.1-0.5c-0.5,0-0.8,0.2-1.1,0.6s-0.4,1-0.4,1.8c0,1.6,0.5,2.4,1.5,2.4c0.4,0,0.7-0.2,1-0.5s0.5-0.8,0.5-1.3V439.9z"/>
	<path class="st8" d="M316.5,461.3v-9.6h3.7c0.6,0,1.2,0.1,1.6,0.2c0.4,0.1,0.8,0.4,1.1,0.8c0.3,0.4,0.5,0.9,0.5,1.5
		c0,0.5-0.2,1-0.5,1.4s-0.7,0.6-1.3,0.7c0.7,0.1,1.2,0.4,1.5,0.8c0.3,0.4,0.5,0.9,0.5,1.5c0,0.7-0.2,1.4-0.7,1.9
		c-0.5,0.5-1.2,0.8-2.2,0.8H316.5z M318.1,455.7h2.1c0.4,0,0.8-0.1,1-0.4c0.2-0.3,0.4-0.6,0.4-1c0-0.4-0.1-0.8-0.4-1s-0.6-0.3-1-0.3
		h-2.1V455.7z M318.1,459.9h2.2c0.5,0,0.8-0.1,1.1-0.4s0.4-0.6,0.4-1c0-0.4-0.1-0.7-0.4-1c-0.3-0.3-0.6-0.4-1.1-0.4h-2.2V459.9z"/>
	<path class="st8" d="M327.9,461.4c-1,0-1.8-0.4-2.4-1.1c-0.6-0.8-0.8-1.6-0.8-2.6c0-1,0.3-1.9,0.9-2.6c0.6-0.7,1.4-1,2.4-1
		c0.9,0,1.7,0.3,2.3,1c0.6,0.7,0.9,1.6,0.9,2.6c0,1.1-0.3,2-1,2.7C329.6,461.1,328.8,461.4,327.9,461.4z M327.9,460.1
		c1.1,0,1.6-0.8,1.6-2.4c0-0.7-0.1-1.3-0.4-1.7c-0.3-0.4-0.7-0.6-1.2-0.6c-0.6,0-1,0.2-1.2,0.6c-0.3,0.4-0.4,1-0.4,1.7
		c0,0.8,0.1,1.4,0.4,1.8C327,459.9,327.4,460.1,327.9,460.1z"/>
	<path class="st8" d="M335.9,460v1.2c-0.5,0.1-0.8,0.2-1.1,0.2c-0.4,0-0.8-0.1-1.1-0.3s-0.5-0.4-0.7-0.7s-0.2-0.8-0.2-1.4v-3.7h-0.9
		v-1.2h1l0.1-1.8l1.3-0.1v2h1.4v1.2h-1.4v3.5c0,0.4,0.1,0.7,0.2,0.9c0.2,0.2,0.5,0.2,0.9,0.2C335.6,460.1,335.8,460,335.9,460z"/>
	<path class="st8" d="M340.5,460v1.2c-0.5,0.1-0.8,0.2-1.1,0.2c-0.4,0-0.8-0.1-1.1-0.3s-0.5-0.4-0.7-0.7s-0.2-0.8-0.2-1.4v-3.7h-0.9
		v-1.2h1l0.1-1.8l1.3-0.1v2h1.4v1.2H339v3.5c0,0.4,0.1,0.7,0.2,0.9c0.2,0.2,0.5,0.2,0.9,0.2C340.3,460.1,340.4,460,340.5,460z"/>
	<path class="st8" d="M344.4,461.4c-1,0-1.8-0.4-2.4-1.1c-0.6-0.8-0.8-1.6-0.8-2.6c0-1,0.3-1.9,0.9-2.6c0.6-0.7,1.4-1,2.4-1
		c0.9,0,1.7,0.3,2.3,1c0.6,0.7,0.9,1.6,0.9,2.6c0,1.1-0.3,2-1,2.7C346.2,461.1,345.4,461.4,344.4,461.4z M344.4,460.1
		c1.1,0,1.6-0.8,1.6-2.4c0-0.7-0.1-1.3-0.4-1.7c-0.3-0.4-0.7-0.6-1.2-0.6c-0.6,0-1,0.2-1.2,0.6c-0.3,0.4-0.4,1-0.4,1.7
		c0,0.8,0.1,1.4,0.4,1.8C343.6,459.9,344,460.1,344.4,460.1z"/>
	<path class="st8" d="M359.8,461.3h-1.7v-4.4c0-0.9-0.4-1.4-1.2-1.4c-0.5,0-0.8,0.2-1.1,0.5s-0.4,0.9-0.4,1.5v3.7h-1.7v-4.4
		c0-0.9-0.4-1.4-1.1-1.4c-0.5,0-0.9,0.2-1.2,0.6s-0.5,0.9-0.5,1.5v3.7h-1.6v-7.1h1.5v1.5c0.5-1.1,1.3-1.7,2.4-1.7c1,0,1.7,0.6,2,1.7
		c0.6-1.1,1.4-1.7,2.4-1.7c0.7,0,1.2,0.2,1.6,0.6c0.4,0.4,0.6,1,0.6,1.6V461.3z"/>
</g>
<g>
	<path class="st8" d="M435.7,348.2h-1.8v-8.4l-2.7,8.4h-0.9l-2.7-8.4v8.4h-1.4v-9.6h2.7l2,6.2l2-6.2h2.7V348.2z"/>
	<path class="st8" d="M439.3,340.3h-1.6v-1.7h1.6V340.3z M439.3,348.2h-1.6v-7.1h1.6V348.2z"/>
	<path class="st8" d="M447,348.2h-1.5v-1.4c-0.4,1.1-1.1,1.6-2.1,1.6c-0.9,0-1.5-0.4-2-1.1c-0.5-0.7-0.7-1.6-0.7-2.7
		c0-1,0.2-1.9,0.7-2.6c0.5-0.7,1.2-1.1,2.1-1.1c0.9,0,1.5,0.4,1.9,1.2v-3.5h1.6V348.2z M445.4,344c0-0.6-0.1-1-0.4-1.3
		c-0.3-0.3-0.6-0.5-1.1-0.5c-0.5,0-0.8,0.2-1.1,0.6s-0.4,1-0.4,1.8c0,1.6,0.5,2.4,1.5,2.4c0.4,0,0.7-0.2,1-0.5
		c0.3-0.3,0.5-0.8,0.5-1.3V344z"/>
	<path class="st8" d="M464.1,338.6l-2.6,9.6h-1.8l-1.9-7l-1.7,7h-1.8l-2.6-9.6h1.8l1.9,7l1.7-7h1.7l1.9,7l1.8-7H464.1z"/>
	<path class="st8" d="M467.6,348.4c-1,0-1.8-0.4-2.4-1.1c-0.6-0.8-0.8-1.6-0.8-2.6c0-1,0.3-1.9,0.9-2.6c0.6-0.7,1.4-1,2.4-1
		c0.9,0,1.7,0.3,2.3,1s0.9,1.6,0.9,2.6c0,1.1-0.3,2-1,2.7C469.4,348,468.6,348.4,467.6,348.4z M467.7,347c1.1,0,1.6-0.8,1.6-2.4
		c0-0.7-0.1-1.3-0.4-1.7c-0.3-0.4-0.7-0.6-1.2-0.6c-0.6,0-1,0.2-1.2,0.6s-0.4,1-0.4,1.7c0,0.8,0.1,1.4,0.4,1.8
		C466.8,346.8,467.2,347,467.7,347z"/>
	<path class="st8" d="M475.2,348.4c-1,0-1.8-0.4-2.4-1.1c-0.6-0.8-0.8-1.6-0.8-2.6c0-1,0.3-1.9,0.9-2.6c0.6-0.7,1.4-1,2.4-1
		c0.9,0,1.7,0.3,2.3,1s0.9,1.6,0.9,2.6c0,1.1-0.3,2-1,2.7C477,348,476.2,348.4,475.2,348.4z M475.3,347c1.1,0,1.6-0.8,1.6-2.4
		c0-0.7-0.1-1.3-0.4-1.7c-0.3-0.4-0.7-0.6-1.2-0.6c-0.6,0-1,0.2-1.2,0.6s-0.4,1-0.4,1.7c0,0.8,0.1,1.4,0.4,1.8
		C474.4,346.8,474.8,347,475.3,347z"/>
	<path class="st8" d="M485.8,348.2h-1.5v-1.4c-0.4,1.1-1.1,1.6-2.1,1.6c-0.9,0-1.5-0.4-2-1.1c-0.5-0.7-0.7-1.6-0.7-2.7
		c0-1,0.2-1.9,0.7-2.6c0.5-0.7,1.2-1.1,2.1-1.1c0.9,0,1.5,0.4,1.9,1.2v-3.5h1.6V348.2z M484.2,344c0-0.6-0.1-1-0.4-1.3
		c-0.3-0.3-0.6-0.5-1.1-0.5c-0.5,0-0.8,0.2-1.1,0.6s-0.4,1-0.4,1.8c0,1.6,0.5,2.4,1.5,2.4c0.4,0,0.7-0.2,1-0.5
		c0.3-0.3,0.5-0.8,0.5-1.3V344z"/>
	<path class="st8" d="M439,365.5v-9.6h3.5c1.3,0,2.4,0.5,3.1,1.4c0.8,0.9,1.2,2.1,1.2,3.4s-0.4,2.5-1.2,3.4c-0.8,0.9-2,1.4-3.5,1.4
		H439z M440.8,364h1.4c0.8,0,1.4-0.3,2-0.9c0.5-0.6,0.8-1.4,0.8-2.6c0-0.9-0.2-1.7-0.7-2.4s-1.1-1-1.9-1h-1.6V364z"/>
	<path class="st8" d="M451.1,365.6c-1,0-1.8-0.4-2.4-1.1c-0.6-0.8-0.8-1.6-0.8-2.6c0-1,0.3-1.9,0.9-2.6c0.6-0.7,1.4-1,2.4-1
		c0.9,0,1.7,0.3,2.3,1c0.6,0.7,0.9,1.6,0.9,2.6c0,1.1-0.3,2-1,2.7C452.9,365.3,452.1,365.6,451.1,365.6z M451.2,364.3
		c1.1,0,1.6-0.8,1.6-2.4c0-0.7-0.1-1.3-0.4-1.7c-0.3-0.4-0.7-0.6-1.2-0.6c-0.6,0-1,0.2-1.2,0.6c-0.3,0.4-0.4,1-0.4,1.7
		c0,0.8,0.1,1.4,0.4,1.8C450.3,364.1,450.7,364.3,451.2,364.3z"/>
	<path class="st8" d="M458.7,365.6c-1,0-1.8-0.4-2.4-1.1c-0.6-0.8-0.8-1.6-0.8-2.6c0-1,0.3-1.9,0.9-2.6c0.6-0.7,1.4-1,2.4-1
		c0.9,0,1.7,0.3,2.3,1c0.6,0.7,0.9,1.6,0.9,2.6c0,1.1-0.3,2-1,2.7C460.5,365.3,459.7,365.6,458.7,365.6z M458.8,364.3
		c1.1,0,1.6-0.8,1.6-2.4c0-0.7-0.1-1.3-0.4-1.7c-0.3-0.4-0.7-0.6-1.2-0.6c-0.6,0-1,0.2-1.2,0.6c-0.3,0.4-0.4,1-0.4,1.7
		c0,0.8,0.1,1.4,0.4,1.8C457.9,364.1,458.3,364.3,458.8,364.3z"/>
	<path class="st8" d="M465.1,365.5h-1.6v-7.1h1.4v1.7c0.2-0.7,0.5-1.1,0.8-1.4c0.4-0.3,0.7-0.5,1.1-0.5c0.1,0,0.1,0,0.2,0v1.7
		c-0.8,0-1.4,0.3-1.6,0.8c-0.3,0.5-0.4,1-0.4,1.5V365.5z"/>
	<path class="st8" d="M467.6,363.8l1.5-0.3c0.2,0.6,0.7,0.9,1.5,0.9c1,0,1.5-0.3,1.5-0.9c0-0.2-0.1-0.3-0.2-0.5
		c-0.2-0.1-0.3-0.2-0.5-0.2l-1.3-0.2c-1.4-0.3-2.1-1-2.1-2.1c0-0.6,0.2-1.2,0.7-1.6c0.5-0.4,1.1-0.7,2-0.7c1.5,0,2.4,0.5,2.7,1.6
		l-1.4,0.3c-0.2-0.5-0.6-0.8-1.3-0.8c-0.9,0-1.3,0.3-1.3,0.8c0,0.4,0.3,0.6,1,0.8l1.5,0.3c1.2,0.2,1.8,0.9,1.8,2
		c0,0.8-0.3,1.4-0.9,1.8c-0.6,0.4-1.3,0.6-2.2,0.6c-0.7,0-1.4-0.1-1.9-0.4S467.8,364.4,467.6,363.8z"/>
</g>
<g>
	<path class="st8" d="M457.9,233h-1.8v-8.4l-2.7,8.4h-0.9l-2.7-8.4v8.4h-1.4v-9.6h2.7l2,6.2l2-6.2h2.7V233z"/>
	<path class="st8" d="M464.5,230.8l1.4,0.2c-0.2,0.6-0.6,1.2-1.1,1.6c-0.5,0.4-1.2,0.6-2,0.6c-1,0-1.8-0.3-2.4-1
		c-0.6-0.7-0.9-1.6-0.9-2.7c0-1.1,0.3-2,0.9-2.7c0.6-0.7,1.4-1.1,2.5-1.1c1,0,1.8,0.3,2.3,1s0.8,1.6,0.8,2.7l0,0.2h-4.9
		c0,0.5,0,0.9,0.1,1.2c0.1,0.3,0.3,0.5,0.5,0.8c0.3,0.2,0.6,0.3,1,0.3C463.7,231.9,464.2,231.6,464.5,230.8z M464.4,228.7
		c0-0.5-0.2-0.9-0.5-1.2c-0.3-0.3-0.7-0.5-1.1-0.5c-0.4,0-0.8,0.2-1.1,0.5s-0.5,0.7-0.5,1.3H464.4z"/>
	<path class="st8" d="M470.7,231.8v1.2c-0.5,0.1-0.8,0.2-1.1,0.2c-0.4,0-0.8-0.1-1.1-0.3c-0.3-0.2-0.5-0.4-0.7-0.7
		c-0.1-0.3-0.2-0.8-0.2-1.4v-3.7h-0.9V226h1l0.1-1.8l1.3-0.1v2h1.4v1.2h-1.4v3.5c0,0.4,0.1,0.7,0.2,0.9c0.2,0.2,0.5,0.2,0.9,0.2
		C470.4,231.8,470.5,231.8,470.7,231.8z"/>
	<path class="st8" d="M478.1,233h-1.5c-0.1-0.4-0.2-0.9-0.2-1.4c-0.4,1.1-1.2,1.6-2.4,1.6c-0.7,0-1.3-0.2-1.7-0.6
		c-0.4-0.4-0.6-0.9-0.6-1.6c0-1.6,1.4-2.4,4.3-2.4c0.1,0,0.3,0,0.5,0V228c0-0.7-0.5-1.1-1.5-1.1c-1,0-1.5,0.4-1.7,1.1l-1.4-0.2
		c0.1-0.6,0.4-1.1,0.9-1.5c0.5-0.4,1.3-0.6,2.3-0.6c0.5,0,1,0,1.3,0.1c0.3,0.1,0.6,0.2,0.9,0.5c0.2,0.2,0.4,0.5,0.5,0.7
		s0.1,0.7,0.1,1.3v3.2C477.9,232.1,478,232.6,478.1,233z M476.3,229.4c-2.1,0-3.1,0.5-3.1,1.5c0,0.3,0.1,0.5,0.3,0.8
		c0.2,0.2,0.5,0.3,0.9,0.3c0.6,0,1.1-0.2,1.4-0.6c0.3-0.4,0.5-0.8,0.5-1.3V229.4z"/>
	<path class="st8" d="M481.4,233h-1.6v-9.6h1.6V233z"/>
	<path class="st8" d="M447.9,250.3v-9.6h3.5c1.3,0,2.4,0.5,3.1,1.4c0.8,0.9,1.2,2.1,1.2,3.4s-0.4,2.5-1.2,3.4
		c-0.8,0.9-2,1.4-3.5,1.4H447.9z M449.7,248.9h1.4c0.8,0,1.4-0.3,2-0.9c0.5-0.6,0.8-1.4,0.8-2.6c0-0.9-0.2-1.7-0.7-2.4
		c-0.5-0.6-1.1-1-1.9-1h-1.6V248.9z"/>
	<path class="st8" d="M460,250.4c-1,0-1.8-0.4-2.4-1.1s-0.8-1.6-0.8-2.6c0-1,0.3-1.9,0.9-2.6c0.6-0.7,1.4-1,2.4-1
		c0.9,0,1.7,0.3,2.3,1s0.9,1.6,0.9,2.6c0,1.1-0.3,2-1,2.7C461.8,250.1,461,250.4,460,250.4z M460.1,249.1c1.1,0,1.6-0.8,1.6-2.4
		c0-0.7-0.1-1.3-0.4-1.7c-0.3-0.4-0.7-0.6-1.2-0.6c-0.6,0-1,0.2-1.2,0.6s-0.4,1-0.4,1.7c0,0.8,0.1,1.4,0.4,1.8
		C459.2,248.9,459.6,249.1,460.1,249.1z"/>
	<path class="st8" d="M467.6,250.4c-1,0-1.8-0.4-2.4-1.1s-0.8-1.6-0.8-2.6c0-1,0.3-1.9,0.9-2.6c0.6-0.7,1.4-1,2.4-1
		c0.9,0,1.7,0.3,2.3,1s0.9,1.6,0.9,2.6c0,1.1-0.3,2-1,2.7C469.4,250.1,468.6,250.4,467.6,250.4z M467.7,249.1c1.1,0,1.6-0.8,1.6-2.4
		c0-0.7-0.1-1.3-0.4-1.7c-0.3-0.4-0.7-0.6-1.2-0.6c-0.6,0-1,0.2-1.2,0.6s-0.4,1-0.4,1.7c0,0.8,0.1,1.4,0.4,1.8
		C466.8,248.9,467.2,249.1,467.7,249.1z"/>
	<path class="st8" d="M474.1,250.3h-1.6v-7.1h1.4v1.7c0.2-0.7,0.5-1.1,0.8-1.4c0.4-0.3,0.7-0.5,1.1-0.5c0.1,0,0.1,0,0.2,0v1.7
		c-0.8,0-1.4,0.3-1.6,0.8c-0.3,0.5-0.4,1-0.4,1.5V250.3z"/>
	<path class="st8" d="M476.5,248.7l1.5-0.3c0.2,0.6,0.7,0.9,1.5,0.9c1,0,1.5-0.3,1.5-0.9c0-0.2-0.1-0.3-0.2-0.5s-0.3-0.2-0.5-0.2
		l-1.3-0.2c-1.4-0.3-2.1-1-2.1-2.1c0-0.6,0.2-1.2,0.7-1.6c0.5-0.4,1.1-0.7,2-0.7c1.5,0,2.4,0.5,2.7,1.6l-1.4,0.3
		c-0.2-0.5-0.6-0.8-1.3-0.8c-0.9,0-1.3,0.3-1.3,0.8c0,0.4,0.3,0.6,1,0.8l1.5,0.3c1.2,0.2,1.8,0.9,1.8,2c0,0.8-0.3,1.4-0.9,1.8
		c-0.6,0.4-1.3,0.6-2.2,0.6c-0.7,0-1.4-0.1-1.9-0.4C477.1,249.7,476.7,249.3,476.5,248.7z"/>
</g>
<g>
	<path class="st8" d="M456.7,285.9l1.7-0.4c0.2,0.9,1,1.4,2.3,1.4c0.6,0,1.1-0.1,1.4-0.4c0.3-0.2,0.5-0.5,0.5-0.9
		c0-0.3-0.1-0.5-0.2-0.7s-0.5-0.4-1-0.5l-1.8-0.5c-0.6-0.2-1.1-0.3-1.4-0.6s-0.5-0.5-0.7-0.9s-0.3-0.8-0.3-1.2c0-0.9,0.3-1.5,1-2.1
		s1.4-0.8,2.4-0.8c0.8,0,1.6,0.2,2.2,0.5c0.6,0.4,1.1,0.9,1.2,1.5l-1.6,0.4c-0.3-0.7-0.8-1.1-1.8-1.1c-0.5,0-0.9,0.1-1.2,0.3
		c-0.3,0.2-0.4,0.5-0.4,0.9c0,0.5,0.4,0.9,1.3,1.2l1.6,0.4c1,0.2,1.6,0.6,2,1.1s0.5,1,0.5,1.6c0,0.9-0.4,1.7-1.1,2.2
		c-0.7,0.5-1.6,0.8-2.8,0.8c-0.9,0-1.8-0.2-2.5-0.6C457.4,287.4,457,286.8,456.7,285.9z"/>
	<path class="st8" d="M474.7,281.2l-2.1,7.1h-1.4l-1.3-5l-1.3,5h-1.5l-2.2-7.1h1.7l1.4,4.8l1.2-4.8h1.5l1.2,4.8l1.4-4.8H474.7z"/>
	<path class="st8" d="M477.4,280.3h-1.6v-1.7h1.6V280.3z M477.4,288.2h-1.6v-7.1h1.6V288.2z"/>
	<path class="st8" d="M482.7,287v1.2c-0.5,0.1-0.8,0.2-1.1,0.2c-0.4,0-0.8-0.1-1.1-0.3c-0.3-0.2-0.5-0.4-0.7-0.7
		c-0.1-0.3-0.2-0.8-0.2-1.4v-3.7h-0.9v-1.2h1l0.1-1.8l1.3-0.1v2h1.4v1.2h-1.4v3.5c0,0.4,0.1,0.7,0.2,0.9c0.2,0.2,0.5,0.2,0.9,0.2
		C482.4,287,482.5,287,482.7,287z"/>
	<path class="st8" d="M488.1,285.6l1.4,0.1c-0.2,0.9-0.5,1.5-1,2c-0.5,0.4-1.1,0.6-1.8,0.6c-1,0-1.7-0.4-2.3-1.1
		c-0.5-0.7-0.8-1.6-0.8-2.6c0-1.1,0.3-1.9,0.9-2.6s1.3-1,2.3-1c1.5,0,2.5,0.8,2.8,2.4l-1.4,0.2c-0.1-0.9-0.6-1.3-1.3-1.3
		c-0.5,0-0.9,0.2-1.2,0.7c-0.2,0.5-0.4,1-0.4,1.7c0,0.7,0.1,1.3,0.4,1.7s0.6,0.6,1.1,0.6C487.4,287,487.9,286.5,488.1,285.6z"/>
	<path class="st8" d="M496.6,288.2H495v-4.6c0-0.5-0.1-0.9-0.3-1.1s-0.5-0.3-0.7-0.3c-0.5,0-0.8,0.2-1.1,0.5c-0.3,0.4-0.5,1-0.5,1.8
		v3.7h-1.6v-9.6h1.6v3.7c0.4-1,1.1-1.5,2.1-1.5c1.5,0,2.2,0.8,2.2,2.5V288.2z"/>
</g>
<g>
	<path class="st8" d="M491.6,170.7h-1.8l-0.8-2.3h-3.7l-0.8,2.3H483l3.2-9.6h2.1L491.6,170.7z M488.5,167l-1.4-4.3l-1.4,4.3H488.5z"
		/>
	<path class="st8" d="M496.3,170.7v-9.6h3.7c0.6,0,1.2,0.1,1.6,0.2c0.4,0.1,0.8,0.4,1.1,0.8c0.3,0.4,0.5,0.9,0.5,1.5
		c0,0.5-0.2,1-0.5,1.4s-0.7,0.6-1.3,0.7c0.7,0.1,1.2,0.4,1.5,0.8c0.3,0.4,0.5,0.9,0.5,1.5c0,0.7-0.2,1.4-0.7,1.9
		c-0.5,0.5-1.2,0.8-2.2,0.8H496.3z M497.9,165.1h2.1c0.4,0,0.8-0.1,1-0.4c0.2-0.3,0.4-0.6,0.4-1c0-0.4-0.1-0.8-0.4-1
		c-0.3-0.2-0.6-0.3-1-0.3h-2.1V165.1z M497.9,169.2h2.2c0.5,0,0.8-0.1,1.1-0.4c0.3-0.2,0.4-0.6,0.4-1c0-0.4-0.1-0.7-0.4-1
		c-0.3-0.3-0.6-0.4-1.1-0.4h-2.2V169.2z"/>
	<path class="st8" d="M506.5,170.7h-1.6v-7.1h1.4v1.7c0.2-0.7,0.5-1.1,0.8-1.4c0.4-0.3,0.7-0.5,1.1-0.5c0.1,0,0.1,0,0.2,0v1.7
		c-0.8,0-1.4,0.3-1.6,0.8c-0.3,0.5-0.4,1-0.4,1.5V170.7z"/>
	<path class="st8" d="M511.3,162.8h-1.6v-1.7h1.6V162.8z M511.3,170.7h-1.6v-7.1h1.6V170.7z"/>
	<path class="st8" d="M519,170.7h-1.5v-1.4c-0.4,1.1-1.1,1.6-2.1,1.6c-0.9,0-1.5-0.4-2-1.1c-0.5-0.7-0.7-1.6-0.7-2.7
		c0-1,0.2-1.9,0.7-2.6c0.5-0.7,1.2-1.1,2.1-1.1c0.9,0,1.5,0.4,1.9,1.2v-3.5h1.6V170.7z M517.4,166.5c0-0.6-0.1-1-0.4-1.3
		c-0.3-0.3-0.6-0.5-1.1-0.5c-0.5,0-0.8,0.2-1.1,0.6s-0.4,1-0.4,1.8c0,1.6,0.5,2.4,1.5,2.4c0.4,0,0.7-0.2,1-0.5
		c0.3-0.3,0.5-0.8,0.5-1.3V166.5z"/>
	<path class="st8" d="M527.4,162.2v1.2h-0.5c-0.2,0-0.4,0-0.6,0.1c-0.2,0.1-0.3,0.2-0.5,0.5c0.6,0.5,0.8,1,0.8,1.5
		c0,0.6-0.3,1.1-0.8,1.6c-0.5,0.4-1.2,0.6-2.1,0.6c-0.4,0-0.8-0.1-1.3-0.2c-0.3,0.1-0.5,0.4-0.5,0.7c0,0.2,0.1,0.3,0.2,0.5
		c0.2,0.1,0.4,0.2,0.7,0.2h2.1c0.7,0,1.3,0.2,1.7,0.6c0.4,0.4,0.6,0.8,0.6,1.4c0,0.7-0.3,1.2-0.9,1.7c-0.6,0.4-1.5,0.7-2.8,0.7
		c-2.3,0-3.4-0.6-3.4-1.9c0-0.6,0.3-1.1,1-1.4c-0.4-0.4-0.7-0.8-0.7-1.2c0-0.6,0.4-1.1,1.1-1.5c-0.7-0.4-1-0.9-1-1.6
		c0-0.6,0.2-1.1,0.7-1.5c0.5-0.4,1.2-0.6,2.2-0.6c0.4,0,0.9,0,1.4,0.1c0.2-0.9,0.8-1.4,1.7-1.4H527.4z M522,170.3
		c-0.2,0.2-0.3,0.4-0.3,0.6c0,0.3,0.2,0.6,0.6,0.9c0.4,0.2,1,0.4,1.8,0.4c1.2,0,1.8-0.3,1.8-0.9c0-0.2-0.1-0.4-0.3-0.5
		c-0.2-0.1-0.5-0.2-0.7-0.2h-1.7C522.8,170.5,522.5,170.4,522,170.3z M523.8,166.8c0.9,0,1.3-0.4,1.3-1.2c0-0.3-0.1-0.6-0.3-0.8
		c-0.2-0.2-0.5-0.3-1-0.3c-0.4,0-0.7,0.1-1,0.3s-0.3,0.5-0.3,0.8c0,0.3,0.1,0.6,0.3,0.8C523,166.7,523.4,166.8,523.8,166.8z"/>
	<path class="st8" d="M532.9,168.4l1.4,0.2c-0.2,0.6-0.6,1.2-1.1,1.6c-0.5,0.4-1.2,0.6-2,0.6c-1,0-1.8-0.3-2.4-1
		c-0.6-0.7-0.9-1.6-0.9-2.7c0-1.1,0.3-2,0.9-2.7c0.6-0.7,1.4-1.1,2.5-1.1c1,0,1.8,0.3,2.3,1s0.8,1.6,0.8,2.7l0,0.2h-4.9
		c0,0.5,0,0.9,0.1,1.2c0.1,0.3,0.3,0.5,0.5,0.8c0.3,0.2,0.6,0.3,1,0.3C532.1,169.6,532.6,169.2,532.9,168.4z M532.8,166.3
		c0-0.5-0.2-0.9-0.5-1.2c-0.3-0.3-0.7-0.5-1.1-0.5c-0.4,0-0.8,0.2-1.1,0.5s-0.5,0.7-0.5,1.3H532.8z"/>
</g>
<g>
	<path class="st8" d="M276.3,85h-1.8l-0.8-2.3H270l-0.8,2.3h-1.5l3.2-9.6h2.1L276.3,85z M273.2,81.3l-1.4-4.3l-1.4,4.3H273.2z"/>
	<path class="st8" d="M278.9,85h-1.6v-7.1h1.4v1.7c0.2-0.7,0.5-1.1,0.8-1.4c0.4-0.3,0.7-0.5,1.1-0.5c0.1,0,0.1,0,0.2,0v1.7
		c-0.8,0-1.4,0.3-1.6,0.8s-0.4,1-0.4,1.5V85z"/>
	<path class="st8" d="M286.1,82.4l1.4,0.1c-0.2,0.9-0.5,1.5-1,2c-0.5,0.4-1.1,0.6-1.8,0.6c-1,0-1.7-0.4-2.3-1.1
		c-0.5-0.7-0.8-1.6-0.8-2.6c0-1.1,0.3-1.9,0.9-2.6s1.3-1,2.3-1c1.5,0,2.5,0.8,2.8,2.4l-1.4,0.2c-0.1-0.9-0.6-1.3-1.3-1.3
		c-0.5,0-0.9,0.2-1.2,0.7c-0.2,0.5-0.4,1-0.4,1.7c0,0.7,0.1,1.3,0.4,1.7s0.6,0.6,1.1,0.6C285.4,83.7,285.9,83.3,286.1,82.4z"/>
	<path class="st8" d="M294.6,85H293v-4.6c0-0.5-0.1-0.9-0.3-1.1S292.3,79,292,79c-0.5,0-0.8,0.2-1.1,0.5c-0.3,0.4-0.5,1-0.5,1.8V85
		h-1.6v-9.6h1.6v3.7c0.4-1,1.1-1.5,2.1-1.5c1.5,0,2.2,0.8,2.2,2.5V85z"/>
	<path class="st8" d="M301.1,82.7l1.4,0.2c-0.2,0.6-0.6,1.2-1.1,1.6c-0.5,0.4-1.2,0.6-2,0.6c-1,0-1.8-0.3-2.4-1
		c-0.6-0.7-0.9-1.6-0.9-2.7c0-1.1,0.3-2,0.9-2.7c0.6-0.7,1.4-1.1,2.5-1.1c1,0,1.8,0.3,2.3,1s0.8,1.6,0.8,2.7l0,0.2h-4.9
		c0,0.5,0,0.9,0.1,1.2c0.1,0.3,0.3,0.5,0.5,0.8c0.3,0.2,0.6,0.3,1,0.3C300.3,83.9,300.8,83.5,301.1,82.7z M301,80.6
		c0-0.5-0.2-0.9-0.5-1.2c-0.3-0.3-0.7-0.5-1.1-0.5c-0.4,0-0.8,0.2-1.1,0.5c-0.3,0.3-0.5,0.7-0.5,1.3H301z"/>
	<path class="st8" d="M303.2,83.3l1.5-0.3c0.2,0.6,0.7,0.9,1.5,0.9c1,0,1.5-0.3,1.5-0.9c0-0.2-0.1-0.3-0.2-0.5s-0.3-0.2-0.5-0.2
		l-1.3-0.2c-1.4-0.3-2.1-1-2.1-2.1c0-0.6,0.2-1.2,0.7-1.6c0.5-0.4,1.1-0.7,2-0.7c1.5,0,2.4,0.5,2.7,1.6l-1.4,0.3
		c-0.1-0.5-0.6-0.8-1.3-0.8c-0.9,0-1.3,0.3-1.3,0.8c0,0.4,0.3,0.6,1,0.8l1.5,0.3c1.2,0.2,1.8,0.9,1.8,2c0,0.8-0.3,1.4-0.9,1.8
		s-1.3,0.6-2.2,0.6c-0.7,0-1.4-0.1-1.9-0.4C303.8,84.4,303.4,83.9,303.2,83.3z"/>
</g>
<g>
	<path class="st8" d="M271.9,157.8h-1.8v-8.4l-2.7,8.4h-0.9l-2.7-8.4v8.4h-1.4v-9.6h2.7l2,6.2l2-6.2h2.7V157.8z"/>
	<path class="st8" d="M275.6,149.9H274v-1.7h1.6V149.9z M275.6,157.8H274v-7.1h1.6V157.8z"/>
	<path class="st8" d="M283.3,157.8h-1.5v-1.4c-0.4,1.1-1.1,1.6-2.1,1.6c-0.9,0-1.5-0.4-2-1.1c-0.5-0.7-0.7-1.6-0.7-2.7
		c0-1,0.2-1.9,0.7-2.6c0.5-0.7,1.2-1.1,2.1-1.1c0.9,0,1.5,0.4,1.9,1.2v-3.5h1.6V157.8z M281.7,153.6c0-0.6-0.1-1-0.4-1.3
		s-0.6-0.5-1.1-0.5c-0.5,0-0.8,0.2-1.1,0.6s-0.4,1-0.4,1.8c0,1.6,0.5,2.4,1.5,2.4c0.4,0,0.7-0.2,1-0.5c0.3-0.3,0.5-0.8,0.5-1.3
		V153.6z"/>
	<path class="st8" d="M296.1,157.8h-1.7l-3.6-6.1c-0.1-0.1-0.1-0.2-0.3-0.5c-0.1-0.1-0.1-0.2-0.3-0.4v7h-1.4v-9.6h1.9l3.4,5.6
		c0,0,0.2,0.4,0.6,1v-6.7h1.4V157.8z"/>
	<path class="st8" d="M302.6,155.6l1.4,0.2c-0.2,0.6-0.6,1.2-1.1,1.6c-0.5,0.4-1.2,0.6-2,0.6c-1,0-1.8-0.3-2.4-1
		c-0.6-0.7-0.9-1.6-0.9-2.7c0-1.1,0.3-2,0.9-2.7c0.6-0.7,1.4-1.1,2.5-1.1c1,0,1.8,0.3,2.3,1s0.8,1.6,0.8,2.7l0,0.2h-4.9
		c0,0.5,0,0.9,0.1,1.2c0.1,0.3,0.3,0.5,0.5,0.8c0.3,0.2,0.6,0.3,1,0.3C301.8,156.7,302.4,156.3,302.6,155.6z M302.5,153.5
		c0-0.5-0.2-0.9-0.5-1.2c-0.3-0.3-0.7-0.5-1.1-0.5c-0.4,0-0.8,0.2-1.1,0.5c-0.3,0.3-0.5,0.7-0.5,1.3H302.5z"/>
	<path class="st8" d="M304.8,156.2l1.5-0.3c0.2,0.6,0.7,0.9,1.5,0.9c1,0,1.5-0.3,1.5-0.9c0-0.2-0.1-0.3-0.2-0.5s-0.3-0.2-0.5-0.2
		l-1.3-0.2c-1.4-0.3-2.1-1-2.1-2.1c0-0.6,0.2-1.2,0.7-1.6c0.5-0.4,1.1-0.7,2-0.7c1.5,0,2.4,0.5,2.7,1.6l-1.4,0.3
		c-0.1-0.5-0.6-0.8-1.3-0.8c-0.9,0-1.3,0.3-1.3,0.8c0,0.4,0.3,0.6,1,0.8l1.5,0.3c1.2,0.2,1.8,0.9,1.8,2c0,0.8-0.3,1.4-0.9,1.8
		s-1.3,0.6-2.2,0.6c-0.7,0-1.4-0.1-1.9-0.4C305.3,157.2,305,156.8,304.8,156.2z"/>
	<path class="st8" d="M315.5,156.6v1.2c-0.5,0.1-0.8,0.2-1.1,0.2c-0.4,0-0.8-0.1-1.1-0.3c-0.3-0.2-0.5-0.4-0.7-0.7s-0.2-0.8-0.2-1.4
		V152h-0.9v-1.2h1l0.1-1.8l1.3-0.1v2h1.4v1.2h-1.4v3.5c0,0.4,0.1,0.7,0.2,0.9c0.2,0.2,0.5,0.2,0.9,0.2
		C315.2,156.6,315.3,156.6,315.5,156.6z"/>
</g>
<g>
	<path class="st8" d="M207.3,468.7h-1.8v-8.4l-2.7,8.4H202l-2.7-8.4v8.4h-1.4v-9.6h2.7l2,6.2l2-6.2h2.7V468.7z"/>
	<path class="st8" d="M210.9,460.8h-1.6v-1.7h1.6V460.8z M210.9,468.7h-1.6v-7.1h1.6V468.7z"/>
	<path class="st8" d="M218.6,468.7h-1.5v-1.4c-0.4,1.1-1.1,1.6-2.1,1.6c-0.9,0-1.5-0.4-2-1.1c-0.5-0.7-0.7-1.6-0.7-2.7
		c0-1,0.2-1.9,0.7-2.6c0.5-0.7,1.2-1.1,2.1-1.1c0.9,0,1.5,0.4,1.9,1.2v-3.5h1.6V468.7z M217,464.5c0-0.6-0.1-1-0.4-1.3
		s-0.6-0.5-1.1-0.5c-0.5,0-0.8,0.2-1.1,0.6s-0.4,1-0.4,1.8c0,1.6,0.5,2.4,1.5,2.4c0.4,0,0.7-0.2,1-0.5s0.5-0.8,0.5-1.3V464.5z"/>
	<path class="st8" d="M229.6,465.4l1.6,0.2c-0.1,1-0.5,1.7-1.1,2.4c-0.6,0.6-1.5,0.9-2.5,0.9c-0.9,0-1.6-0.2-2.1-0.7
		c-0.5-0.4-1-1-1.3-1.8c-0.3-0.8-0.4-1.6-0.4-2.5c0-1.5,0.3-2.6,1-3.6c0.7-0.9,1.6-1.4,2.9-1.4c0.9,0,1.7,0.3,2.4,0.9
		c0.6,0.6,1,1.4,1.2,2.5l-1.6,0.2c-0.3-1.4-0.9-2.2-1.9-2.2c-0.6,0-1.1,0.3-1.5,0.9c-0.4,0.6-0.5,1.5-0.5,2.6c0,1.2,0.2,2,0.6,2.6
		c0.4,0.6,0.9,0.9,1.5,0.9c0.5,0,0.9-0.2,1.3-0.6C229.3,466.4,229.5,465.9,229.6,465.4z"/>
	<path class="st8" d="M238.5,468.7H237c-0.1-0.4-0.2-0.9-0.2-1.4c-0.4,1.1-1.2,1.6-2.4,1.6c-0.7,0-1.3-0.2-1.7-0.6s-0.6-0.9-0.6-1.6
		c0-1.6,1.4-2.4,4.3-2.4c0.1,0,0.3,0,0.5,0v-0.5c0-0.7-0.5-1.1-1.5-1.1c-1,0-1.5,0.4-1.7,1.1l-1.4-0.2c0.1-0.6,0.4-1.1,0.9-1.5
		c0.5-0.4,1.3-0.6,2.3-0.6c0.5,0,1,0,1.3,0.1c0.3,0.1,0.6,0.2,0.9,0.5c0.2,0.2,0.4,0.5,0.5,0.7c0.1,0.3,0.1,0.7,0.1,1.3v3.2
		C238.3,467.7,238.4,468.2,238.5,468.7z M236.8,465.1c-2.1,0-3.1,0.5-3.1,1.5c0,0.3,0.1,0.5,0.3,0.8s0.5,0.3,0.9,0.3
		c0.6,0,1.1-0.2,1.4-0.6s0.5-0.8,0.5-1.3V465.1z"/>
	<path class="st8" d="M246.1,468.7h-1.6v-4.4c0-0.5-0.1-0.8-0.3-1.1c-0.2-0.2-0.5-0.4-0.8-0.4c-0.4,0-0.8,0.2-1.1,0.5
		c-0.3,0.4-0.5,0.9-0.5,1.6v3.6h-1.6v-7.1h1.5v1.6c0.5-1.2,1.2-1.8,2.1-1.8c0.6,0,1.2,0.2,1.6,0.6c0.4,0.4,0.7,1.1,0.7,2.1V468.7z"
		/>
	<path class="st8" d="M253.9,468.7h-1.6v-4.4c0-0.5-0.1-0.8-0.3-1.1c-0.2-0.2-0.5-0.4-0.8-0.4c-0.4,0-0.8,0.2-1.1,0.5
		c-0.3,0.4-0.5,0.9-0.5,1.6v3.6H248v-7.1h1.5v1.6c0.5-1.2,1.2-1.8,2.1-1.8c0.6,0,1.2,0.2,1.6,0.6c0.4,0.4,0.7,1.1,0.7,2.1V468.7z"/>
	<path class="st8" d="M258.6,468.8c-1,0-1.8-0.4-2.4-1.1c-0.6-0.8-0.8-1.6-0.8-2.6c0-1,0.3-1.9,0.9-2.6c0.6-0.7,1.4-1,2.4-1
		c0.9,0,1.7,0.3,2.3,1c0.6,0.7,0.9,1.6,0.9,2.6c0,1.1-0.3,2-1,2.7C260.3,468.5,259.5,468.8,258.6,468.8z M258.6,467.5
		c1.1,0,1.6-0.8,1.6-2.4c0-0.7-0.1-1.3-0.4-1.7c-0.3-0.4-0.7-0.6-1.2-0.6c-0.6,0-1,0.2-1.2,0.6c-0.3,0.4-0.4,1-0.4,1.7
		c0,0.8,0.1,1.4,0.4,1.8C257.7,467.3,258.1,467.5,258.6,467.5z"/>
	<path class="st8" d="M269.2,468.7h-1.6v-4.4c0-0.5-0.1-0.8-0.3-1.1c-0.2-0.2-0.5-0.4-0.8-0.4c-0.4,0-0.8,0.2-1.1,0.5
		c-0.3,0.4-0.5,0.9-0.5,1.6v3.6h-1.6v-7.1h1.5v1.6c0.5-1.2,1.2-1.8,2.1-1.8c0.6,0,1.2,0.2,1.6,0.6c0.4,0.4,0.7,1.1,0.7,2.1V468.7z"
		/>
</g>
<polygon class="st9" points="569.5,295 648,295 660.8,308.1 660.8,351.9 649.4,363.3 568.9,363.3 555.3,349.7 555.3,307.7 "/>
<polygon class="st10" points="569.5,310 569.5,348.2 602.8,348.2 602.8,338 616.6,338 616.6,348.2 647,348.2 647,310 616.6,310 
	616.6,322.5 602.8,322.5 602.8,310 "/>
<g>
	<path class="st8" d="M582.3,334.1h-1.7v-9.6h3.9c1.1,0,1.9,0.3,2.5,0.8s0.8,1.2,0.8,2c0,0.9-0.3,1.6-0.9,2.1
		c-0.6,0.5-1.3,0.8-2.2,0.8h-2.4V334.1z M582.3,328.9h2c0.5,0,0.9-0.1,1.2-0.4c0.3-0.3,0.4-0.6,0.4-1c0-0.4-0.1-0.7-0.4-1
		c-0.3-0.3-0.7-0.4-1.4-0.4h-1.9V328.9z"/>
	<path class="st8" d="M594.4,327.1l-2.8,8.1c-0.2,0.5-0.4,0.9-0.7,1.2c-0.3,0.3-0.7,0.4-1.2,0.4c-0.2,0-0.5,0-0.9,0v-1.3l0.8,0
		c0.3,0,0.6-0.1,0.7-0.2c0.2-0.1,0.3-0.3,0.4-0.6c0.1-0.3,0.1-0.4,0.1-0.5c0,0,0-0.2-0.1-0.4l-2.4-6.6h1.7l1.7,4.7l1.5-4.7H594.4z"
		/>
	<path class="st8" d="M597.1,334.1h-1.6v-7.1h1.4v1.7c0.2-0.7,0.5-1.1,0.8-1.4c0.4-0.3,0.7-0.5,1.1-0.5c0.1,0,0.1,0,0.2,0v1.7
		c-0.8,0-1.4,0.3-1.6,0.8c-0.3,0.5-0.4,1-0.4,1.5V334.1z"/>
	<path class="st8" d="M606.3,334.1h-1.5c-0.1-0.4-0.2-0.9-0.2-1.4c-0.4,1.1-1.2,1.6-2.4,1.6c-0.7,0-1.3-0.2-1.7-0.6
		c-0.4-0.4-0.6-0.9-0.6-1.6c0-1.6,1.4-2.4,4.3-2.4c0.1,0,0.3,0,0.5,0v-0.5c0-0.7-0.5-1.1-1.5-1.1c-1,0-1.5,0.4-1.7,1.1l-1.4-0.2
		c0.1-0.6,0.4-1.1,0.9-1.5c0.5-0.4,1.3-0.6,2.3-0.6c0.5,0,1,0,1.3,0.1c0.3,0.1,0.6,0.2,0.9,0.5c0.2,0.2,0.4,0.5,0.5,0.7
		s0.1,0.7,0.1,1.3v3.2C606.1,333.2,606.2,333.6,606.3,334.1z M604.5,330.5c-2.1,0-3.1,0.5-3.1,1.5c0,0.3,0.1,0.5,0.3,0.8
		c0.2,0.2,0.5,0.3,0.9,0.3c0.6,0,1.1-0.2,1.4-0.6c0.3-0.4,0.5-0.8,0.5-1.3V330.5z"/>
	<path class="st8" d="M618.6,334.1h-1.7v-4.4c0-0.9-0.4-1.4-1.2-1.4c-0.5,0-0.9,0.2-1.1,0.5c-0.3,0.3-0.4,0.9-0.4,1.6v3.7h-1.7v-4.4
		c0-0.9-0.4-1.4-1.1-1.4c-0.5,0-0.9,0.2-1.2,0.6c-0.3,0.4-0.5,0.9-0.5,1.5v3.7H608v-7.1h1.5v1.5c0.5-1.1,1.3-1.7,2.4-1.7
		c1,0,1.7,0.6,2,1.7c0.6-1.1,1.4-1.7,2.4-1.7c0.7,0,1.2,0.2,1.6,0.6c0.4,0.4,0.6,1,0.6,1.6V334.1z"/>
	<path class="st8" d="M622.1,326.2h-1.6v-1.7h1.6V326.2z M622.1,334.1h-1.6v-7.1h1.6V334.1z"/>
	<path class="st8" d="M629.8,334.1h-1.5v-1.4c-0.4,1.1-1.1,1.6-2.1,1.6c-0.9,0-1.5-0.4-2-1.1c-0.5-0.7-0.7-1.6-0.7-2.7
		c0-1,0.2-1.9,0.7-2.6c0.5-0.7,1.2-1.1,2.1-1.1c0.9,0,1.5,0.4,1.9,1.2v-3.5h1.6V334.1z M628.2,330c0-0.6-0.1-1-0.4-1.3
		c-0.3-0.3-0.6-0.5-1.1-0.5c-0.5,0-0.8,0.2-1.1,0.6s-0.4,1-0.4,1.8c0,1.6,0.5,2.4,1.5,2.4c0.4,0,0.7-0.2,1-0.5
		c0.3-0.3,0.5-0.8,0.5-1.3V330z"/>
	<path class="st8" d="M630.9,332.5l1.5-0.3c0.2,0.6,0.7,0.9,1.5,0.9c1,0,1.5-0.3,1.5-0.9c0-0.2-0.1-0.3-0.2-0.5s-0.3-0.2-0.5-0.2
		l-1.3-0.2c-1.4-0.3-2.1-1-2.1-2.1c0-0.6,0.2-1.2,0.7-1.6c0.5-0.4,1.1-0.7,2-0.7c1.5,0,2.4,0.5,2.7,1.6l-1.4,0.3
		c-0.2-0.5-0.6-0.8-1.3-0.8c-0.9,0-1.3,0.3-1.3,0.8c0,0.4,0.3,0.6,1,0.8l1.5,0.3c1.2,0.2,1.8,0.9,1.8,2c0,0.8-0.3,1.4-0.9,1.8
		c-0.6,0.4-1.3,0.6-2.2,0.6c-0.7,0-1.4-0.1-1.9-0.4C631.4,333.6,631.1,333.1,630.9,332.5z"/>
</g>
<g>
	<path class="st11" d="M613.1,297.1h-2.2l-0.9-2.8h-4.4l-0.9,2.8h-1.8l3.8-11.6h2.6L613.1,297.1z M609.4,292.7l-1.7-5.2l-1.7,5.2
		H609.4z"/>
	<path class="st11" d="M617.6,294.3l2-0.4c0.2,1.1,1.2,1.7,2.8,1.7c0.7,0,1.3-0.1,1.7-0.4c0.4-0.3,0.6-0.7,0.6-1.1
		c0-0.3-0.1-0.6-0.3-0.9s-0.6-0.5-1.2-0.6l-2.2-0.6c-0.8-0.2-1.3-0.4-1.7-0.7c-0.4-0.3-0.7-0.6-0.9-1.1c-0.2-0.5-0.3-0.9-0.3-1.5
		c0-1,0.4-1.9,1.2-2.5c0.8-0.6,1.8-0.9,2.9-0.9c1,0,1.9,0.2,2.7,0.7c0.8,0.4,1.3,1.1,1.5,1.8l-2,0.5c-0.3-0.9-1-1.3-2.1-1.3
		c-0.6,0-1.1,0.1-1.5,0.4c-0.3,0.3-0.5,0.6-0.5,1c0,0.7,0.5,1.1,1.6,1.4l2,0.5c1.2,0.3,2,0.7,2.4,1.3c0.4,0.6,0.6,1.2,0.6,1.9
		c0,1.1-0.4,2-1.3,2.7s-2,1-3.3,1c-1.1,0-2.2-0.2-3-0.7C618.5,296.1,617.9,295.3,617.6,294.3z"/>
	<path class="st11" d="M630.6,287.5h-1.9v-2h1.9V287.5z M630.6,297.1h-1.9v-8.6h1.9V297.1z"/>
	<path class="st11" d="M636.9,295.6v1.5c-0.6,0.1-1,0.2-1.3,0.2c-0.5,0-1-0.1-1.3-0.3c-0.4-0.2-0.6-0.5-0.8-0.8
		c-0.2-0.4-0.3-0.9-0.3-1.7V290H632v-1.5h1.2l0.2-2.2l1.6-0.1v2.4h1.7v1.5H635v4.2c0,0.5,0.1,0.9,0.3,1.1c0.2,0.2,0.6,0.3,1.1,0.3
		C636.5,295.6,636.7,295.6,636.9,295.6z"/>
	<path class="st11" d="M643.7,294.3l1.7,0.2c-0.2,0.8-0.7,1.4-1.3,1.9c-0.7,0.5-1.5,0.8-2.5,0.8c-1.2,0-2.1-0.4-2.9-1.2
		s-1.1-1.9-1.1-3.2c0-1.3,0.4-2.4,1.1-3.2c0.7-0.8,1.7-1.3,3-1.3c1.2,0,2.2,0.4,2.8,1.3c0.7,0.8,1,1.9,1,3.2l0,0.2h-5.9
		c0,0.6,0.1,1,0.2,1.4c0.1,0.4,0.3,0.7,0.7,0.9c0.3,0.3,0.7,0.4,1.2,0.4C642.7,295.7,643.3,295.3,643.7,294.3z M643.6,291.8
		c0-0.6-0.2-1.1-0.6-1.5c-0.4-0.4-0.8-0.6-1.4-0.6c-0.5,0-1,0.2-1.3,0.5c-0.4,0.4-0.6,0.9-0.6,1.5H643.6z"/>
</g>
<polygon class="st9" points="50.5,170.7 50.5,250.1 132.2,250.1 132.2,170.8 "/>
<g>
	<path class="st11" d="M103.5,242.2v-11.6h4.5c0.8,0,1.4,0.1,1.9,0.2s0.9,0.5,1.3,1c0.4,0.5,0.6,1.1,0.6,1.8c0,0.6-0.2,1.2-0.6,1.7
		s-0.9,0.8-1.5,0.9c0.8,0.1,1.4,0.5,1.8,1s0.6,1.1,0.6,1.8c0,0.9-0.3,1.6-0.9,2.2c-0.6,0.6-1.5,0.9-2.7,0.9H103.5z M105.5,235.5h2.5
		c0.5,0,0.9-0.2,1.2-0.5c0.3-0.3,0.5-0.7,0.5-1.2c0-0.5-0.2-0.9-0.5-1.2c-0.3-0.3-0.7-0.4-1.2-0.4h-2.5V235.5z M105.5,240.5h2.7
		c0.6,0,1-0.1,1.4-0.4c0.3-0.3,0.5-0.7,0.5-1.2c0-0.5-0.2-0.9-0.5-1.2c-0.3-0.3-0.8-0.5-1.3-0.5h-2.7V240.5z"/>
	<path class="st11" d="M117.2,239.4l2-0.4c0.2,1.1,1.2,1.7,2.8,1.7c0.7,0,1.3-0.1,1.7-0.4c0.4-0.3,0.6-0.7,0.6-1.1
		c0-0.3-0.1-0.6-0.3-0.9s-0.6-0.5-1.2-0.6l-2.2-0.6c-0.8-0.2-1.3-0.4-1.7-0.7c-0.4-0.3-0.7-0.6-0.9-1.1c-0.2-0.5-0.3-0.9-0.3-1.5
		c0-1,0.4-1.9,1.2-2.5c0.8-0.6,1.8-0.9,2.9-0.9c1,0,1.9,0.2,2.7,0.7c0.8,0.4,1.3,1.1,1.5,1.8l-2,0.5c-0.3-0.9-1-1.3-2.1-1.3
		c-0.6,0-1.1,0.1-1.5,0.4c-0.3,0.3-0.5,0.6-0.5,1c0,0.7,0.5,1.1,1.6,1.4l2,0.5c1.2,0.3,2,0.7,2.4,1.3c0.4,0.6,0.6,1.2,0.6,1.9
		c0,1.1-0.4,2-1.3,2.7c-0.9,0.7-2,1-3.3,1c-1.1,0-2.1-0.2-3-0.7C118.1,241.2,117.5,240.5,117.2,239.4z"/>
	<path class="st11" d="M130.1,232.7h-1.9v-2h1.9V232.7z M130.1,242.2h-1.9v-8.6h1.9V242.2z"/>
	<path class="st11" d="M136.4,240.7v1.5c-0.6,0.1-1,0.2-1.3,0.2c-0.5,0-1-0.1-1.3-0.3c-0.4-0.2-0.6-0.5-0.8-0.8
		c-0.2-0.4-0.3-0.9-0.3-1.7v-4.4h-1.1v-1.5h1.2l0.2-2.2l1.6-0.1v2.4h1.7v1.5h-1.7v4.2c0,0.5,0.1,0.9,0.3,1.1s0.6,0.3,1.1,0.3
		C136.1,240.7,136.2,240.7,136.4,240.7z"/>
	<path class="st11" d="M143.2,239.5l1.7,0.2c-0.2,0.8-0.7,1.4-1.3,1.9c-0.7,0.5-1.5,0.8-2.5,0.8c-1.2,0-2.1-0.4-2.9-1.2
		s-1.1-1.9-1.1-3.2c0-1.3,0.4-2.4,1.1-3.2c0.7-0.8,1.7-1.3,3-1.3c1.2,0,2.2,0.4,2.8,1.3c0.7,0.8,1,1.9,1,3.2l0,0.2h-5.9
		c0,0.6,0.1,1,0.2,1.4c0.1,0.4,0.3,0.7,0.7,0.9c0.3,0.3,0.7,0.4,1.2,0.4C142.3,240.9,142.9,240.4,143.2,239.5z M143.1,236.9
		c0-0.6-0.2-1.1-0.6-1.5c-0.4-0.4-0.8-0.6-1.4-0.6c-0.5,0-1,0.2-1.3,0.5c-0.4,0.4-0.6,0.9-0.6,1.5H143.1z"/>
</g>
<g>
	<rect x="529.1" y="566.1" class="st6" width="5.3" height="38.7"/>
</g>
<g>
	
		<rect x="515" y="507.2" transform="matrix(0.851 -0.5251 0.5251 0.851 -192.8394 348.4442)" class="st6" width="5.3" height="13.8"/>
</g>
<g>
	<rect x="445.6" y="456.3" class="st6" width="38.7" height="5.3"/>
</g>
<g>
	<rect x="314.7" y="466.2" class="st6" width="46.3" height="5.3"/>
</g>
<g>
	<rect x="136.8" y="466.8" class="st6" width="5.3" height="25.7"/>
</g>
<g>
	<rect x="146.8" y="384.6" class="st6" width="31.9" height="5.3"/>
</g>
<g>
	<rect x="564" y="406.1" class="st7" width="98.7" height="5.3"/>
</g>
<g>
	<rect x="487.7" y="331.7" class="st7" width="5.3" height="31"/>
</g>
<g>
	<rect x="446.4" y="210.4" class="st7" width="37.1" height="5.3"/>
</g>
<g>
	<rect x="323.3" y="139.5" class="st7" width="5.3" height="15.1"/>
</g>
<g>
	<rect x="256.3" y="192.5" class="st7" width="5.3" height="33.7"/>
</g>
<g>
	<rect x="69.5" y="299.4" class="st7" width="29.5" height="5.3"/>
</g>
</svg>
