<?xml version="1.0" encoding="utf-8"?>
<!-- Generator: Adobe Illustrator 25.2.1, SVG Export Plug-In . SVG Version: 6.00 Build 0)  -->
<svg version="1.1" id="Layer_1" xmlns="http://www.w3.org/2000/svg" xmlns:xlink="http://www.w3.org/1999/xlink" x="0px" y="0px"
	 viewBox="0 0 708 708" style="enable-background:new 0 0 708 708;" xml:space="preserve">
<style type="text/css">
	.st0{fill-rule:evenodd;clip-rule:evenodd;fill:#101823;}
	.st1{fill:none;stroke:#161F2F;}
	.st2{fill:#161F2F;stroke:#161F2F;}
	.st3{fill:#FF4654;}
	.st4{fill:#16E5B4;}
	.st5{fill:#67748F;}
	.st6{opacity:0.11;fill-rule:evenodd;clip-rule:evenodd;fill:#FF4654;}
	.st7{fill:#BDC5CC;}
</style>
<path class="st0" d="M284,44h94v58v6h13V91h53v13h21l17-11h72v58h66v21l-17.8,10.3L642,249l0.5,21l-17.5-0.3V314h2l15-24h26v10h11
	v88v1v6h12v20h-12h-23h-33v42l-11,13h-9h-1h-5v6l-32,32h-31h-15h-21h-2h-5v50v3v23v11v1h-1l-83,83l-8-2l-7,2l-5.5-1l-3.5,3h-1h-2
	h-80l-6-5l-5.5-1l-12-8H268l-8-3l-17-1.5l-12.5-2.5l-11.5-2l-31-1l-19-23v-32h15v-12h-74l-5.5-0.5l-3.5-3l-6-3.5l-9-1l-24-23v-34
	l24-17h4.5l6.5-9l3.5-2l4.5-1l3-3.5V487l-1.5-5l-4-3.5l-8.5-1v-19l14-41.5v-36h12v-5H91v29H22v-29v-65v-21h52v-18h-6v-89l35-34h12
	v-18h56v18h54v-42h-18V55.5l16-8.5h25h16h6h14V44z M117,197v75h-16v19l15,20h4h23v-15h67v-26.5l-33-33V216h-31v-19H117z M143,376h49
	l6-9h3v17v7v12l26,26h29l34,19h26v-19h76l18,10h23h2h19v7v40h-43v52l18,23h25v24l-29,28.6V612h-43h-6v-36h-95v36h-57v-10h-4v-15h4
	l1.5-5v-5.5l1-6.5v-10l-2.5-6l-0.5-14l2-4.5L224,528l-7-13l-20.5-28L185,473h-41v-10h17v-66h-18v-16V376z M201.5,342H229v42h30v-49
	v-6v-58h-4v53l-16,12h-41v6h3H201.5z M255,246v-17l-28-28h-34v-10h32h6h33v-84v-5v-3h6v9h14h17h4v61v1l3.5,3.5l1.5,5.5h5.5H378v-9
	h47l18.5-34H463l46,100v39h-7v-11h-45l-64,64h-47v56h-32v-55h-19v-93h-36v10H255z M419,360l51.5-51H501h1h8v4h-35l-27,26v21h-15v46
	h-14v-17v-5V360z M481,437v2h17v21h21v-13v-11v-47h-8h-9h-21V437z M550,401h15v35h32v10h5v-31v-20h21h33v-6h-75v-12h-31V401z
	 M590,269v6h-42v-61.5l25-14.4l17,33.9v33V269z M102,544.5l0.5-9.5l3-6.5l5-2.5c4.2-3.2,12.6-9.6,13-10s8.5-5.2,12.5-7.5l12.5-5.5
	l15-3h9.5l6,3.5c-1.8,0.7-5.7,2-6.5,2s-8,0.3-11.5,0.5l-11,2.5l-11.5,5l-12.5,7l-9,6.5l-2,4.5l-0.5,3.5l-3,4L102,544.5z"/>
<path class="st1" d="M509.5,313v14.5H460"/>
<path class="st1" d="M500.5,313v34.5h9V313"/>
<path class="st1" d="M510,309.5h27.5v3H510"/>
<path class="st1" d="M508.5,275v34"/>
<path class="st1" d="M548.5,275v82.5h-67V389"/>
<path class="st2" d="M553.5,142.5h-13v11h13V142.5z"/>
<path class="st2" d="M507,172l-20.5,14l8.5,18.5l23-17.5L507,172z"/>
<path class="st2" d="M520,170.5l-9.5,7l3.5,9l11.5-9L520,170.5z"/>
<path class="st2" d="M562.5,275.5h-10v10h10V275.5z"/>
<path class="st1" d="M589.5,302v27.5h-9v3h-11v23H561h19.5V377"/>
<path class="st2" d="M586.5,338.5h-11v12h11v7h11v-12h-11V338.5z"/>
<path class="st1" d="M454.5,333v106"/>
<path class="st2" d="M564.5,464.5l-7.5-7l-16.5,17l7.5,7.5L564.5,464.5z"/>
<path class="st2" d="M478.5,528.5h12v17h-5v-6h-7V528.5z"/>
<path class="st1" d="M421.5,486v65.5"/>
<path class="st1" d="M481,388.5h-3.5v50h3.5h-26.5"/>
<path class="st1" d="M354.5,328v68.5h-49V329"/>
<path class="st2" d="M360.5,671.5v9h-23v-20h12v11H360.5z"/>
<path class="st1" d="M285.5,673c0-0.4,0-16.5,0-24.5H246h45.5v27"/>
<path class="st1" d="M102,542.5l-2.5,3l-1,5l1,2.5l2,1l3.5,1h3l3,2l3.5-1l2-3.5l0.5-9.5l-1-7.5l-1-3"/>
<path class="st1" d="M144.5,463v-41.5"/>
<path class="st2" d="M329.5,66.5L330,62l17.5,3v8.5H345l-0.5,5.5l-7-0.5L337,80l-7-1l0.5-5.5l-1-1l-6-0.5l1-5.5H329.5z"/>
<path class="st1" d="M378.5,170v-24"/>
<path class="st2" d="M270.5,365.5h-11v18h11V365.5z"/>
<path class="st2" d="M263.5,184.5v6h-6v-6H263.5z"/>
<path class="st2" d="M145.5,184.5v12h-10v-12H145.5z"/>
<path class="st2" d="M122.5,131.5h-7v7h2l5-4V131.5z"/>
<path class="st2" d="M83.5,218.5h-15v13h15V218.5z"/>
<path class="st2" d="M116.5,321.5v-10h12v10H116.5z"/>
<path class="st2" d="M198.5,326.5v9h12v-9H198.5z"/>
<path class="st2" d="M149.5,369.5v6h22v-6h-4v-5h-11v5H149.5z"/>
<path class="st1" d="M255.5,246v25"/>
<path class="st1" d="M22,375.5h47.5v-47H22"/>
<path class="st2" d="M57.5,347.5v-19h12v19H57.5z"/>
<path class="st2" d="M33.5,350.5h-11v10h11V350.5z"/>
<g>
	<path class="st3" d="M341.5,120h2.4l4,11.5h-2.4l-0.8-2.4h-4.1l-0.8,2.4h-2.4L341.5,120z M341.2,127.3h3l-1-3.3
		c-0.2-0.6-0.5-1.8-0.5-1.8h0c0,0-0.3,1.2-0.5,1.8L341.2,127.3z"/>
	<path class="st3" d="M347.8,123.3h1.1v-2.6h2.1v2.6h1.4v1.4h-1.4v4.4c0,0.6,0.3,0.8,0.8,0.8c0.3,0,0.6,0,0.6,0v1.6c0,0-0.5,0-1.4,0
		c-1.1,0-2.2-0.4-2.2-2v-4.8h-1.1V123.3z"/>
	<path class="st3" d="M353,123.3h1.1v-2.6h2.1v2.6h1.4v1.4h-1.4v4.4c0,0.6,0.3,0.8,0.8,0.8c0.3,0,0.6,0,0.6,0v1.6c0,0-0.5,0-1.4,0
		c-1.1,0-2.2-0.4-2.2-2v-4.8H353V123.3z"/>
	<path class="st3" d="M363.8,130.6L363.8,130.6c-0.4,0.6-1,1.1-2.5,1.1c-1.7,0-2.9-0.9-2.9-2.5c0-1.8,1.5-2.4,3.3-2.6
		c1.4-0.2,2-0.3,2-0.9c0-0.6-0.5-1-1.4-1c-1,0-1.5,0.4-1.6,1.2h-1.9c0.1-1.4,1.1-2.7,3.5-2.7c2.5,0,3.5,1.1,3.5,3v4.2
		c0,0.6,0.1,1,0.3,1.1v0.1h-2.1C363.9,131.3,363.9,131,363.8,130.6z M363.8,128.6v-1.2c-0.4,0.2-1,0.4-1.5,0.5
		c-1.1,0.3-1.7,0.5-1.7,1.3s0.5,1,1.3,1C363.1,130.2,363.8,129.4,363.8,128.6z"/>
	<path class="st3" d="M366.9,127.4c0-2.5,1.6-4.4,4.1-4.4c2.1,0,3.5,1.2,3.7,3h-2.1c-0.1-0.7-0.7-1.3-1.5-1.3c-1.3,0-2,1-2,2.6
		c0,1.6,0.6,2.6,2,2.6c0.9,0,1.5-0.5,1.7-1.4h2.1c-0.1,1.8-1.5,3.1-3.7,3.1C368.5,131.7,366.9,129.8,366.9,127.4z"/>
	<path class="st3" d="M378.8,127.7l-0.9,1v2.8h-2.2V120h2.2v6.4l2.9-3.1h2.6l-3,3.1l3.4,5.1h-2.6L378.8,127.7z"/>
</g>
<g>
	<path class="st3" d="M327.5,632.1h2.4l4,11.5h-2.4l-0.8-2.4h-4.1l-0.8,2.4h-2.4L327.5,632.1z M327.2,639.3h3l-1-3.3
		c-0.2-0.6-0.5-1.8-0.5-1.8h0c0,0-0.3,1.2-0.5,1.8L327.2,639.3z"/>
	<path class="st3" d="M333.8,635.3h1.1v-2.6h2.1v2.6h1.4v1.4h-1.4v4.4c0,0.6,0.3,0.8,0.8,0.8c0.3,0,0.6,0,0.6,0v1.6c0,0-0.5,0-1.4,0
		c-1.1,0-2.2-0.4-2.2-2v-4.8h-1.1V635.3z"/>
	<path class="st3" d="M339,635.3h1.1v-2.6h2.1v2.6h1.4v1.4h-1.4v4.4c0,0.6,0.3,0.8,0.8,0.8c0.3,0,0.6,0,0.6,0v1.6c0,0-0.5,0-1.4,0
		c-1.1,0-2.2-0.4-2.2-2v-4.8H339V635.3z"/>
	<path class="st3" d="M349.8,642.7L349.8,642.7c-0.4,0.6-1,1.1-2.5,1.1c-1.7,0-2.9-0.9-2.9-2.5c0-1.8,1.5-2.4,3.3-2.6
		c1.4-0.2,2-0.3,2-0.9c0-0.6-0.5-1-1.4-1c-1,0-1.5,0.4-1.6,1.2h-1.9c0.1-1.4,1.1-2.7,3.5-2.7c2.5,0,3.5,1.1,3.5,3v4.2
		c0,0.6,0.1,1,0.3,1.1v0.1h-2.1C349.9,643.4,349.9,643,349.8,642.7z M349.8,640.7v-1.2c-0.4,0.2-1,0.4-1.5,0.5
		c-1.1,0.3-1.7,0.5-1.7,1.3s0.5,1,1.3,1C349.1,642.2,349.8,641.5,349.8,640.7z"/>
	<path class="st3" d="M352.9,639.5c0-2.5,1.6-4.4,4.1-4.4c2.1,0,3.5,1.2,3.7,3h-2.1c-0.1-0.7-0.7-1.3-1.5-1.3c-1.3,0-2,1-2,2.6
		c0,1.6,0.6,2.6,2,2.6c0.9,0,1.5-0.5,1.7-1.4h2.1c-0.1,1.8-1.5,3.1-3.7,3.1C354.5,643.8,352.9,641.9,352.9,639.5z"/>
	<path class="st3" d="M364.8,639.8l-0.9,1v2.8h-2.2v-11.5h2.2v6.4l2.9-3.1h2.6l-3,3.1l3.4,5.1h-2.6L364.8,639.8z"/>
</g>
<g>
	<path class="st4" d="M306.4,406h4.5c3.1,0,5,2.5,5,5.9c0,1.9-0.6,3.5-1.8,4.5c-0.9,0.7-2,1.1-3.4,1.1h-4.3V406z M310.5,415.5
		c2.2,0,3-1.3,3-3.6s-1-3.9-3-3.9h-1.9v7.5H310.5z"/>
	<path class="st4" d="M316.6,413.4c0-2.4,1.7-4.3,4.1-4.3c2.6,0,4.1,2,4.1,5h-6c0.2,1.3,0.9,2.1,2.1,2.1c0.9,0,1.3-0.4,1.6-1h2.2
		c-0.3,1.5-1.6,2.7-3.7,2.7C318.1,417.7,316.6,415.8,316.6,413.4z M318.8,412.5h3.7c-0.1-1-0.8-1.8-1.7-1.8
		C319.5,410.7,319,411.4,318.8,412.5z"/>
	<path class="st4" d="M325.1,409.3h1.1v-0.7c0-2,1.6-2.7,3.7-2.5v1.7c-1,0-1.5,0.1-1.5,0.9v0.6h1.5v1.5h-1.5v6.7h-2.2v-6.7h-1.1
		V409.3z"/>
	<path class="st4" d="M330.2,413.4c0-2.4,1.7-4.3,4.1-4.3c2.6,0,4.1,2,4.1,5h-6c0.2,1.3,0.9,2.1,2.1,2.1c0.9,0,1.3-0.4,1.6-1h2.2
		c-0.3,1.5-1.6,2.7-3.7,2.7C331.8,417.7,330.2,415.8,330.2,413.4z M332.4,412.5h3.7c-0.1-1-0.8-1.8-1.7-1.8
		C333.2,410.7,332.6,411.4,332.4,412.5z"/>
	<path class="st4" d="M341.5,410.4L341.5,410.4c0.6-0.9,1.4-1.3,2.5-1.3c1.7,0,2.8,1.3,2.8,3.1v5.4h-2.2v-5.1c0-0.9-0.5-1.5-1.4-1.5
		c-1,0-1.7,0.8-1.7,1.9v4.7h-2.2v-8.2h2.1V410.4z"/>
	<path class="st4" d="M347.6,414.8h2c0.1,0.9,0.8,1.4,1.8,1.4c1,0,1.5-0.4,1.5-0.9c0-0.8-1-0.9-2.2-1.1c-1.5-0.3-2.9-0.7-2.9-2.5
		c0-1.8,1.5-2.6,3.4-2.6c2.2,0,3.4,1.1,3.5,2.7h-2c-0.1-0.9-0.7-1.2-1.6-1.2c-0.9,0-1.4,0.3-1.4,0.9c0,0.7,1.1,0.8,2.3,1
		c1.4,0.3,2.9,0.7,2.9,2.6c0,1.7-1.4,2.6-3.5,2.6C349.1,417.7,347.8,416.6,347.6,414.8z"/>
	<path class="st4" d="M355.6,413.4c0-2.4,1.7-4.3,4.1-4.3c2.6,0,4.1,2,4.1,5h-6c0.2,1.3,0.9,2.1,2.1,2.1c0.9,0,1.3-0.4,1.6-1h2.2
		c-0.3,1.5-1.6,2.7-3.7,2.7C357.2,417.7,355.6,415.8,355.6,413.4z M357.8,412.5h3.7c-0.1-1-0.8-1.8-1.8-1.8
		C358.6,410.7,358,411.4,357.8,412.5z"/>
</g>
<g>
	<path class="st5" d="M488,132.6h4.4c1.1,0,1.9,0.3,2.4,0.7c0.5,0.5,0.8,1.1,0.8,1.8c0,1-0.6,1.7-1.5,2v0c1.1,0.3,1.8,1.2,1.8,2.4
		c0,0.9-0.3,1.6-0.9,2.1c-0.6,0.5-1.4,0.8-2.5,0.8H488V132.6z M492.2,136.6c0.9,0,1.5-0.4,1.5-1.2c0-0.7-0.5-1.2-1.4-1.2H490v2.3
		H492.2z M490,140.8h2.3c1,0,1.5-0.5,1.5-1.3c0-0.9-0.7-1.4-1.6-1.4H490V140.8z"/>
	<path class="st5" d="M498.9,132.6h7.9v1.7h-3v8.2h-2v-8.2h-3V132.6z"/>
	<path class="st5" d="M508.5,136.6L508.5,136.6c0.5-0.8,1-1.2,1.8-1.2c0.2,0,0.3,0,0.4,0.1v1.6h0c-1.2-0.1-2.1,0.5-2.1,2v3.4h-1.9
		v-7.1h1.8V136.6z"/>
	<path class="st5" d="M511,139c0-2.1,1.4-3.7,3.5-3.7c2.3,0,3.5,1.7,3.5,4.3h-5.1c0.1,1.1,0.7,1.8,1.8,1.8c0.7,0,1.2-0.3,1.4-0.9
		h1.8c-0.3,1.3-1.4,2.3-3.2,2.3C512.3,142.7,511,141.1,511,139z M512.8,138.2h3.1c-0.1-0.9-0.6-1.5-1.5-1.5
		C513.5,136.7,513,137.3,512.8,138.2z"/>
	<path class="st5" d="M518.5,139c0-2.1,1.4-3.7,3.5-3.7c2.3,0,3.5,1.7,3.5,4.3h-5.1c0.1,1.1,0.7,1.8,1.8,1.8c0.7,0,1.2-0.3,1.4-0.9
		h1.8c-0.3,1.3-1.4,2.3-3.2,2.3C519.8,142.7,518.5,141.1,518.5,139z M520.3,138.2h3.1c-0.1-0.9-0.6-1.5-1.5-1.5
		C521,136.7,520.5,137.3,520.3,138.2z"/>
</g>
<g>
	<path class="st5" d="M584.7,213.7h4.4c1.1,0,1.9,0.3,2.4,0.7c0.5,0.5,0.8,1.1,0.8,1.8c0,1-0.6,1.7-1.5,2v0c1.1,0.3,1.8,1.2,1.8,2.4
		c0,0.9-0.3,1.6-0.9,2.1c-0.6,0.5-1.4,0.8-2.5,0.8h-4.5V213.7z M588.9,217.7c0.9,0,1.5-0.4,1.5-1.2c0-0.7-0.5-1.2-1.4-1.2h-2.2v2.3
		H588.9z M586.7,221.9h2.3c1,0,1.5-0.5,1.5-1.3c0-0.9-0.7-1.4-1.6-1.4h-2.2V221.9z"/>
	<path class="st5" d="M596.1,213.7h2.8l1.4,5c0.3,1.2,0.6,2.7,0.6,2.7h0c0,0,0.3-1.4,0.6-2.7l1.4-5h2.9v9.9h-1.9v-5.7
		c0-0.8,0.1-2,0.1-2h0c0,0-0.2,1.2-0.4,1.9l-1.7,5.8H600l-1.7-5.8c-0.2-0.7-0.4-1.9-0.4-1.9h0c0,0,0.1,1.2,0.1,2v5.7h-1.8V213.7z"/>
	<path class="st5" d="M611.4,222.8L611.4,222.8c-0.4,0.5-0.9,1-2.1,1c-1.4,0-2.5-0.8-2.5-2.2c0-1.6,1.3-2.1,2.8-2.3
		c1.2-0.2,1.7-0.3,1.7-0.8c0-0.5-0.4-0.8-1.2-0.8c-0.9,0-1.3,0.3-1.4,1h-1.7c0.1-1.2,1-2.3,3-2.3c2.1,0,3,1,3,2.6v3.6
		c0,0.5,0.1,0.9,0.2,1v0.1h-1.8C611.5,223.4,611.4,223.1,611.4,222.8z M611.4,221.1V220c-0.3,0.2-0.8,0.3-1.3,0.4
		c-1,0.2-1.5,0.4-1.5,1.1s0.4,0.9,1.1,0.9C610.8,222.4,611.4,221.8,611.4,221.1z"/>
	<path class="st5" d="M614.4,213.7h1.9v1.7h-1.9V213.7z M614.4,216.5h1.9v7.1h-1.9V216.5z"/>
	<path class="st5" d="M619.3,217.5L619.3,217.5c0.5-0.8,1.2-1.2,2.1-1.2c1.5,0,2.4,1.1,2.4,2.6v4.6H622v-4.3c0-0.8-0.4-1.3-1.2-1.3
		c-0.8,0-1.4,0.7-1.4,1.6v4h-1.9v-7.1h1.8V217.5z"/>
</g>
<g>
	<path class="st5" d="M502,229.1h4.4c1.1,0,1.9,0.3,2.4,0.7c0.5,0.5,0.8,1.1,0.8,1.8c0,1-0.6,1.7-1.5,2v0c1.1,0.3,1.8,1.2,1.8,2.4
		c0,0.9-0.3,1.6-0.9,2.1c-0.6,0.5-1.4,0.8-2.5,0.8H502V229.1z M506.2,233c0.9,0,1.5-0.4,1.5-1.2c0-0.7-0.5-1.2-1.4-1.2H504v2.3
		H506.2z M504,237.3h2.3c1,0,1.5-0.5,1.5-1.3c0-0.9-0.7-1.4-1.6-1.4H504V237.3z"/>
	<path class="st5" d="M512.9,229.1h7.9v1.7h-3v8.2h-2v-8.2h-3V229.1z"/>
	<path class="st5" d="M525.2,238.9v-0.8h0c-0.5,0.6-1,1-2,1c-1.6,0-2.5-1-2.5-2.6v-4.7h1.9v4.4c0,0.8,0.4,1.3,1.2,1.3
		c0.9,0,1.4-0.7,1.4-1.6v-4.1h1.9v7.1H525.2z"/>
	<path class="st5" d="M530,232.8L530,232.8c0.5-0.8,1.2-1.2,2.1-1.2c1.5,0,2.4,1.1,2.4,2.6v4.6h-1.9v-4.3c0-0.8-0.4-1.3-1.2-1.3
		c-0.8,0-1.4,0.7-1.4,1.6v4h-1.9v-7.1h1.8V232.8z"/>
	<path class="st5" d="M537.6,232.8L537.6,232.8c0.5-0.8,1.2-1.2,2.1-1.2c1.5,0,2.4,1.1,2.4,2.6v4.6h-1.9v-4.3c0-0.8-0.4-1.3-1.2-1.3
		c-0.8,0-1.4,0.7-1.4,1.6v4h-1.9v-7.1h1.8V232.8z"/>
	<path class="st5" d="M543,235.4c0-2.1,1.4-3.7,3.5-3.7c2.3,0,3.5,1.7,3.5,4.3h-5.1c0.1,1.1,0.7,1.8,1.8,1.8c0.7,0,1.2-0.3,1.4-0.9
		h1.8c-0.3,1.3-1.4,2.3-3.2,2.3C544.3,239.1,543,237.5,543,235.4z M544.8,234.6h3.1c-0.1-0.9-0.6-1.5-1.5-1.5
		C545.5,233.1,545,233.7,544.8,234.6z"/>
	<path class="st5" d="M550.8,229.1h1.9v9.9h-1.9V229.1z"/>
</g>
<g>
	<path class="st5" d="M402.1,311.6h4.4c1.1,0,1.9,0.3,2.4,0.7c0.5,0.5,0.8,1.1,0.8,1.8c0,1-0.6,1.7-1.5,2v0c1.1,0.3,1.8,1.2,1.8,2.4
		c0,0.9-0.3,1.6-0.9,2.1c-0.6,0.5-1.4,0.8-2.5,0.8h-4.5V311.6z M406.3,315.6c0.9,0,1.5-0.4,1.5-1.2c0-0.7-0.5-1.2-1.4-1.2h-2.2v2.3
		H406.3z M404.1,319.8h2.3c1,0,1.5-0.5,1.5-1.3c0-0.9-0.7-1.4-1.6-1.4h-2.2V319.8z"/>
	<path class="st5" d="M413,316.6c0-2.9,1.8-5.2,4.7-5.2c2.4,0,3.9,1.4,4.1,3.3h-2c-0.2-1-0.9-1.6-2.1-1.6c-1.8,0-2.7,1.5-2.7,3.5
		c0,2,1,3.5,2.7,3.5c1.2,0,2-0.7,2.1-1.7h2c-0.1,0.9-0.4,1.7-1.1,2.3c-0.7,0.6-1.6,1-3,1C415,321.7,413,319.6,413,316.6z"/>
	<path class="st5" d="M427,320.7L427,320.7c-0.4,0.5-0.9,1-2.1,1c-1.4,0-2.5-0.8-2.5-2.2c0-1.6,1.3-2.1,2.8-2.3
		c1.2-0.2,1.7-0.3,1.7-0.8c0-0.5-0.4-0.8-1.2-0.8c-0.9,0-1.3,0.3-1.4,1h-1.7c0.1-1.2,1-2.3,3-2.3c2.1,0,3,1,3,2.6v3.6
		c0,0.5,0.1,0.9,0.2,1v0.1h-1.8C427.1,321.4,427,321,427,320.7z M427,319v-1.1c-0.3,0.2-0.8,0.3-1.3,0.4c-1,0.2-1.5,0.4-1.5,1.1
		s0.4,0.9,1.1,0.9C426.4,320.4,427,319.7,427,319z"/>
	<path class="st5" d="M431.8,315.4L431.8,315.4c0.5-0.8,1.2-1.2,2.1-1.2c1.5,0,2.4,1.1,2.4,2.6v4.6h-1.9v-4.3c0-0.8-0.4-1.3-1.2-1.3
		c-0.8,0-1.4,0.7-1.4,1.6v4H430v-7.1h1.8V315.4z"/>
	<path class="st5" d="M437,314.4h1v-2.2h1.8v2.2h1.2v1.2h-1.2v3.8c0,0.5,0.3,0.7,0.7,0.7c0.2,0,0.6,0,0.6,0v1.4c0,0-0.4,0-1.2,0
		c-0.9,0-1.9-0.4-1.9-1.7v-4.2h-1V314.4z"/>
	<path class="st5" d="M441.5,318c0-2.1,1.4-3.7,3.5-3.7c2.3,0,3.5,1.7,3.5,4.3h-5.1c0.1,1.1,0.7,1.8,1.8,1.8c0.7,0,1.2-0.3,1.4-0.9
		h1.8c-0.3,1.3-1.4,2.3-3.2,2.3C442.9,321.7,441.5,320.1,441.5,318z M443.4,317.2h3.1c-0.1-0.9-0.6-1.5-1.5-1.5
		C444.1,315.7,443.6,316.3,443.4,317.2z"/>
	<path class="st5" d="M449,318c0-2.1,1.4-3.7,3.5-3.7c2.3,0,3.5,1.7,3.5,4.3h-5.1c0.1,1.1,0.7,1.8,1.8,1.8c0.7,0,1.2-0.3,1.4-0.9
		h1.8c-0.3,1.3-1.4,2.3-3.2,2.3C450.4,321.7,449,320.1,449,318z M450.9,317.2h3.1c-0.1-0.9-0.6-1.5-1.5-1.5
		C451.6,315.7,451.1,316.3,450.9,317.2z"/>
	<path class="st5" d="M458.7,315.4L458.7,315.4c0.5-0.8,1.2-1.2,2.1-1.2c1.5,0,2.4,1.1,2.4,2.6v4.6h-1.9v-4.3c0-0.8-0.4-1.3-1.2-1.3
		c-0.8,0-1.4,0.7-1.4,1.6v4h-1.9v-7.1h1.8V315.4z"/>
</g>
<g>
	<path class="st5" d="M459.5,346.1h4.4c1.1,0,1.9,0.3,2.4,0.7c0.5,0.5,0.8,1.1,0.8,1.8c0,1-0.6,1.7-1.5,2v0c1.1,0.3,1.8,1.2,1.8,2.4
		c0,0.9-0.3,1.6-0.9,2.1c-0.6,0.5-1.4,0.8-2.5,0.8h-4.5V346.1z M463.7,350.1c0.9,0,1.5-0.4,1.5-1.2c0-0.7-0.5-1.2-1.4-1.2h-2.2v2.3
		H463.7z M461.5,354.3h2.3c1,0,1.5-0.5,1.5-1.3c0-0.9-0.7-1.4-1.6-1.4h-2.2V354.3z"/>
	<path class="st5" d="M478,354.7L478,354.7c-0.7,1.1-1.6,1.5-2.8,1.5c-1.5,0-2.6-0.5-3.5-1.4c-0.8-0.9-1.3-2.2-1.3-3.7
		c0-1.6,0.6-3.1,1.6-4c0.8-0.7,1.8-1.1,3.2-1.1c2.5,0,3.9,1.4,4.2,3.3h-2c-0.2-1-1-1.6-2.2-1.6c-1.9,0-2.8,1.5-2.8,3.5
		c0,2,1.1,3.5,2.8,3.5c1.5,0,2.5-1.1,2.5-2.2v-0.1h-2.4v-1.5h4.2v5.2h-1.5L478,354.7z"/>
	<path class="st5" d="M480.5,352.5c0-2.1,1.4-3.7,3.5-3.7c2.3,0,3.5,1.7,3.5,4.3h-5.1c0.1,1.1,0.7,1.8,1.8,1.8
		c0.7,0,1.2-0.3,1.4-0.9h1.8c-0.3,1.3-1.4,2.3-3.2,2.3C481.8,356.2,480.5,354.6,480.5,352.5z M482.4,351.7h3.1
		c-0.1-0.9-0.6-1.5-1.5-1.5C483,350.2,482.5,350.8,482.4,351.7z"/>
	<path class="st5" d="M490.2,349.9L490.2,349.9c0.5-0.8,1.2-1.2,2.1-1.2c1.5,0,2.4,1.1,2.4,2.6v4.6h-1.9v-4.3c0-0.8-0.4-1.3-1.2-1.3
		c-0.8,0-1.4,0.7-1.4,1.6v4h-1.9v-7.1h1.8V349.9z"/>
	<path class="st5" d="M495.6,352.5c0-2.1,1.4-3.7,3.5-3.7c2.3,0,3.5,1.7,3.5,4.3h-5.1c0.1,1.1,0.7,1.8,1.8,1.8
		c0.7,0,1.2-0.3,1.4-0.9h1.8c-0.3,1.3-1.4,2.3-3.2,2.3C496.9,356.2,495.6,354.6,495.6,352.5z M497.4,351.7h3.1
		c-0.1-0.9-0.6-1.5-1.5-1.5C498.1,350.2,497.6,350.8,497.4,351.7z"/>
	<path class="st5" d="M505.2,350.1L505.2,350.1c0.5-0.8,1-1.2,1.8-1.2c0.2,0,0.3,0,0.4,0.1v1.6h0c-1.2-0.1-2.1,0.5-2.1,2v3.4h-1.9
		v-7.1h1.8V350.1z"/>
	<path class="st5" d="M512.3,355.2L512.3,355.2c-0.4,0.5-0.9,1-2.1,1c-1.4,0-2.5-0.8-2.5-2.2c0-1.6,1.3-2.1,2.8-2.3
		c1.2-0.2,1.7-0.3,1.7-0.8c0-0.5-0.4-0.8-1.2-0.8c-0.9,0-1.3,0.3-1.4,1H508c0.1-1.2,1-2.3,3-2.3c2.1,0,3,1,3,2.6v3.6
		c0,0.5,0.1,0.9,0.2,1v0.1h-1.8C512.4,355.9,512.3,355.5,512.3,355.2z M512.3,353.5v-1.1c-0.3,0.2-0.8,0.3-1.3,0.4
		c-1,0.2-1.5,0.4-1.5,1.1s0.4,0.9,1.1,0.9C511.7,354.9,512.3,354.2,512.3,353.5z"/>
	<path class="st5" d="M514.7,348.9h1v-2.2h1.8v2.2h1.2v1.2h-1.2v3.8c0,0.5,0.3,0.7,0.7,0.7c0.2,0,0.6,0,0.6,0v1.4c0,0-0.4,0-1.2,0
		c-0.9,0-1.9-0.4-1.9-1.7v-4.2h-1V348.9z"/>
	<path class="st5" d="M519.3,352.5c0-2.1,1.5-3.7,3.7-3.7s3.7,1.6,3.7,3.7s-1.5,3.7-3.7,3.7S519.3,354.6,519.3,352.5z M524.8,352.5
		c0-1.4-0.6-2.3-1.8-2.3c-1.2,0-1.8,0.9-1.8,2.3s0.6,2.3,1.8,2.3C524.1,354.8,524.8,353.8,524.8,352.5z"/>
	<path class="st5" d="M529.3,350.1L529.3,350.1c0.5-0.8,1-1.2,1.8-1.2c0.2,0,0.3,0,0.4,0.1v1.6h0c-1.2-0.1-2.1,0.5-2.1,2v3.4h-1.9
		v-7.1h1.8V350.1z"/>
</g>
<g>
	<path class="st5" d="M429.2,417.5h4.4c1.1,0,1.9,0.3,2.4,0.7c0.5,0.5,0.8,1.1,0.8,1.8c0,1-0.6,1.7-1.5,2v0c1.1,0.3,1.8,1.2,1.8,2.4
		c0,0.9-0.3,1.6-0.9,2.1c-0.6,0.5-1.4,0.8-2.5,0.8h-4.5V417.5z M433.4,421.5c0.9,0,1.5-0.4,1.5-1.2c0-0.7-0.5-1.2-1.4-1.2h-2.2v2.3
		H433.4z M431.2,425.7h2.3c1,0,1.5-0.5,1.5-1.3c0-0.9-0.7-1.4-1.6-1.4h-2.2V425.7z"/>
	<path class="st5" d="M440.6,417.5h2v8.2h4.6v1.7h-6.6V417.5z"/>
	<path class="st5" d="M448.2,417.5h1.9v1.7h-1.9V417.5z M448.2,420.3h1.9v7.1h-1.9V420.3z"/>
	<path class="st5" d="M453.1,421.2L453.1,421.2c0.5-0.8,1.2-1.2,2.1-1.2c1.5,0,2.4,1.1,2.4,2.6v4.6h-1.9V423c0-0.8-0.4-1.3-1.2-1.3
		c-0.8,0-1.4,0.7-1.4,1.6v4h-1.9v-7.1h1.8V421.2z"/>
	<path class="st5" d="M461.5,424.1l-0.8,0.8v2.4h-1.9v-9.9h1.9v5.5l2.5-2.7h2.2l-2.6,2.7l2.9,4.4h-2.3L461.5,424.1z"/>
</g>
<g>
	<path class="st5" d="M488,480.4h4.4c1.1,0,1.9,0.3,2.4,0.7c0.5,0.5,0.8,1.1,0.8,1.8c0,1-0.6,1.7-1.5,2v0c1.1,0.3,1.8,1.2,1.8,2.4
		c0,0.9-0.3,1.6-0.9,2.1c-0.6,0.5-1.4,0.8-2.5,0.8H488V480.4z M492.2,484.4c0.9,0,1.5-0.4,1.5-1.2c0-0.7-0.5-1.2-1.4-1.2H490v2.3
		H492.2z M490,488.6h2.3c1,0,1.5-0.5,1.5-1.3c0-0.9-0.7-1.4-1.6-1.4H490V488.6z"/>
	<path class="st5" d="M502.1,480.4h2.1l3.5,9.9h-2.1l-0.7-2.1h-3.6l-0.6,2.1h-2L502.1,480.4z M501.8,486.7h2.6l-0.9-2.8
		c-0.2-0.5-0.4-1.5-0.4-1.5h0c0,0-0.2,1-0.4,1.5L501.8,486.7z"/>
	<path class="st5" d="M510.1,484.3L510.1,484.3c0.5-0.8,1-1.2,1.8-1.2c0.2,0,0.3,0,0.4,0.1v1.6h0c-1.2-0.1-2.1,0.5-2.1,2v3.4h-1.9
		v-7.1h1.8V484.3z"/>
	<path class="st5" d="M512.6,486.8c0-2.1,1.4-3.7,3.5-3.7c1.8,0,3,1.1,3.2,2.6h-1.8c-0.1-0.6-0.6-1.1-1.3-1.1
		c-1.1,0-1.7,0.9-1.7,2.2c0,1.3,0.5,2.2,1.7,2.2c0.8,0,1.3-0.4,1.4-1.2h1.8c-0.1,1.5-1.3,2.7-3.2,2.7
		C514,490.5,512.6,488.9,512.6,486.8z"/>
	<path class="st5" d="M524.6,489.5L524.6,489.5c-0.4,0.5-0.9,1-2.1,1c-1.4,0-2.5-0.8-2.5-2.2c0-1.6,1.3-2.1,2.8-2.3
		c1.2-0.2,1.7-0.3,1.7-0.8c0-0.5-0.4-0.8-1.2-0.8c-0.9,0-1.3,0.3-1.4,1h-1.7c0.1-1.2,1-2.3,3-2.3c2.1,0,3,1,3,2.6v3.6
		c0,0.5,0.1,0.9,0.2,1v0.1h-1.8C524.7,490.2,524.6,489.8,524.6,489.5z M524.6,487.8v-1.1c-0.3,0.2-0.8,0.3-1.3,0.4
		c-1,0.2-1.5,0.4-1.5,1.1s0.4,0.9,1.1,0.9C524,489.1,524.6,488.5,524.6,487.8z"/>
	<path class="st5" d="M527.2,486.8c0-2.2,1.3-3.7,3-3.7c1,0,1.6,0.5,2,1h0v-3.6h1.9v9.9h-1.8v-0.9h0c-0.4,0.7-1.1,1.1-2.1,1.1
		C528.4,490.5,527.2,489,527.2,486.8z M532.3,486.8c0-1.4-0.4-2.3-1.6-2.3c-1,0-1.6,0.9-1.6,2.2c0,1.4,0.5,2.2,1.5,2.2
		C531.7,488.9,532.3,488.1,532.3,486.8z"/>
	<path class="st5" d="M535,486.7c0-2.1,1.4-3.7,3.5-3.7c2.3,0,3.5,1.7,3.5,4.3h-5.1c0.1,1.1,0.7,1.8,1.8,1.8c0.7,0,1.2-0.3,1.4-0.9
		h1.8c-0.3,1.3-1.4,2.3-3.2,2.3C536.3,490.5,535,488.9,535,486.7z M536.9,486h3.1c-0.1-0.9-0.6-1.5-1.5-1.5
		C537.5,484.5,537.1,485.1,536.9,486z"/>
</g>
<g>
	<path class="st5" d="M425,513.7h4.4c1.1,0,1.9,0.3,2.4,0.7c0.5,0.5,0.8,1.1,0.8,1.8c0,1-0.6,1.7-1.5,2v0c1.1,0.3,1.8,1.2,1.8,2.4
		c0,0.9-0.3,1.6-0.9,2.1c-0.6,0.5-1.4,0.8-2.5,0.8H425V513.7z M429.2,517.7c0.9,0,1.5-0.4,1.5-1.2c0-0.7-0.5-1.2-1.4-1.2H427v2.3
		H429.2z M427,521.9h2.3c1,0,1.5-0.5,1.5-1.3c0-0.9-0.7-1.4-1.6-1.4H427V521.9z"/>
	<path class="st5" d="M436.4,513.7h4.4c1.1,0,1.9,0.3,2.4,0.7c0.5,0.5,0.8,1.1,0.8,1.8c0,1-0.6,1.7-1.5,2v0c1.1,0.3,1.8,1.2,1.8,2.4
		c0,0.9-0.3,1.6-0.9,2.1c-0.6,0.5-1.4,0.8-2.5,0.8h-4.5V513.7z M440.6,517.7c0.9,0,1.5-0.4,1.5-1.2c0-0.7-0.5-1.2-1.4-1.2h-2.2v2.3
		H440.6z M438.4,521.9h2.3c1,0,1.5-0.5,1.5-1.3c0-0.9-0.7-1.4-1.6-1.4h-2.2V521.9z"/>
	<path class="st5" d="M445.1,520c0-2.1,1.4-3.7,3.5-3.7c2.3,0,3.5,1.7,3.5,4.3h-5.1c0.1,1.1,0.7,1.8,1.8,1.8c0.7,0,1.2-0.3,1.4-0.9
		h1.8c-0.3,1.3-1.4,2.3-3.2,2.3C446.4,523.8,445.1,522.1,445.1,520z M447,519.3h3.1c-0.1-0.9-0.6-1.5-1.5-1.5
		C447.6,517.7,447.1,518.3,447,519.3z"/>
	<path class="st5" d="M454.8,517.5L454.8,517.5c0.5-0.8,1.2-1.2,2.1-1.2c1.5,0,2.4,1.1,2.4,2.6v4.6h-1.9v-4.3c0-0.8-0.4-1.3-1.2-1.3
		c-0.8,0-1.4,0.7-1.4,1.6v4h-1.9v-7.1h1.8V517.5z"/>
	<path class="st5" d="M460.2,520c0-2.1,1.4-3.7,3.5-3.7c1.8,0,3,1.1,3.2,2.6h-1.8c-0.1-0.6-0.6-1.1-1.3-1.1c-1.1,0-1.7,0.9-1.7,2.2
		c0,1.3,0.5,2.2,1.7,2.2c0.8,0,1.3-0.4,1.4-1.2h1.8c-0.1,1.5-1.3,2.7-3.2,2.7C461.6,523.8,460.2,522.1,460.2,520z"/>
	<path class="st5" d="M469.7,517.4L469.7,517.4c0.6-0.7,1.1-1.1,2.1-1.1c1.5,0,2.4,1.1,2.4,2.6v4.6h-1.9v-4.3c0-0.8-0.4-1.3-1.2-1.3
		c-0.8,0-1.4,0.7-1.4,1.6v4h-1.9v-9.9h1.9V517.4z"/>
</g>
<g>
	<path class="st5" d="M185.4,622.8h2.1l3.5,9.9h-2.1l-0.7-2.1h-3.6l-0.6,2.1h-2L185.4,622.8z M185.1,629.1h2.6l-0.9-2.8
		c-0.2-0.5-0.4-1.5-0.4-1.5h0c0,0-0.2,1-0.4,1.5L185.1,629.1z"/>
	<path class="st5" d="M201.2,631.4L201.2,631.4c-0.7,1.1-1.6,1.5-2.8,1.5c-1.5,0-2.6-0.5-3.5-1.4c-0.8-0.9-1.3-2.2-1.3-3.7
		c0-1.6,0.6-3.1,1.6-4c0.8-0.7,1.8-1.1,3.2-1.1c2.5,0,3.9,1.4,4.2,3.3h-2c-0.2-1-1-1.6-2.2-1.6c-1.9,0-2.8,1.5-2.8,3.5
		c0,2,1.1,3.5,2.8,3.5c1.5,0,2.5-1.1,2.5-2.2V629h-2.4v-1.5h4.2v5.2h-1.5L201.2,631.4z"/>
	<path class="st5" d="M208.3,631.9L208.3,631.9c-0.4,0.5-0.9,1-2.1,1c-1.4,0-2.5-0.8-2.5-2.2c0-1.6,1.3-2.1,2.8-2.3
		c1.2-0.2,1.7-0.3,1.7-0.8c0-0.5-0.4-0.8-1.2-0.8c-0.9,0-1.3,0.3-1.4,1H204c0.1-1.2,1-2.3,3-2.3c2.1,0,3,1,3,2.6v3.6
		c0,0.5,0.1,0.9,0.2,1v0.1h-1.8C208.4,632.6,208.3,632.2,208.3,631.9z M208.3,630.2v-1.1c-0.3,0.2-0.8,0.3-1.3,0.4
		c-1,0.2-1.5,0.4-1.5,1.1s0.4,0.9,1.1,0.9C207.7,631.6,208.3,630.9,208.3,630.2z"/>
	<path class="st5" d="M210.7,625.6h1v-2.2h1.8v2.2h1.2v1.2h-1.2v3.8c0,0.5,0.3,0.7,0.7,0.7c0.2,0,0.6,0,0.6,0v1.4c0,0-0.4,0-1.2,0
		c-0.9,0-1.9-0.4-1.9-1.7v-4.2h-1V625.6z"/>
	<path class="st5" d="M215.3,629.2c0-2.1,1.4-3.7,3.5-3.7c2.3,0,3.5,1.7,3.5,4.3h-5.1c0.1,1.1,0.7,1.8,1.8,1.8
		c0.7,0,1.2-0.3,1.4-0.9h1.8c-0.3,1.3-1.4,2.3-3.2,2.3C216.6,632.9,215.3,631.3,215.3,629.2z M217.1,628.4h3.1
		c-0.1-0.9-0.6-1.5-1.5-1.5C217.8,626.9,217.3,627.5,217.1,628.4z"/>
</g>
<g>
	<path class="st5" d="M138.1,534.9h2.1l3.5,9.9h-2.1l-0.7-2.1h-3.6l-0.6,2.1h-2L138.1,534.9z M137.8,541.1h2.6l-0.9-2.8
		c-0.2-0.5-0.4-1.5-0.4-1.5h0c0,0-0.2,1-0.4,1.5L137.8,541.1z"/>
	<path class="st5" d="M146.8,534.9h3.8c2.6,0,4.3,2.1,4.3,5c0,1.6-0.5,3-1.6,3.9c-0.7,0.6-1.7,1-2.9,1h-3.7V534.9z M150.3,543
		c1.9,0,2.6-1.1,2.6-3.1s-0.9-3.3-2.6-3.3h-1.6v6.4H150.3z"/>
	<path class="st5" d="M155.9,534.9h1.9v1.7h-1.9V534.9z M155.9,537.7h1.9v7.1h-1.9V537.7z"/>
	<path class="st5" d="M158.6,542.5h1.7c0.1,0.8,0.7,1.2,1.5,1.2c0.8,0,1.3-0.3,1.3-0.8c0-0.7-0.9-0.7-1.9-0.9
		c-1.3-0.2-2.5-0.6-2.5-2.1c0-1.5,1.3-2.3,2.9-2.3c1.9,0,2.9,0.9,3,2.3H163c-0.1-0.8-0.6-1-1.4-1c-0.7,0-1.2,0.3-1.2,0.8
		c0,0.6,0.9,0.7,1.9,0.9c1.2,0.2,2.5,0.6,2.5,2.2c0,1.4-1.2,2.3-3,2.3C159.8,545,158.7,544,158.6,542.5z"/>
	<path class="st5" d="M167.6,538.6L167.6,538.6c0.6-0.7,1.1-1.1,2.1-1.1c1.5,0,2.4,1.1,2.4,2.6v4.6h-1.9v-4.3c0-0.8-0.4-1.3-1.2-1.3
		c-0.8,0-1.4,0.7-1.4,1.6v4h-1.9v-9.9h1.9V538.6z"/>
</g>
<g>
	<path class="st5" d="M114.5,414.7h2.1l3.5,9.9h-2.1l-0.7-2.1h-3.6l-0.6,2.1h-2L114.5,414.7z M114.2,421h2.6l-0.9-2.8
		c-0.2-0.5-0.4-1.5-0.4-1.5h0c0,0-0.2,1-0.4,1.5L114.2,421z"/>
	<path class="st5" d="M123.2,414.7h3.8c2.6,0,4.3,2.1,4.3,5c0,1.6-0.5,3-1.6,3.9c-0.7,0.6-1.7,1-2.9,1h-3.7V414.7z M126.7,422.9
		c1.9,0,2.6-1.1,2.6-3.1s-0.9-3.3-2.6-3.3h-1.6v6.4H126.7z"/>
	<path class="st5" d="M134.1,418.6L134.1,418.6c0.5-0.8,1-1.2,1.8-1.2c0.2,0,0.3,0,0.4,0.1v1.6h0c-1.2-0.1-2.1,0.5-2.1,2v3.4h-1.9
		v-7.1h1.8V418.6z"/>
	<path class="st5" d="M136.6,421.1c0-2.1,1.5-3.7,3.7-3.7s3.7,1.6,3.7,3.7s-1.5,3.7-3.7,3.7S136.6,423.2,136.6,421.1z M142,421.1
		c0-1.4-0.6-2.3-1.8-2.3c-1.2,0-1.8,0.9-1.8,2.3c0,1.4,0.6,2.3,1.8,2.3C141.4,423.4,142,422.4,142,421.1z"/>
	<path class="st5" d="M144.8,417.5h1.8v0.9h0c0.5-0.6,1.1-1.1,2.1-1.1c1.9,0,3.1,1.5,3.1,3.7c0,2.3-1.2,3.7-3.1,3.7
		c-1,0-1.6-0.4-2-1h0v3.1h-1.9V417.5z M149.9,421.1c0-1.3-0.5-2.3-1.6-2.3c-1.2,0-1.6,1-1.6,2.3c0,1.3,0.6,2.1,1.7,2.1
		C149.3,423.2,149.9,422.5,149.9,421.1z"/>
</g>
<g>
	<path class="st5" d="M76,254.9h2.1l3.5,9.9h-2.1l-0.7-2.1h-3.6l-0.6,2.1h-2L76,254.9z M75.7,261.2h2.6l-0.9-2.8
		c-0.2-0.5-0.4-1.5-0.4-1.5h0c0,0-0.2,1-0.4,1.5L75.7,261.2z"/>
	<path class="st5" d="M84.7,254.9h2.8l1.4,5c0.3,1.2,0.6,2.7,0.6,2.7h0c0,0,0.3-1.4,0.6-2.7l1.4-5h2.9v9.9h-1.9v-5.7
		c0-0.8,0.1-2,0.1-2h0c0,0-0.2,1.2-0.4,1.9l-1.7,5.8h-1.9l-1.7-5.8c-0.2-0.7-0.4-1.9-0.4-1.9h0c0,0,0.1,1.2,0.1,2v5.7h-1.8V254.9z"
		/>
	<path class="st5" d="M100,264L100,264c-0.4,0.5-0.9,1-2.1,1c-1.4,0-2.5-0.8-2.5-2.2c0-1.6,1.3-2.1,2.8-2.3c1.2-0.2,1.7-0.3,1.7-0.8
		c0-0.5-0.4-0.8-1.2-0.8c-0.9,0-1.3,0.3-1.4,1h-1.7c0.1-1.2,1-2.3,3-2.3c2.1,0,3,1,3,2.6v3.6c0,0.5,0.1,0.9,0.2,1v0.1h-1.8
		C100.1,264.7,100,264.3,100,264z M100,262.3v-1.1c-0.3,0.2-0.8,0.3-1.3,0.4c-1,0.2-1.5,0.4-1.5,1.1s0.4,0.9,1.1,0.9
		C99.4,263.7,100,263,100,262.3z"/>
	<path class="st5" d="M103,254.9h1.9v1.7H103V254.9z M103,257.7h1.9v7.1H103V257.7z"/>
	<path class="st5" d="M107.9,258.7L107.9,258.7c0.5-0.8,1.2-1.2,2.1-1.2c1.5,0,2.4,1.1,2.4,2.6v4.6h-1.9v-4.3c0-0.8-0.4-1.3-1.2-1.3
		c-0.8,0-1.4,0.7-1.4,1.6v4H106v-7.1h1.8V258.7z"/>
</g>
<g>
	<path class="st5" d="M161.7,204.1h2.1l3.5,9.9h-2.1l-0.7-2.1h-3.6l-0.6,2.1h-2L161.7,204.1z M161.4,210.3h2.6l-0.9-2.8
		c-0.2-0.5-0.4-1.5-0.4-1.5h0c0,0-0.2,1-0.4,1.5L161.4,210.3z"/>
	<path class="st5" d="M170.3,204.1h3.8c2.6,0,4.3,2.1,4.3,5c0,1.6-0.5,3-1.6,3.9c-0.7,0.6-1.7,1-2.9,1h-3.7V204.1z M173.9,212.2
		c1.9,0,2.6-1.1,2.6-3.1c0-2-0.9-3.3-2.6-3.3h-1.6v6.4H173.9z"/>
	<path class="st5" d="M179.1,210.4c0-2.1,1.5-3.7,3.7-3.7s3.7,1.6,3.7,3.7s-1.5,3.7-3.7,3.7S179.1,212.5,179.1,210.4z M184.6,210.4
		c0-1.4-0.6-2.3-1.8-2.3c-1.2,0-1.8,0.9-1.8,2.3s0.6,2.3,1.8,2.3C184,212.7,184.6,211.8,184.6,210.4z"/>
	<path class="st5" d="M187,210.4c0-2.1,1.5-3.7,3.7-3.7s3.7,1.6,3.7,3.7s-1.5,3.7-3.7,3.7S187,212.5,187,210.4z M192.5,210.4
		c0-1.4-0.6-2.3-1.8-2.3c-1.2,0-1.8,0.9-1.8,2.3s0.6,2.3,1.8,2.3C191.9,212.7,192.5,211.8,192.5,210.4z"/>
	<path class="st5" d="M197.1,208L197.1,208c0.5-0.8,1-1.2,1.8-1.2c0.2,0,0.3,0,0.4,0.1v1.6h0c-1.2-0.1-2.1,0.5-2.1,2v3.4h-1.9v-7.1
		h1.8V208z"/>
</g>
<g>
	<path class="st5" d="M214,251.9h2.1l3.5,9.9h-2.1l-0.7-2.1h-3.6l-0.6,2.1h-2L214,251.9z M213.7,258.1h2.6l-0.9-2.8
		c-0.2-0.5-0.4-1.5-0.4-1.5h0c0,0-0.2,1-0.4,1.5L213.7,258.1z"/>
	<path class="st5" d="M222.7,251.9h4.5c1.9,0,3.2,1.1,3.2,2.7c0,1.2-0.5,2-1.8,2.4v0c0.9,0.3,1.4,0.8,1.5,2c0.1,1.4,0.1,2.5,0.4,2.6
		v0.1h-1.9c-0.2-0.1-0.3-1.2-0.4-2.3c-0.1-1.1-0.7-1.7-1.9-1.7h-1.6v4h-2V251.9z M224.7,256.2h2.1c1.1,0,1.6-0.6,1.6-1.4
		c0-0.8-0.5-1.4-1.6-1.4h-2.2V256.2z"/>
	<path class="st5" d="M231.1,258.2c0-2.1,1.5-3.7,3.7-3.7s3.7,1.6,3.7,3.7s-1.5,3.7-3.7,3.7S231.1,260.3,231.1,258.2z M236.6,258.2
		c0-1.4-0.6-2.3-1.8-2.3c-1.2,0-1.8,0.9-1.8,2.3s0.6,2.3,1.8,2.3C235.9,260.5,236.6,259.6,236.6,258.2z"/>
	<path class="st5" d="M239.3,254.7h1.8v0.9h0c0.5-0.6,1.1-1.1,2.1-1.1c1.9,0,3.1,1.5,3.1,3.7c0,2.3-1.2,3.7-3.1,3.7
		c-1,0-1.6-0.4-2-1h0v3.1h-1.9V254.7z M244.4,258.3c0-1.3-0.5-2.3-1.6-2.3c-1.2,0-1.6,1-1.6,2.3c0,1.3,0.6,2.1,1.7,2.1
		C243.8,260.4,244.4,259.6,244.4,258.3z"/>
	<path class="st5" d="M246.9,258.2c0-2.1,1.4-3.7,3.5-3.7c2.3,0,3.5,1.7,3.5,4.3h-5.1c0.1,1.1,0.7,1.8,1.8,1.8
		c0.7,0,1.2-0.3,1.4-0.9h1.8c-0.3,1.3-1.4,2.3-3.2,2.3C248.2,262,246.9,260.3,246.9,258.2z M248.7,257.4h3.1
		c-0.1-0.9-0.6-1.5-1.5-1.5C249.4,255.9,248.9,256.5,248.7,257.4z"/>
</g>
<g>
	<path class="st5" d="M132,156.9h2.1l3.5,9.9h-2.1l-0.7-2.1h-3.6l-0.6,2.1h-2L132,156.9z M131.7,163.1h2.6l-0.9-2.8
		c-0.2-0.5-0.4-1.5-0.4-1.5h0c0,0-0.2,1-0.4,1.5L131.7,163.1z"/>
	<path class="st5" d="M140.7,156.9h2v3.9h3.9v-3.9h2v9.9h-2v-4.3h-3.9v4.3h-2V156.9z"/>
	<path class="st5" d="M154.1,165.9L154.1,165.9c-0.4,0.5-0.9,1-2.1,1c-1.4,0-2.5-0.8-2.5-2.2c0-1.6,1.3-2.1,2.8-2.3
		c1.2-0.2,1.7-0.3,1.7-0.8c0-0.5-0.4-0.8-1.2-0.8c-0.9,0-1.3,0.3-1.4,1h-1.7c0.1-1.2,1-2.3,3-2.3c2.1,0,3,1,3,2.6v3.6
		c0,0.5,0.1,0.9,0.2,1v0.1h-1.8C154.2,166.6,154.2,166.2,154.1,165.9z M154.1,164.2v-1.1c-0.3,0.2-0.8,0.3-1.3,0.4
		c-1,0.2-1.5,0.4-1.5,1.1s0.4,0.9,1.1,0.9C153.6,165.6,154.1,164.9,154.1,164.2z"/>
	<path class="st5" d="M157.1,156.9h1.9v9.9h-1.9V156.9z"/>
	<path class="st5" d="M160.3,156.9h1.9v9.9h-1.9V156.9z"/>
</g>
<g>
	<path class="st5" d="M613,399.6h4.4c1.1,0,1.9,0.3,2.4,0.7c0.5,0.5,0.8,1.1,0.8,1.8c0,1-0.6,1.7-1.5,2v0c1.1,0.3,1.8,1.2,1.8,2.4
		c0,0.9-0.3,1.6-0.9,2.1c-0.6,0.5-1.4,0.8-2.5,0.8H613V399.6z M617.1,403.6c0.9,0,1.5-0.4,1.5-1.2c0-0.7-0.5-1.2-1.4-1.2H615v2.3
		H617.1z M615,407.8h2.3c1,0,1.5-0.5,1.5-1.3c0-0.9-0.7-1.4-1.6-1.4H615V407.8z"/>
	<path class="st5" d="M623.8,399.6h7.9v1.7h-3v8.2h-2v-8.2h-3V399.6z"/>
	<path class="st5" d="M630.7,406c0-2.1,1.5-3.7,3.7-3.7s3.7,1.6,3.7,3.7s-1.5,3.7-3.7,3.7S630.7,408.1,630.7,406z M636.2,406
		c0-1.4-0.6-2.3-1.8-2.3c-1.2,0-1.8,0.9-1.8,2.3c0,1.4,0.6,2.3,1.8,2.3C635.5,408.3,636.2,407.3,636.2,406z"/>
	<path class="st5" d="M638.2,402.4h1.9l0.9,3.3c0.2,0.6,0.3,1.3,0.3,1.3h0c0,0,0.2-0.8,0.3-1.3l0.9-3.3h1.6l0.9,3.3
		c0.2,0.6,0.3,1.3,0.3,1.3h0c0,0,0.2-0.7,0.3-1.3l0.9-3.3h1.8l-2.1,7.1h-1.7l-0.9-3.5c-0.2-0.6-0.3-1.2-0.3-1.2h0
		c0,0-0.2,0.7-0.3,1.2l-1,3.5h-1.7L638.2,402.4z"/>
	<path class="st5" d="M648.4,406c0-2.1,1.4-3.7,3.5-3.7c2.3,0,3.5,1.7,3.5,4.3h-5.1c0.1,1.1,0.7,1.8,1.8,1.8c0.7,0,1.2-0.3,1.4-0.9
		h1.8c-0.3,1.3-1.4,2.3-3.2,2.3C649.8,409.7,648.4,408.1,648.4,406z M650.3,405.2h3.1c-0.1-0.9-0.6-1.5-1.5-1.5
		C651,403.7,650.5,404.3,650.3,405.2z"/>
	<path class="st5" d="M658.1,403.6L658.1,403.6c0.5-0.8,1-1.2,1.8-1.2c0.2,0,0.3,0,0.4,0.1v1.6h0c-1.2-0.1-2.1,0.5-2.1,2v3.4h-1.9
		v-7.1h1.8V403.6z"/>
</g>
<rect x="22" y="311" class="st6" width="69" height="94"/>
<rect x="22" y="311" class="st0" width="11.5" height="17"/>
<g>
	<path class="st7" d="M60.5,355.5H63l4,11.5h-2.4l-0.8-2.4h-4.1l-0.8,2.4h-2.4L60.5,355.5z M60.2,362.8h3l-1-3.3
		c-0.2-0.6-0.5-1.8-0.5-1.8h0c0,0-0.3,1.2-0.5,1.8L60.2,362.8z"/>
	<path class="st7" d="M70.1,363.5h2.3c0.2,1.4,0.9,1.9,2.6,1.9c1.2,0,2.2-0.4,2.2-1.5c0-1.1-1.1-1.3-2.8-1.8c-2.1-0.5-3.9-1-3.9-3.4
		c0-2.3,1.8-3.4,4.4-3.4c2.6,0,4.3,1.3,4.4,3.6h-2.2c-0.1-1.2-1-1.7-2.2-1.7c-1.3,0-2.1,0.5-2.1,1.3c0,0.9,0.8,1.2,2.5,1.6
		c2.4,0.5,4.3,1.1,4.3,3.5c0,2.3-1.9,3.6-4.5,3.6C72,367.3,70.2,365.9,70.1,363.5z"/>
	<path class="st7" d="M80.8,355.5H83v2h-2.2V355.5z M80.8,358.8H83v8.2h-2.2V358.8z"/>
	<path class="st7" d="M83.9,358.8H85v-2.6h2.1v2.6h1.4v1.4h-1.4v4.4c0,0.6,0.3,0.8,0.8,0.8c0.3,0,0.6,0,0.6,0v1.6c0,0-0.5,0-1.4,0
		c-1.1,0-2.2-0.4-2.2-2v-4.8h-1.1V358.8z"/>
	<path class="st7" d="M89.2,362.9c0-2.4,1.7-4.3,4.1-4.3c2.6,0,4.1,2,4.1,5h-6c0.2,1.3,0.9,2.1,2.1,2.1c0.9,0,1.3-0.4,1.6-1h2.2
		c-0.3,1.5-1.6,2.7-3.7,2.7C90.8,367.2,89.2,365.3,89.2,362.9z M91.4,362h3.7c-0.1-1-0.8-1.8-1.7-1.8
		C92.2,360.2,91.6,360.9,91.4,362z"/>
</g>
<polygon class="st6" points="642,290 668,290 668,300 679,300 679,357.5 656,357.5 656,389 581,389 581,329.5 625.1,329.5 
	625.1,314 627,314 "/>
<g>
	<path class="st7" d="M630.9,327h5.1c1.2,0,2.2,0.3,2.8,0.8c0.6,0.6,0.9,1.3,0.9,2.2c0,1.2-0.7,1.9-1.8,2.3v0
		c1.3,0.4,2.1,1.4,2.1,2.8c0,1.1-0.3,1.8-1,2.4c-0.7,0.6-1.7,0.9-2.9,0.9h-5.3V327z M635.7,331.6c1,0,1.7-0.5,1.7-1.4
		c0-0.9-0.6-1.3-1.7-1.3h-2.6v2.7H635.7z M633.2,336.6h2.7c1.1,0,1.8-0.6,1.8-1.6c0-1.1-0.8-1.7-1.9-1.7h-2.6V336.6z"/>
	<path class="st7" d="M643.6,335h2.3c0.2,1.4,0.9,1.9,2.6,1.9c1.2,0,2.2-0.4,2.2-1.5c0-1.1-1.1-1.3-2.8-1.8c-2.1-0.5-3.9-1-3.9-3.4
		c0-2.3,1.8-3.4,4.4-3.4c2.6,0,4.3,1.3,4.4,3.6h-2.2c-0.1-1.2-1-1.7-2.2-1.7c-1.3,0-2.1,0.5-2.1,1.3c0,0.9,0.8,1.2,2.5,1.6
		c2.4,0.5,4.3,1.1,4.3,3.5c0,2.3-1.9,3.6-4.5,3.6C645.4,338.8,643.7,337.4,643.6,335z"/>
	<path class="st7" d="M654.2,327h2.2v2h-2.2V327z M654.2,330.3h2.2v8.2h-2.2V330.3z"/>
	<path class="st7" d="M657.3,330.3h1.1v-2.6h2.1v2.6h1.4v1.4h-1.4v4.4c0,0.6,0.3,0.8,0.8,0.8c0.3,0,0.6,0,0.6,0v1.6c0,0-0.5,0-1.4,0
		c-1.1,0-2.2-0.4-2.2-2v-4.8h-1.1V330.3z"/>
	<path class="st7" d="M662.7,334.4c0-2.4,1.7-4.3,4.1-4.3c2.6,0,4.1,2,4.1,5h-6c0.2,1.3,0.9,2.1,2.1,2.1c0.9,0,1.3-0.4,1.6-1h2.2
		c-0.3,1.5-1.6,2.7-3.7,2.7C664.2,338.7,662.7,336.8,662.7,334.4z M664.9,333.5h3.7c-0.1-1-0.8-1.8-1.7-1.8
		C665.6,331.7,665.1,332.4,664.9,333.5z"/>
</g>
<g>
	<rect x="251.2" y="612" class="st3" width="3.9" height="51.6"/>
</g>
<g>
	<rect x="454" y="564.2" class="st3" width="37" height="3.9"/>
</g>
<g>
	<rect x="597" y="446" class="st4" width="3.9" height="24"/>
</g>
<g>
	<rect x="519" y="390.6" class="st4" width="31" height="3.9"/>
</g>
<g>
	<rect x="590" y="269.7" class="st4" width="35" height="3.9"/>
</g>
<g>
	<rect x="94" y="466.6" class="st4" width="50" height="3.9"/>
</g>
<g>
	<rect x="206.1" y="296" class="st4" width="3.9" height="40"/>
</g>
<g>
	<rect x="68" y="223" class="st4" width="49" height="3.9"/>
</g>
<g>
	<rect x="259" y="325" class="st4" width="36" height="3.9"/>
</g>
<g>
	<rect x="458.8" y="104" class="st3" width="3.9" height="32"/>
</g>
<g>
	<rect x="264" y="47" class="st3" width="3.9" height="52"/>
</g>
</svg>
