<?xml version="1.0" encoding="utf-8"?>
<!-- Generator: Adobe Illustrator 25.0.1, SVG Export Plug-In . SVG Version: 6.00 Build 0)  -->
<svg version="1.1" id="Layer_1" xmlns="http://www.w3.org/2000/svg" xmlns:xlink="http://www.w3.org/1999/xlink" x="0px" y="0px"
	 viewBox="0 0 708 708" style="enable-background:new 0 0 708 708;" xml:space="preserve">
<style type="text/css">
	.st0{fill:#101823;}
	.st1{fill:none;stroke:#67748F;stroke-width:1;stroke-miterlimit:10.0005;}
	.st2{fill:none;stroke:#67748F;stroke-miterlimit:10;}
	.st3{fill:none;stroke:#67748F;}
	.st4{enable-background:new    ;}
	.st5{fill:#16E5B4;}
	.st6{fill:#FF4654;}
	.st7{fill:#67748F;}
	.st8{opacity:0.11;fill:#FF4654;enable-background:new    ;}
	.st9{fill:#BDC5CC;}
</style>
<path class="st0" d="M641,310.7V191.8h-79.1v-8.5h5.5v-67.4l-14.5,5l-14-2l-36.5-15l-6.5-8.5l-13,5l-6.5,6.5h-8.5l-6.5-6.5h-26V79
	l11.5-11.5V33h-86.6v29l13,17v21.5h-19.5l-4.5,11v9.5l-16.5,6v4l-18.5,9.5v15.9h-36l-11,8h-7l-12-8h-36.5l-6.5-5.5l-8.5,5.5l-21-29
	l-15.5,9v23H97.5L83,179.8v49h6l25.5,20v24.5L89,290.7H66v146.9h58.1v-5h41.5v15.5h23.5v-10.5h52v15h24v58h47.5v53h93.1v4.5h-90.6
	v24.5h70.6V675h70.1v-82.4h28.5V568h-42v-4.5H621v-97.9h20V317.2h-40v-6.5H641z M465,184.6h73.5v5.5H470v41h-5V184.6z M533,407.9v35
	h-49v-35H533z M296,211.1h23.5L296,230.4V211.1z M309.5,290v14.4h-75V290H309.5z M157,206.9h117.5V243H171v12.4h-14V206.9z
	 M383,484.9h-46.5v-67H315v-34H166.5v-51h97v19.9H334v58h20v23h29V484.9z M494.5,467.9h-33.2v-71h-61.8v-15.5H385V333h78.5v-67.9h46
	v36.5h17V333h-63v65.9v65.9h31V467.9z M588,467.9h-57v-3h57V467.9z"/>
<g>
	
		<rect x="105.6" y="348.7" transform="matrix(0.7398 -0.6729 0.6729 0.7398 -220.7635 175.2217)" class="st1" width="21" height="48.6"/>
	<rect x="532" y="354.9" class="st2" width="59" height="18"/>
	<rect x="166" y="320.9" class="st2" width="11" height="11"/>
	<rect x="233" y="277.9" class="st2" width="11" height="11"/>
	<rect x="300" y="260.9" class="st2" width="11" height="11"/>
	<rect x="465" y="334.9" class="st2" width="11" height="19"/>
	<rect x="476" y="334.9" class="st2" width="11" height="12"/>
	<rect x="501" y="334.9" class="st2" width="11" height="12"/>
	<rect x="532" y="218.9" class="st2" width="59" height="21"/>
	<rect x="621" y="249.9" class="st2" width="18" height="10"/>
	<rect x="413" y="243.9" class="st2" width="18" height="50"/>
	<rect x="500" y="235.9" class="st2" width="11" height="28"/>
	<rect x="383" y="215.9" class="st2" width="18" height="28"/>
	<rect x="225" y="384.9" class="st2" width="11" height="9"/>
	<rect x="199" y="418.9" class="st2" width="11" height="9"/>
	<rect x="358" y="539.9" class="st2" width="48" height="23"/>
	<rect x="442" y="539.9" class="st2" width="48" height="23"/>
	<rect x="372" y="232.9" class="st2" width="51" height="11"/>
	<path class="st3" d="M639.5,259.9h-39v23.5H535v-23.5"/>
	<path class="st3" d="M334,394.4h19.5v-136H372v-48.5h-76v-13.5 M335,352.9v-94.5h-15 M308,258.4H191v26h11.5v20h-58v-20h33v-26
		 M313.5,493.9v-52h-26 M274.5,441.9H266v10.5 M266,469.9h8.5v40 M406,563.4v-66.5 M442,563.4v-66.5 M600,317.9v17.5h22v56.5
		 M639.5,391.9H588v15h-54.5 M533.5,443.9H548 M603.5,443.9H548 M548,443.9v-18.5h91.5 M383,484.5h17V434h-17V484.5z M443,397v51.9
		h18V397H443z"/>
	<path class="st3" d="M470.5,202.4h169 M566,163.9h-81.5 M374,100.9v41 M434.5,100.9v41 M314.5,157.4v19.5h6.5 M347.5,193.9h-33v-6
		 M295.5,187.9v-14 M295.5,157.4v4.2 M295.5,165.9v-4.2 M295.5,161.7H275v44.2h21 M196,157.4v26h42v-26 M114.5,160.4v13.5
		 M159.5,160.4v18.5 M265,384.9v17 M265,418.9h49 M265,418.9v-17 M265,418.9h-99.5v-17H265"/>
</g>
<g class="st4">
	<path class="st5" d="M377.2,47h4.5c3.1,0,5,2.5,5,5.8c0,1.9-0.6,3.5-1.8,4.5c-0.8,0.7-2,1.1-3.4,1.1h-4.3L377.2,47L377.2,47z
		 M381.4,56.5c2.2,0,3-1.3,3-3.6s-1-3.9-3-3.9h-1.9v7.5H381.4z"/>
	<path class="st5" d="M387.5,54.4c0-2.4,1.6-4.3,4-4.3c2.6,0,4,2,4,4.9h-6c0.2,1.3,0.9,2,2.1,2c0.8,0,1.3-0.4,1.6-1h2.1
		c-0.3,1.5-1.6,2.7-3.7,2.7C389,58.7,387.5,56.8,387.5,54.4z M389.6,53.5h3.6c-0.1-1-0.8-1.8-1.7-1.8
		C390.4,51.7,389.8,52.4,389.6,53.5z"/>
	<path class="st5" d="M395.9,50.3h1.1v-0.7c0-2,1.6-2.7,3.6-2.5v1.7c-1,0-1.5,0.1-1.5,0.9v0.6h1.5v1.5h-1.5v6.7h-2.2v-6.7h-1.1v-1.5
		H395.9z"/>
	<path class="st5" d="M401,54.4c0-2.4,1.6-4.3,4-4.3c2.6,0,4,2,4,4.9h-6c0.2,1.3,0.9,2,2.1,2c0.8,0,1.3-0.4,1.6-1h2.1
		c-0.3,1.5-1.6,2.7-3.7,2.7C402.6,58.7,401,56.8,401,54.4z M403.2,53.5h3.6c-0.1-1-0.8-1.8-1.7-1.8C404,51.7,403.4,52.4,403.2,53.5z
		"/>
	<path class="st5" d="M412.2,51.4L412.2,51.4c0.6-0.9,1.4-1.3,2.5-1.3c1.7,0,2.8,1.3,2.8,3.1v5.4h-2.2v-5c0-0.9-0.5-1.5-1.4-1.5
		c-1,0-1.7,0.8-1.7,1.9v4.7H410v-8.2h2.1L412.2,51.4L412.2,51.4z"/>
	<path class="st5" d="M418.4,55.8h2c0.1,0.9,0.8,1.4,1.8,1.4s1.5-0.4,1.5-0.9c0-0.8-1-0.9-2.2-1.1c-1.5-0.3-2.9-0.7-2.9-2.5
		s1.5-2.6,3.3-2.6c2.2,0,3.4,1.1,3.5,2.7h-2c-0.1-0.9-0.7-1.2-1.6-1.2c-0.8,0-1.4,0.3-1.4,0.9c0,0.7,1.1,0.8,2.3,1
		c1.4,0.3,2.9,0.7,2.9,2.6c0,1.6-1.4,2.6-3.5,2.6C419.9,58.7,418.5,57.6,418.4,55.8z"/>
	<path class="st5" d="M426.4,54.4c0-2.4,1.6-4.3,4-4.3c2.6,0,4,2,4,4.9h-6c0.2,1.3,0.9,2,2.1,2c0.8,0,1.3-0.4,1.6-1h2.1
		c-0.3,1.5-1.6,2.7-3.7,2.7C427.9,58.7,426.4,56.8,426.4,54.4z M428.5,53.5h3.6c-0.1-1-0.8-1.8-1.7-1.8
		C429.2,51.7,428.7,52.4,428.5,53.5z"/>
</g>
<g class="st4">
	<path class="st6" d="M402,632.8h2.4l4,11.4H406l-0.8-2.4h-4.1l-0.8,2.4h-2.4L402,632.8z M401.6,640.1h3l-1-3.3
		c-0.2-0.6-0.5-1.8-0.5-1.8l0,0c0,0-0.3,1.2-0.5,1.8L401.6,640.1z"/>
	<path class="st6" d="M408.2,636.1h1.1v-2.6h2.1v2.6h1.4v1.4h-1.4v4.4c0,0.6,0.3,0.8,0.8,0.8c0.3,0,0.6,0,0.6,0v1.6c0,0-0.5,0-1.4,0
		c-1.1,0-2.2-0.4-2.2-2v-4.8h-1.1v-1.4H408.2z"/>
	<path class="st6" d="M413.4,636.1h1.1v-2.6h2.1v2.6h1.4v1.4h-1.4v4.4c0,0.6,0.3,0.8,0.8,0.8c0.3,0,0.6,0,0.6,0v1.6c0,0-0.5,0-1.4,0
		c-1.1,0-2.2-0.4-2.2-2v-4.8h-1.1v-1.4H413.4z"/>
	<path class="st6" d="M424.1,643.3L424.1,643.3c-0.4,0.6-1,1.1-2.4,1.1c-1.7,0-2.9-0.9-2.9-2.5c0-1.8,1.5-2.4,3.3-2.6
		c1.4-0.2,2-0.3,2-0.9c0-0.6-0.5-1-1.4-1c-1,0-1.5,0.4-1.6,1.2h-1.9c0.1-1.4,1.1-2.7,3.5-2.7c2.5,0,3.5,1.1,3.5,3v4.2
		c0,0.6,0.1,1,0.3,1.1v0.1h-2.1C424.3,644.1,424.2,643.7,424.1,643.3z M424.2,641.4v-1.2c-0.4,0.2-1,0.4-1.5,0.5
		c-1.1,0.3-1.7,0.5-1.7,1.3s0.5,1,1.3,1C423.5,642.9,424.2,642.2,424.2,641.4z"/>
	<path class="st6" d="M427.2,640.2c0-2.4,1.6-4.3,4.1-4.3c2.1,0,3.4,1.2,3.7,3h-2.1c-0.1-0.7-0.7-1.3-1.5-1.3c-1.3,0-2,1-2,2.6
		s0.6,2.6,2,2.6c0.9,0,1.5-0.5,1.6-1.4h2.1c-0.1,1.7-1.5,3.1-3.7,3.1C428.8,644.5,427.2,642.6,427.2,640.2z"/>
	<path class="st6" d="M439.1,640.5l-0.9,1v2.8H436v-11.4h2.2v6.3l2.9-3.1h2.6l-3,3.1l3.4,5.1h-2.6L439.1,640.5z"/>
</g>
<g class="st4">
	<path class="st7" d="M576.2,441.9H574l-0.9-2.7h-4.4l-0.9,2.7h-1.8l3.8-11.4h2.5L576.2,441.9z M572.6,437.6l-1.7-5.1l-1.7,5.1
		H572.6z"/>
	<path class="st7" d="M581.9,441.9v-11.4h4.5c0.8,0,1.4,0.1,1.9,0.2c0.5,0.2,0.9,0.5,1.3,1c0.4,0.5,0.5,1.1,0.5,1.7
		c0,0.6-0.2,1.2-0.6,1.6s-0.9,0.8-1.5,0.9c0.8,0.1,1.4,0.5,1.8,1c0.4,0.5,0.6,1.1,0.6,1.8c0,0.9-0.3,1.6-0.9,2.2
		c-0.6,0.6-1.5,0.9-2.7,0.9H581.9z M583.8,435.3h2.5c0.5,0,0.9-0.2,1.2-0.5c0.3-0.3,0.4-0.7,0.4-1.2c0-0.5-0.2-0.9-0.5-1.2
		s-0.7-0.4-1.2-0.4h-2.5V435.3z M583.8,440.2h2.7c0.6,0,1-0.1,1.3-0.4s0.5-0.7,0.5-1.2c0-0.5-0.2-0.9-0.5-1.2
		c-0.3-0.3-0.8-0.5-1.3-0.5h-2.7V440.2z"/>
	<path class="st7" d="M597.6,439.2l1.7,0.2c-0.2,0.8-0.7,1.4-1.3,1.9c-0.6,0.5-1.5,0.7-2.4,0.7c-1.2,0-2.1-0.4-2.8-1.2
		c-0.7-0.8-1.1-1.9-1.1-3.2c0-1.3,0.4-2.3,1.1-3.2c0.7-0.8,1.7-1.3,2.9-1.3c1.2,0,2.1,0.4,2.8,1.2c0.7,0.8,1,1.9,1,3.2l0,0.2h-5.8
		c0,0.6,0.1,1,0.2,1.4s0.3,0.6,0.6,0.9c0.3,0.3,0.7,0.4,1.2,0.4C596.6,440.6,597.2,440.1,597.6,439.2z M597.4,436.7
		c0-0.6-0.2-1.1-0.5-1.5s-0.8-0.6-1.3-0.6c-0.5,0-1,0.2-1.3,0.5c-0.4,0.4-0.6,0.9-0.6,1.5H597.4z"/>
	<path class="st7" d="M603.1,441.9h-1.9v-11.4h1.9V441.9z"/>
	<path class="st7" d="M609.3,440.4v1.5c-0.6,0.1-1,0.2-1.3,0.2c-0.5,0-1-0.1-1.3-0.3c-0.4-0.2-0.6-0.5-0.8-0.8s-0.3-0.9-0.3-1.6V435
		h-1.1v-1.5h1.2l0.2-2.2l1.6-0.1v2.3h1.7v1.5h-1.7v4.1c0,0.5,0.1,0.9,0.3,1.1s0.6,0.3,1.1,0.3C609,440.4,609.1,440.4,609.3,440.4z"
		/>
</g>
<g class="st4">
	<path class="st7" d="M547.7,368.5h-2.2l-0.9-2.7h-4.4l-0.9,2.7h-1.8l3.8-11.4h2.5L547.7,368.5z M544.1,364.1l-1.7-5.1l-1.7,5.1
		H544.1z"/>
	<path class="st7" d="M562,368.5h-2l-4.3-7.3c-0.1-0.1-0.2-0.3-0.3-0.5c-0.1-0.1-0.2-0.3-0.3-0.5v8.4h-1.7v-11.4h2.3l4,6.7
		c0,0.1,0.3,0.5,0.7,1.2v-8h1.6V368.5z"/>
	<path class="st7" d="M569.8,365.8l1.7,0.2c-0.2,0.8-0.7,1.4-1.3,1.9c-0.6,0.5-1.5,0.7-2.4,0.7c-1.2,0-2.1-0.4-2.8-1.2
		c-0.7-0.8-1.1-1.9-1.1-3.2c0-1.3,0.4-2.3,1.1-3.2c0.7-0.8,1.7-1.3,2.9-1.3c1.2,0,2.1,0.4,2.8,1.2c0.7,0.8,1,1.9,1,3.2l0,0.2h-5.8
		c0,0.6,0.1,1,0.2,1.4s0.3,0.6,0.6,0.9c0.3,0.3,0.7,0.4,1.2,0.4C568.8,367.2,569.5,366.7,569.8,365.8z M569.7,363.3
		c0-0.6-0.2-1.1-0.5-1.5s-0.8-0.6-1.3-0.6c-0.5,0-1,0.2-1.3,0.5c-0.4,0.4-0.6,0.9-0.6,1.5H569.7z"/>
	<path class="st7" d="M572.4,366.5l1.8-0.3c0.3,0.7,0.9,1,1.8,1c1.2,0,1.8-0.3,1.8-1c0-0.2-0.1-0.4-0.3-0.6
		c-0.2-0.1-0.4-0.2-0.7-0.3l-1.5-0.3c-1.7-0.3-2.6-1.2-2.6-2.5c0-0.7,0.3-1.4,0.8-1.9c0.5-0.5,1.3-0.8,2.4-0.8c1.8,0,2.9,0.7,3.3,2
		l-1.7,0.3c-0.2-0.6-0.7-1-1.5-1c-1,0-1.5,0.3-1.5,1c0,0.4,0.4,0.7,1.2,0.9l1.8,0.4c1.4,0.3,2.1,1.1,2.1,2.4c0,0.9-0.4,1.6-1.1,2.1
		c-0.7,0.5-1.6,0.7-2.6,0.7c-0.9,0-1.6-0.2-2.3-0.5S572.6,367.3,572.4,366.5z"/>
	<path class="st7" d="M585.1,367v1.5c-0.6,0.1-1,0.2-1.3,0.2c-0.5,0-1-0.1-1.3-0.3c-0.4-0.2-0.6-0.5-0.8-0.8
		c-0.2-0.4-0.3-0.9-0.3-1.6v-4.4h-1.1V360h1.2l0.2-2.2l1.6-0.1v2.3h1.7v1.5h-1.7v4.1c0,0.5,0.1,0.9,0.3,1.1s0.6,0.3,1.1,0.3
		C584.8,367,584.9,367,585.1,367z"/>
</g>
<g class="st4">
	<path class="st7" d="M541.2,320.9H539l-0.9-2.7h-4.4l-0.9,2.7H531l3.8-11.4h2.5L541.2,320.9z M537.5,316.6l-1.7-5.1l-1.7,5.1H537.5
		z"/>
	<path class="st7" d="M548.9,320.9h-2.1v-11.4h4.7c1.3,0,2.3,0.3,3,1c0.6,0.7,1,1.5,1,2.4c0,1-0.3,1.9-1,2.5s-1.6,1-2.7,1h-2.9
		V320.9z M548.9,314.6h2.4c0.6,0,1.1-0.2,1.5-0.5c0.3-0.3,0.5-0.7,0.5-1.2c0-0.5-0.2-0.9-0.5-1.2s-0.9-0.5-1.7-0.5h-2.3V314.6z"/>
	<path class="st7" d="M558.9,311.5H557v-2h1.9V311.5z M558.9,320.9H557v-8.5h1.9V320.9z"/>
	<path class="st7" d="M563.1,323.8h-1.9v-11.3h1.8v1.5c0.6-1.1,1.4-1.6,2.6-1.6c0.9,0,1.7,0.4,2.2,1.2c0.6,0.8,0.8,1.9,0.8,3.1
		c0,1.2-0.3,2.2-0.8,3.1c-0.5,0.9-1.3,1.3-2.4,1.3c-1.1,0-1.9-0.5-2.4-1.4V323.8z M563.1,317.5c0,0.6,0.2,1.1,0.5,1.5
		s0.8,0.6,1.2,0.6c0.6,0,1.1-0.3,1.3-0.8c0.3-0.5,0.4-1.2,0.4-2c0-0.9-0.1-1.6-0.4-2.1s-0.7-0.8-1.3-0.8c-0.5,0-0.9,0.2-1.3,0.7
		s-0.5,1-0.5,1.7V317.5z"/>
	<path class="st7" d="M575.8,318.2l1.7,0.2c-0.2,0.8-0.7,1.4-1.3,1.9c-0.6,0.5-1.5,0.7-2.4,0.7c-1.2,0-2.1-0.4-2.8-1.2
		c-0.7-0.8-1.1-1.9-1.1-3.2c0-1.3,0.4-2.3,1.1-3.2s1.7-1.3,2.9-1.3c1.2,0,2.1,0.4,2.8,1.2c0.7,0.8,1,1.9,1,3.2l0,0.2h-5.8
		c0,0.6,0.1,1,0.2,1.4c0.1,0.3,0.3,0.6,0.6,0.9c0.3,0.3,0.7,0.4,1.2,0.4C574.8,319.6,575.5,319.1,575.8,318.2z M575.7,315.7
		c0-0.6-0.2-1.1-0.5-1.5c-0.4-0.4-0.8-0.6-1.3-0.6c-0.5,0-1,0.2-1.3,0.5c-0.4,0.4-0.6,0.9-0.6,1.5H575.7z"/>
	<path class="st7" d="M578.4,319l1.8-0.3c0.3,0.7,0.9,1,1.8,1c1.2,0,1.8-0.3,1.8-1c0-0.2-0.1-0.4-0.3-0.6c-0.2-0.1-0.4-0.2-0.7-0.3
		l-1.5-0.3c-1.7-0.3-2.6-1.2-2.6-2.5c0-0.7,0.3-1.4,0.8-1.9c0.5-0.5,1.3-0.8,2.4-0.8c1.8,0,2.9,0.7,3.3,2l-1.7,0.3
		c-0.2-0.6-0.7-1-1.5-1c-1,0-1.5,0.3-1.5,1c0,0.4,0.4,0.7,1.2,0.9l1.8,0.4c1.4,0.3,2.1,1.1,2.1,2.4c0,0.9-0.4,1.6-1.1,2.1
		c-0.7,0.5-1.6,0.7-2.6,0.7c-0.9,0-1.6-0.2-2.3-0.5S578.6,319.7,578.4,319z"/>
</g>
<g class="st4">
	<path class="st7" d="M452.2,255.4H450l-0.9-2.7h-4.4l-0.9,2.7h-1.8l3.8-11.4h2.5L452.2,255.4z M448.6,251.1l-1.7-5.1l-1.7,5.1
		H448.6z"/>
	<path class="st7" d="M456.7,252.7l2-0.4c0.2,1.1,1.2,1.7,2.8,1.7c0.7,0,1.3-0.1,1.7-0.4s0.6-0.6,0.6-1.1c0-0.3-0.1-0.6-0.3-0.9
		c-0.2-0.3-0.6-0.5-1.1-0.6l-2.2-0.6c-0.7-0.2-1.3-0.4-1.7-0.7c-0.4-0.2-0.6-0.6-0.9-1.1s-0.3-0.9-0.3-1.4c0-1,0.4-1.8,1.1-2.5
		c0.8-0.6,1.7-0.9,2.9-0.9c1,0,1.9,0.2,2.6,0.6s1.3,1,1.5,1.8l-2,0.5c-0.3-0.9-1-1.3-2.1-1.3c-0.6,0-1.1,0.1-1.5,0.4
		c-0.3,0.3-0.5,0.6-0.5,1c0,0.7,0.5,1.1,1.6,1.4l1.9,0.5c1.2,0.3,2,0.7,2.4,1.3c0.4,0.6,0.6,1.2,0.6,1.9c0,1.1-0.4,2-1.3,2.6
		c-0.8,0.6-1.9,1-3.3,1c-1.1,0-2.1-0.2-3-0.7C457.5,254.4,457,253.7,456.7,252.7z"/>
	<path class="st7" d="M472.4,252.3l1.6,0.2c-0.2,1.1-0.6,1.8-1.2,2.4c-0.6,0.5-1.3,0.8-2.2,0.8c-1.2,0-2.1-0.4-2.7-1.3
		s-0.9-1.9-0.9-3.1c0-1.3,0.3-2.3,1-3.2c0.7-0.8,1.6-1.2,2.7-1.2c1.8,0,2.9,1,3.3,2.9l-1.6,0.2c-0.1-1-0.7-1.6-1.5-1.6
		c-0.6,0-1.1,0.3-1.4,0.8s-0.4,1.3-0.4,2.1c0,0.9,0.2,1.5,0.5,2c0.3,0.5,0.7,0.7,1.3,0.7C471.6,253.9,472.2,253.4,472.4,252.3z"/>
	<path class="st7" d="M477.5,255.4h-1.9V247h1.7v2c0.2-0.8,0.6-1.4,1-1.7s0.9-0.5,1.3-0.5c0.1,0,0.1,0,0.3,0v2.1
		c-1,0-1.6,0.3-1.9,0.9s-0.5,1.2-0.5,1.8V255.4z"/>
	<path class="st7" d="M486.6,252.7l1.7,0.2c-0.2,0.8-0.7,1.4-1.3,1.9c-0.6,0.5-1.5,0.7-2.4,0.7c-1.2,0-2.1-0.4-2.8-1.2
		c-0.7-0.8-1.1-1.9-1.1-3.2c0-1.3,0.4-2.3,1.1-3.2s1.7-1.3,2.9-1.3c1.2,0,2.1,0.4,2.8,1.2c0.7,0.8,1,1.9,1,3.2l0,0.2h-5.8
		c0,0.6,0.1,1,0.2,1.4c0.1,0.3,0.3,0.6,0.6,0.9c0.3,0.3,0.7,0.4,1.2,0.4C485.6,254.1,486.3,253.6,486.6,252.7z M486.5,250.2
		c0-0.6-0.2-1.1-0.5-1.5c-0.4-0.4-0.8-0.6-1.3-0.6c-0.5,0-1,0.2-1.3,0.5c-0.4,0.4-0.6,0.9-0.6,1.5H486.5z"/>
	<path class="st7" d="M495.6,252.7l1.7,0.2c-0.2,0.8-0.7,1.4-1.3,1.9c-0.6,0.5-1.5,0.7-2.4,0.7c-1.2,0-2.1-0.4-2.8-1.2
		c-0.7-0.8-1.1-1.9-1.1-3.2c0-1.3,0.4-2.3,1.1-3.2c0.7-0.8,1.7-1.3,2.9-1.3c1.2,0,2.1,0.4,2.8,1.2c0.7,0.8,1,1.9,1,3.2l0,0.2h-5.8
		c0,0.6,0.1,1,0.2,1.4c0.1,0.3,0.3,0.6,0.6,0.9c0.3,0.3,0.7,0.4,1.2,0.4C494.6,254.1,495.3,253.6,495.6,252.7z M495.5,250.2
		c0-0.6-0.2-1.1-0.5-1.5c-0.4-0.4-0.8-0.6-1.3-0.6c-0.5,0-1,0.2-1.3,0.5c-0.4,0.4-0.6,0.9-0.6,1.5H495.5z"/>
	<path class="st7" d="M506.2,255.4h-1.9v-5.3c0-0.6-0.1-1-0.4-1.3c-0.3-0.3-0.6-0.4-0.9-0.4c-0.5,0-0.9,0.2-1.3,0.7
		c-0.4,0.4-0.6,1.1-0.6,2v4.3h-1.9V247h1.7v2c0.6-1.4,1.5-2.1,2.6-2.1c0.7,0,1.4,0.2,1.9,0.7s0.8,1.3,0.8,2.5V255.4z"/>
</g>
<g class="st4">
	<path class="st7" d="M399.9,326.4h-2.1v-10l-3.2,10h-1.1l-3.2-10v10h-1.7V315h3.2l2.4,7.4l2.4-7.4h3.2V326.4z"/>
	<path class="st7" d="M404.2,317h-1.9v-2h1.9V317z M404.2,326.4h-1.9V318h1.9V326.4z"/>
	<path class="st7" d="M413.5,326.4h-1.8v-1.7c-0.5,1.3-1.3,1.9-2.5,1.9c-1,0-1.8-0.4-2.4-1.3c-0.6-0.9-0.8-1.9-0.8-3.2
		c0-1.2,0.3-2.2,0.9-3.1c0.6-0.9,1.4-1.3,2.5-1.3c1.1,0,1.8,0.5,2.3,1.5V315h1.9V326.4z M411.6,321.4c0-0.7-0.2-1.2-0.5-1.6
		c-0.3-0.4-0.8-0.6-1.3-0.6c-0.6,0-1,0.2-1.3,0.7c-0.3,0.5-0.5,1.2-0.5,2.2c0,1.9,0.6,2.8,1.8,2.8c0.5,0,0.9-0.2,1.2-0.6
		c0.4-0.4,0.5-0.9,0.5-1.6V321.4z"/>
	<path class="st7" d="M422.2,326.4h-2.1V315h4.7c1.3,0,2.3,0.3,3,1c0.6,0.7,1,1.5,1,2.4c0,1-0.3,1.9-1,2.5s-1.6,1-2.7,1h-2.9V326.4z
		 M422.2,320.1h2.4c0.6,0,1.1-0.2,1.5-0.5c0.3-0.3,0.5-0.7,0.5-1.2c0-0.5-0.2-0.9-0.5-1.2s-0.9-0.5-1.7-0.5h-2.3V320.1z"/>
	<path class="st7" d="M437.4,326.4h-1.8c-0.2-0.5-0.3-1.1-0.3-1.7c-0.5,1.3-1.5,1.9-2.9,1.9c-0.8,0-1.5-0.2-2-0.7
		c-0.5-0.5-0.8-1.1-0.8-1.9c0-1.9,1.7-2.9,5.1-2.9c0.1,0,0.3,0,0.5,0v-0.6c0-0.9-0.6-1.3-1.8-1.3c-1.2,0-1.8,0.4-2,1.3l-1.6-0.2
		c0.1-0.7,0.5-1.3,1.1-1.7c0.6-0.5,1.6-0.7,2.8-0.7c0.7,0,1.2,0.1,1.6,0.2c0.4,0.1,0.8,0.3,1,0.6c0.3,0.3,0.5,0.5,0.6,0.8
		c0.1,0.3,0.2,0.8,0.2,1.5v3.8C437.1,325.3,437.2,325.8,437.4,326.4z M435.3,322.1c-2.5,0-3.7,0.6-3.7,1.8c0,0.4,0.1,0.7,0.4,0.9
		c0.2,0.2,0.6,0.4,1.1,0.4c0.7,0,1.3-0.2,1.6-0.7c0.4-0.5,0.6-1,0.6-1.6V322.1z"/>
	<path class="st7" d="M441.3,326.4h-1.9V315h1.9V326.4z"/>
	<path class="st7" d="M445.5,326.4h-1.9V315h1.9V326.4z"/>
	<path class="st7" d="M453.2,323.7l1.7,0.2c-0.2,0.8-0.7,1.4-1.3,1.9c-0.6,0.5-1.5,0.7-2.4,0.7c-1.2,0-2.1-0.4-2.8-1.2
		c-0.7-0.8-1.1-1.9-1.1-3.2c0-1.3,0.4-2.3,1.1-3.2s1.7-1.3,2.9-1.3c1.2,0,2.1,0.4,2.8,1.2c0.7,0.8,1,1.9,1,3.2l0,0.2h-5.8
		c0,0.6,0.1,1,0.2,1.4c0.1,0.3,0.3,0.6,0.6,0.9c0.3,0.3,0.7,0.4,1.2,0.4C452.2,325.1,452.9,324.6,453.2,323.7z M453.1,321.2
		c0-0.6-0.2-1.1-0.5-1.5c-0.4-0.4-0.8-0.6-1.3-0.6c-0.5,0-1,0.2-1.3,0.5c-0.4,0.4-0.6,0.9-0.6,1.5H453.1z"/>
	<path class="st7" d="M460.6,324.9v1.5c-0.6,0.1-1,0.2-1.3,0.2c-0.5,0-1-0.1-1.3-0.3c-0.4-0.2-0.6-0.5-0.8-0.8
		c-0.2-0.4-0.3-0.9-0.3-1.6v-4.4h-1.1V318h1.2l0.2-2.2l1.6-0.1v2.3h1.7v1.5h-1.7v4.1c0,0.5,0.1,0.9,0.3,1.1s0.6,0.3,1.1,0.3
		C460.3,324.9,460.4,324.9,460.6,324.9z"/>
</g>
<g class="st4">
	<path class="st7" d="M348.7,283.6h-2.1v-10l-3.2,10h-1.1l-3.2-10v10h-1.7v-11.4h3.2l2.4,7.4l2.4-7.4h3.2V283.6z"/>
	<path class="st7" d="M353,274.2h-1.9v-2h1.9V274.2z M353,283.6h-1.9v-8.5h1.9V283.6z"/>
	<path class="st7" d="M362.3,283.6h-1.8v-1.7c-0.5,1.3-1.3,1.9-2.5,1.9c-1,0-1.8-0.4-2.4-1.3c-0.6-0.9-0.8-1.9-0.8-3.2
		c0-1.2,0.3-2.2,0.9-3.1c0.6-0.9,1.4-1.3,2.5-1.3c1.1,0,1.8,0.5,2.3,1.5v-4.1h1.9V283.6z M360.4,278.6c0-0.7-0.2-1.2-0.5-1.6
		c-0.3-0.4-0.7-0.6-1.3-0.6c-0.6,0-1,0.2-1.3,0.7s-0.5,1.2-0.5,2.2c0,1.9,0.6,2.8,1.8,2.8c0.5,0,0.9-0.2,1.2-0.6
		c0.4-0.4,0.5-0.9,0.5-1.6V278.6z"/>
	<path class="st7" d="M369,283.6v-11.4h4.5c0.8,0,1.4,0.1,1.9,0.2c0.5,0.2,0.9,0.5,1.3,1c0.4,0.5,0.5,1.1,0.5,1.7
		c0,0.6-0.2,1.2-0.6,1.6s-0.9,0.8-1.5,0.9c0.8,0.1,1.4,0.5,1.8,1c0.4,0.5,0.6,1.1,0.6,1.8c0,0.9-0.3,1.6-0.9,2.2
		c-0.6,0.6-1.5,0.9-2.7,0.9H369z M370.9,277h2.5c0.5,0,0.9-0.2,1.2-0.5c0.3-0.3,0.4-0.7,0.4-1.2c0-0.5-0.2-0.9-0.5-1.2
		c-0.3-0.2-0.7-0.4-1.2-0.4h-2.5V277z M370.9,281.9h2.7c0.6,0,1-0.1,1.3-0.4s0.5-0.7,0.5-1.2c0-0.5-0.2-0.9-0.5-1.2
		c-0.3-0.3-0.8-0.5-1.3-0.5h-2.7V281.9z"/>
	<path class="st7" d="M382.6,283.8c-1.2,0-2.2-0.4-2.9-1.3s-1-1.9-1-3.1c0-1.2,0.4-2.3,1.1-3.1c0.7-0.8,1.7-1.2,2.9-1.2
		c1.1,0,2.1,0.4,2.8,1.2c0.7,0.8,1.1,1.9,1.1,3.2c0,1.3-0.4,2.4-1.1,3.2C384.7,283.4,383.7,283.8,382.6,283.8z M382.6,282.2
		c1.3,0,1.9-1,1.9-2.9c0-0.9-0.2-1.5-0.5-2s-0.8-0.7-1.4-0.7c-0.7,0-1.1,0.3-1.5,0.8c-0.3,0.5-0.5,1.2-0.5,2.1
		c0,0.9,0.2,1.6,0.5,2.1C381.6,282,382,282.2,382.6,282.2z"/>
	<path class="st7" d="M390.2,274.2h-1.9v-2h1.9V274.2z M390.2,283.6h-1.9v-8.5h1.9V283.6z"/>
	<path class="st7" d="M394.4,283.6h-1.9v-11.4h1.9V283.6z"/>
	<path class="st7" d="M402.1,280.9l1.7,0.2c-0.2,0.8-0.7,1.4-1.3,1.9c-0.6,0.5-1.5,0.7-2.4,0.7c-1.2,0-2.1-0.4-2.8-1.2
		c-0.7-0.8-1.1-1.9-1.1-3.2c0-1.3,0.4-2.3,1.1-3.2c0.7-0.8,1.7-1.3,2.9-1.3c1.2,0,2.1,0.4,2.8,1.2c0.7,0.8,1,1.9,1,3.2l0,0.2h-5.8
		c0,0.6,0.1,1,0.2,1.4c0.1,0.3,0.3,0.6,0.6,0.9c0.3,0.3,0.7,0.4,1.2,0.4C401.1,282.3,401.8,281.8,402.1,280.9z M402,278.4
		c0-0.6-0.2-1.1-0.5-1.5c-0.4-0.4-0.8-0.6-1.3-0.6c-0.5,0-1,0.2-1.3,0.5c-0.4,0.4-0.6,0.9-0.6,1.5H402z"/>
	<path class="st7" d="M407.6,283.6h-1.9v-8.5h1.7v2c0.2-0.8,0.6-1.4,1-1.7s0.9-0.5,1.3-0.5c0.1,0,0.1,0,0.3,0v2.1
		c-1,0-1.6,0.3-1.9,0.9s-0.5,1.2-0.5,1.8V283.6z"/>
</g>
<g class="st4">
	<path class="st7" d="M297.3,239.9v-11.4h4.5c0.8,0,1.4,0.1,1.9,0.2c0.5,0.2,0.9,0.5,1.3,1c0.4,0.5,0.5,1.1,0.5,1.7
		c0,0.6-0.2,1.2-0.6,1.6s-0.9,0.8-1.5,0.9c0.8,0.1,1.4,0.5,1.8,1c0.4,0.5,0.6,1.1,0.6,1.8c0,0.9-0.3,1.6-0.9,2.2
		c-0.6,0.6-1.5,0.9-2.7,0.9H297.3z M299.2,233.3h2.5c0.5,0,0.9-0.2,1.2-0.5c0.3-0.3,0.4-0.7,0.4-1.2c0-0.5-0.2-0.9-0.5-1.2
		c-0.3-0.2-0.7-0.4-1.2-0.4h-2.5V233.3z M299.2,238.2h2.7c0.6,0,1-0.1,1.3-0.4s0.5-0.7,0.5-1.2c0-0.5-0.2-0.9-0.5-1.2
		c-0.3-0.3-0.8-0.5-1.3-0.5h-2.7V238.2z"/>
	<path class="st7" d="M320.9,239.9h-2.3l-2.4-5.8L314,237v2.9H312v-11.4h2.1v6c0.3-0.4,0.5-0.7,0.6-0.8l3.8-5.2h2.1l-2.7,3.8
		L320.9,239.9z"/>
	<path class="st7" d="M324.3,230.5h-1.9v-2h1.9V230.5z M324.3,239.9h-1.9v-8.5h1.9V239.9z"/>
	<path class="st7" d="M330.5,238.4v1.5c-0.6,0.1-1,0.2-1.3,0.2c-0.5,0-1-0.1-1.3-0.3c-0.4-0.2-0.6-0.5-0.8-0.8
		c-0.2-0.4-0.3-0.9-0.3-1.6V233h-1.1v-1.5h1.2l0.2-2.2l1.6-0.1v2.3h1.7v1.5h-1.7v4.1c0,0.5,0.1,0.9,0.3,1.1s0.6,0.3,1.1,0.3
		C330.2,238.4,330.3,238.4,330.5,238.4z"/>
	<path class="st7" d="M337,236.8l1.6,0.2c-0.2,1.1-0.6,1.8-1.2,2.4s-1.3,0.8-2.2,0.8c-1.2,0-2.1-0.4-2.7-1.3s-0.9-1.9-0.9-3.1
		c0-1.3,0.3-2.3,1-3.2c0.7-0.8,1.6-1.2,2.7-1.2c1.8,0,2.9,1,3.3,2.9l-1.6,0.2c-0.1-1-0.7-1.6-1.5-1.6c-0.6,0-1.1,0.3-1.4,0.8
		s-0.4,1.3-0.4,2.1c0,0.9,0.2,1.5,0.5,2c0.3,0.5,0.7,0.7,1.3,0.7C336.1,238.4,336.7,237.9,337,236.8z"/>
	<path class="st7" d="M347.2,239.9h-1.9v-5.5c0-0.6-0.1-1-0.4-1.3c-0.3-0.2-0.6-0.4-0.9-0.4c-0.5,0-1,0.2-1.4,0.6
		c-0.4,0.4-0.6,1.1-0.6,2.1v4.4h-1.9v-11.4h1.9v4.5c0.5-1.2,1.3-1.8,2.5-1.8c1.7,0,2.6,1,2.6,3V239.9z"/>
	<path class="st7" d="M354.8,237.2l1.7,0.2c-0.2,0.8-0.7,1.4-1.3,1.9c-0.6,0.5-1.5,0.7-2.4,0.7c-1.2,0-2.1-0.4-2.8-1.2
		c-0.7-0.8-1.1-1.9-1.1-3.2c0-1.3,0.4-2.3,1.1-3.2c0.7-0.8,1.7-1.3,2.9-1.3c1.2,0,2.1,0.4,2.8,1.2c0.7,0.8,1,1.9,1,3.2l0,0.2h-5.8
		c0,0.6,0.1,1,0.2,1.4c0.1,0.3,0.3,0.6,0.6,0.9c0.3,0.3,0.7,0.4,1.2,0.4C353.9,238.6,354.5,238.1,354.8,237.2z M354.7,234.7
		c0-0.6-0.2-1.1-0.5-1.5c-0.4-0.4-0.8-0.6-1.3-0.6c-0.5,0-1,0.2-1.3,0.5c-0.4,0.4-0.6,0.9-0.6,1.5H354.7z"/>
	<path class="st7" d="M365.4,239.9h-1.9v-5.3c0-0.6-0.1-1-0.4-1.3c-0.3-0.3-0.6-0.4-0.9-0.4c-0.5,0-0.9,0.2-1.3,0.7
		c-0.4,0.4-0.6,1.1-0.6,2v4.3h-1.9v-8.5h1.7v2c0.6-1.4,1.5-2.1,2.6-2.1c0.7,0,1.4,0.2,1.9,0.7s0.8,1.3,0.8,2.5V239.9z"/>
</g>
<g class="st4">
	<path class="st7" d="M211.3,249.9v-11.4h4.5c0.8,0,1.4,0.1,1.9,0.2s0.9,0.5,1.3,1s0.5,1.1,0.5,1.7c0,0.6-0.2,1.2-0.6,1.6
		s-0.9,0.8-1.5,0.9c0.8,0.1,1.4,0.5,1.8,1c0.4,0.5,0.6,1.1,0.6,1.8c0,0.9-0.3,1.6-0.9,2.2c-0.6,0.6-1.5,0.9-2.7,0.9H211.3z
		 M213.2,243.3h2.5c0.5,0,0.9-0.2,1.2-0.5c0.3-0.3,0.4-0.7,0.4-1.2c0-0.5-0.2-0.9-0.5-1.2s-0.7-0.4-1.2-0.4h-2.5V243.3z
		 M213.2,248.2h2.7c0.6,0,1-0.1,1.3-0.4c0.3-0.3,0.5-0.7,0.5-1.2c0-0.5-0.2-0.9-0.5-1.2c-0.3-0.3-0.8-0.5-1.3-0.5h-2.7V248.2z"/>
	<path class="st7" d="M234.4,249.9h-2.1v-5H228v5H226v-11.4h2.1v4.7h4.4v-4.7h2.1V249.9z"/>
	<path class="st7" d="M244.1,249.9h-1.8c-0.2-0.5-0.3-1.1-0.3-1.7c-0.5,1.3-1.5,1.9-2.9,1.9c-0.8,0-1.5-0.2-2-0.7
		c-0.5-0.5-0.8-1.1-0.8-1.9c0-1.9,1.7-2.9,5.1-2.9c0.1,0,0.3,0,0.5,0V244c0-0.9-0.6-1.3-1.8-1.3c-1.2,0-1.8,0.4-2,1.3l-1.6-0.2
		c0.1-0.7,0.5-1.3,1.1-1.7c0.6-0.5,1.6-0.7,2.8-0.7c0.7,0,1.2,0.1,1.6,0.2c0.4,0.1,0.8,0.3,1,0.6c0.3,0.3,0.5,0.5,0.6,0.8
		c0.1,0.3,0.2,0.8,0.2,1.5v3.8C243.8,248.8,243.9,249.3,244.1,249.9z M242,245.6c-2.5,0-3.7,0.6-3.7,1.8c0,0.4,0.1,0.7,0.4,0.9
		c0.2,0.2,0.6,0.4,1.1,0.4c0.7,0,1.3-0.2,1.6-0.7c0.4-0.5,0.6-1,0.6-1.6V245.6z"/>
	<path class="st7" d="M248,249.9h-1.9v-11.4h1.9V249.9z"/>
	<path class="st7" d="M252.2,249.9h-1.9v-11.4h1.9V249.9z"/>
</g>
<g class="st4">
	<path class="st7" d="M266.3,323.8v-11.4h4.5c0.8,0,1.4,0.1,1.9,0.2s0.9,0.5,1.3,1s0.5,1.1,0.5,1.7c0,0.6-0.2,1.2-0.6,1.6
		s-0.9,0.8-1.5,0.9c0.8,0.1,1.4,0.5,1.8,1c0.4,0.5,0.6,1.1,0.6,1.8c0,0.9-0.3,1.6-0.9,2.2c-0.6,0.6-1.5,0.9-2.7,0.9H266.3z
		 M268.2,317.1h2.5c0.5,0,0.9-0.2,1.2-0.5c0.3-0.3,0.4-0.7,0.4-1.2c0-0.5-0.2-0.9-0.5-1.2s-0.7-0.4-1.2-0.4h-2.5V317.1z
		 M268.2,322.1h2.7c0.6,0,1-0.1,1.3-0.4c0.3-0.3,0.5-0.7,0.5-1.2c0-0.5-0.2-0.9-0.5-1.2c-0.3-0.3-0.8-0.5-1.3-0.5h-2.7V322.1z"/>
	<path class="st7" d="M285.2,324c-1.5,0-2.7-0.6-3.5-1.7c-0.8-1.1-1.3-2.5-1.3-4.2c0-1.7,0.4-3.1,1.3-4.2c0.9-1.1,2.1-1.7,3.6-1.7
		c1.5,0,2.7,0.6,3.5,1.7c0.9,1.1,1.3,2.5,1.3,4.2c0,1.8-0.4,3.2-1.3,4.3C287.8,323.4,286.6,324,285.2,324z M285.2,322.3
		c0.7,0,1.4-0.3,1.9-0.9c0.5-0.6,0.8-1.7,0.8-3.3c0-1.3-0.2-2.3-0.6-3.1c-0.4-0.7-1.1-1.1-2-1.1c-1.8,0-2.6,1.4-2.6,4.3
		c0,1.4,0.2,2.4,0.7,3.1S284.3,322.3,285.2,322.3z"/>
	<path class="st7" d="M293.8,323.8h-1.9v-8.5h1.7v2c0.2-0.8,0.6-1.4,1-1.7s0.9-0.5,1.3-0.5c0.1,0,0.1,0,0.3,0v2.1
		c-1,0-1.6,0.3-1.9,0.9c-0.3,0.6-0.5,1.2-0.5,1.8V323.8z"/>
	<path class="st7" d="M304.8,323.8H303c-0.2-0.5-0.3-1.1-0.3-1.7c-0.5,1.3-1.5,1.9-2.9,1.9c-0.8,0-1.5-0.2-2-0.7
		c-0.5-0.5-0.8-1.1-0.8-1.9c0-1.9,1.7-2.9,5.1-2.9c0.1,0,0.3,0,0.5,0v-0.6c0-0.9-0.6-1.3-1.8-1.3c-1.2,0-1.8,0.4-2,1.3l-1.6-0.2
		c0.1-0.7,0.5-1.3,1.1-1.7c0.6-0.5,1.6-0.7,2.8-0.7c0.7,0,1.2,0.1,1.6,0.2c0.4,0.1,0.8,0.3,1,0.6c0.3,0.3,0.5,0.5,0.6,0.8
		c0.1,0.3,0.2,0.8,0.2,1.5v3.8C304.5,322.6,304.6,323.2,304.8,323.8z M302.7,319.5c-2.5,0-3.7,0.6-3.7,1.8c0,0.4,0.1,0.7,0.4,0.9
		c0.2,0.2,0.6,0.4,1.1,0.4c0.7,0,1.3-0.2,1.6-0.7c0.4-0.5,0.6-1,0.6-1.6V319.5z"/>
	<path class="st7" d="M313.8,323.8h-1.9v-5.3c0-0.6-0.1-1-0.4-1.3c-0.3-0.3-0.6-0.4-0.9-0.4c-0.5,0-0.9,0.2-1.3,0.7
		c-0.4,0.4-0.6,1.1-0.6,2v4.3h-1.9v-8.5h1.7v2c0.6-1.4,1.5-2.1,2.6-2.1c0.7,0,1.4,0.2,1.9,0.7s0.8,1.3,0.8,2.5V323.8z"/>
	<path class="st7" d="M323.8,313.7v1.5h-0.6c-0.3,0-0.5,0-0.7,0.1s-0.4,0.3-0.6,0.6c0.7,0.5,1,1.2,1,1.8c0,0.7-0.3,1.4-0.9,1.9
		c-0.6,0.5-1.5,0.7-2.5,0.7c-0.4,0-1-0.1-1.6-0.2c-0.4,0.2-0.6,0.5-0.6,0.8c0,0.2,0.1,0.4,0.3,0.6c0.2,0.2,0.5,0.3,0.9,0.3h2.5
		c0.9,0,1.5,0.2,2,0.7s0.7,1,0.7,1.7c0,0.8-0.4,1.5-1.1,2c-0.7,0.5-1.8,0.8-3.3,0.8c-2.7,0-4.1-0.8-4.1-2.3c0-0.8,0.4-1.3,1.2-1.7
		c-0.5-0.4-0.8-0.9-0.8-1.4c0-0.7,0.4-1.3,1.3-1.8c-0.8-0.5-1.2-1.1-1.2-2c0-0.7,0.3-1.3,0.9-1.8c0.6-0.5,1.4-0.7,2.6-0.7
		c0.5,0,1.1,0.1,1.6,0.2c0.3-1.1,0.9-1.6,2-1.6H323.8z M317.4,323.3c-0.3,0.3-0.4,0.5-0.4,0.7c0,0.4,0.2,0.7,0.7,1s1.2,0.4,2.2,0.4
		c1.5,0,2.2-0.4,2.2-1.1c0-0.3-0.1-0.5-0.4-0.6c-0.3-0.1-0.5-0.2-0.9-0.2h-2C318.4,323.5,317.9,323.5,317.4,323.3z M319.5,319.1
		c1,0,1.6-0.5,1.6-1.5c0-0.4-0.1-0.7-0.4-0.9c-0.3-0.3-0.6-0.4-1.1-0.4c-0.5,0-0.9,0.1-1.2,0.4c-0.3,0.3-0.4,0.6-0.4,1
		c0,0.4,0.1,0.7,0.4,1C318.6,319,319,319.1,319.5,319.1z"/>
	<path class="st7" d="M330.4,321.1l1.7,0.2c-0.2,0.8-0.7,1.4-1.3,1.9c-0.6,0.5-1.5,0.7-2.4,0.7c-1.2,0-2.1-0.4-2.8-1.2
		c-0.7-0.8-1.1-1.9-1.1-3.2c0-1.3,0.4-2.3,1.1-3.2c0.7-0.8,1.7-1.3,2.9-1.3c1.2,0,2.1,0.4,2.8,1.2c0.7,0.8,1,1.9,1,3.2l0,0.2h-5.8
		c0,0.6,0.1,1,0.2,1.4s0.3,0.6,0.6,0.9c0.3,0.3,0.7,0.4,1.2,0.4C329.4,322.5,330,322,330.4,321.1z M330.2,318.6
		c0-0.6-0.2-1.1-0.5-1.5s-0.8-0.6-1.3-0.6c-0.5,0-1,0.2-1.3,0.5c-0.4,0.4-0.6,0.9-0.6,1.5H330.2z"/>
</g>
<g class="st4">
	<path class="st7" d="M80.2,418.9v-11.4h4.5c0.8,0,1.4,0.1,1.9,0.2s0.9,0.5,1.3,1s0.5,1.1,0.5,1.7c0,0.6-0.2,1.2-0.6,1.6
		s-0.9,0.8-1.5,0.9c0.8,0.1,1.4,0.5,1.8,1c0.4,0.5,0.6,1.1,0.6,1.8c0,0.9-0.3,1.6-0.9,2.2c-0.6,0.6-1.5,0.9-2.7,0.9H80.2z
		 M82.2,412.3h2.5c0.5,0,0.9-0.2,1.2-0.5c0.3-0.3,0.4-0.7,0.4-1.2c0-0.5-0.2-0.9-0.5-1.2s-0.7-0.4-1.2-0.4h-2.5V412.3z M82.2,417.2
		h2.7c0.6,0,1-0.1,1.3-0.4c0.3-0.3,0.5-0.7,0.5-1.2c0-0.5-0.2-0.9-0.5-1.2c-0.3-0.3-0.8-0.5-1.3-0.5h-2.7V417.2z"/>
	<path class="st7" d="M99.5,418.9h-2.2v-4.8l-3.9-6.6h2.5l2.7,4.7l2.6-4.7h2l-3.7,6.6V418.9z"/>
	<path class="st7" d="M108.6,416.2l1.7,0.2c-0.2,0.8-0.7,1.4-1.3,1.9c-0.6,0.5-1.5,0.7-2.4,0.7c-1.2,0-2.1-0.4-2.8-1.2
		c-0.7-0.8-1.1-1.9-1.1-3.2c0-1.3,0.4-2.3,1.1-3.2c0.7-0.8,1.7-1.3,2.9-1.3c1.2,0,2.1,0.4,2.8,1.2c0.7,0.8,1,1.9,1,3.2l0,0.2h-5.8
		c0,0.6,0.1,1,0.2,1.4s0.3,0.6,0.6,0.9c0.3,0.3,0.7,0.4,1.2,0.4C107.6,417.6,108.2,417.1,108.6,416.2z M108.5,413.7
		c0-0.6-0.2-1.1-0.5-1.5s-0.8-0.6-1.3-0.6c-0.5,0-1,0.2-1.3,0.5c-0.4,0.4-0.6,0.9-0.6,1.5H108.5z"/>
	<path class="st7" d="M114.1,418.9h-1.9v-11.4h1.9V418.9z"/>
	<path class="st7" d="M118.3,418.9h-1.9v-11.4h1.9V418.9z"/>
	<path class="st7" d="M123.9,419.1c-1.2,0-2.2-0.4-2.9-1.3c-0.7-0.9-1-1.9-1-3.1c0-1.2,0.4-2.3,1.1-3.1c0.7-0.8,1.7-1.2,2.9-1.2
		c1.1,0,2.1,0.4,2.8,1.2c0.7,0.8,1.1,1.9,1.1,3.2c0,1.3-0.4,2.4-1.1,3.2C126,418.7,125,419.1,123.9,419.1z M123.9,417.5
		c1.3,0,1.9-1,1.9-2.9c0-0.9-0.2-1.5-0.5-2c-0.3-0.5-0.8-0.7-1.4-0.7c-0.7,0-1.1,0.3-1.5,0.8c-0.3,0.5-0.5,1.2-0.5,2.1
		c0,0.9,0.2,1.6,0.5,2.1C122.9,417.3,123.4,417.5,123.9,417.5z"/>
	<path class="st7" d="M140.1,410.5l-2.5,8.5h-1.7l-1.5-5.9l-1.5,5.9h-1.8l-2.6-8.5h2l1.7,5.7l1.5-5.7h1.7l1.5,5.7l1.6-5.7H140.1z"/>
</g>
<g class="st4">
	<path class="st7" d="M200.3,418.9v-11.4h4.5c0.8,0,1.4,0.1,1.9,0.2s0.9,0.5,1.3,1s0.5,1.1,0.5,1.7c0,0.6-0.2,1.2-0.6,1.6
		s-0.9,0.8-1.5,0.9c0.8,0.1,1.4,0.5,1.8,1c0.4,0.5,0.6,1.1,0.6,1.8c0,0.9-0.3,1.6-0.9,2.2c-0.6,0.6-1.5,0.9-2.7,0.9H200.3z
		 M202.2,412.3h2.5c0.5,0,0.9-0.2,1.2-0.5c0.3-0.3,0.4-0.7,0.4-1.2c0-0.5-0.2-0.9-0.5-1.2s-0.7-0.4-1.2-0.4h-2.5V412.3z
		 M202.2,417.2h2.7c0.6,0,1-0.1,1.3-0.4c0.3-0.3,0.5-0.7,0.5-1.2c0-0.5-0.2-0.9-0.5-1.2c-0.3-0.3-0.8-0.5-1.3-0.5h-2.7V417.2z"/>
	<path class="st7" d="M223.6,413.1v5.8h-0.9l-0.6-1.5c-0.7,1.1-1.7,1.7-3.1,1.7c-1.6,0-2.7-0.6-3.5-1.8c-0.8-1.2-1.2-2.6-1.2-4.1
		c0-1.6,0.4-3,1.3-4.2c0.9-1.1,2.1-1.7,3.6-1.7c1.1,0,2.1,0.3,2.8,1c0.7,0.7,1.2,1.5,1.4,2.5l-1.8,0.3c-0.3-1.4-1.1-2.1-2.4-2.1
		c-0.8,0-1.5,0.3-2,1s-0.8,1.7-0.8,3c0,2.9,0.9,4.3,2.7,4.3c0.7,0,1.3-0.2,1.7-0.7s0.7-1.1,0.7-1.9h-2.4v-1.7H223.6z"/>
	<path class="st7" d="M227.8,418.9h-1.9v-8.5h1.7v2c0.2-0.8,0.6-1.4,1-1.7s0.9-0.5,1.3-0.5c0.1,0,0.1,0,0.3,0v2.1
		c-1,0-1.6,0.3-1.9,0.9c-0.3,0.6-0.5,1.2-0.5,1.8V418.9z"/>
	<path class="st7" d="M236.9,416.2l1.7,0.2c-0.2,0.8-0.7,1.4-1.3,1.9c-0.6,0.5-1.5,0.7-2.4,0.7c-1.2,0-2.1-0.4-2.8-1.2
		c-0.7-0.8-1.1-1.9-1.1-3.2c0-1.3,0.4-2.3,1.1-3.2c0.7-0.8,1.7-1.3,2.9-1.3c1.2,0,2.1,0.4,2.8,1.2c0.7,0.8,1,1.9,1,3.2l0,0.2H233
		c0,0.6,0.1,1,0.2,1.4s0.3,0.6,0.6,0.9c0.3,0.3,0.7,0.4,1.2,0.4C235.9,417.6,236.6,417.1,236.9,416.2z M236.8,413.7
		c0-0.6-0.2-1.1-0.5-1.5s-0.8-0.6-1.3-0.6c-0.5,0-1,0.2-1.3,0.5c-0.4,0.4-0.6,0.9-0.6,1.5H236.8z"/>
	<path class="st7" d="M245.9,416.2l1.7,0.2c-0.2,0.8-0.7,1.4-1.3,1.9c-0.6,0.5-1.5,0.7-2.4,0.7c-1.2,0-2.1-0.4-2.8-1.2
		c-0.7-0.8-1.1-1.9-1.1-3.2c0-1.3,0.4-2.3,1.1-3.2c0.7-0.8,1.7-1.3,2.9-1.3c1.2,0,2.1,0.4,2.8,1.2c0.7,0.8,1,1.9,1,3.2l0,0.2H242
		c0,0.6,0.1,1,0.2,1.4s0.3,0.6,0.6,0.9c0.3,0.3,0.7,0.4,1.2,0.4C244.9,417.6,245.6,417.1,245.9,416.2z M245.8,413.7
		c0-0.6-0.2-1.1-0.5-1.5s-0.8-0.6-1.3-0.6c-0.5,0-1,0.2-1.3,0.5c-0.4,0.4-0.6,0.9-0.6,1.5H245.8z"/>
	<path class="st7" d="M256.5,418.9h-1.9v-5.3c0-0.6-0.1-1-0.4-1.3c-0.3-0.3-0.6-0.4-0.9-0.4c-0.5,0-0.9,0.2-1.3,0.7
		c-0.4,0.4-0.6,1.1-0.6,2v4.3h-1.9v-8.5h1.7v2c0.6-1.4,1.5-2.1,2.6-2.1c0.7,0,1.4,0.2,1.9,0.7s0.8,1.3,0.8,2.5V418.9z"/>
</g>
<g class="st4">
	<path class="st7" d="M245.3,469.9v-11.4h4.5c0.8,0,1.4,0.1,1.9,0.2s0.9,0.5,1.3,1s0.5,1.1,0.5,1.7c0,0.6-0.2,1.2-0.6,1.6
		s-0.9,0.8-1.5,0.9c0.8,0.1,1.4,0.5,1.8,1c0.4,0.5,0.6,1.1,0.6,1.8c0,0.9-0.3,1.6-0.9,2.2c-0.6,0.6-1.5,0.9-2.7,0.9H245.3z
		 M247.2,463.3h2.5c0.5,0,0.9-0.2,1.2-0.5c0.3-0.3,0.4-0.7,0.4-1.2c0-0.5-0.2-0.9-0.5-1.2s-0.7-0.4-1.2-0.4h-2.5V463.3z
		 M247.2,468.2h2.7c0.6,0,1-0.1,1.3-0.4c0.3-0.3,0.5-0.7,0.5-1.2c0-0.5-0.2-0.9-0.5-1.2c-0.3-0.3-0.8-0.5-1.3-0.5h-2.7V468.2z"/>
	<path class="st7" d="M268.6,464.1v5.8h-0.9l-0.6-1.5c-0.7,1.1-1.7,1.7-3.1,1.7c-1.6,0-2.7-0.6-3.5-1.8c-0.8-1.2-1.2-2.6-1.2-4.1
		c0-1.6,0.4-3,1.3-4.2c0.9-1.1,2.1-1.7,3.6-1.7c1.1,0,2.1,0.3,2.8,1c0.7,0.7,1.2,1.5,1.4,2.5l-1.8,0.3c-0.3-1.4-1.1-2.1-2.4-2.1
		c-0.8,0-1.5,0.3-2,1s-0.8,1.7-0.8,3c0,2.9,0.9,4.3,2.7,4.3c0.7,0,1.3-0.2,1.7-0.7s0.7-1.1,0.7-1.9h-2.4v-1.7H268.6z"/>
	<path class="st7" d="M278.1,469.9h-1.8c-0.2-0.5-0.3-1.1-0.3-1.7c-0.5,1.3-1.5,1.9-2.9,1.9c-0.8,0-1.5-0.2-2-0.7
		c-0.5-0.5-0.8-1.1-0.8-1.9c0-1.9,1.7-2.9,5.1-2.9c0.1,0,0.3,0,0.5,0V464c0-0.9-0.6-1.3-1.8-1.3c-1.2,0-1.8,0.4-2,1.3l-1.6-0.2
		c0.1-0.7,0.5-1.3,1.1-1.7c0.6-0.5,1.6-0.7,2.8-0.7c0.7,0,1.2,0.1,1.6,0.2c0.4,0.1,0.8,0.3,1,0.6c0.3,0.3,0.5,0.5,0.6,0.8
		c0.1,0.3,0.2,0.8,0.2,1.5v3.8C277.8,468.8,277.9,469.3,278.1,469.9z M276,465.6c-2.5,0-3.7,0.6-3.7,1.8c0,0.4,0.1,0.7,0.4,0.9
		c0.2,0.2,0.6,0.4,1.1,0.4c0.7,0,1.3-0.2,1.6-0.7c0.4-0.5,0.6-1,0.6-1.6V465.6z"/>
	<path class="st7" d="M282,469.9h-1.9v-8.5h1.7v2c0.2-0.8,0.6-1.4,1-1.7s0.9-0.5,1.3-0.5c0.1,0,0.1,0,0.3,0v2.1
		c-1,0-1.6,0.3-1.9,0.9c-0.3,0.6-0.5,1.2-0.5,1.8V469.9z"/>
	<path class="st7" d="M293,469.9h-1.8c-0.2-0.5-0.3-1.1-0.3-1.7c-0.5,1.3-1.5,1.9-2.9,1.9c-0.8,0-1.5-0.2-2-0.7
		c-0.5-0.5-0.8-1.1-0.8-1.9c0-1.9,1.7-2.9,5.1-2.9c0.1,0,0.3,0,0.5,0V464c0-0.9-0.6-1.3-1.8-1.3c-1.2,0-1.8,0.4-2,1.3l-1.6-0.2
		c0.1-0.7,0.5-1.3,1.1-1.7c0.6-0.5,1.6-0.7,2.8-0.7c0.7,0,1.2,0.1,1.6,0.2c0.4,0.1,0.8,0.3,1,0.6c0.3,0.3,0.5,0.5,0.6,0.8
		c0.1,0.3,0.2,0.8,0.2,1.5v3.8C292.8,468.8,292.9,469.3,293,469.9z M290.9,465.6c-2.5,0-3.7,0.6-3.7,1.8c0,0.4,0.1,0.7,0.4,0.9
		c0.2,0.2,0.6,0.4,1.1,0.4c0.7,0,1.3-0.2,1.6-0.7c0.4-0.5,0.6-1,0.6-1.6V465.6z"/>
	<path class="st7" d="M302.8,459.9v1.5h-0.6c-0.3,0-0.5,0-0.7,0.1s-0.4,0.3-0.6,0.6c0.7,0.5,1,1.2,1,1.8c0,0.7-0.3,1.4-0.9,1.9
		c-0.6,0.5-1.5,0.7-2.5,0.7c-0.4,0-1-0.1-1.6-0.2c-0.4,0.2-0.6,0.5-0.6,0.8c0,0.2,0.1,0.4,0.3,0.6c0.2,0.2,0.5,0.3,0.9,0.3h2.5
		c0.9,0,1.5,0.2,2,0.7s0.7,1,0.7,1.7c0,0.8-0.4,1.5-1.1,2c-0.7,0.5-1.8,0.8-3.3,0.8c-2.7,0-4.1-0.8-4.1-2.3c0-0.8,0.4-1.3,1.2-1.7
		c-0.5-0.4-0.8-0.9-0.8-1.4c0-0.7,0.4-1.3,1.3-1.8c-0.8-0.5-1.2-1.1-1.2-2c0-0.7,0.3-1.3,0.9-1.8c0.6-0.5,1.4-0.7,2.6-0.7
		c0.5,0,1.1,0.1,1.6,0.2c0.3-1.1,0.9-1.6,2-1.6H302.8z M296.3,469.5c-0.3,0.3-0.4,0.5-0.4,0.7c0,0.4,0.2,0.7,0.7,1s1.2,0.4,2.2,0.4
		c1.5,0,2.2-0.4,2.2-1.1c0-0.3-0.1-0.5-0.4-0.6c-0.3-0.1-0.5-0.2-0.9-0.2h-2C297.3,469.7,296.9,469.6,296.3,469.5z M298.4,465.3
		c1,0,1.6-0.5,1.6-1.5c0-0.4-0.1-0.7-0.4-0.9c-0.3-0.3-0.6-0.4-1.1-0.4c-0.5,0-0.9,0.1-1.2,0.4c-0.3,0.3-0.4,0.6-0.4,1
		c0,0.4,0.1,0.7,0.4,1C297.6,465.2,298,465.3,298.4,465.3z"/>
	<path class="st7" d="M309.3,467.2l1.7,0.2c-0.2,0.8-0.7,1.4-1.3,1.9c-0.6,0.5-1.5,0.7-2.4,0.7c-1.2,0-2.1-0.4-2.8-1.2
		c-0.7-0.8-1.1-1.9-1.1-3.2c0-1.3,0.4-2.3,1.1-3.2c0.7-0.8,1.7-1.3,2.9-1.3c1.2,0,2.1,0.4,2.8,1.2c0.7,0.8,1,1.9,1,3.2l0,0.2h-5.8
		c0,0.6,0.1,1,0.2,1.4s0.3,0.6,0.6,0.9c0.3,0.3,0.7,0.4,1.2,0.4C308.4,468.6,309,468.1,309.3,467.2z M309.2,464.7
		c0-0.6-0.2-1.1-0.5-1.5s-0.8-0.6-1.3-0.6c-0.5,0-1,0.2-1.3,0.5c-0.4,0.4-0.6,0.9-0.6,1.5H309.2z"/>
</g>
<g class="st4">
	<path class="st7" d="M370.5,427.9h-2.1v-10l-3.2,10h-1.1l-3.2-10v10h-1.7v-11.4h3.2l2.4,7.4l2.4-7.4h3.2V427.9z"/>
	<path class="st7" d="M374.8,418.5h-1.9v-2h1.9V418.5z M374.8,427.9h-1.9v-8.5h1.9V427.9z"/>
	<path class="st7" d="M384,427.9h-1.8v-1.7c-0.5,1.3-1.3,1.9-2.5,1.9c-1,0-1.8-0.4-2.4-1.3c-0.6-0.9-0.8-1.9-0.8-3.2
		c0-1.2,0.3-2.2,0.9-3.1c0.6-0.9,1.4-1.3,2.5-1.3c1.1,0,1.8,0.5,2.3,1.5v-4.1h1.9V427.9z M382.1,422.9c0-0.7-0.2-1.2-0.5-1.6
		c-0.3-0.4-0.8-0.6-1.3-0.6c-0.6,0-1,0.2-1.3,0.7c-0.3,0.5-0.5,1.2-0.5,2.2c0,1.9,0.6,2.8,1.8,2.8c0.5,0,0.9-0.2,1.2-0.6
		c0.4-0.4,0.5-0.9,0.5-1.6V422.9z"/>
	<path class="st7" d="M390.7,427.9v-11.4h4.5c0.8,0,1.4,0.1,1.9,0.2c0.5,0.2,0.9,0.5,1.3,1c0.4,0.5,0.5,1.1,0.5,1.7
		c0,0.6-0.2,1.2-0.6,1.6s-0.9,0.8-1.5,0.9c0.8,0.1,1.4,0.5,1.8,1c0.4,0.5,0.6,1.1,0.6,1.8c0,0.9-0.3,1.6-0.9,2.2
		c-0.6,0.6-1.5,0.9-2.7,0.9H390.7z M392.6,421.3h2.5c0.5,0,0.9-0.2,1.2-0.5c0.3-0.3,0.4-0.7,0.4-1.2c0-0.5-0.2-0.9-0.5-1.2
		s-0.7-0.4-1.2-0.4h-2.5V421.3z M392.6,426.2h2.7c0.6,0,1-0.1,1.3-0.4s0.5-0.7,0.5-1.2c0-0.5-0.2-0.9-0.5-1.2
		c-0.3-0.3-0.8-0.5-1.3-0.5h-2.7V426.2z"/>
	<path class="st7" d="M402.9,427.9H401v-11.4h1.9V427.9z"/>
	<path class="st7" d="M412.1,427.9h-1.8v-1.8c-0.5,1.3-1.4,2-2.7,2c-0.8,0-1.4-0.2-1.8-0.7c-0.5-0.5-0.7-1.1-0.7-2v-5.9h2v5.5
		c0,0.6,0.1,1,0.4,1.2c0.3,0.2,0.5,0.3,0.8,0.3c0.4,0,0.8-0.2,1.3-0.6c0.4-0.4,0.6-1.2,0.6-2.4v-4.1h1.9V427.9z"/>
	<path class="st7" d="M419.8,425.2l1.7,0.2c-0.2,0.8-0.7,1.4-1.3,1.9c-0.6,0.5-1.5,0.7-2.4,0.7c-1.2,0-2.1-0.4-2.8-1.2
		c-0.7-0.8-1.1-1.9-1.1-3.2c0-1.3,0.4-2.3,1.1-3.2s1.7-1.3,2.9-1.3c1.2,0,2.1,0.4,2.8,1.2c0.7,0.8,1,1.9,1,3.2l0,0.2h-5.8
		c0,0.6,0.1,1,0.2,1.4c0.1,0.3,0.3,0.6,0.6,0.9c0.3,0.3,0.7,0.4,1.2,0.4C418.8,426.6,419.5,426.1,419.8,425.2z M419.7,422.7
		c0-0.6-0.2-1.1-0.5-1.5c-0.4-0.4-0.8-0.6-1.3-0.6c-0.5,0-1,0.2-1.3,0.5c-0.4,0.4-0.6,0.9-0.6,1.5H419.7z"/>
</g>
<g class="st4">
	<path class="st7" d="M336.3,366.5v-11.4h4.5c0.8,0,1.4,0.1,1.9,0.2c0.5,0.2,0.9,0.5,1.3,1c0.4,0.5,0.5,1.1,0.5,1.7
		c0,0.6-0.2,1.2-0.6,1.6s-0.9,0.8-1.5,0.9c0.8,0.1,1.4,0.5,1.8,1c0.4,0.5,0.6,1.1,0.6,1.8c0,0.9-0.3,1.6-0.9,2.2
		c-0.6,0.6-1.5,0.9-2.7,0.9H336.3z M338.2,359.9h2.5c0.5,0,0.9-0.2,1.2-0.5c0.3-0.3,0.4-0.7,0.4-1.2c0-0.5-0.2-0.9-0.5-1.2
		c-0.3-0.2-0.7-0.4-1.2-0.4h-2.5V359.9z M338.2,364.8h2.7c0.6,0,1-0.1,1.3-0.4s0.5-0.7,0.5-1.2c0-0.5-0.2-0.9-0.5-1.2
		c-0.3-0.3-0.8-0.5-1.3-0.5h-2.7V364.8z"/>
	<path class="st7" d="M354.9,366.5h-2.2v-9.7h-3v-1.8h8.3v1.8h-3V366.5z"/>
	<path class="st7" d="M365.2,366.5h-1.8v-1.8c-0.5,1.3-1.4,2-2.7,2c-0.8,0-1.4-0.2-1.8-0.7c-0.5-0.5-0.7-1.1-0.7-2V358h2v5.5
		c0,0.6,0.1,1,0.4,1.2c0.3,0.2,0.5,0.3,0.8,0.3c0.4,0,0.8-0.2,1.3-0.6c0.4-0.4,0.6-1.2,0.6-2.4V358h1.9V366.5z"/>
	<path class="st7" d="M368.3,366.5h-0.9v-11.4h1.9v4.1c0.4-0.6,0.7-1,1.1-1.2c0.4-0.2,0.8-0.3,1.3-0.3c0.9,0,1.7,0.4,2.3,1.2
		c0.6,0.8,0.9,1.9,0.9,3.3c0,1.3-0.3,2.3-0.9,3.2c-0.6,0.9-1.5,1.3-2.6,1.3c-1.1,0-2-0.5-2.6-1.6L368.3,366.5z M369.4,362.9
		c0,0.8,0.2,1.3,0.5,1.7c0.3,0.4,0.7,0.5,1.3,0.5c0.5,0,0.9-0.2,1.3-0.6c0.3-0.4,0.5-1.2,0.5-2.4c0-0.9-0.2-1.6-0.5-2
		c-0.3-0.5-0.7-0.7-1.3-0.7c-0.5,0-1,0.2-1.3,0.6c-0.3,0.4-0.5,1-0.5,1.7V362.9z"/>
	<path class="st7" d="M382.1,363.8l1.7,0.2c-0.2,0.8-0.7,1.4-1.3,1.9c-0.6,0.5-1.5,0.7-2.4,0.7c-1.2,0-2.1-0.4-2.8-1.2
		c-0.7-0.8-1.1-1.9-1.1-3.2c0-1.3,0.4-2.3,1.1-3.2s1.7-1.3,2.9-1.3c1.2,0,2.1,0.4,2.8,1.2c0.7,0.8,1,1.9,1,3.2l0,0.2h-5.8
		c0,0.6,0.1,1,0.2,1.4c0.1,0.3,0.3,0.6,0.6,0.9c0.3,0.3,0.7,0.4,1.2,0.4C381.1,365.2,381.7,364.7,382.1,363.8z M381.9,361.3
		c0-0.6-0.2-1.1-0.5-1.5c-0.4-0.4-0.8-0.6-1.3-0.6c-0.5,0-1,0.2-1.3,0.5c-0.4,0.4-0.6,0.9-0.6,1.5H381.9z"/>
</g>
<g class="st4">
	<path class="st7" d="M197.3,161.7v-11.4h4.5c0.8,0,1.4,0.1,1.9,0.2s0.9,0.5,1.3,1s0.5,1.1,0.5,1.7c0,0.6-0.2,1.2-0.6,1.6
		s-0.9,0.8-1.5,0.9c0.8,0.1,1.4,0.5,1.8,1c0.4,0.5,0.6,1.1,0.6,1.8c0,0.9-0.3,1.6-0.9,2.2c-0.6,0.6-1.5,0.9-2.7,0.9H197.3z
		 M199.2,155h2.5c0.5,0,0.9-0.2,1.2-0.5c0.3-0.3,0.4-0.7,0.4-1.2c0-0.5-0.2-0.9-0.5-1.2s-0.7-0.4-1.2-0.4h-2.5V155z M199.2,160h2.7
		c0.6,0,1-0.1,1.3-0.4c0.3-0.3,0.5-0.7,0.5-1.2c0-0.5-0.2-0.9-0.5-1.2c-0.3-0.3-0.8-0.5-1.3-0.5h-2.7V160z"/>
	<path class="st7" d="M212,161.7v-11.4h4.5c0.8,0,1.4,0.1,1.9,0.2s0.9,0.5,1.3,1s0.5,1.1,0.5,1.7c0,0.6-0.2,1.2-0.6,1.6
		s-0.9,0.8-1.5,0.9c0.8,0.1,1.4,0.5,1.8,1c0.4,0.5,0.6,1.1,0.6,1.8c0,0.9-0.3,1.6-0.9,2.2c-0.6,0.6-1.5,0.9-2.7,0.9H212z M213.9,155
		h2.5c0.5,0,0.9-0.2,1.2-0.5c0.3-0.3,0.4-0.7,0.4-1.2c0-0.5-0.2-0.9-0.5-1.2s-0.7-0.4-1.2-0.4h-2.5V155z M213.9,160h2.7
		c0.6,0,1-0.1,1.3-0.4c0.3-0.3,0.5-0.7,0.5-1.2c0-0.5-0.2-0.9-0.5-1.2c-0.3-0.3-0.8-0.5-1.3-0.5h-2.7V160z"/>
	<path class="st7" d="M229.5,161.7h-1.8c-0.2-0.5-0.3-1.1-0.3-1.7c-0.5,1.3-1.5,1.9-2.9,1.9c-0.8,0-1.5-0.2-2-0.7
		c-0.5-0.5-0.8-1.1-0.8-1.9c0-1.9,1.7-2.9,5.1-2.9c0.1,0,0.3,0,0.5,0v-0.6c0-0.9-0.6-1.3-1.8-1.3c-1.2,0-1.8,0.4-2,1.3l-1.6-0.2
		c0.1-0.7,0.5-1.3,1.1-1.7c0.6-0.5,1.6-0.7,2.8-0.7c0.7,0,1.2,0.1,1.6,0.2c0.4,0.1,0.8,0.3,1,0.6c0.3,0.3,0.5,0.5,0.6,0.8
		c0.1,0.3,0.2,0.8,0.2,1.5v3.8C229.2,160.5,229.3,161.1,229.5,161.7z M227.4,157.4c-2.5,0-3.7,0.6-3.7,1.8c0,0.4,0.1,0.7,0.4,0.9
		c0.2,0.2,0.6,0.4,1.1,0.4c0.7,0,1.3-0.2,1.6-0.7c0.4-0.5,0.6-1,0.6-1.6V157.4z"/>
	<path class="st7" d="M236.4,158.6l1.6,0.2c-0.2,1.1-0.6,1.8-1.2,2.4c-0.6,0.5-1.3,0.8-2.2,0.8c-1.2,0-2.1-0.4-2.7-1.3
		s-0.9-1.9-0.9-3.1c0-1.3,0.3-2.3,1-3.2c0.7-0.8,1.6-1.2,2.7-1.2c1.8,0,2.9,1,3.3,2.9l-1.6,0.2c-0.1-1-0.7-1.6-1.5-1.6
		c-0.6,0-1.1,0.3-1.4,0.8s-0.4,1.3-0.4,2.1c0,0.9,0.2,1.5,0.5,2s0.7,0.7,1.3,0.7C235.6,160.2,236.1,159.6,236.4,158.6z"/>
	<path class="st7" d="M247.5,161.7h-2l-2.2-4.3l-1.9,2.1v2.2h-1.8v-11.4h1.8v7.1c0.2-0.2,0.3-0.4,0.4-0.5l3.3-3.6h2.1l-2.5,2.8
		L247.5,161.7z"/>
</g>
<g class="st4">
	<path class="st7" d="M67.3,197.5V186h4.5c0.8,0,1.4,0.1,1.9,0.2s0.9,0.5,1.3,1s0.5,1.1,0.5,1.7c0,0.6-0.2,1.2-0.6,1.6
		s-0.9,0.8-1.5,0.9c0.8,0.1,1.4,0.5,1.8,1c0.4,0.5,0.6,1.1,0.6,1.8c0,0.9-0.3,1.6-0.9,2.2c-0.6,0.6-1.5,0.9-2.7,0.9H67.3z
		 M69.2,190.8h2.5c0.5,0,0.9-0.2,1.2-0.5c0.3-0.3,0.4-0.7,0.4-1.2c0-0.5-0.2-0.9-0.5-1.2s-0.7-0.4-1.2-0.4h-2.5V190.8z M69.2,195.8
		h2.7c0.6,0,1-0.1,1.3-0.4c0.3-0.3,0.5-0.7,0.5-1.2c0-0.5-0.2-0.9-0.5-1.2c-0.3-0.3-0.8-0.5-1.3-0.5h-2.7V195.8z"/>
	<path class="st7" d="M80.8,194.7l2-0.4c0.2,1.1,1.2,1.7,2.8,1.7c0.7,0,1.3-0.1,1.7-0.4c0.4-0.3,0.6-0.6,0.6-1.1
		c0-0.3-0.1-0.6-0.3-0.9c-0.2-0.3-0.6-0.5-1.1-0.6l-2.2-0.6c-0.7-0.2-1.3-0.4-1.7-0.7c-0.4-0.2-0.6-0.6-0.9-1.1s-0.3-0.9-0.3-1.4
		c0-1,0.4-1.8,1.1-2.5c0.8-0.6,1.7-0.9,2.9-0.9c1,0,1.9,0.2,2.6,0.6c0.8,0.4,1.3,1,1.5,1.8l-2,0.5c-0.3-0.9-1-1.3-2.1-1.3
		c-0.6,0-1.1,0.1-1.5,0.4c-0.3,0.3-0.5,0.6-0.5,1c0,0.7,0.5,1.1,1.6,1.4l1.9,0.5c1.2,0.3,2,0.7,2.4,1.3c0.4,0.6,0.6,1.2,0.6,1.9
		c0,1.1-0.4,2-1.3,2.6s-1.9,1-3.3,1c-1.1,0-2.1-0.2-3-0.7C81.6,196.5,81,195.7,80.8,194.7z"/>
	<path class="st7" d="M98.6,197.5h-1.9v-5.3c0-0.6-0.1-1-0.4-1.3c-0.3-0.3-0.6-0.4-0.9-0.4c-0.5,0-0.9,0.2-1.3,0.7
		c-0.4,0.4-0.6,1.1-0.6,2v4.3h-1.9V189h1.7v2c0.6-1.4,1.5-2.1,2.6-2.1c0.7,0,1.4,0.2,1.9,0.7s0.8,1.3,0.8,2.5V197.5z"/>
	<path class="st7" d="M104.2,197.6c-1.2,0-2.2-0.4-2.9-1.3c-0.7-0.9-1-1.9-1-3.1c0-1.2,0.4-2.3,1.1-3.1c0.7-0.8,1.7-1.2,2.9-1.2
		c1.1,0,2.1,0.4,2.8,1.2c0.7,0.8,1.1,1.9,1.1,3.2c0,1.3-0.4,2.4-1.1,3.2C106.3,197.2,105.4,197.6,104.2,197.6z M104.3,196.1
		c1.3,0,1.9-1,1.9-2.9c0-0.9-0.2-1.5-0.5-2c-0.3-0.5-0.8-0.7-1.4-0.7c-0.7,0-1.1,0.3-1.5,0.8c-0.3,0.5-0.5,1.2-0.5,2.1
		c0,0.9,0.2,1.6,0.5,2.1C103.2,195.8,103.7,196.1,104.3,196.1z"/>
	<path class="st7" d="M120.5,189l-2.5,8.5h-1.7l-1.5-5.9l-1.5,5.9h-1.8l-2.6-8.5h2l1.7,5.7l1.5-5.7h1.7l1.5,5.7l1.6-5.7H120.5z"/>
	<path class="st7" d="M134.4,197.5h-2v-5.3c0-1.1-0.5-1.6-1.5-1.6c-0.6,0-1,0.2-1.4,0.6s-0.5,1-0.5,1.8v4.4h-2v-5.3
		c0-1.1-0.5-1.7-1.4-1.7c-0.6,0-1,0.2-1.4,0.7s-0.6,1.1-0.6,1.8v4.4h-2V189h1.9v1.8c0.6-1.3,1.5-2,2.8-2c1.2,0,2.1,0.7,2.4,2
		c0.7-1.3,1.6-2,2.8-2c0.8,0,1.5,0.3,2,0.8s0.7,1.1,0.7,1.9V197.5z"/>
	<path class="st7" d="M143.9,197.5h-1.8c-0.2-0.5-0.3-1.1-0.3-1.7c-0.5,1.3-1.5,1.9-2.9,1.9c-0.8,0-1.5-0.2-2-0.7
		c-0.5-0.5-0.8-1.1-0.8-1.9c0-1.9,1.7-2.9,5.1-2.9c0.1,0,0.3,0,0.5,0v-0.6c0-0.9-0.6-1.3-1.8-1.3c-1.2,0-1.8,0.4-2,1.3l-1.6-0.2
		c0.1-0.7,0.5-1.3,1.1-1.7c0.6-0.5,1.6-0.7,2.8-0.7c0.7,0,1.2,0.1,1.6,0.2c0.4,0.1,0.8,0.3,1,0.6c0.3,0.3,0.5,0.5,0.6,0.8
		c0.1,0.3,0.2,0.8,0.2,1.5v3.8C143.7,196.3,143.8,196.9,143.9,197.5z M141.8,193.2c-2.5,0-3.7,0.6-3.7,1.8c0,0.4,0.1,0.7,0.4,0.9
		c0.2,0.2,0.6,0.4,1.1,0.4c0.7,0,1.3-0.2,1.6-0.7c0.4-0.5,0.6-1,0.6-1.6V193.2z"/>
	<path class="st7" d="M153,197.5h-1.9v-5.3c0-0.6-0.1-1-0.4-1.3c-0.3-0.3-0.6-0.4-0.9-0.4c-0.5,0-0.9,0.2-1.3,0.7
		c-0.4,0.4-0.6,1.1-0.6,2v4.3H146V189h1.7v2c0.6-1.4,1.5-2.1,2.6-2.1c0.7,0,1.4,0.2,1.9,0.7s0.8,1.3,0.8,2.5V197.5z"/>
</g>
<g class="st4">
	<path class="st7" d="M296.8,184.6v-11.4h4.5c0.8,0,1.4,0.1,1.9,0.2c0.5,0.2,0.9,0.5,1.3,1c0.4,0.5,0.5,1.1,0.5,1.7
		c0,0.6-0.2,1.2-0.6,1.6s-0.9,0.8-1.5,0.9c0.8,0.1,1.4,0.5,1.8,1c0.4,0.5,0.6,1.1,0.6,1.8c0,0.9-0.3,1.6-0.9,2.2
		c-0.6,0.6-1.5,0.9-2.7,0.9H296.8z M298.7,178h2.5c0.5,0,0.9-0.2,1.2-0.5s0.4-0.7,0.4-1.2c0-0.5-0.2-0.9-0.5-1.2
		c-0.3-0.2-0.7-0.4-1.2-0.4h-2.5V178z M298.7,182.9h2.7c0.6,0,1-0.1,1.3-0.4c0.3-0.3,0.5-0.7,0.5-1.2c0-0.5-0.2-0.9-0.5-1.2
		c-0.3-0.3-0.8-0.5-1.3-0.5h-2.7V182.9z"/>
	<path class="st7" d="M319.9,184.6h-2.1v-5h-4.4v5h-2.1v-11.4h2.1v4.7h4.4v-4.7h2.1V184.6z"/>
	<path class="st7" d="M329.3,184.6h-1.8v-1.8c-0.5,1.3-1.4,2-2.7,2c-0.8,0-1.4-0.2-1.8-0.7c-0.5-0.5-0.7-1.1-0.7-2v-5.9h2v5.5
		c0,0.6,0.1,1,0.4,1.2c0.3,0.2,0.5,0.3,0.8,0.3c0.4,0,0.8-0.2,1.3-0.6s0.6-1.2,0.6-2.4v-4.1h1.9V184.6z"/>
	<path class="st7" d="M335.5,183.1v1.5c-0.6,0.1-1,0.2-1.3,0.2c-0.5,0-1-0.1-1.3-0.3c-0.4-0.2-0.6-0.5-0.8-0.8s-0.3-0.9-0.3-1.6
		v-4.4h-1.1v-1.5h1.2l0.2-2.2l1.6-0.1v2.3h1.7v1.5h-1.7v4.1c0,0.5,0.1,0.9,0.3,1.1s0.6,0.3,1.1,0.3
		C335.2,183.1,335.3,183.1,335.5,183.1z"/>
</g>
<g class="st4">
	<path class="st7" d="M506.1,178.9h-2.2l-0.9-2.7h-4.4l-0.9,2.7h-1.8l3.8-11.4h2.5L506.1,178.9z M502.4,174.6l-1.7-5.1l-1.7,5.1
		H502.4z"/>
	<path class="st7" d="M520.6,178.9h-2.2l-1.8-4.7h-2.9v4.7h-2.1v-11.4h5c1.4,0,2.4,0.3,3,0.9s1,1.4,1,2.4c0,1.5-0.7,2.5-2.1,3
		L520.6,178.9z M513.8,172.6h2.6c0.7,0,1.3-0.2,1.7-0.5c0.4-0.3,0.5-0.7,0.5-1.3c0-0.5-0.2-0.9-0.5-1.2c-0.4-0.3-0.9-0.5-1.5-0.5
		h-2.7V172.6z"/>
	<path class="st7" d="M529.9,178.9h-1.8c-0.2-0.5-0.3-1.1-0.3-1.7c-0.5,1.3-1.5,1.9-2.9,1.9c-0.8,0-1.5-0.2-2-0.7
		c-0.5-0.5-0.8-1.1-0.8-1.9c0-1.9,1.7-2.9,5.1-2.9c0.1,0,0.3,0,0.5,0V173c0-0.9-0.6-1.3-1.8-1.3c-1.2,0-1.8,0.4-2,1.3l-1.6-0.2
		c0.1-0.7,0.5-1.3,1.1-1.7c0.6-0.5,1.6-0.7,2.8-0.7c0.7,0,1.2,0.1,1.6,0.2c0.4,0.1,0.8,0.3,1,0.6s0.5,0.5,0.6,0.8
		c0.1,0.3,0.2,0.8,0.2,1.5v3.8C529.6,177.8,529.7,178.3,529.9,178.9z M527.8,174.6c-2.5,0-3.7,0.6-3.7,1.8c0,0.4,0.1,0.7,0.4,0.9
		c0.2,0.2,0.6,0.4,1.1,0.4c0.7,0,1.3-0.2,1.6-0.7c0.4-0.5,0.6-1,0.6-1.6V174.6z"/>
	<path class="st7" d="M534.1,178.9h-1.8v-7H531v-1.5h1.3v-0.4c0-0.8,0.2-1.5,0.6-2c0.4-0.5,1.2-0.8,2.4-0.8c0.2,0,0.4,0,0.7,0v1.5
		c-0.2,0-0.4,0-0.5,0c-0.5,0-0.8,0.1-1,0.2c-0.2,0.1-0.3,0.3-0.3,0.4s-0.1,0.5-0.1,1h1.9v1.5h-1.9V178.9z"/>
	<path class="st7" d="M541.6,177.4v1.5c-0.6,0.1-1,0.2-1.3,0.2c-0.5,0-1-0.1-1.3-0.3c-0.4-0.2-0.6-0.5-0.8-0.8
		c-0.2-0.4-0.3-0.9-0.3-1.6V172h-1.1v-1.5h1.2l0.2-2.2l1.6-0.1v2.3h1.7v1.5h-1.7v4.1c0,0.5,0.1,0.9,0.3,1.1s0.6,0.3,1.1,0.3
		C541.2,177.4,541.4,177.4,541.6,177.4z"/>
	<path class="st7" d="M548.3,176.2l1.7,0.2c-0.2,0.8-0.7,1.4-1.3,1.9c-0.6,0.5-1.5,0.7-2.4,0.7c-1.2,0-2.1-0.4-2.8-1.2
		c-0.7-0.8-1.1-1.9-1.1-3.2c0-1.3,0.4-2.3,1.1-3.2s1.7-1.3,2.9-1.3c1.2,0,2.1,0.4,2.8,1.2c0.7,0.8,1,1.9,1,3.2l0,0.2h-5.8
		c0,0.6,0.1,1,0.2,1.4c0.1,0.3,0.3,0.6,0.6,0.9c0.3,0.3,0.7,0.4,1.2,0.4C547.3,177.6,548,177.1,548.3,176.2z M548.2,173.7
		c0-0.6-0.2-1.1-0.5-1.5c-0.4-0.4-0.8-0.6-1.3-0.6c-0.5,0-1,0.2-1.3,0.5c-0.4,0.4-0.6,0.9-0.6,1.5H548.2z"/>
	<path class="st7" d="M553.8,178.9h-1.9v-8.5h1.7v2c0.2-0.8,0.6-1.4,1-1.7s0.9-0.5,1.3-0.5c0.1,0,0.1,0,0.3,0v2.1
		c-1,0-1.6,0.3-1.9,0.9c-0.3,0.6-0.5,1.2-0.5,1.8V178.9z"/>
	<path class="st7" d="M556.8,177l1.8-0.3c0.3,0.7,0.9,1,1.8,1c1.2,0,1.8-0.3,1.8-1c0-0.2-0.1-0.4-0.3-0.6c-0.2-0.1-0.4-0.2-0.7-0.3
		l-1.5-0.3c-1.7-0.3-2.6-1.2-2.6-2.5c0-0.7,0.3-1.4,0.8-1.9c0.5-0.5,1.3-0.8,2.4-0.8c1.8,0,2.9,0.7,3.3,2l-1.7,0.3
		c-0.2-0.6-0.7-1-1.5-1c-1,0-1.5,0.3-1.5,1c0,0.4,0.4,0.7,1.2,0.9l1.8,0.4c1.4,0.3,2.1,1.1,2.1,2.4c0,0.9-0.4,1.6-1.1,2.1
		c-0.7,0.5-1.6,0.7-2.6,0.7c-0.9,0-1.6-0.2-2.3-0.5S557,177.7,556.8,177z"/>
</g>
<rect x="511" y="191.8" class="st8" width="130" height="66.6"/>
<rect x="144.5" y="255.6" class="st8" width="60" height="76.3"/>
<g class="st4">
	<path class="st9" d="M150.5,300.1v-13.7h5.3c0.9,0,1.7,0.1,2.2,0.3c0.6,0.2,1.1,0.6,1.5,1.2c0.4,0.6,0.7,1.3,0.7,2.1
		c0,0.8-0.2,1.4-0.7,2c-0.4,0.6-1.1,0.9-1.8,1.1c1,0.2,1.7,0.6,2.2,1.2c0.5,0.6,0.7,1.3,0.7,2.2c0,1.1-0.3,1.9-1,2.7
		c-0.7,0.7-1.8,1.1-3.2,1.1H150.5z M152.8,292.1h3c0.6,0,1.1-0.2,1.5-0.6c0.4-0.4,0.5-0.8,0.5-1.4c0-0.6-0.2-1.1-0.6-1.4
		c-0.4-0.3-0.9-0.4-1.4-0.4h-3V292.1z M152.8,298h3.2c0.7,0,1.2-0.2,1.6-0.5c0.4-0.4,0.6-0.8,0.6-1.4c0-0.6-0.2-1-0.6-1.4
		s-0.9-0.6-1.6-0.6h-3.2V298z"/>
	<path class="st9" d="M166.7,296.8l2.4-0.5c0.3,1.4,1.4,2,3.3,2c0.9,0,1.6-0.2,2-0.5c0.5-0.3,0.7-0.8,0.7-1.3c0-0.4-0.1-0.7-0.3-1
		s-0.7-0.6-1.4-0.7l-2.6-0.7c-0.9-0.2-1.6-0.5-2-0.8c-0.4-0.3-0.8-0.7-1-1.3c-0.3-0.5-0.4-1.1-0.4-1.7c0-1.2,0.5-2.2,1.4-2.9
		s2.1-1.1,3.5-1.1c1.2,0,2.2,0.3,3.2,0.8c0.9,0.5,1.5,1.2,1.8,2.2l-2.3,0.6c-0.4-1-1.2-1.6-2.5-1.6c-0.8,0-1.4,0.2-1.8,0.5
		c-0.4,0.3-0.6,0.7-0.6,1.2c0,0.8,0.6,1.3,1.9,1.6l2.3,0.6c1.4,0.4,2.4,0.9,2.8,1.6c0.5,0.7,0.7,1.5,0.7,2.3c0,1.3-0.5,2.4-1.5,3.2
		c-1,0.8-2.3,1.2-3.9,1.2c-1.4,0-2.5-0.3-3.6-0.9S167,298,166.7,296.8z"/>
	<path class="st9" d="M182,288.8h-2.3v-2.4h2.3V288.8z M182,300.1h-2.3v-10.1h2.3V300.1z"/>
	<path class="st9" d="M189.4,298.3v1.8c-0.7,0.1-1.2,0.2-1.6,0.2c-0.6,0-1.1-0.1-1.6-0.4s-0.8-0.6-1-1c-0.2-0.4-0.3-1.1-0.3-2v-5.3
		h-1.3v-1.8h1.4l0.2-2.6l1.9-0.2v2.8h2v1.8h-2v5c0,0.6,0.1,1.1,0.3,1.3c0.2,0.2,0.7,0.3,1.3,0.3
		C189.1,298.3,189.2,298.3,189.4,298.3z"/>
	<path class="st9" d="M197.5,296.9l2.1,0.3c-0.3,0.9-0.8,1.7-1.6,2.3c-0.8,0.6-1.8,0.9-2.9,0.9c-1.4,0-2.5-0.5-3.4-1.4
		c-0.9-0.9-1.3-2.2-1.3-3.8c0-1.5,0.4-2.8,1.3-3.8c0.9-1,2-1.5,3.5-1.5c1.4,0,2.6,0.5,3.4,1.5c0.8,1,1.2,2.3,1.2,3.8l0,0.3h-7
		c0,0.7,0.1,1.2,0.2,1.7c0.1,0.4,0.4,0.8,0.8,1.1c0.4,0.3,0.9,0.5,1.5,0.5C196.4,298.5,197.1,297.9,197.5,296.9z M197.4,293.8
		c0-0.7-0.2-1.3-0.7-1.8c-0.4-0.5-1-0.7-1.6-0.7c-0.6,0-1.2,0.2-1.6,0.6c-0.4,0.4-0.7,1-0.7,1.8H197.4z"/>
</g>
<g class="st4">
	<path class="st9" d="M576.3,235.9h-2.6l-1.1-3.3h-5.3l-1.1,3.3h-2.1l4.5-13.7h3L576.3,235.9z M571.9,230.7l-2-6.1l-2,6.1H571.9z"/>
	<path class="st9" d="M581.7,232.6l2.4-0.5c0.3,1.4,1.4,2,3.3,2c0.9,0,1.6-0.2,2-0.5c0.5-0.3,0.7-0.8,0.7-1.3c0-0.4-0.1-0.7-0.3-1
		c-0.2-0.3-0.7-0.6-1.4-0.7l-2.6-0.7c-0.9-0.2-1.6-0.5-2-0.8c-0.4-0.3-0.8-0.7-1-1.3c-0.3-0.5-0.4-1.1-0.4-1.7
		c0-1.2,0.5-2.2,1.4-2.9s2.1-1.1,3.5-1.1c1.2,0,2.2,0.3,3.2,0.8c0.9,0.5,1.5,1.2,1.8,2.2l-2.3,0.6c-0.4-1-1.2-1.6-2.5-1.6
		c-0.8,0-1.4,0.2-1.8,0.5c-0.4,0.3-0.6,0.7-0.6,1.2c0,0.8,0.6,1.3,1.9,1.6l2.3,0.6c1.4,0.4,2.4,0.9,2.8,1.6c0.5,0.7,0.7,1.5,0.7,2.3
		c0,1.3-0.5,2.4-1.5,3.2s-2.3,1.2-3.9,1.2c-1.4,0-2.5-0.3-3.6-0.9C582.7,234.7,582,233.8,581.7,232.6z"/>
	<path class="st9" d="M597,224.6h-2.3v-2.4h2.3V224.6z M597,235.9h-2.3v-10.1h2.3V235.9z"/>
	<path class="st9" d="M604.5,234.1v1.8c-0.7,0.1-1.2,0.2-1.6,0.2c-0.6,0-1.1-0.1-1.6-0.4c-0.4-0.2-0.8-0.6-1-1
		c-0.2-0.4-0.3-1.1-0.3-2v-5.3h-1.3v-1.8h1.4l0.2-2.6l1.9-0.2v2.8h2v1.8h-2v5c0,0.6,0.1,1.1,0.3,1.3c0.2,0.2,0.7,0.3,1.3,0.3
		C604.1,234.2,604.3,234.1,604.5,234.1z"/>
	<path class="st9" d="M612.5,232.7l2.1,0.3c-0.3,0.9-0.8,1.7-1.6,2.3s-1.8,0.9-2.9,0.9c-1.4,0-2.5-0.5-3.4-1.4s-1.3-2.2-1.3-3.8
		c0-1.5,0.4-2.8,1.3-3.8c0.9-1,2-1.5,3.5-1.5c1.4,0,2.6,0.5,3.4,1.5c0.8,1,1.2,2.3,1.2,3.8l0,0.3h-7c0,0.7,0.1,1.2,0.2,1.7
		c0.1,0.4,0.4,0.8,0.8,1.1c0.4,0.3,0.9,0.5,1.5,0.5C611.4,234.3,612.2,233.8,612.5,232.7z M612.4,229.7c0-0.7-0.2-1.3-0.7-1.8
		c-0.4-0.5-1-0.7-1.6-0.7c-0.6,0-1.2,0.2-1.6,0.6s-0.7,1-0.7,1.8H612.4z"/>
</g>
<g>
	<rect x="514.6" y="263.9" class="st5" width="121.4" height="5"/>
</g>
<g>
	<rect x="434.1" y="263.9" class="st5" width="27.3" height="5"/>
</g>
<g>
	<rect x="376" y="252.4" class="st5" width="34" height="5"/>
</g>
<g>
	<rect x="339.9" y="254.4" class="st5" width="9.6" height="5"/>
</g>
<g>
	<rect x="310" y="253.9" class="st5" width="7.7" height="5"/>
</g>
<g>
	<rect x="258.2" y="262.2" class="st5" width="5" height="23"/>
</g>
<g>
	<rect x="258.2" y="306.4" class="st5" width="5" height="23"/>
</g>
<g>
	<rect x="191" y="386.5" class="st5" width="5" height="49.1"/>
</g>
<g>
	<rect x="385.9" y="448.3" class="st6" width="72.9" height="5"/>
</g>
<g>
	<rect x="310.7" y="496.5" class="st6" width="5" height="11.8"/>
</g>
<g>
	<rect x="316.7" y="479.5" class="st6" width="17.5" height="5"/>
</g>
<g>
	<rect x="499.5" y="464.4" class="st6" width="26.7" height="5"/>
</g>
<g>
	<rect x="591.1" y="463.9" class="st6" width="26.7" height="5"/>
</g>
</svg>
