<?xml version="1.0" encoding="utf-8"?>
<!-- Generator: Adobe Illustrator 25.0.1, SVG Export Plug-In . SVG Version: 6.00 Build 0)  -->
<svg version="1.1" id="Layer_1" xmlns="http://www.w3.org/2000/svg" xmlns:xlink="http://www.w3.org/1999/xlink" x="0px" y="0px"
	 viewBox="0 0 708 708" style="enable-background:new 0 0 708 708;" xml:space="preserve">
<style type="text/css">
	.st0{fill-rule:evenodd;clip-rule:evenodd;fill:#101823;}
	.st1{fill-rule:evenodd;clip-rule:evenodd;fill:#181B21;filter:url(#Adobe_OpacityMaskFilter);}
	.st2{mask:url(#mask0_1921_5271_1_);}
	.st3{fill:none;stroke:#161F2F;}
	.st4{fill:#161F2F;}
	.st5{opacity:0.11;fill:#FF4654;enable-background:new    ;}
	.st6{fill:#67748F;}
	.st7{fill:#BDC5CC;}
	.st8{fill:#16E5B4;}
	.st9{fill:#FF4654;}
</style>
<path class="st0" d="M423.7,660.2v-87.9h97.8v-85.6h-36.4v-3.8h143.2V361.6h23.5l35.6-35.6v-197H522.2V58.5H368.8
	c-1.5,0-4.1,1.1-6.2,2c-1.1,0.5-2,0.9-2.6,1c-0.5,0.1-1.5,0.3-2.7,0.6c-2.6,0.5-6.2,1.2-7.5,1.7c-0.3,0.1-0.6,0.2-0.9,0.3
	c-1.6,0.4-3.2,0.8-7.1,8.4c-0.8,1.7-1.6,3.1-2.3,4.4c-3.1,5.9-5.3,10-9,26.6l0,0.2c-1.5,6.9-4.2,18.8-9,22.5
	c-0.1,0.1-0.1,0.2-0.2,0.3c-1,1.3-1.3,1.7-1.3,3.5v14H137.3v59.1h-97v43.2h14.4v65.9H9.2v63.3c0,3.8,6.1,28.4,28.8,28.4h100.8v78.1
	l28,28v21.2h-28v26.9L273.3,623h45.1v37.1H423.7z M280.5,193.3v49.3h67.4v30.3h15.2v-3.8h-11.4v-40.9h42.4v11.4h15.2V229H398v-100
	h-38.6v64.4H280.5z M82.7,256.2v-9.9h89.4v-53H254v40.9h-60.6V304h-59.1v-47.7H82.7z M112.3,336.6v31.8h26.5v-16.7h69v39.4h23.5
	v-11.4h59.1v-95.5h22v-20.5h-20.5v16.7h-65.2v67.4H182v-11.4H112.3z M54.7,347.9H38.8v12.1h15.9V347.9z M318.4,526v56.1h-26.5V520
	H213v-9.1h8.3V426h125v24.2H301v71.2h40.9v4.5H318.4z M323.3,499.9v-3h3v3H323.3z M323.3,474.1h3v3h-3V474.1z M381.3,272.9v-3.8h72
	v-71.2H526v15.9c-2.3,2.7-5.3,7.2-5.3,8.3v10.6c3,2.3,5.3,6.8,5.3,8v3.8c0,4.2-5.6,10.1-8.3,12.5v53.8h-97.8v27.3h-22v-65.2H381.3z
	 M475.2,160.8v9.9h85.6V213h6.1v46.2h15.2v-56.1h-16.7v-42.4H475.2z M605.6,170.6v-9.9h63.7v9.9H605.6z M609,217.2v1.5h43.2v-1.5
	H609z M608.6,250.9v-9.9h43.2v9.9H608.6z M565.4,292.6v32.6h23.5v44.7h4.5v-69.7h64.4v-7.6H565.4z M556.3,440.4v-13.6H570v13.6
	H556.3z M381.3,537.4H448v-23.5l12.9-22.7v-41.7l22.7-7.2l2.3-10.2l8.7-3.8l22.4-28.4l1.5-4.9v-3h17.4v-15.2H523l-44.7-34.1v-17.4
	h-4.5v34.1H322.2v34.9h18.2v-17.4h40.9V537.4z"/>
<defs>
	<filter id="Adobe_OpacityMaskFilter" filterUnits="userSpaceOnUse" x="39.8" y="58" width="629.4" height="524.6">
		
			<feColorMatrix  type="matrix" values="-1 0 0 0 1  0 -1 0 0 1  0 0 -1 0 1  0 0 0 1 0" color-interpolation-filters="sRGB" result="source"/>
	</filter>
</defs>
<mask maskUnits="userSpaceOnUse" x="39.8" y="58" width="629.4" height="524.6" id="mask0_1921_5271_1_">
	<path class="st1" d="M423.7,660.2v-87.9h97.8v-85.6h-36.4v-3.8h143.2V361.6h23.5l35.6-35.6v-197H522.2V58.5H368.8
		c-1.5,0-4.1,1.1-6.2,2c-1.1,0.5-2,0.9-2.6,1c-0.5,0.1-1.5,0.3-2.7,0.6c-2.6,0.5-6.2,1.2-7.5,1.7c-0.3,0.1-0.6,0.2-0.9,0.3
		c-1.6,0.4-3.2,0.8-7.1,8.4c-0.8,1.7-1.6,3.1-2.3,4.4c-3.1,5.9-5.3,10-9,26.6l0,0.2c-1.5,6.9-4.2,18.8-9,22.5
		c-0.1,0.1-0.1,0.2-0.2,0.3c-1,1.3-1.3,1.7-1.3,3.5v14H137.3v59.1h-97v43.2h14.4v65.9H9.2v63.3c0,3.8,6.1,28.4,28.8,28.4h100.8v78.1
		l28,28v21.2h-28v26.9L273.3,623h45.1v37.1H423.7z M280.5,193.3v49.3h67.4v30.3h15.2v-3.8h-11.4v-40.9h42.4v11.4h15.2V229H398v-100
		h-38.6v64.4H280.5z M82.7,256.2v-9.9h89.4v-53H254v40.9h-60.6V304h-59.1v-47.7H82.7z M112.3,336.6v31.8h26.5v-16.7h69v39.4h23.5
		v-11.4h59.1v-95.5h22v-20.5h-20.5v16.7h-65.2v67.4H182v-11.4H112.3z M54.7,347.9H38.8v12.1h15.9V347.9z M318.4,526v56.1h-26.5V520
		H213v-9.1h8.3V426h125v24.2H301v71.2h40.9v4.5H318.4z M323.3,499.9v-3h3v3H323.3z M323.3,474.1h3v3h-3V474.1z M381.3,272.9v-3.8h72
		v-71.2H526v15.9c-2.3,2.7-5.3,7.2-5.3,8.3v10.6c3,2.3,5.3,6.8,5.3,8v3.8c0,4.2-5.6,10.1-8.3,12.5v53.8h-97.8v27.3h-22v-65.2H381.3z
		 M475.2,160.8v9.9h85.6V213h6.1v46.2h15.2v-56.1h-16.7v-42.4H475.2z M605.6,170.6v-9.9h63.7v9.9H605.6z M609,217.2v1.5h43.2v-1.5
		H609z M608.6,250.9v-9.9h43.2v9.9H608.6z M565.4,292.6v32.6h23.5v44.7h4.5v-69.7h64.4v-7.6H565.4z M556.3,440.4v-13.6H570v13.6
		H556.3z M381.3,537.4H448v-23.5l12.9-22.7v-41.7l22.7-7.2l2.3-10.2l8.7-3.8l22.4-28.4l1.5-4.9v-3h17.4v-15.2H523l-44.7-34.1v-17.4
		h-4.5v34.1H322.2v34.9h18.2v-17.4h40.9V537.4z"/>
</mask>
<g class="st2">
	<path class="st3" d="M348,272.9v34.5h50.3"/>
	<rect x="509" y="58" class="st4" width="14" height="30"/>
	<path class="st4" d="M495.5,69.5V58H509v23L495.5,69.5z"/>
	<rect x="554.9" y="149.4" class="st4" width="10.5" height="11.6"/>
	<rect x="658.7" y="170.4" class="st4" width="10.5" height="11.6"/>
	<rect x="624.7" y="250.9" class="st4" width="10.5" height="11.6"/>
	<rect x="517.7" y="300.8" class="st4" width="11.3" height="10"/>
	<rect x="548.8" y="241.9" class="st4" width="18.3" height="3"/>
	<path class="st3" d="M646.9,128.6v32.7"/>
	<path class="st3" d="M606,170l-25,34.7"/>
	<rect x="340.8" y="272.9" class="st4" width="7.2" height="15.8"/>
	<rect x="391.7" y="307.1" class="st4" width="6.5" height="20.1"/>
	<path class="st3" d="M386.1,307.3c1,3.1,1.5,6.4,1.5,9.9c0,17.8-14.4,32.2-32.2,32.2s-32.2-14.4-32.2-32.2
		c0-15.2,10.6-28,24.8-31.4"/>
	<path class="st3" d="M54.3,359.5h39.4v-40.7 M39.8,214.9h91.9"/>
	<rect x="290" y="283.8" class="st4" width="12.2" height="12.2"/>
	<rect x="172.1" y="181.2" class="st4" width="10.8" height="12.2"/>
	<rect x="105.8" y="256.2" class="st4" width="10.8" height="12.2"/>
	<rect x="55.6" y="360" class="st4" width="10.5" height="11.5"/>
	<rect x="78.1" y="301.9" class="st4" width="16.2" height="5.8"/>
	<rect x="89.6" y="301.9" class="st4" width="4.7" height="17.2"/>
	<rect x="290" y="295.3" class="st4" width="6.8" height="6.8"/>
	<rect x="291.2" y="414.9" class="st4" width="10.1" height="11.3"/>
	<rect x="369" y="521.1" class="st4" width="12.4" height="16.3"/>
	<rect x="195.8" y="379.9" class="st4" width="12" height="11.3"/>
	<path class="st3" d="M163.5,429.3l-11.2,11.3c-1.2,1.2-1.5,2.9-0.8,4.4l8.2,18.5c0.4,1,1.3,1.8,2.3,2.1l24.9,8.8c1,0.3,2,0.3,3-0.1
		l13.9-6.4c1.1-0.5,1.9-1.5,2.2-2.7l4.5-18c0.2-1,0.1-2-0.4-2.9l-7.3-13.1c-0.6-1-1.5-1.7-2.7-2l-23-4.9c-0.8-0.2-1.5-0.1-2.3,0.2
		l-10.2,3.9C164.4,428.6,163.9,428.9,163.5,429.3z"/>
	<path class="st3" d="M260.5,519.2v63.4"/>
	<rect x="260.5" y="548.9" class="st4" width="4.6" height="11.5"/>
	<rect x="201.2" y="510.9" class="st4" width="12.1" height="9.1"/>
	<rect x="260.5" y="560.5" class="st4" width="10.6" height="22.2"/>
	<path class="st3" d="M569.8,440.3h39.9v-6.2l0.8-1.1v-6.8h-26.1l-7-1.5h-4.7l-2.9,2.3 M513.2,403.8l8.6,26.2v3.6 M521.7,433.6
		l-15.9,3.6 M521.7,433.6c0,2.4,0,3.6-1.1,4.9c-1.1,1.3-5.4,4.7-9.4,4.7c-3.2,0-5-2.8-5.5-4.1v-1.9 M483.6,442.3l22.2-5.1"/>
	<path class="st3" d="M599.6,315H593v10.7h7.5c2.2,0,4-2,4-2.7v-4C604.5,316.5,600.6,315,599.6,315z"/>
</g>
<polygon class="st5" points="134.2,290.7 134.2,256.2 54.7,256.2 54.7,290.7 54.7,301.9 54.7,312.3 59.6,312.3 59.6,347.9 
	54.7,347.9 54.7,360 94.2,360 94.2,347.9 94.2,347.9 94.2,312.3 94.2,301.9 92.8,301.9 92.8,290.7 "/>
<polygon class="st5" points="347.5,307.8 347.5,302.1 347.5,296 347.5,288.7 340.8,288.7 340.8,284.3 340.8,272.9 347.9,272.9 
	347.9,263.8 312.3,263.8 312.3,272.9 312.3,284.3 302.1,284.3 302.1,288.7 302.1,296 296.8,296 296.8,302.1 290.3,302.1 
	290.3,307.8 290.3,322.5 391.7,322.5 391.7,307.8 "/>
<polygon class="st5" points="605.9,170.6 605.9,170.6 605.8,170.7 605.8,170.7 582.1,203.7 582.1,203.7 582.1,203.7 582.1,203.7 
	582.1,203.7 582.1,259.3 687.4,259.3 687.4,203.7 687.4,170.6 "/>
<g>
	<path class="st6" d="M20.7,384.5c0-3,1.8-5.2,4.8-5.2c2.5,0,3.9,1.5,4.1,3.4h-2c-0.2-1-0.9-1.7-2.1-1.7c-1.8,0-2.7,1.5-2.7,3.5
		c0,2,1.1,3.5,2.7,3.5c1.2,0,2-0.7,2.2-1.8h2c-0.1,0.9-0.4,1.7-1.1,2.4c-0.7,0.6-1.7,1.1-3,1.1C22.7,389.7,20.7,387.5,20.7,384.5z"
		/>
	<path class="st6" d="M33,379.5h4.5c1.1,0,1.9,0.3,2.4,0.7c0.5,0.5,0.8,1.1,0.8,1.9c0,1-0.6,1.7-1.6,2v0c1.1,0.3,1.9,1.2,1.9,2.5
		c0,0.9-0.3,1.6-0.9,2.1c-0.6,0.5-1.5,0.8-2.5,0.8H33V379.5z M37.2,383.5c0.9,0,1.5-0.4,1.5-1.2c0-0.7-0.5-1.2-1.4-1.2H35v2.4H37.2z
		 M35,387.8h2.3c1,0,1.6-0.5,1.6-1.4c0-1-0.7-1.4-1.6-1.4H35V387.8z"/>
	<path class="st6" d="M41.8,385.9c0-2.1,1.4-3.8,3.5-3.8c2.3,0,3.5,1.8,3.5,4.3h-5.2c0.1,1.1,0.8,1.8,1.8,1.8c0.7,0,1.2-0.3,1.4-0.9
		h1.9c-0.3,1.3-1.4,2.4-3.2,2.4C43.2,389.7,41.8,388,41.8,385.9z M43.7,385.1h3.2c-0.1-0.9-0.7-1.5-1.5-1.5
		C44.4,383.6,43.9,384.2,43.7,385.1z"/>
	<path class="st6" d="M51.7,383.3L51.7,383.3c0.5-0.8,1.2-1.2,2.2-1.2c1.5,0,2.5,1.1,2.5,2.7v4.7h-1.9v-4.4c0-0.8-0.4-1.3-1.2-1.3
		c-0.8,0-1.5,0.7-1.5,1.7v4.1h-1.9v-7.2h1.9V383.3z"/>
	<path class="st6" d="M57.1,385.9c0-2.2,1.3-3.8,3.1-3.8c1,0,1.6,0.5,2,1.1h0v-3.7h1.9v10h-1.8v-0.9h0c-0.4,0.7-1.1,1.1-2.1,1.1
		C58.4,389.7,57.1,388.2,57.1,385.9z M62.3,385.9c0-1.4-0.4-2.3-1.7-2.3c-1.1,0-1.6,0.9-1.6,2.3c0,1.4,0.5,2.2,1.5,2.2
		C61.7,388.1,62.3,387.3,62.3,385.9z"/>
</g>
<g>
	<path class="st6" d="M127.9,386.4c0-3,1.8-5.2,4.8-5.2c2.5,0,3.9,1.5,4.1,3.4h-2c-0.2-1-0.9-1.7-2.1-1.7c-1.8,0-2.7,1.5-2.7,3.5
		c0,2,1.1,3.5,2.7,3.5c1.2,0,2-0.7,2.2-1.8h2c-0.1,0.9-0.4,1.7-1.1,2.4c-0.7,0.6-1.7,1.1-3,1.1C129.9,391.6,127.9,389.4,127.9,386.4
		z"/>
	<path class="st6" d="M140.2,381.3h2.9l1.4,5c0.4,1.3,0.6,2.7,0.6,2.7h0c0,0,0.3-1.4,0.6-2.7l1.4-5h2.9v10h-1.9v-5.7
		c0-0.8,0.1-2.1,0.1-2.1h0c0,0-0.2,1.2-0.4,1.9l-1.7,5.9h-1.9l-1.7-5.9c-0.2-0.7-0.4-1.9-0.4-1.9h0c0,0,0.1,1.3,0.1,2.1v5.7h-1.9
		V381.3z"/>
	<path class="st6" d="M155.8,390.5L155.8,390.5c-0.4,0.5-0.9,1-2.1,1c-1.5,0-2.5-0.8-2.5-2.2c0-1.6,1.3-2.1,2.9-2.3
		c1.2-0.2,1.7-0.3,1.7-0.8c0-0.5-0.4-0.9-1.2-0.9c-0.9,0-1.3,0.3-1.4,1h-1.7c0.1-1.3,1-2.4,3.1-2.4c2.2,0,3,1,3,2.6v3.7
		c0,0.5,0.1,0.9,0.3,1v0.1H156C155.9,391.2,155.8,390.9,155.8,390.5z M155.8,388.8v-1.1c-0.3,0.2-0.9,0.3-1.3,0.4
		c-1,0.2-1.5,0.4-1.5,1.1c0,0.7,0.4,0.9,1.1,0.9C155.2,390.2,155.8,389.5,155.8,388.8z"/>
	<path class="st6" d="M158.8,381.3h1.9v1.7h-1.9V381.3z M158.8,384.2h1.9v7.2h-1.9V384.2z"/>
	<path class="st6" d="M163.8,385.1L163.8,385.1c0.5-0.8,1.2-1.2,2.2-1.2c1.5,0,2.5,1.1,2.5,2.7v4.7h-1.9v-4.4c0-0.8-0.4-1.3-1.2-1.3
		c-0.8,0-1.5,0.7-1.5,1.7v4.1h-1.9v-7.2h1.9V385.1z"/>
</g>
<g>
	<path class="st6" d="M95.9,229c0-3,1.8-5.2,4.8-5.2c2.5,0,3.9,1.5,4.1,3.4h-2c-0.2-1-0.9-1.7-2.1-1.7c-1.8,0-2.7,1.5-2.7,3.5
		c0,2,1.1,3.5,2.7,3.5c1.2,0,2-0.7,2.2-1.8h2c-0.1,0.9-0.4,1.7-1.1,2.4c-0.7,0.6-1.7,1.1-3,1.1C97.9,234.2,95.9,232,95.9,229z"/>
	<path class="st6" d="M108.3,224h2v3.9h3.9V224h2v10h-2v-4.4h-3.9v4.4h-2V224z"/>
	<path class="st6" d="M122,233.2L122,233.2c-0.4,0.5-0.9,1-2.1,1c-1.5,0-2.5-0.8-2.5-2.2c0-1.6,1.3-2.1,2.9-2.3
		c1.2-0.2,1.7-0.3,1.7-0.8c0-0.5-0.4-0.9-1.2-0.9c-0.9,0-1.3,0.3-1.4,1h-1.7c0.1-1.3,1-2.4,3.1-2.4c2.2,0,3,1,3,2.6v3.7
		c0,0.5,0.1,0.9,0.3,1v0.1h-1.8C122.1,233.9,122,233.5,122,233.2z M122,231.5v-1.1c-0.3,0.2-0.9,0.3-1.3,0.4c-1,0.2-1.5,0.4-1.5,1.1
		s0.4,0.9,1.1,0.9C121.4,232.8,122,232.2,122,231.5z"/>
	<path class="st6" d="M125,224h1.9v10H125V224z"/>
	<path class="st6" d="M128.2,224h1.9v10h-1.9V224z"/>
</g>
<g>
	<path class="st6" d="M144.6,320.2c0-3,1.8-5.2,4.8-5.2c2.5,0,3.9,1.5,4.1,3.4h-2c-0.2-1-0.9-1.7-2.1-1.7c-1.8,0-2.7,1.5-2.7,3.5
		c0,2,1.1,3.5,2.7,3.5c1.2,0,2-0.7,2.2-1.8h2c-0.1,0.9-0.4,1.7-1.1,2.4c-0.7,0.6-1.7,1.1-3,1.1C146.6,325.4,144.6,323.2,144.6,320.2
		z"/>
	<path class="st6" d="M156.2,315.2h2.1l1.3,5c0.2,0.9,0.4,2.2,0.4,2.2h0c0,0,0.3-1.2,0.5-2.1l1.1-5h2l1.1,5c0.2,0.9,0.5,2.1,0.5,2.1
		h0c0,0,0.3-1.3,0.5-2.2l1.3-5h2l-2.9,10h-1.9l-1.2-5.4c-0.2-0.7-0.4-1.8-0.4-1.8h0c0,0-0.2,1.1-0.3,1.8l-1.2,5.4h-1.9L156.2,315.2z
		"/>
	<path class="st6" d="M173.1,324.4L173.1,324.4c-0.4,0.5-0.9,1-2.1,1c-1.5,0-2.5-0.8-2.5-2.2c0-1.6,1.3-2.1,2.9-2.3
		c1.2-0.2,1.7-0.3,1.7-0.8c0-0.5-0.4-0.9-1.2-0.9c-0.9,0-1.3,0.3-1.4,1h-1.7c0.1-1.3,1-2.4,3.1-2.4c2.2,0,3,1,3,2.6v3.7
		c0,0.5,0.1,0.9,0.3,1v0.1h-1.8C173.2,325.1,173.2,324.7,173.1,324.4z M173.2,322.7v-1.1c-0.3,0.2-0.9,0.3-1.3,0.4
		c-1,0.2-1.5,0.4-1.5,1.1s0.4,0.9,1.1,0.9C172.5,324,173.2,323.4,173.2,322.7z"/>
	<path class="st6" d="M175.6,318h1v-2.2h1.9v2.2h1.2v1.3h-1.2v3.8c0,0.5,0.3,0.7,0.7,0.7c0.2,0,0.6,0,0.6,0v1.4c0,0-0.4,0-1.2,0
		c-0.9,0-1.9-0.4-1.9-1.7v-4.2h-1V318z"/>
	<path class="st6" d="M180.2,321.6c0-2.1,1.4-3.8,3.5-3.8c2.3,0,3.5,1.8,3.5,4.3h-5.2c0.1,1.1,0.8,1.8,1.8,1.8
		c0.7,0,1.2-0.3,1.4-0.9h1.9c-0.3,1.3-1.4,2.4-3.2,2.4C181.6,325.4,180.2,323.7,180.2,321.6z M182.1,320.8h3.2
		c-0.1-0.9-0.7-1.5-1.5-1.5C182.8,319.3,182.3,319.9,182.1,320.8z"/>
	<path class="st6" d="M190,319.2L190,319.2c0.5-0.8,1-1.2,1.8-1.2c0.2,0,0.3,0,0.4,0.1v1.7h0c-1.2-0.1-2.1,0.5-2.1,2v3.5h-1.9V318
		h1.8V319.2z"/>
	<path class="st6" d="M192.8,318h1v-0.6c0-1.8,1.4-2.4,3.2-2.2v1.5c-0.9,0-1.3,0.1-1.3,0.8v0.5h1.3v1.3h-1.3v5.9h-1.9v-5.9h-1V318z"
		/>
	<path class="st6" d="M201.9,324.4L201.9,324.4c-0.4,0.5-0.9,1-2.1,1c-1.5,0-2.5-0.8-2.5-2.2c0-1.6,1.3-2.1,2.9-2.3
		c1.2-0.2,1.7-0.3,1.7-0.8c0-0.5-0.4-0.9-1.2-0.9c-0.9,0-1.3,0.3-1.4,1h-1.7c0.1-1.3,1-2.4,3.1-2.4c2.2,0,3,1,3,2.6v3.7
		c0,0.5,0.1,0.9,0.3,1v0.1h-1.8C202,325.1,201.9,324.7,201.9,324.4z M201.9,322.7v-1.1c-0.3,0.2-0.9,0.3-1.3,0.4
		c-1,0.2-1.5,0.4-1.5,1.1s0.4,0.9,1.1,0.9C201.3,324,201.9,323.4,201.9,322.7z"/>
	<path class="st6" d="M204.9,315.2h1.9v10h-1.9V315.2z"/>
	<path class="st6" d="M208.1,315.2h1.9v10h-1.9V315.2z"/>
</g>
<g>
	<path class="st6" d="M205.6,410.1c0-3,1.8-5.2,4.8-5.2c2.5,0,3.9,1.5,4.1,3.4h-2c-0.2-1-0.9-1.7-2.1-1.7c-1.8,0-2.7,1.5-2.7,3.5
		c0,2,1.1,3.5,2.7,3.5c1.2,0,2-0.7,2.2-1.8h2c-0.1,0.9-0.4,1.7-1.1,2.4c-0.7,0.6-1.7,1.1-3,1.1C207.6,415.3,205.6,413.1,205.6,410.1
		z"/>
	<path class="st6" d="M218,405.1h3.9c2.7,0,4.4,2.2,4.4,5.1c0,1.6-0.5,3.1-1.6,3.9c-0.7,0.6-1.7,1-3,1H218V405.1z M221.6,413.3
		c1.9,0,2.6-1.2,2.6-3.2c0-2-0.9-3.4-2.6-3.4H220v6.5H221.6z"/>
	<path class="st6" d="M226.9,411.5c0-2.1,1.5-3.8,3.8-3.8c2.2,0,3.8,1.7,3.8,3.8c0,2.1-1.5,3.8-3.8,3.8
		C228.4,415.3,226.9,413.6,226.9,411.5z M232.5,411.5c0-1.4-0.7-2.4-1.8-2.4c-1.2,0-1.8,1-1.8,2.4c0,1.4,0.6,2.3,1.8,2.3
		C231.8,413.8,232.5,412.9,232.5,411.5z"/>
	<path class="st6" d="M234.9,411.5c0-2.1,1.5-3.8,3.8-3.8c2.2,0,3.8,1.7,3.8,3.8c0,2.1-1.5,3.8-3.8,3.8
		C236.5,415.3,234.9,413.6,234.9,411.5z M240.5,411.5c0-1.4-0.7-2.4-1.8-2.4c-1.2,0-1.8,1-1.8,2.4c0,1.4,0.6,2.3,1.8,2.3
		C239.8,413.8,240.5,412.9,240.5,411.5z"/>
	<path class="st6" d="M245.2,409.1L245.2,409.1c0.5-0.8,1-1.2,1.8-1.2c0.2,0,0.3,0,0.4,0.1v1.7h0c-1.2-0.1-2.1,0.5-2.1,2v3.5h-1.9
		v-7.2h1.8V409.1z"/>
</g>
<g>
	<path class="st6" d="M154.2,447.5c0-3,1.8-5.2,4.8-5.2c2.5,0,3.9,1.5,4.1,3.4h-2c-0.2-1-0.9-1.7-2.1-1.7c-1.8,0-2.7,1.5-2.7,3.5
		c0,2,1.1,3.5,2.7,3.5c1.2,0,2-0.7,2.2-1.8h2c-0.1,0.9-0.4,1.7-1.1,2.4c-0.7,0.6-1.7,1.1-3,1.1C156.2,452.7,154.2,450.6,154.2,447.5
		z"/>
	<path class="st6" d="M166.6,442.5h2.9l1.4,5c0.4,1.3,0.6,2.7,0.6,2.7h0c0,0,0.3-1.4,0.6-2.7l1.4-5h2.9v10h-1.9v-5.7
		c0-0.8,0.1-2.1,0.1-2.1h0c0,0-0.2,1.2-0.4,1.9l-1.7,5.9h-1.9l-1.7-5.9c-0.2-0.7-0.4-1.9-0.4-1.9h0c0,0,0.1,1.3,0.1,2.1v5.7h-1.9
		V442.5z"/>
	<path class="st6" d="M177.5,448.9c0-2.1,1.5-3.8,3.8-3.8c2.2,0,3.8,1.7,3.8,3.8c0,2.1-1.5,3.8-3.8,3.8
		C179,452.7,177.5,451.1,177.5,448.9z M183.1,448.9c0-1.4-0.7-2.4-1.8-2.4c-1.2,0-1.8,1-1.8,2.4c0,1.4,0.6,2.3,1.8,2.3
		C182.4,451.3,183.1,450.3,183.1,448.9z"/>
	<path class="st6" d="M190.4,452.5v-0.8h0c-0.5,0.7-1.1,1-2.1,1c-1.6,0-2.5-1-2.5-2.6v-4.8h1.9v4.5c0,0.8,0.4,1.3,1.2,1.3
		c0.9,0,1.4-0.7,1.4-1.6v-4.1h1.9v7.2H190.4z"/>
	<path class="st6" d="M195.3,446.3L195.3,446.3c0.5-0.8,1.2-1.2,2.2-1.2c1.5,0,2.5,1.1,2.5,2.7v4.7h-1.9v-4.4c0-0.8-0.4-1.3-1.2-1.3
		c-0.8,0-1.5,0.7-1.5,1.7v4.1h-1.9v-7.2h1.9V446.3z"/>
	<path class="st6" d="M200.8,448.9c0-2.2,1.3-3.8,3.1-3.8c1,0,1.6,0.5,2,1.1h0v-3.7h1.9v10H206v-0.9h0c-0.4,0.7-1.1,1.1-2.1,1.1
		C202,452.7,200.8,451.3,200.8,448.9z M206,449c0-1.4-0.4-2.3-1.7-2.3c-1.1,0-1.6,0.9-1.6,2.3c0,1.4,0.5,2.2,1.5,2.2
		C205.4,451.1,206,450.3,206,449z"/>
</g>
<g>
	<path class="st6" d="M191,557.8c0-3,1.8-5.2,4.8-5.2c2.5,0,3.9,1.5,4.1,3.4h-2c-0.2-1-0.9-1.7-2.1-1.7c-1.8,0-2.7,1.5-2.7,3.5
		c0,2,1.1,3.5,2.7,3.5c1.2,0,2-0.7,2.2-1.8h2c-0.1,0.9-0.4,1.7-1.1,2.4c-0.7,0.6-1.7,1.1-3,1.1C193,563,191,560.9,191,557.8z"/>
	<path class="st6" d="M203.4,552.8h2v8.3h4.7v1.7h-6.7V552.8z"/>
	<path class="st6" d="M210.5,559.2c0-2.1,1.5-3.8,3.8-3.8c2.2,0,3.8,1.7,3.8,3.8c0,2.1-1.5,3.8-3.8,3.8
		C212.1,563,210.5,561.4,210.5,559.2z M216.1,559.2c0-1.4-0.7-2.4-1.8-2.4c-1.2,0-1.8,1-1.8,2.4c0,1.4,0.6,2.3,1.8,2.3
		C215.5,561.6,216.1,560.6,216.1,559.2z"/>
	<path class="st6" d="M220.8,561.9L220.8,561.9l0,0.9h-1.8v-10h1.9v3.7h0c0.4-0.6,1-1.1,2-1.1c1.8,0,3.1,1.6,3.1,3.8
		c0,2.3-1.2,3.8-3,3.8C221.9,563,221.2,562.6,220.8,561.9z M224,559.2c0-1.3-0.5-2.3-1.6-2.3c-1.2,0-1.7,1-1.7,2.3
		c0,1.3,0.7,2.2,1.7,2.2C223.5,561.4,224,560.6,224,559.2z"/>
	<path class="st6" d="M228.7,561.9L228.7,561.9l0,0.9h-1.8v-10h1.9v3.7h0c0.4-0.6,1-1.1,2-1.1c1.8,0,3.1,1.6,3.1,3.8
		c0,2.3-1.2,3.8-3,3.8C229.8,563,229.1,562.6,228.7,561.9z M232,559.2c0-1.3-0.5-2.3-1.6-2.3c-1.2,0-1.7,1-1.7,2.3
		c0,1.3,0.7,2.2,1.7,2.2C231.4,561.4,232,560.6,232,559.2z"/>
	<path class="st6" d="M234.7,563.7h0.7c0.8,0,1.1-0.4,1.1-1c0-0.4-0.1-0.9-0.5-1.9l-1.9-5.1h2l1.1,3.2c0.2,0.7,0.5,1.6,0.5,1.6h0
		c0,0,0.2-0.9,0.4-1.6l1-3.2h1.9l-2.5,7.4c-0.5,1.6-1.1,2.2-2.5,2.2h-1.1V563.7z"/>
</g>
<g>
	<path class="st6" d="M327.1,482h4.5c1.1,0,1.9,0.3,2.4,0.7c0.5,0.5,0.8,1.1,0.8,1.9c0,1-0.6,1.7-1.6,2v0c1.1,0.3,1.9,1.2,1.9,2.5
		c0,0.9-0.3,1.6-0.9,2.1c-0.6,0.5-1.5,0.8-2.5,0.8h-4.6V482z M331.3,486c0.9,0,1.5-0.4,1.5-1.2c0-0.7-0.5-1.2-1.4-1.2h-2.2v2.4
		H331.3z M329.1,490.3h2.3c1,0,1.6-0.5,1.6-1.4c0-1-0.7-1.4-1.6-1.4h-2.3V490.3z"/>
	<path class="st6" d="M338.6,482h4.4c1.2,0,2,0.3,2.6,0.9c0.6,0.6,0.9,1.4,0.9,2.3c0,1.9-1.2,3.2-3.3,3.2h-2.5v3.6h-2.1V482z
		 M340.7,486.7h2.1c1.1,0,1.6-0.6,1.6-1.5c0-0.9-0.6-1.5-1.6-1.5h-2.1V486.7z"/>
	<path class="st6" d="M347.4,482h1.9v1.7h-1.9V482z M347.4,484.8h1.9v7.2h-1.9V484.8z"/>
	<path class="st6" d="M350.6,482h1.9v10h-1.9V482z"/>
	<path class="st6" d="M353.8,482h1.9v10h-1.9V482z"/>
	<path class="st6" d="M361.2,491.2L361.2,491.2c-0.4,0.5-0.9,1-2.1,1c-1.5,0-2.5-0.8-2.5-2.2c0-1.6,1.3-2.1,2.9-2.3
		c1.2-0.2,1.7-0.3,1.7-0.8c0-0.5-0.4-0.9-1.2-0.9c-0.9,0-1.3,0.3-1.4,1h-1.7c0.1-1.3,1-2.4,3.1-2.4c2.2,0,3,1,3,2.6v3.7
		c0,0.5,0.1,0.9,0.3,1v0.1h-1.8C361.3,491.8,361.3,491.5,361.2,491.2z M361.2,489.4v-1.1c-0.3,0.2-0.9,0.3-1.3,0.4
		c-1,0.2-1.5,0.4-1.5,1.1c0,0.7,0.4,0.9,1.1,0.9C360.6,490.8,361.2,490.1,361.2,489.4z"/>
	<path class="st6" d="M366.1,485.9L366.1,485.9c0.5-0.8,1-1.2,1.8-1.2c0.2,0,0.3,0,0.4,0.1v1.7h0c-1.2-0.1-2.1,0.5-2.1,2v3.5h-1.9
		v-7.2h1.8V485.9z"/>
	<path class="st6" d="M368.7,489.7h1.8c0.1,0.8,0.7,1.2,1.6,1.2c0.8,0,1.3-0.3,1.3-0.8c0-0.7-0.9-0.8-1.9-1
		c-1.3-0.3-2.5-0.6-2.5-2.2c0-1.6,1.3-2.3,2.9-2.3c1.9,0,2.9,0.9,3.1,2.4h-1.7c-0.1-0.8-0.6-1.1-1.4-1.1c-0.7,0-1.2,0.3-1.2,0.8
		c0,0.6,1,0.7,2,0.9c1.2,0.3,2.5,0.6,2.5,2.3c0,1.4-1.2,2.3-3,2.3C370,492.2,368.8,491.2,368.7,489.7z"/>
</g>
<g>
	<path class="st6" d="M279.2,394.9h4.5c1.1,0,1.9,0.3,2.4,0.7c0.5,0.5,0.8,1.1,0.8,1.9c0,1-0.6,1.7-1.6,2v0c1.1,0.3,1.9,1.2,1.9,2.5
		c0,0.9-0.3,1.6-0.9,2.1c-0.6,0.5-1.5,0.8-2.5,0.8h-4.6V394.9z M283.4,398.9c0.9,0,1.5-0.4,1.5-1.2c0-0.7-0.5-1.2-1.4-1.2h-2.2v2.4
		H283.4z M281.2,403.2h2.3c1,0,1.6-0.5,1.6-1.4c0-1-0.7-1.4-1.6-1.4h-2.3V403.2z"/>
	<path class="st6" d="M290.7,394.9h2.9l1.4,5c0.4,1.3,0.6,2.7,0.6,2.7h0c0,0,0.3-1.4,0.6-2.7l1.4-5h2.9v10h-1.9v-5.7
		c0-0.8,0.1-2.1,0.1-2.1h0c0,0-0.2,1.2-0.4,1.9l-1.7,5.9h-1.9L293,399c-0.2-0.7-0.4-1.9-0.4-1.9h0c0,0,0.1,1.3,0.1,2.1v5.7h-1.9
		V394.9z"/>
	<path class="st6" d="M306.3,404.1L306.3,404.1c-0.4,0.5-0.9,1-2.1,1c-1.5,0-2.5-0.8-2.5-2.2c0-1.6,1.3-2.1,2.9-2.3
		c1.2-0.2,1.7-0.3,1.7-0.8c0-0.5-0.4-0.9-1.2-0.9c-0.9,0-1.3,0.3-1.4,1h-1.7c0.1-1.3,1-2.4,3.1-2.4c2.2,0,3,1,3,2.6v3.7
		c0,0.5,0.1,0.9,0.3,1v0.1h-1.8C306.4,404.7,306.3,404.4,306.3,404.1z M306.3,402.3v-1.1c-0.3,0.2-0.9,0.3-1.3,0.4
		c-1,0.2-1.5,0.4-1.5,1.1c0,0.7,0.4,0.9,1.1,0.9C305.7,403.7,306.3,403,306.3,402.3z"/>
	<path class="st6" d="M309.3,394.9h1.9v1.7h-1.9V394.9z M309.3,397.7h1.9v7.2h-1.9V397.7z"/>
	<path class="st6" d="M314.3,398.7L314.3,398.7c0.5-0.8,1.2-1.2,2.2-1.2c1.5,0,2.5,1.1,2.5,2.7v4.7H317v-4.4c0-0.8-0.4-1.3-1.2-1.3
		c-0.8,0-1.5,0.7-1.5,1.7v4.1h-1.9v-7.2h1.9V398.7z"/>
</g>
<g>
	<path class="st6" d="M464.1,528.7h2.1l3.5,10h-2.1l-0.7-2.1h-3.6l-0.7,2.1h-2.1L464.1,528.7z M463.8,535.1h2.6l-0.9-2.9
		c-0.2-0.5-0.4-1.5-0.4-1.5h0c0,0-0.3,1-0.4,1.5L463.8,535.1z"/>
	<path class="st6" d="M472.9,528.7h2v8.3h4.7v1.7h-6.7V528.7z"/>
	<path class="st6" d="M480.1,535.2c0-2.1,1.5-3.8,3.8-3.8s3.8,1.7,3.8,3.8c0,2.1-1.5,3.8-3.8,3.8S480.1,537.3,480.1,535.2z
		 M485.7,535.2c0-1.4-0.7-2.4-1.8-2.4c-1.2,0-1.8,1-1.8,2.4c0,1.4,0.6,2.3,1.8,2.3C485,537.5,485.7,536.6,485.7,535.2z"/>
	<path class="st6" d="M490.3,537.8L490.3,537.8l0,0.9h-1.8v-10h1.9v3.7h0c0.4-0.6,1-1.1,2-1.1c1.8,0,3.1,1.6,3.1,3.8
		c0,2.3-1.2,3.8-3,3.8C491.5,538.9,490.8,538.5,490.3,537.8z M493.6,535.2c0-1.3-0.5-2.3-1.6-2.3c-1.2,0-1.7,1-1.7,2.3
		c0,1.3,0.7,2.2,1.7,2.2C493,537.3,493.6,536.5,493.6,535.2z"/>
	<path class="st6" d="M498.3,537.8L498.3,537.8l0,0.9h-1.8v-10h1.9v3.7h0c0.4-0.6,1-1.1,2-1.1c1.8,0,3.1,1.6,3.1,3.8
		c0,2.3-1.2,3.8-3,3.8C499.4,538.9,498.7,538.5,498.3,537.8z M501.5,535.2c0-1.3-0.5-2.3-1.6-2.3c-1.2,0-1.7,1-1.7,2.3
		c0,1.3,0.7,2.2,1.7,2.2C501,537.3,501.5,536.5,501.5,535.2z"/>
	<path class="st6" d="M504.3,539.6h0.7c0.8,0,1.1-0.4,1.1-1c0-0.4-0.1-0.9-0.5-1.9l-1.9-5.1h2l1.1,3.2c0.2,0.7,0.5,1.6,0.5,1.6h0
		c0,0,0.2-0.9,0.4-1.6l1-3.2h1.9l-2.5,7.4c-0.5,1.6-1.1,2.2-2.5,2.2h-1.1V539.6z"/>
</g>
<g>
	<path class="st6" d="M512,414h2.1l3.5,10h-2.1l-0.7-2.1h-3.6l-0.7,2.1h-2.1L512,414z M511.7,420.3h2.6l-0.9-2.9
		c-0.2-0.5-0.4-1.5-0.4-1.5h0c0,0-0.3,1-0.4,1.5L511.7,420.3z"/>
	<path class="st6" d="M520.9,414h4.6c1.9,0,3.2,1.1,3.2,2.8c0,1.2-0.5,2.1-1.8,2.4v0c0.9,0.3,1.4,0.8,1.5,2c0.1,1.4,0.1,2.5,0.4,2.6
		v0.1h-1.9c-0.3-0.1-0.3-1.2-0.4-2.3c-0.1-1.1-0.7-1.7-2-1.7h-1.6v4h-2V414z M522.9,418.4h2.2c1.1,0,1.7-0.6,1.7-1.4
		c0-0.8-0.5-1.4-1.6-1.4h-2.2V418.4z"/>
	<path class="st6" d="M529.4,420.4c0-2.1,1.5-3.8,3.8-3.8s3.8,1.7,3.8,3.8c0,2.1-1.5,3.8-3.8,3.8S529.4,422.5,529.4,420.4z
		 M535,420.4c0-1.4-0.7-2.4-1.8-2.4c-1.2,0-1.8,1-1.8,2.4c0,1.4,0.6,2.3,1.8,2.3C534.3,422.7,535,421.8,535,420.4z"/>
	<path class="st6" d="M537.4,420.4c0-2.1,1.5-3.8,3.8-3.8s3.8,1.7,3.8,3.8c0,2.1-1.5,3.8-3.8,3.8S537.4,422.5,537.4,420.4z
		 M543,420.4c0-1.4-0.7-2.4-1.8-2.4c-1.2,0-1.8,1-1.8,2.4c0,1.4,0.6,2.3,1.8,2.3C542.3,422.7,543,421.8,543,420.4z"/>
	<path class="st6" d="M545.3,416.8h1v-2.2h1.9v2.2h1.2v1.3h-1.2v3.8c0,0.5,0.3,0.7,0.7,0.7c0.2,0,0.6,0,0.6,0v1.4c0,0-0.4,0-1.2,0
		c-0.9,0-1.9-0.4-1.9-1.7v-4.2h-1V416.8z"/>
</g>
<g>
	<path class="st6" d="M583.1,428.6h2.1l3.5,10h-2.1l-0.7-2.1h-3.6l-0.7,2.1h-2.1L583.1,428.6z M582.8,435h2.6l-0.9-2.9
		c-0.2-0.5-0.4-1.5-0.4-1.5h0c0,0-0.3,1-0.4,1.5L582.8,435z"/>
	<path class="st6" d="M591.9,428.6h4.6c1.9,0,3.2,1.1,3.2,2.8c0,1.2-0.5,2.1-1.8,2.4v0c0.9,0.3,1.4,0.8,1.5,2
		c0.1,1.4,0.1,2.5,0.4,2.6v0.1h-1.9c-0.3-0.1-0.3-1.2-0.4-2.3c-0.1-1.1-0.7-1.7-2-1.7h-1.6v4h-2V428.6z M593.9,433h2.2
		c1.1,0,1.7-0.6,1.7-1.4c0-0.8-0.5-1.4-1.6-1.4h-2.2V433z"/>
	<path class="st6" d="M605.4,438.6v-0.8h0c-0.5,0.7-1.1,1-2.1,1c-1.6,0-2.5-1-2.5-2.6v-4.8h1.9v4.5c0,0.8,0.4,1.3,1.2,1.3
		c0.9,0,1.4-0.7,1.4-1.6v-4.1h1.9v7.2H605.4z"/>
	<path class="st6" d="M610.3,437.7L610.3,437.7l0,0.9h-1.8v-10h1.9v3.7h0c0.4-0.6,1-1.1,2-1.1c1.8,0,3.1,1.6,3.1,3.8
		c0,2.3-1.2,3.8-3,3.8C611.5,438.8,610.7,438.4,610.3,437.7z M613.6,435.1c0-1.3-0.5-2.3-1.6-2.3c-1.2,0-1.7,1-1.7,2.3
		c0,1.3,0.7,2.2,1.7,2.2C613,437.3,613.6,436.4,613.6,435.1z"/>
	<path class="st6" d="M618.2,437.7L618.2,437.7l0,0.9h-1.8v-10h1.9v3.7h0c0.4-0.6,1-1.1,2-1.1c1.8,0,3.1,1.6,3.1,3.8
		c0,2.3-1.2,3.8-3,3.8C619.4,438.8,618.7,438.4,618.2,437.7z M621.5,435.1c0-1.3-0.5-2.3-1.6-2.3c-1.2,0-1.7,1-1.7,2.3
		c0,1.3,0.7,2.2,1.7,2.2C621,437.3,621.5,436.4,621.5,435.1z"/>
	<path class="st6" d="M624.3,428.6h1.9v10h-1.9V428.6z"/>
	<path class="st6" d="M627.2,435c0-2.1,1.4-3.8,3.5-3.8c2.3,0,3.5,1.8,3.5,4.3H629c0.1,1.1,0.8,1.8,1.8,1.8c0.7,0,1.2-0.3,1.4-0.9
		h1.9c-0.3,1.3-1.4,2.4-3.2,2.4C628.5,438.8,627.2,437.2,627.2,435z M629.1,434.3h3.2c-0.1-0.9-0.7-1.5-1.5-1.5
		C629.7,432.7,629.2,433.3,629.1,434.3z"/>
</g>
<g>
	<path class="st6" d="M514,339.4h2.1l3.5,10h-2.1l-0.7-2.1h-3.6l-0.7,2.1h-2.1L514,339.4z M513.7,345.8h2.6l-0.9-2.9
		c-0.2-0.5-0.4-1.5-0.4-1.5h0c0,0-0.3,1-0.4,1.5L513.7,345.8z"/>
	<path class="st6" d="M522.8,339.4h2.9l1.4,5c0.3,1.3,0.6,2.7,0.6,2.7h0c0,0,0.3-1.4,0.6-2.7l1.4-5h2.9v10h-1.9v-5.7
		c0-0.8,0.1-2.1,0.1-2.1h0c0,0-0.2,1.2-0.4,1.9l-1.7,5.9h-1.9l-1.7-5.9c-0.2-0.7-0.4-1.9-0.4-1.9h0c0,0,0.1,1.3,0.1,2.1v5.7h-1.9
		V339.4z"/>
	<path class="st6" d="M538.3,348.6L538.3,348.6c-0.4,0.5-0.9,1-2.1,1c-1.5,0-2.5-0.8-2.5-2.2c0-1.6,1.3-2.1,2.9-2.3
		c1.2-0.2,1.7-0.3,1.7-0.8c0-0.5-0.4-0.9-1.2-0.9c-0.9,0-1.3,0.3-1.4,1H534c0.1-1.3,1-2.4,3.1-2.4c2.2,0,3,1,3,2.6v3.7
		c0,0.5,0.1,0.9,0.3,1v0.1h-1.8C538.4,349.3,538.4,349,538.3,348.6z M538.3,346.9v-1.1c-0.3,0.2-0.9,0.3-1.3,0.4
		c-1,0.2-1.5,0.4-1.5,1.1s0.4,0.9,1.1,0.9C537.7,348.3,538.3,347.6,538.3,346.9z"/>
	<path class="st6" d="M541.3,339.4h1.9v1.7h-1.9V339.4z M541.3,342.2h1.9v7.2h-1.9V342.2z"/>
	<path class="st6" d="M546.3,343.2L546.3,343.2c0.5-0.8,1.2-1.2,2.2-1.2c1.5,0,2.5,1.1,2.5,2.7v4.7h-1.9V345c0-0.8-0.4-1.3-1.2-1.3
		c-0.8,0-1.5,0.7-1.5,1.7v4.1h-1.9v-7.2h1.9V343.2z"/>
</g>
<g>
	<path class="st6" d="M602.2,362.3h2.1l3.5,10h-2.1l-0.7-2.1h-3.6l-0.7,2.1h-2.1L602.2,362.3z M602,368.6h2.6l-0.9-2.9
		c-0.2-0.5-0.4-1.5-0.4-1.5h0c0,0-0.3,1-0.4,1.5L602,368.6z"/>
	<path class="st6" d="M611.1,362.3h3.9c2.7,0,4.4,2.2,4.4,5.1c0,1.6-0.5,3.1-1.6,3.9c-0.7,0.6-1.7,1-3,1h-3.7V362.3z M614.7,370.6
		c1.9,0,2.6-1.2,2.6-3.2s-0.9-3.4-2.6-3.4h-1.6v6.5H614.7z"/>
	<path class="st6" d="M620,368.7c0-2.1,1.5-3.8,3.8-3.8s3.8,1.7,3.8,3.8c0,2.1-1.5,3.8-3.8,3.8S620,370.9,620,368.7z M625.6,368.7
		c0-1.4-0.7-2.4-1.8-2.4c-1.2,0-1.8,1-1.8,2.4c0,1.4,0.6,2.3,1.8,2.3C624.9,371.1,625.6,370.1,625.6,368.7z"/>
	<path class="st6" d="M628,368.7c0-2.1,1.5-3.8,3.8-3.8s3.8,1.7,3.8,3.8c0,2.1-1.5,3.8-3.8,3.8S628,370.9,628,368.7z M633.6,368.7
		c0-1.4-0.7-2.4-1.8-2.4c-1.2,0-1.8,1-1.8,2.4c0,1.4,0.6,2.3,1.8,2.3C632.9,371.1,633.6,370.1,633.6,368.7z"/>
	<path class="st6" d="M638.2,366.3L638.2,366.3c0.5-0.8,1-1.2,1.8-1.2c0.2,0,0.3,0,0.4,0.1v1.7h0c-1.2-0.1-2.1,0.5-2.1,2v3.5h-1.9
		v-7.2h1.8V366.3z"/>
</g>
<g>
	<path class="st6" d="M429.1,331.6h2.1l3.5,10h-2.1l-0.7-2.1h-3.6l-0.7,2.1h-2.1L429.1,331.6z M428.8,337.9h2.6l-0.9-2.9
		c-0.2-0.5-0.4-1.5-0.4-1.5h0c0,0-0.3,1-0.4,1.5L428.8,337.9z"/>
	<path class="st6" d="M437.9,331.6h2v8.3h4.7v1.7h-6.7V331.6z"/>
	<path class="st6" d="M445.7,331.6h1.9v1.7h-1.9V331.6z M445.7,334.4h1.9v7.2h-1.9V334.4z"/>
	<path class="st6" d="M450.7,335.4L450.7,335.4c0.5-0.8,1.2-1.2,2.2-1.2c1.5,0,2.5,1.1,2.5,2.7v4.7h-1.9v-4.4c0-0.8-0.4-1.3-1.2-1.3
		c-0.8,0-1.5,0.7-1.5,1.7v4.1h-1.9v-7.2h1.9V335.4z"/>
	<path class="st6" d="M459.2,338.3l-0.8,0.9v2.4h-1.9v-10h1.9v5.5l2.5-2.7h2.3l-2.6,2.7l3,4.5h-2.3L459.2,338.3z"/>
</g>
<g>
	<path class="st6" d="M625.5,321.8h2.1l3.5,10H629l-0.7-2.1h-3.6l-0.7,2.1H622L625.5,321.8z M625.2,328.1h2.6l-0.9-2.9
		c-0.2-0.5-0.4-1.5-0.4-1.5h0c0,0-0.3,1-0.4,1.5L625.2,328.1z"/>
	<path class="st6" d="M633.8,321.8h8.1v1.7h-3v8.3h-2v-8.3h-3V321.8z"/>
	<path class="st6" d="M643.5,325.8L643.5,325.8c0.5-0.8,1-1.2,1.8-1.2c0.2,0,0.3,0,0.4,0.1v1.7h0c-1.2-0.1-2.1,0.5-2.1,2v3.5h-1.9
		v-7.2h1.8V325.8z"/>
	<path class="st6" d="M646.1,328.2c0-2.1,1.4-3.8,3.5-3.8c2.3,0,3.5,1.8,3.5,4.3h-5.2c0.1,1.1,0.8,1.8,1.8,1.8
		c0.7,0,1.2-0.3,1.4-0.9h1.9c-0.3,1.3-1.4,2.4-3.2,2.4C647.4,332,646.1,330.3,646.1,328.2z M648,327.4h3.2c-0.1-0.9-0.7-1.5-1.5-1.5
		C648.6,325.9,648.1,326.5,648,327.4z"/>
	<path class="st6" d="M653.7,328.2c0-2.1,1.4-3.8,3.5-3.8c2.3,0,3.5,1.8,3.5,4.3h-5.2c0.1,1.1,0.8,1.8,1.8,1.8
		c0.7,0,1.2-0.3,1.4-0.9h1.9c-0.3,1.3-1.4,2.4-3.2,2.4C655,332,653.7,330.3,653.7,328.2z M655.6,327.4h3.2c-0.1-0.9-0.7-1.5-1.5-1.5
		C656.2,325.9,655.7,326.5,655.6,327.4z"/>
</g>
<g>
	<path class="st6" d="M617.7,224.4h2.1l3.5,10h-2.1l-0.7-2.1H617l-0.7,2.1h-2.1L617.7,224.4z M617.4,230.7h2.6l-0.9-2.9
		c-0.2-0.5-0.4-1.5-0.4-1.5h0c0,0-0.3,1-0.4,1.5L617.4,230.7z"/>
	<path class="st6" d="M626.6,224.4h2v3.9h3.9v-3.9h2v10h-2V230h-3.9v4.4h-2V224.4z"/>
	<path class="st6" d="M640.5,234.4v-0.8h0c-0.5,0.7-1.1,1-2.1,1c-1.6,0-2.5-1-2.5-2.6v-4.8h1.9v4.5c0,0.8,0.4,1.3,1.2,1.3
		c0.9,0,1.4-0.7,1.4-1.6v-4.1h1.9v7.2H640.5z"/>
	<path class="st6" d="M643.1,227.2h1V225h1.9v2.2h1.2v1.3H646v3.8c0,0.5,0.3,0.7,0.7,0.7c0.2,0,0.6,0,0.6,0v1.4c0,0-0.4,0-1.2,0
		c-0.9,0-1.9-0.4-1.9-1.7v-4.2h-1V227.2z"/>
</g>
<g>
	<path class="st6" d="M653.4,139.4h2.1l3.5,10h-2.1l-0.7-2.1h-3.6l-0.7,2.1h-2.1L653.4,139.4z M653.1,145.7h2.6l-0.9-2.9
		c-0.2-0.5-0.4-1.5-0.4-1.5h0c0,0-0.3,1-0.4,1.5L653.1,145.7z"/>
	<path class="st6" d="M662.2,139.4h3.9c2.7,0,4.4,2.2,4.4,5.1c0,1.6-0.5,3.1-1.6,3.9c-0.7,0.6-1.7,1-3,1h-3.7V139.4z M665.8,147.6
		c1.9,0,2.6-1.2,2.6-3.2c0-2-0.9-3.4-2.6-3.4h-1.6v6.5H665.8z"/>
	<path class="st6" d="M673.3,143.4L673.3,143.4c0.5-0.8,1-1.2,1.8-1.2c0.2,0,0.3,0,0.4,0.1v1.7h0c-1.2-0.1-2.1,0.5-2.1,2v3.5h-1.9
		v-7.2h1.8V143.4z"/>
	<path class="st6" d="M675.9,145.8c0-2.1,1.5-3.8,3.8-3.8s3.8,1.7,3.8,3.8s-1.5,3.8-3.8,3.8S675.9,148,675.9,145.8z M681.4,145.8
		c0-1.4-0.7-2.4-1.8-2.4c-1.2,0-1.8,1-1.8,2.4s0.6,2.3,1.8,2.3C680.8,148.2,681.4,147.2,681.4,145.8z"/>
	<path class="st6" d="M684.2,142.2h1.8v0.9h0c0.5-0.6,1.1-1.1,2.1-1.1c1.9,0,3.1,1.6,3.1,3.8c0,2.3-1.3,3.8-3.1,3.8
		c-1,0-1.7-0.4-2.1-1h0v3.2h-1.9V142.2z M689.4,145.9c0-1.4-0.5-2.3-1.7-2.3c-1.2,0-1.7,1-1.7,2.3c0,1.3,0.6,2.2,1.7,2.2
		C688.8,148,689.4,147.2,689.4,145.9z"/>
</g>
<g>
	<path class="st6" d="M573.5,139.4h2.1l3.5,10h-2.1l-0.7-2.1h-3.6l-0.7,2.1h-2.1L573.5,139.4z M573.3,145.7h2.6l-0.9-2.9
		c-0.2-0.5-0.4-1.5-0.4-1.5h0c0,0-0.3,1-0.4,1.5L573.3,145.7z"/>
	<path class="st6" d="M581.9,139.4h8.1v1.7h-3v8.3h-2v-8.3h-3V139.4z"/>
	<path class="st6" d="M588.8,145.8c0-2.1,1.5-3.8,3.8-3.8s3.8,1.7,3.8,3.8s-1.5,3.8-3.8,3.8S588.8,148,588.8,145.8z M594.4,145.8
		c0-1.4-0.7-2.4-1.8-2.4c-1.2,0-1.8,1-1.8,2.4s0.6,2.3,1.8,2.3C593.7,148.2,594.4,147.2,594.4,145.8z"/>
	<path class="st6" d="M597.2,142.2h1.8v0.9h0c0.5-0.6,1.1-1.1,2.1-1.1c1.9,0,3.1,1.6,3.1,3.8c0,2.3-1.3,3.8-3.1,3.8
		c-1,0-1.7-0.4-2.1-1h0v3.2h-1.9V142.2z M602.4,145.9c0-1.4-0.5-2.3-1.7-2.3c-1.2,0-1.7,1-1.7,2.3c0,1.3,0.6,2.2,1.7,2.2
		C601.8,148,602.4,147.2,602.4,145.9z"/>
</g>
<g>
	<path class="st6" d="M523.5,221.1h2.1l3.5,10H527l-0.7-2.1h-3.6l-0.7,2.1H520L523.5,221.1z M523.2,227.4h2.6l-0.9-2.9
		c-0.2-0.5-0.4-1.5-0.4-1.5h0c0,0-0.3,1-0.4,1.5L523.2,227.4z"/>
	<path class="st6" d="M531.8,228h2c0.1,1.2,0.8,1.7,2.3,1.7c1,0,1.9-0.4,1.9-1.3c0-1-1-1.2-2.5-1.5c-1.8-0.4-3.4-0.9-3.4-3
		c0-2,1.6-3,3.8-3c2.3,0,3.7,1.1,3.9,3.1h-1.9c-0.1-1-0.9-1.5-1.9-1.5c-1.1,0-1.8,0.5-1.8,1.2c0,0.8,0.7,1.1,2.2,1.4
		c2.1,0.4,3.7,0.9,3.7,3.1c0,2-1.6,3.2-3.9,3.2C533.4,231.3,531.9,230.1,531.8,228z"/>
	<path class="st6" d="M540.6,223.9h1v-2.2h1.9v2.2h1.2v1.3h-1.2v3.8c0,0.5,0.3,0.7,0.7,0.7c0.2,0,0.6,0,0.6,0v1.4c0,0-0.4,0-1.2,0
		c-0.9,0-1.9-0.4-1.9-1.7v-4.2h-1V223.9z"/>
	<path class="st6" d="M550.1,230.3L550.1,230.3c-0.4,0.5-0.9,1-2.1,1c-1.5,0-2.5-0.8-2.5-2.2c0-1.6,1.3-2.1,2.9-2.3
		c1.2-0.2,1.7-0.3,1.7-0.8c0-0.5-0.4-0.9-1.2-0.9c-0.9,0-1.3,0.3-1.4,1h-1.7c0.1-1.3,1-2.4,3.1-2.4c2.2,0,3,1,3,2.6v3.7
		c0,0.5,0.1,0.9,0.3,1v0.1h-1.8C550.2,231,550.1,230.6,550.1,230.3z M550.1,228.6v-1.1c-0.3,0.2-0.9,0.3-1.3,0.4
		c-1,0.2-1.5,0.4-1.5,1.1s0.4,0.9,1.1,0.9C549.5,230,550.1,229.3,550.1,228.6z"/>
	<path class="st6" d="M553.1,221.1h1.9v1.7h-1.9V221.1z M553.1,223.9h1.9v7.2h-1.9V223.9z"/>
	<path class="st6" d="M558,225.1L558,225.1c0.5-0.8,1-1.2,1.8-1.2c0.2,0,0.3,0,0.4,0.1v1.7h0c-1.2-0.1-2.1,0.5-2.1,2v3.5h-1.9v-7.2
		h1.8V225.1z"/>
	<path class="st6" d="M560.7,228.8h1.8c0.1,0.8,0.7,1.2,1.6,1.2c0.8,0,1.3-0.3,1.3-0.8c0-0.7-0.9-0.8-1.9-1
		c-1.3-0.3-2.5-0.6-2.5-2.2c0-1.6,1.3-2.3,2.9-2.3c1.9,0,2.9,0.9,3.1,2.4h-1.7c-0.1-0.8-0.6-1.1-1.4-1.1c-0.7,0-1.2,0.3-1.2,0.8
		c0,0.6,1,0.7,2,0.9c1.2,0.3,2.5,0.6,2.5,2.3c0,1.4-1.2,2.3-3,2.3C562,231.3,560.8,230.3,560.7,228.8z"/>
</g>
<g>
	<path class="st6" d="M399,249.3h4.5c1.1,0,1.9,0.3,2.4,0.7c0.5,0.5,0.8,1.1,0.8,1.9c0,1-0.6,1.7-1.6,2v0c1.1,0.3,1.9,1.2,1.9,2.5
		c0,0.9-0.3,1.6-0.9,2.1c-0.6,0.5-1.5,0.8-2.5,0.8H399V249.3z M403.2,253.3c0.9,0,1.5-0.4,1.5-1.2c0-0.7-0.5-1.2-1.4-1.2H401v2.4
		H403.2z M401,257.6h2.3c1,0,1.6-0.5,1.6-1.4c0-1-0.7-1.4-1.6-1.4H401V257.6z"/>
	<path class="st6" d="M410.5,256.1v-6.8h2v6.8c0,1,0.5,1.8,1.9,1.8c1.3,0,1.9-0.8,1.9-1.8v-6.8h2v6.8c0,2.1-1.3,3.4-3.9,3.4
		C411.8,259.4,410.5,258.2,410.5,256.1z"/>
	<path class="st6" d="M419.6,252.1h1.8v0.9h0c0.5-0.6,1.1-1.1,2.1-1.1c1.9,0,3.1,1.6,3.1,3.8c0,2.3-1.3,3.8-3.1,3.8
		c-1,0-1.7-0.4-2.1-1h0v3.2h-1.9V252.1z M424.8,255.7c0-1.4-0.5-2.3-1.7-2.3c-1.2,0-1.7,1-1.7,2.3c0,1.3,0.6,2.2,1.7,2.2
		C424.1,257.9,424.8,257.1,424.8,255.7z"/>
	<path class="st6" d="M427.6,252.1h1.8v0.9h0c0.5-0.6,1.1-1.1,2.1-1.1c1.9,0,3.1,1.6,3.1,3.8c0,2.3-1.3,3.8-3.1,3.8
		c-1,0-1.7-0.4-2.1-1h0v3.2h-1.9V252.1z M432.8,255.7c0-1.4-0.5-2.3-1.7-2.3c-1.2,0-1.7,1-1.7,2.3c0,1.3,0.6,2.2,1.7,2.2
		C432.1,257.9,432.8,257.1,432.8,255.7z"/>
	<path class="st6" d="M435.2,255.7c0-2.1,1.4-3.8,3.5-3.8c2.3,0,3.5,1.8,3.5,4.3h-5.2c0.1,1.1,0.8,1.8,1.8,1.8
		c0.7,0,1.2-0.3,1.4-0.9h1.9c-0.3,1.3-1.4,2.4-3.2,2.4C436.6,259.5,435.2,257.8,435.2,255.7z M437.1,254.9h3.2
		c-0.1-0.9-0.7-1.5-1.5-1.5C437.8,253.4,437.3,254,437.1,254.9z"/>
	<path class="st6" d="M445,253.2L445,253.2c0.5-0.8,1-1.2,1.8-1.2c0.2,0,0.3,0,0.4,0.1v1.7h0c-1.2-0.1-2.1,0.5-2.1,2v3.5h-1.9v-7.2
		h1.8V253.2z"/>
</g>
<g>
	<path class="st6" d="M211.2,256.7c0-3,1.8-5.2,4.8-5.2c2.5,0,3.9,1.5,4.1,3.4h-2c-0.2-1-0.9-1.7-2.1-1.7c-1.8,0-2.7,1.5-2.7,3.5
		c0,2,1.1,3.5,2.7,3.5c1.2,0,2-0.7,2.2-1.8h2c-0.1,0.9-0.4,1.7-1.1,2.4c-0.7,0.6-1.7,1.1-3,1.1C213.2,261.8,211.2,259.7,211.2,256.7
		z"/>
	<path class="st6" d="M223.5,251.6h2v8.3h4.7v1.7h-6.7V251.6z"/>
	<path class="st6" d="M231.3,251.6h1.9v1.7h-1.9V251.6z M231.3,254.4h1.9v7.2h-1.9V254.4z"/>
	<path class="st6" d="M236.3,255.4L236.3,255.4c0.5-0.8,1.2-1.2,2.2-1.2c1.5,0,2.5,1.1,2.5,2.7v4.7H239v-4.4c0-0.8-0.4-1.3-1.2-1.3
		c-0.8,0-1.5,0.7-1.5,1.7v4.1h-1.9v-7.2h1.9V255.4z"/>
	<path class="st6" d="M244.8,258.3l-0.8,0.9v2.4h-1.9v-10h1.9v5.5l2.5-2.7h2.3l-2.6,2.7l3,4.5h-2.3L244.8,258.3z"/>
</g>
<g>
	<path class="st6" d="M227.8,168.2c0-3,1.8-5.2,4.8-5.2c2.5,0,3.9,1.5,4.1,3.4h-2c-0.2-1-0.9-1.7-2.1-1.7c-1.8,0-2.7,1.5-2.7,3.5
		c0,2,1.1,3.5,2.7,3.5c1.2,0,2-0.7,2.2-1.8h2c-0.1,0.9-0.4,1.7-1.1,2.4c-0.7,0.6-1.7,1.1-3,1.1C229.8,173.3,227.8,171.2,227.8,168.2
		z"/>
	<path class="st6" d="M247.4,171.8L247.4,171.8c-0.7,1.1-1.7,1.6-2.8,1.6c-1.5,0-2.7-0.5-3.5-1.5c-0.8-0.9-1.3-2.2-1.3-3.7
		c0-1.7,0.6-3.1,1.6-4.1c0.8-0.7,1.9-1.1,3.2-1.1c2.5,0,4,1.4,4.3,3.3h-2c-0.2-1-1-1.7-2.3-1.7c-1.9,0-2.8,1.6-2.8,3.6
		c0,2,1.1,3.5,2.8,3.5c1.6,0,2.6-1.2,2.6-2.3v-0.1h-2.4v-1.6h4.2v5.3h-1.5L247.4,171.8z"/>
	<path class="st6" d="M252.1,167.1L252.1,167.1c0.5-0.8,1-1.2,1.8-1.2c0.2,0,0.3,0,0.4,0.1v1.7h0c-1.2-0.1-2.1,0.5-2.1,2v3.5h-1.9
		v-7.2h1.8V167.1z"/>
	<path class="st6" d="M259.3,172.3L259.3,172.3c-0.4,0.5-0.9,1-2.1,1c-1.5,0-2.5-0.8-2.5-2.2c0-1.6,1.3-2.1,2.9-2.3
		c1.2-0.2,1.7-0.3,1.7-0.8c0-0.5-0.4-0.9-1.2-0.9c-0.9,0-1.3,0.3-1.4,1H255c0.1-1.3,1-2.4,3.1-2.4c2.2,0,3,1,3,2.6v3.7
		c0,0.5,0.1,0.9,0.3,1v0.1h-1.8C259.4,173,259.3,172.7,259.3,172.3z M259.3,170.6v-1.1c-0.3,0.2-0.9,0.3-1.3,0.4
		c-1,0.2-1.5,0.4-1.5,1.1s0.4,0.9,1.1,0.9C258.7,172,259.3,171.3,259.3,170.6z"/>
	<path class="st6" d="M261.6,165.9h1.9l1.1,3.7c0.2,0.7,0.3,1.1,0.3,1.1h0c0,0,0.1-0.5,0.3-1.1l1.2-3.7h1.9l-2.5,7.2h-1.8
		L261.6,165.9z"/>
	<path class="st6" d="M268.5,169.5c0-2.1,1.4-3.8,3.5-3.8c2.3,0,3.5,1.8,3.5,4.3h-5.2c0.1,1.1,0.8,1.8,1.8,1.8
		c0.7,0,1.2-0.3,1.4-0.9h1.9c-0.3,1.3-1.4,2.4-3.2,2.4C269.9,173.3,268.5,171.7,268.5,169.5z M270.4,168.8h3.2
		c-0.1-0.9-0.7-1.5-1.5-1.5C271.1,167.2,270.6,167.8,270.4,168.8z"/>
	<path class="st6" d="M276.5,163.1h1.9v10h-1.9V163.1z"/>
</g>
<g>
	<path class="st7" d="M621.4,191.2h2.4l4.1,11.5h-2.4l-0.8-2.4h-4.1l-0.8,2.4h-2.4L621.4,191.2z M621.1,198.4h3l-1-3.3
		c-0.2-0.6-0.5-1.8-0.5-1.8h0c0,0-0.3,1.2-0.5,1.8L621.1,198.4z"/>
	<path class="st7" d="M631,199.1h2.3c0.2,1.4,0.9,1.9,2.6,1.9c1.2,0,2.2-0.4,2.2-1.5c0-1.1-1.1-1.4-2.8-1.8c-2.1-0.5-3.9-1-3.9-3.4
		c0-2.3,1.8-3.4,4.4-3.4c2.6,0,4.3,1.3,4.4,3.6H638c-0.1-1.2-1-1.7-2.2-1.7c-1.3,0-2.1,0.5-2.1,1.4c0,0.9,0.8,1.2,2.5,1.6
		c2.4,0.5,4.3,1.1,4.3,3.6c0,2.3-1.9,3.6-4.5,3.6C632.9,202.9,631.1,201.6,631,199.1z"/>
	<path class="st7" d="M641.7,191.2h2.2v2h-2.2V191.2z M641.7,194.4h2.2v8.3h-2.2V194.4z"/>
	<path class="st7" d="M644.8,194.4h1.1v-2.6h2.1v2.6h1.4v1.4h-1.4v4.4c0,0.6,0.3,0.8,0.8,0.8c0.3,0,0.6,0,0.6,0v1.6c0,0-0.5,0-1.4,0
		c-1.1,0-2.2-0.4-2.2-2v-4.8h-1.1V194.4z"/>
	<path class="st7" d="M650.2,198.5c0-2.4,1.7-4.3,4.1-4.3c2.7,0,4.1,2,4.1,5h-6c0.2,1.3,0.9,2.1,2.1,2.1c0.9,0,1.4-0.4,1.6-1h2.2
		c-0.3,1.5-1.6,2.7-3.7,2.7C651.7,202.9,650.2,201,650.2,198.5z M652.3,197.7h3.7c-0.1-1-0.8-1.8-1.8-1.8
		C653.1,195.9,652.5,196.6,652.3,197.7z"/>
</g>
<g>
	<path class="st7" d="M303.9,300.5h5.1c1.2,0,2.2,0.3,2.8,0.8c0.6,0.6,0.9,1.3,0.9,2.2c0,1.2-0.7,1.9-1.8,2.3v0
		c1.3,0.4,2.1,1.4,2.1,2.8c0,1.1-0.3,1.8-1,2.4c-0.7,0.6-1.7,0.9-2.9,0.9h-5.3V300.5z M308.7,305.1c1,0,1.7-0.5,1.7-1.4
		c0-0.9-0.6-1.4-1.7-1.4h-2.6v2.7H308.7z M306.2,310h2.7c1.1,0,1.8-0.6,1.8-1.6c0-1.1-0.8-1.7-1.9-1.7h-2.6V310z"/>
	<path class="st7" d="M316.6,308.4h2.3c0.2,1.4,0.9,1.9,2.6,1.9c1.2,0,2.2-0.4,2.2-1.5c0-1.1-1.1-1.4-2.8-1.8
		c-2.1-0.5-3.9-1-3.9-3.4c0-2.3,1.8-3.4,4.4-3.4c2.6,0,4.3,1.3,4.4,3.6h-2.2c-0.1-1.2-1-1.7-2.2-1.7c-1.3,0-2.1,0.5-2.1,1.4
		c0,0.9,0.8,1.2,2.5,1.6c2.4,0.5,4.3,1.1,4.3,3.6c0,2.3-1.9,3.6-4.5,3.6C318.5,312.2,316.7,310.8,316.6,308.4z"/>
	<path class="st7" d="M327.3,300.5h2.2v2h-2.2V300.5z M327.3,303.7h2.2v8.3h-2.2V303.7z"/>
	<path class="st7" d="M330.4,303.7h1.1v-2.6h2.1v2.6h1.4v1.4h-1.4v4.4c0,0.6,0.3,0.8,0.8,0.8c0.3,0,0.6,0,0.6,0v1.6c0,0-0.5,0-1.4,0
		c-1.1,0-2.2-0.4-2.2-2v-4.8h-1.1V303.7z"/>
	<path class="st7" d="M335.7,307.8c0-2.4,1.7-4.3,4.1-4.3c2.7,0,4.1,2,4.1,5h-6c0.2,1.3,0.9,2.1,2.1,2.1c0.9,0,1.4-0.4,1.6-1h2.2
		c-0.3,1.5-1.6,2.7-3.7,2.7C337.3,312.2,335.7,310.3,335.7,307.8z M337.9,306.9h3.7c-0.1-1-0.8-1.8-1.8-1.8
		C338.7,305.2,338.1,305.9,337.9,306.9z"/>
</g>
<g>
	<path class="st7" d="M64.6,277.1c0-3.4,2.1-6,5.5-6c2.8,0,4.5,1.7,4.7,3.9h-2.3c-0.2-1.2-1.1-1.9-2.4-1.9c-2.1,0-3.1,1.8-3.1,4.1
		c0,2.3,1.2,4,3.2,4c1.4,0,2.3-0.8,2.5-2h2.3c-0.1,1-0.5,2-1.3,2.7c-0.8,0.7-1.9,1.2-3.5,1.2C66.9,283.1,64.6,280.6,64.6,277.1z"/>
	<path class="st7" d="M78.3,279.3h2.3c0.2,1.4,0.9,1.9,2.6,1.9c1.2,0,2.2-0.4,2.2-1.5c0-1.1-1.1-1.4-2.8-1.8c-2.1-0.5-3.9-1-3.9-3.4
		c0-2.3,1.8-3.4,4.4-3.4c2.6,0,4.3,1.3,4.4,3.6h-2.2c-0.1-1.2-1-1.7-2.2-1.7c-1.3,0-2.1,0.5-2.1,1.4c0,0.9,0.8,1.2,2.5,1.6
		c2.4,0.5,4.3,1.1,4.3,3.6c0,2.3-1.9,3.6-4.5,3.6C80.1,283.1,78.3,281.7,78.3,279.3z"/>
	<path class="st7" d="M88.9,271.3h2.2v2h-2.2V271.3z M88.9,274.6h2.2v8.3h-2.2V274.6z"/>
	<path class="st7" d="M92,274.6h1.1V272h2.1v2.6h1.4v1.4h-1.4v4.4c0,0.6,0.3,0.8,0.8,0.8c0.3,0,0.6,0,0.6,0v1.6c0,0-0.5,0-1.4,0
		c-1.1,0-2.2-0.4-2.2-2V276H92V274.6z"/>
	<path class="st7" d="M97.4,278.7c0-2.4,1.7-4.3,4.1-4.3c2.7,0,4.1,2,4.1,5h-6c0.2,1.3,0.9,2.1,2.1,2.1c0.9,0,1.4-0.4,1.6-1h2.2
		c-0.3,1.5-1.6,2.7-3.7,2.7C98.9,283.1,97.4,281.2,97.4,278.7z M99.6,277.8h3.7c-0.1-1-0.8-1.8-1.8-1.8
		C100.3,276.1,99.8,276.7,99.6,277.8z"/>
</g>
<g>
	<path class="st8" d="M410.2,89.1h4.5c3.1,0,5,2.5,5,5.9c0,1.9-0.6,3.5-1.8,4.5c-0.9,0.7-2,1.1-3.4,1.1h-4.3V89.1z M414.3,98.6
		c2.2,0,3-1.3,3-3.6s-1-3.9-3-3.9h-1.9v7.5H414.3z"/>
	<path class="st8" d="M420.4,96.5c0-2.4,1.7-4.3,4.1-4.3c2.7,0,4.1,2,4.1,5h-6c0.2,1.3,0.9,2.1,2.1,2.1c0.9,0,1.4-0.4,1.6-1h2.2
		c-0.3,1.5-1.6,2.7-3.7,2.7C422,100.8,420.4,98.9,420.4,96.5z M422.6,95.6h3.7c-0.1-1-0.8-1.8-1.8-1.8
		C423.4,93.8,422.8,94.5,422.6,95.6z"/>
	<path class="st8" d="M428.9,92.3h1.1v-0.7c0-2,1.6-2.7,3.7-2.5v1.7c-1,0-1.5,0.1-1.5,0.9v0.6h1.5v1.5h-1.5v6.7h-2.2v-6.7h-1.1V92.3
		z"/>
	<path class="st8" d="M434.1,96.5c0-2.4,1.7-4.3,4.1-4.3c2.7,0,4.1,2,4.1,5h-6c0.2,1.3,0.9,2.1,2.1,2.1c0.9,0,1.4-0.4,1.6-1h2.2
		c-0.3,1.5-1.6,2.7-3.7,2.7C435.6,100.8,434.1,98.9,434.1,96.5z M436.3,95.6h3.7c-0.1-1-0.8-1.8-1.8-1.8
		C437,93.8,436.5,94.5,436.3,95.6z"/>
	<path class="st8" d="M445.4,93.5L445.4,93.5c0.6-0.9,1.4-1.4,2.5-1.4c1.7,0,2.8,1.3,2.8,3.1v5.4h-2.2v-5.1c0-0.9-0.5-1.5-1.4-1.5
		c-1,0-1.7,0.8-1.7,1.9v4.7h-2.2v-8.3h2.1V93.5z"/>
	<path class="st8" d="M451.5,97.9h2c0.1,0.9,0.8,1.4,1.8,1.4c1,0,1.5-0.4,1.5-0.9c0-0.8-1-0.9-2.2-1.1c-1.5-0.3-2.9-0.7-2.9-2.5
		c0-1.8,1.5-2.6,3.4-2.6c2.2,0,3.4,1.1,3.5,2.7h-2c-0.1-0.9-0.7-1.2-1.6-1.2c-0.9,0-1.4,0.3-1.4,0.9c0,0.7,1.1,0.8,2.3,1
		c1.4,0.3,2.9,0.7,2.9,2.6c0,1.7-1.4,2.7-3.5,2.7C453,100.8,451.7,99.7,451.5,97.9z"/>
	<path class="st8" d="M459.5,96.5c0-2.4,1.7-4.3,4.1-4.3c2.7,0,4.1,2,4.1,5h-6c0.2,1.3,0.9,2.1,2.1,2.1c0.9,0,1.4-0.4,1.6-1h2.2
		c-0.3,1.5-1.6,2.7-3.7,2.7C461.1,100.8,459.5,98.9,459.5,96.5z M461.7,95.6h3.7c-0.1-1-0.8-1.8-1.8-1.8
		C462.5,93.8,461.9,94.5,461.7,95.6z"/>
</g>
<g>
	<path class="st9" d="M352.4,602.4h2.4l4.1,11.5h-2.4l-0.8-2.4h-4.1l-0.8,2.4h-2.4L352.4,602.4z M352,609.7h3l-1-3.3
		c-0.2-0.6-0.5-1.8-0.5-1.8h0c0,0-0.3,1.2-0.5,1.8L352,609.7z"/>
	<path class="st9" d="M358.7,605.6h1.1v-2.6h2.1v2.6h1.4v1.4h-1.4v4.4c0,0.6,0.3,0.8,0.8,0.8c0.3,0,0.6,0,0.6,0v1.6c0,0-0.5,0-1.4,0
		c-1.1,0-2.2-0.4-2.2-2v-4.8h-1.1V605.6z"/>
	<path class="st9" d="M363.8,605.6h1.1v-2.6h2.1v2.6h1.4v1.4h-1.4v4.4c0,0.6,0.3,0.8,0.8,0.8c0.3,0,0.6,0,0.6,0v1.6c0,0-0.5,0-1.4,0
		c-1.1,0-2.2-0.4-2.2-2v-4.8h-1.1V605.6z"/>
	<path class="st9" d="M374.7,613L374.7,613c-0.5,0.6-1,1.1-2.5,1.1c-1.7,0-2.9-0.9-2.9-2.5c0-1.8,1.5-2.4,3.3-2.7
		c1.4-0.2,2-0.3,2-0.9c0-0.6-0.5-1-1.4-1c-1,0-1.5,0.4-1.6,1.2h-1.9c0.1-1.4,1.1-2.7,3.6-2.7c2.5,0,3.5,1.1,3.5,3v4.2
		c0,0.6,0.1,1,0.3,1.1v0.1h-2.1C374.8,613.7,374.7,613.4,374.7,613z M374.7,611v-1.2c-0.4,0.2-1,0.4-1.5,0.5
		c-1.1,0.3-1.7,0.5-1.7,1.3c0,0.8,0.5,1,1.3,1C374,612.6,374.7,611.8,374.7,611z"/>
	<path class="st9" d="M377.7,609.8c0-2.5,1.6-4.4,4.1-4.4c2.1,0,3.5,1.2,3.7,3h-2.1c-0.1-0.7-0.7-1.3-1.5-1.3c-1.3,0-2,1-2,2.6
		c0,1.6,0.6,2.6,2,2.6c0.9,0,1.5-0.5,1.7-1.4h2.1c-0.1,1.8-1.5,3.2-3.7,3.2C379.3,614.1,377.7,612.2,377.7,609.8z"/>
	<path class="st9" d="M389.7,610.1l-0.9,1v2.8h-2.2v-11.5h2.2v6.4l2.9-3.1h2.6l-3,3.1l3.4,5.1h-2.7L389.7,610.1z"/>
</g>
</svg>
