<svg id="Layer_1" data-name="Layer 1" xmlns="http://www.w3.org/2000/svg" xmlns:xlink="http://www.w3.org/1999/xlink" viewBox="0 0 688.18 642"><defs><style>.cls-1,.cls-5{fill:none;}.cls-1{clip-rule:evenodd;}.cls-2{fill:#101823;fill-rule:evenodd;}.cls-3{clip-path:url(#clip-path);}.cls-4,.cls-6{fill:#161f2f;}.cls-5,.cls-6{stroke:#161f2f;}.cls-7{fill:#16e5b4;}.cls-10,.cls-8{fill:#ff4654;}.cls-9{fill:#67748f;}.cls-10{opacity:0.11;}.cls-11{fill:#bdc5cc;}</style><clipPath id="clip-path" transform="translate(-10 -33)"><path class="cls-1" d="M311.7,675V616.33l-15.9-15.9H169V527.37H134.92V549H18.33V494.82H37.25V424.41H10V405.48l27.25-27.25V242.33H83.44V198.8h103v43.53h5.68V167.76h34.44l66.63-23.09h70V68.2c0-9.08,12.11-35.2,39.74-35.2s41.64,25,41.64,40.5v8.71h125.3l89.33,89.33v69.28H626.26v2.65h21.58V298H599v32.55h11v-15.9h50.73l37.47,37.48v32.55l-39,56.78H607.33v-10.6H591.05v10.6H552.82v83.28l-59.43,59.43H444.56V675ZM531.62,104.17h17.8l9.08,14.38v14.38l33.31,33.31H610v11H556.23l-16.66-16.65,6.82-6.82L531.62,139ZM192.08,296.46H186.4v51.48h79.11V329h48.83V254.45l70-20.45,15.15-49.59V168.9h24.6v-5.68H405.19V125.74h-5.67v40.5h-5.3v16.28H346.9v35.21H285.58V204.48H261v64.73h-40.5v43.53H192.08Zm28.39-107.12v53h5.3v-53Zm-118.11,53V220.76h62.46v21.57ZM237.88,567.87h24.6V432.36h59.44V443h3V389.2h24.23l10.22-9.84-11-3.78h-72.3v21.19H232.58l-23.85-15.89h-53V340h10.6V326.37h-64v40.88h5.3v35.2h-5.3v92.37H237.88Zm74.19,17.79,14,14,15.52-15.14V535.32H448.35l6.43,11h7.57V530H382.1V497.47h16.28v-5.3H359.77l-29.91-29.91H306v44.67h13.62v71.16ZM63,397.15v26.5H76.62v-26.5Zm381.31-81.76h32.81v11H465.38V359.3H395.73v34.82h-22V329.39H330.62v-29.9h9.09l44.66-21.95h19.31v-10.6h3v48.45Zm-16-61.32v39.74H465V221.89h18.55l27.25,13.25h39.37v-31h-6l-17-17,7.2-7.2-7.2-7.19-7.19,7.19-15.52-15.52v-28h-4.92L493.77,139H444.56V125.74h-5.68v56.78H415.79v6.06l2.65,10.22v35.58Zm132.87,14.38H512.32v79.87H526v47.32H449.86l-15.52-7.57h-6.06V415h21.58v60.94H428.28v21.58h50V546.3h8.33l5.3-10.22V404h59.81V390.34h23.09V404l54.13-13.63v-11l-84-29.9V330.53h16.28ZM219.33,522.83A8.33,8.33,0,1,1,211,514.5,8.33,8.33,0,0,1,219.33,522.83Z"/></clipPath></defs><path class="cls-2" d="M311.7,675V616.33l-15.9-15.9H169V527.37H134.92V549H18.33V494.82H37.25V424.41H10V405.48l27.25-27.25V242.33H83.44V198.8h103v43.53h5.68V167.76h34.44l66.63-23.09h70V68.2c0-9.08,12.11-35.2,39.74-35.2s41.64,25,41.64,40.5v8.71h125.3l89.33,89.33v69.28H626.26v2.65h21.58V298H599v32.55h11v-15.9h50.73l37.47,37.48v32.55l-39,56.78H607.33v-10.6H591.05v10.6H552.82v83.28l-59.43,59.43H444.56V675ZM531.62,104.17h17.8l9.08,14.38v14.38l33.31,33.31H610v11H556.23l-16.66-16.65,6.82-6.82L531.62,139ZM192.08,296.46H186.4v51.48h79.11V329h48.83V254.45l70-20.45,15.15-49.59V168.9h24.6v-5.68H405.19V125.74h-5.67v40.5h-5.3v16.28H346.9v35.21H285.58V204.48H261v64.73h-40.5v43.53H192.08Zm28.39-107.12v53h5.3v-53Zm-118.11,53V220.76h62.46v21.57ZM237.88,567.87h24.6V432.36h59.44V443h3V389.2h24.23l10.22-9.84-11-3.78h-72.3v21.19H232.58l-23.85-15.89h-53V340h10.6V326.37h-64v40.88h5.3v35.2h-5.3v92.37H237.88Zm74.19,17.79,14,14,15.52-15.14V535.32H448.35l6.43,11h7.57V530H382.1V497.47h16.28v-5.3H359.77l-29.91-29.91H306v44.67h13.62v71.16ZM63,397.15v26.5H76.62v-26.5Zm381.31-81.76h32.81v11H465.38V359.3H395.73v34.82h-22V329.39H330.62v-29.9h9.09l44.66-21.95h19.31v-10.6h3v48.45Zm-16-61.32v39.74H465V221.89h18.55l27.25,13.25h39.37v-31h-6l-17-17,7.2-7.2-7.2-7.19-7.19,7.19-15.52-15.52v-28h-4.92L493.77,139H444.56V125.74h-5.68v56.78H415.79v6.06l2.65,10.22v35.58Zm132.87,14.38H512.32v79.87H526v47.32H449.86l-15.52-7.57h-6.06V415h21.58v60.94H428.28v21.58h50V546.3h8.33l5.3-10.22V404h59.81V390.34h23.09V404l54.13-13.63v-11l-84-29.9V330.53h16.28ZM219.33,522.83A8.33,8.33,0,1,1,211,514.5,8.33,8.33,0,0,1,219.33,522.83Z" transform="translate(-10 -33)"/><g class="cls-3"><rect class="cls-4" x="510.65" y="70.41" width="10.6" height="6.81"/><rect class="cls-4" x="491.72" y="234.69" width="10.6" height="11.36"/><rect class="cls-4" x="475.07" y="338.41" width="10.6" height="11.36"/><rect class="cls-4" x="425.86" y="326.3" width="4.54" height="5.3"/><rect class="cls-4" x="385.73" y="350.53" width="10.6" height="11.36"/><rect class="cls-4" x="336.52" y="296.68" width="11.36" height="11.36"/><rect class="cls-4" x="250.21" y="160.06" width="12.87" height="11.36"/><rect class="cls-4" x="141.95" y="243.02" width="13.63" height="13.63"/><rect class="cls-4" x="102.58" y="209.71" width="12.11" height="11.36"/><rect class="cls-4" x="118.29" y="282.63" width="10.6" height="10.6"/><rect class="cls-4" x="27.28" y="252.86" width="22.71" height="11.36"/><rect class="cls-4" x="21.58" y="380.05" width="6.06" height="11.36"/><rect class="cls-4" x="42.77" y="477.71" width="34.07" height="11.36"/><path class="cls-5" d="M53.28,522.07v10.6m33.05-10.6v10.6" transform="translate(-10 -33)"/><rect class="cls-4" x="187.38" y="336.9" width="12.11" height="10.6"/><rect class="cls-4" x="284.66" y="463.33" width="11.36" height="10.6"/><rect class="cls-4" x="301.69" y="592.03" width="5.3" height="14.38"/><rect class="cls-4" x="429.19" y="594.3" width="5.3" height="14.38"/><rect class="cls-4" x="301.69" y="629.13" width="44.67" height="12.87"/><rect class="cls-4" x="378.47" y="629.13" width="56.02" height="12.87"/><rect class="cls-4" x="193.56" y="461.82" width="6.81" height="23.47"/><rect class="cls-4" x="287.64" y="473.93" width="21.96" height="10.6"/><rect class="cls-4" x="298.23" y="484.53" width="11.36" height="6.06"/><path class="cls-5" d="M319.64,538.73h-25v29.14" transform="translate(-10 -33)"/><path class="cls-5" d="M165.58,276.4h21.2m-21.2,12.87h21.2" transform="translate(-10 -33)"/><rect class="cls-4" x="395.57" y="113.53" width="18.93" height="16.66"/><rect class="cls-4" x="263.08" y="166.12" width="4.54" height="5.3"/><rect class="cls-4" x="369.07" y="361.88" width="12.11" height="37.1"/><path class="cls-5" d="M373.56,387.69l-12.87,5.68" transform="translate(-10 -33)"/><path class="cls-4" d="M415.41,359.3h20.45v10.6H426Z" transform="translate(-10 -33)"/><path class="cls-5" d="M439.26,293.81v14.77l4.54,7.19" transform="translate(-10 -33)"/><rect class="cls-4" x="531.4" y="450.46" width="11.36" height="12.11"/><rect class="cls-4" x="649.03" y="375.21" width="25.97" height="11.36" transform="translate(-23.47 704.34) rotate(-57.73)"/><path class="cls-4" d="M572.13,213.94h32.55v14.39H582.73v9.84h-10.6Z" transform="translate(-10 -33)"/><path class="cls-4" d="M628.91,194.26V241.2h-3V203.72h-3.79v-9.46Z" transform="translate(-10 -33)"/><rect class="cls-4" x="515.19" y="77.22" width="6.06" height="6.06"/><path class="cls-5" d="M465,109.84h66.25" transform="translate(-10 -33)"/><path class="cls-5" d="M634.21,193.88H622.1" transform="translate(-10 -33)"/><path class="cls-5" d="M509.29,418.73V471" transform="translate(-10 -33)"/><path class="cls-5" d="M491.88,491.79h19.3v32.55" transform="translate(-10 -33)"/><path class="cls-6" d="M265.13,348.32h43.16" transform="translate(-10 -33)"/><path class="cls-5" d="M232.2,348.32V354h62.46" transform="translate(-10 -33)"/><path class="cls-5" d="M191.7,242.33v27.26h-4.92v26.87" transform="translate(-10 -33)"/><path class="cls-6" d="M220.85,242.33v26.88" transform="translate(-10 -33)"/><path class="cls-5" d="M203.81,495.2v65.86m6.06-65.86v20.44" transform="translate(-10 -33)"/></g><path class="cls-7" d="M375.28,63.6h4.5c3.1,0,5,2.5,5,5.9A5.66,5.66,0,0,1,383,74a5.33,5.33,0,0,1-3.4,1.1h-4.3V63.6Zm4.1,9.5c2.2,0,3-1.3,3-3.6s-1-3.9-3-3.9h-1.9v7.5Z" transform="translate(-10 -33)"/><path class="cls-7" d="M385.48,71a4.1,4.1,0,0,1,4.1-4.3c2.6,0,4.1,2,4.1,5h-6c.2,1.3.9,2.1,2.1,2.1a1.58,1.58,0,0,0,1.6-1h2.2a3.48,3.48,0,0,1-3.7,2.7A4.33,4.33,0,0,1,385.48,71Zm2.2-.9h3.7a1.85,1.85,0,0,0-1.7-1.8C388.38,68.3,387.88,69,387.68,70.1Z" transform="translate(-10 -33)"/><path class="cls-7" d="M394,66.9h1.1v-.7c0-2,1.6-2.7,3.7-2.5v1.7c-1,0-1.5.1-1.5.9v.6h1.5v1.5h-1.5v6.7h-2.2V68.4H394Z" transform="translate(-10 -33)"/><path class="cls-7" d="M399.08,71a4.1,4.1,0,0,1,4.1-4.3c2.6,0,4.1,2,4.1,5h-6c.2,1.3.9,2.1,2.1,2.1a1.58,1.58,0,0,0,1.6-1h2.2a3.48,3.48,0,0,1-3.7,2.7A4.39,4.39,0,0,1,399.08,71Zm2.2-.9H405a1.85,1.85,0,0,0-1.7-1.8A1.9,1.9,0,0,0,401.28,70.1Z" transform="translate(-10 -33)"/><path class="cls-7" d="M410.38,68h0a2.76,2.76,0,0,1,2.5-1.3,2.82,2.82,0,0,1,2.8,3.1v5.4h-2.2V70.1a1.34,1.34,0,0,0-1.4-1.5,1.74,1.74,0,0,0-1.7,1.9v4.7h-2.2V67h2.1v1Z" transform="translate(-10 -33)"/><path class="cls-7" d="M416.48,72.4h2a1.61,1.61,0,0,0,1.8,1.4c1,0,1.5-.4,1.5-.9,0-.8-1-.9-2.2-1.1-1.5-.3-2.9-.7-2.9-2.5s1.5-2.6,3.4-2.6c2.2,0,3.4,1.1,3.5,2.7h-2c-.1-.9-.7-1.2-1.6-1.2s-1.4.3-1.4.9,1.1.8,2.3,1c1.4.3,2.9.7,2.9,2.6,0,1.7-1.4,2.6-3.5,2.6C418,75.3,416.68,74.2,416.48,72.4Z" transform="translate(-10 -33)"/><path class="cls-7" d="M424.48,71a4.1,4.1,0,0,1,4.1-4.3c2.6,0,4.1,2,4.1,5h-6c.2,1.3.9,2.1,2.1,2.1a1.58,1.58,0,0,0,1.6-1h2.2a3.48,3.48,0,0,1-3.7,2.7A4.39,4.39,0,0,1,424.48,71Zm2.2-.9h3.7a1.85,1.85,0,0,0-3.7,0Z" transform="translate(-10 -33)"/><path class="cls-8" d="M364.88,618h2.4l4,11.5h-2.4l-.8-2.4H364l-.8,2.4h-2.4Zm-.3,7.3h3l-1-3.3c-.2-.6-.5-1.8-.5-1.8h0s-.3,1.2-.5,1.8Z" transform="translate(-10 -33)"/><path class="cls-8" d="M371.18,621.28h1.1v-2.6h2.1v2.6h1.4v1.4h-1.4v4.4c0,.6.3.8.8.8h.6v1.6h-1.4c-1.1,0-2.2-.4-2.2-2v-4.8h-1.1v-1.4Z" transform="translate(-10 -33)"/><path class="cls-8" d="M376.38,621.28h1.1v-2.6h2.1v2.6H381v1.4h-1.4v4.4c0,.6.3.8.8.8h.6v1.6h-1.4c-1.1,0-2.2-.4-2.2-2v-4.8h-1Z" transform="translate(-10 -33)"/><path class="cls-8" d="M387.18,628.58h0a2.6,2.6,0,0,1-2.5,1.1c-1.7,0-2.9-.9-2.9-2.5,0-1.8,1.5-2.4,3.3-2.6,1.4-.2,2-.3,2-.9s-.5-1-1.4-1-1.5.4-1.6,1.2h-1.9c.1-1.4,1.1-2.7,3.5-2.7s3.5,1.1,3.5,3v4.2c0,.6.1,1,.3,1.1v.1h-2.1C387.28,629.28,387.28,629,387.18,628.58Zm0-2v-1.2a6.61,6.61,0,0,1-1.5.5c-1.1.3-1.7.5-1.7,1.3s.5,1,1.3,1A1.73,1.73,0,0,0,387.18,626.58Z" transform="translate(-10 -33)"/><path class="cls-8" d="M390.28,625.38a4.07,4.07,0,0,1,4.1-4.4,3.4,3.4,0,0,1,3.7,3H396a1.51,1.51,0,0,0-1.5-1.3c-1.3,0-2,1-2,2.6s.6,2.6,2,2.6a1.63,1.63,0,0,0,1.7-1.4h2.1c-.1,1.8-1.5,3.1-3.7,3.1A4,4,0,0,1,390.28,625.38Z" transform="translate(-10 -33)"/><path class="cls-8" d="M402.18,625.68l-.9,1v2.8h-2.2V618h2.2v6.4l2.9-3.1h2.6l-3,3.1,3.4,5.1h-2.6Z" transform="translate(-10 -33)"/><rect class="cls-7" x="320.74" y="296.39" width="3.9" height="46.18"/><rect class="cls-7" x="27.25" y="329.14" width="65.11" height="3.9"/><rect class="cls-7" x="455.38" y="311.35" width="46.97" height="3.9"/><rect class="cls-7" x="551.15" y="265.05" width="37.85" height="3.9"/><rect class="cls-8" x="481.88" y="408.52" width="60.94" height="3.9"/><rect class="cls-8" x="448.45" y="464.47" width="3.9" height="32.55"/><rect class="cls-8" x="252.48" y="432.66" width="43.53" height="3.9"/><rect class="cls-8" x="158.99" y="528.06" width="68.89" height="3.9"/><path class="cls-9" d="M49.4,380.51h4.49a3.62,3.62,0,0,1,2.42.73,2.35,2.35,0,0,1,.8,1.88,2.06,2.06,0,0,1-1.57,2v0a2.71,2.71,0,0,1,1,4.57,3.82,3.82,0,0,1-2.52.8H49.4Zm4.23,4c.89,0,1.49-.42,1.49-1.21s-.55-1.17-1.44-1.17H51.44v2.38Zm-2.19,4.3h2.33c1,0,1.57-.55,1.57-1.36a1.43,1.43,0,0,0-1.62-1.44H51.44Z" transform="translate(-10 -33)"/><path class="cls-9" d="M60.94,380.51H63.8l1.41,5c.35,1.26.63,2.71.63,2.71h0s.27-1.45.62-2.71l1.41-5h2.9v10H68.91v-5.74c0-.82.08-2.08.08-2.08h0s-.23,1.18-.44,1.91l-1.72,5.91h-2l-1.68-5.91c-.21-.73-.43-1.91-.43-1.91h0s.08,1.26.08,2.08v5.74H60.94Z" transform="translate(-10 -33)"/><path class="cls-9" d="M76.48,389.73h0a2.19,2.19,0,0,1-2.11,1c-1.47,0-2.51-.77-2.51-2.2s1.29-2.09,2.89-2.31c1.19-.17,1.73-.27,1.73-.82s-.4-.85-1.2-.85-1.33.32-1.39,1H72.17c0-1.26,1-2.37,3.09-2.37s3,1,3,2.65v3.65c0,.55.08.87.25,1v.07H76.71A1.81,1.81,0,0,1,76.48,389.73Zm0-1.74v-1.07a5.63,5.63,0,0,1-1.33.41c-1,.23-1.49.45-1.49,1.13s.45.91,1.12.91A1.51,1.51,0,0,0,76.5,388Z" transform="translate(-10 -33)"/><path class="cls-9" d="M79.49,380.51h1.9v1.71h-1.9Zm0,2.83h1.9v7.19h-1.9Z" transform="translate(-10 -33)"/><path class="cls-9" d="M84.49,384.32h0a2.33,2.33,0,0,1,2.13-1.17,2.48,2.48,0,0,1,2.48,2.69v4.69H87.23v-4.41A1.19,1.19,0,0,0,86,384.8a1.5,1.5,0,0,0-1.46,1.65v4.08H82.62v-7.19h1.87Z" transform="translate(-10 -33)"/><path class="cls-9" d="M47.4,481.12h4.49a3.62,3.62,0,0,1,2.42.73,2.36,2.36,0,0,1,.8,1.88,2.06,2.06,0,0,1-1.57,2v0a2.49,2.49,0,0,1,1.86,2.47,2.53,2.53,0,0,1-.88,2.09,3.78,3.78,0,0,1-2.52.8H47.4Zm4.23,4c.89,0,1.49-.42,1.49-1.2s-.55-1.18-1.44-1.18H49.43v2.38Zm-2.2,4.3h2.34c1,0,1.57-.55,1.57-1.36a1.43,1.43,0,0,0-1.62-1.44H49.43Z" transform="translate(-10 -33)"/><path class="cls-9" d="M58.94,481.12h4.59c1.94,0,3.22,1.13,3.22,2.79a2.3,2.3,0,0,1-1.83,2.43v0a2,2,0,0,1,1.53,2c.14,1.42.08,2.5.43,2.65v.1H64.93c-.25-.11-.28-1.23-.36-2.31a1.71,1.71,0,0,0-2-1.71H61v4h-2Zm2,4.43h2.16c1.1,0,1.65-.57,1.65-1.37s-.52-1.42-1.6-1.42H61Z" transform="translate(-10 -33)"/><path class="cls-9" d="M72.2,490.34h0a2.19,2.19,0,0,1-2.11,1c-1.48,0-2.51-.77-2.51-2.2,0-1.58,1.29-2.09,2.88-2.31,1.19-.17,1.74-.27,1.74-.81s-.41-.86-1.2-.86-1.33.32-1.39,1h-1.7c.06-1.26,1-2.37,3.1-2.37s3,1,3,2.65v3.66c0,.54.08.86.25,1v.07H72.42A2,2,0,0,1,72.2,490.34Zm0-1.73v-1.08a5.79,5.79,0,0,1-1.33.42c-1,.22-1.48.44-1.48,1.12s.45.91,1.12.91C71.61,490,72.21,489.31,72.21,488.61Z" transform="translate(-10 -33)"/><path class="cls-9" d="M75.21,484H77v1h0a2.36,2.36,0,0,1,2.09-1.16,2.14,2.14,0,0,1,2,1.26h0a2.49,2.49,0,0,1,2.16-1.26,2.26,2.26,0,0,1,2.36,2.55v4.83h-1.9v-4.51c0-.81-.41-1.23-1.11-1.23s-1.29.61-1.29,1.57v4.17h-1.9v-4.51c0-.81-.41-1.23-1.11-1.23s-1.29.61-1.29,1.57v4.17h-1.9Z" transform="translate(-10 -33)"/><path class="cls-9" d="M86.88,484h1.84v.89h0a2.5,2.5,0,0,1,2.11-1.09c1.91,0,3.13,1.55,3.13,3.79s-1.26,3.8-3.11,3.8a2.31,2.31,0,0,1-2.07-1h0v3.16H86.88Zm5.19,3.65c0-1.36-.48-2.31-1.66-2.31s-1.66,1-1.66,2.31.6,2.16,1.73,2.16C91.45,489.77,92.07,489,92.07,487.61Z" transform="translate(-10 -33)"/><path class="cls-9" d="M185,544.29h4.48a3.6,3.6,0,0,1,2.42.72,2.36,2.36,0,0,1,.8,1.88,2.06,2.06,0,0,1-1.57,2v.05a2.7,2.7,0,0,1,1,4.56,3.77,3.77,0,0,1-2.52.8H185Zm4.23,4c.88,0,1.48-.42,1.48-1.21s-.55-1.17-1.44-1.17H187v2.38Zm-2.2,4.3h2.34a1.37,1.37,0,0,0,1.56-1.36,1.43,1.43,0,0,0-1.62-1.44H187Z" transform="translate(-10 -33)"/><path class="cls-9" d="M196.06,549.33c0-3,1.85-5.24,4.8-5.24a3.79,3.79,0,0,1,4.13,3.37h-2a2,2,0,0,0-2.12-1.66c-1.85,0-2.73,1.54-2.73,3.53s1.06,3.51,2.75,3.51a2,2,0,0,0,2.15-1.76h2a3.5,3.5,0,0,1-1.11,2.37,4.23,4.23,0,0,1-3,1.06C198.06,554.51,196.06,552.34,196.06,549.33Z" transform="translate(-10 -33)"/><path class="cls-9" d="M205.94,544.29h1.91v10h-1.91Z" transform="translate(-10 -33)"/><path class="cls-9" d="M213.64,554.3v-.84h0a2.3,2.3,0,0,1-2.06,1,2.35,2.35,0,0,1-2.49-2.59v-4.8h1.89v4.47c0,.84.38,1.31,1.19,1.31a1.45,1.45,0,0,0,1.44-1.63v-4.15h1.91v7.19Z" transform="translate(-10 -33)"/><path class="cls-9" d="M218.57,553.4h0v.9h-1.83v-10h1.9V548h0a2.26,2.26,0,0,1,2-1.06c1.8,0,3.09,1.55,3.09,3.79s-1.23,3.8-3,3.8A2.37,2.37,0,0,1,218.57,553.4Zm3.25-2.69c0-1.33-.53-2.25-1.6-2.25s-1.65,1-1.65,2.3.66,2.15,1.72,2.15S221.82,552.1,221.82,550.71Z" transform="translate(-10 -33)"/><path class="cls-9" d="M261,522.65h2.86l1.42,5c.35,1.26.63,2.71.63,2.71h0s.27-1.45.62-2.71l1.42-5h2.89v10H269v-5.74c0-.82.09-2.08.09-2.08h0s-.22,1.18-.43,1.91l-1.73,5.91h-1.94l-1.69-5.91c-.21-.73-.43-1.91-.43-1.91h0s.09,1.26.09,2.08v5.74H261Z" transform="translate(-10 -33)"/><path class="cls-9" d="M272.23,522.65h1.9v1.71h-1.9Zm0,2.83h1.9v7.19h-1.9Z" transform="translate(-10 -33)"/><path class="cls-9" d="M275,529.08c0-2.24,1.28-3.79,3.07-3.79a2.27,2.27,0,0,1,2,1.06h0v-3.7h1.91v10h-1.84v-.94h0a2.38,2.38,0,0,1-2.14,1.15C276.24,532.88,275,531.41,275,529.08Zm5.18,0c0-1.38-.44-2.3-1.66-2.3-1,0-1.59.92-1.59,2.25s.55,2.2,1.53,2.2C279.61,531.28,280.19,530.44,280.19,529.13Z" transform="translate(-10 -33)"/><path class="cls-9" d="M285.34,529.57h2c.14,1.21.83,1.68,2.26,1.68,1,0,1.94-.36,1.94-1.28s-.95-1.18-2.48-1.53c-1.79-.41-3.43-.88-3.43-3s1.61-3,3.84-3,3.71,1.11,3.87,3.13h-1.95a1.73,1.73,0,0,0-1.93-1.52c-1.1,0-1.81.46-1.81,1.18s.7,1,2.19,1.37c2.05.45,3.73.94,3.73,3.1s-1.63,3.16-3.89,3.16C287,532.89,285.41,531.69,285.34,529.57Z" transform="translate(-10 -33)"/><path class="cls-9" d="M296.53,526.42h0a2.31,2.31,0,0,1,2.09-1.13,2.48,2.48,0,0,1,2.48,2.69v4.69h-1.91v-4.41a1.19,1.19,0,0,0-1.24-1.32,1.5,1.5,0,0,0-1.46,1.65v4.08h-1.91v-10h1.91Z" transform="translate(-10 -33)"/><path class="cls-9" d="M302,529.08a3.76,3.76,0,1,1,3.75,3.8A3.65,3.65,0,0,1,302,529.08Zm5.58,0c0-1.4-.66-2.35-1.83-2.35s-1.82.95-1.82,2.35.65,2.34,1.82,2.34S307.54,530.48,307.54,529.08Z" transform="translate(-10 -33)"/><path class="cls-9" d="M310.35,525.48h1.83v.9h0a2.53,2.53,0,0,1,2.12-1.09c1.9,0,3.12,1.55,3.12,3.79s-1.26,3.8-3.11,3.8a2.32,2.32,0,0,1-2.07-1h0V535h-1.9Zm5.18,3.66c0-1.36-.48-2.31-1.65-2.31s-1.67,1-1.67,2.31.6,2.16,1.74,2.16C314.91,531.3,315.53,530.5,315.53,529.14Z" transform="translate(-10 -33)"/><path class="cls-9" d="M317.89,530.34h1.77a1.38,1.38,0,0,0,1.57,1.2c.84,0,1.31-.33,1.31-.83,0-.69-.91-.76-1.89-1-1.29-.26-2.55-.61-2.55-2.18s1.29-2.29,2.93-2.29c1.89,0,2.94.94,3.08,2.38h-1.72c-.08-.77-.58-1-1.39-1s-1.23.28-1.23.8,1,.67,2,.88c1.21.25,2.54.59,2.54,2.27,0,1.44-1.23,2.31-3,2.31C319.17,532.88,318,531.87,317.89,530.34Z" transform="translate(-10 -33)"/><path class="cls-9" d="M397.16,508.27H400l1.42,5c.35,1.26.63,2.7.63,2.7h0s.26-1.44.61-2.7l1.42-5H407v10h-1.89v-5.75c0-.81.08-2.07.08-2.07h0s-.22,1.18-.43,1.91L403,518.29h-1.95l-1.68-5.91c-.21-.73-.44-1.91-.44-1.91h0s.09,1.26.09,2.07v5.75h-1.86Z" transform="translate(-10 -33)"/><path class="cls-9" d="M408.4,508.27h1.9V510h-1.9Zm0,2.83h1.9v7.19h-1.9Z" transform="translate(-10 -33)"/><path class="cls-9" d="M411.18,514.7c0-2.24,1.28-3.8,3.07-3.8a2.28,2.28,0,0,1,2,1.07h0v-3.7h1.91v10h-1.84v-.94h0a2.41,2.41,0,0,1-2.15,1.15C412.42,518.5,411.18,517,411.18,514.7Zm5.19,0c0-1.37-.45-2.3-1.67-2.3-1.05,0-1.58.93-1.58,2.26s.54,2.2,1.52,2.2C415.78,516.9,416.37,516.06,416.37,514.74Z" transform="translate(-10 -33)"/><path class="cls-9" d="M421.45,508.27h8.05V510h-3v8.31h-2V510h-3Z" transform="translate(-10 -33)"/><path class="cls-9" d="M428.4,514.7a3.76,3.76,0,1,1,3.76,3.8A3.66,3.66,0,0,1,428.4,514.7Zm5.58,0c0-1.4-.66-2.35-1.82-2.35s-1.82.95-1.82,2.35S431,517,432.16,517,434,516.1,434,514.7Z" transform="translate(-10 -33)"/><path class="cls-9" d="M436.79,511.1h1.83v.9h.05a2.51,2.51,0,0,1,2.11-1.1c1.91,0,3.13,1.56,3.13,3.8s-1.27,3.8-3.11,3.8a2.33,2.33,0,0,1-2.08-1h0v3.17h-1.9Zm5.18,3.66c0-1.36-.47-2.32-1.65-2.32s-1.67,1-1.67,2.32.6,2.15,1.74,2.15C441.36,516.91,442,516.11,442,514.76Z" transform="translate(-10 -33)"/><path class="cls-9" d="M499.19,473.65h2.1l3.54,10h-2.12l-.67-2.13h-3.62l-.65,2.13h-2.06ZM498.9,480h2.65l-.9-2.89c-.17-.53-.4-1.54-.4-1.54h0s-.26,1-.42,1.54Z" transform="translate(-10 -33)"/><path class="cls-9" d="M508,473.65h4.6c1.93,0,3.22,1.13,3.22,2.79a2.31,2.31,0,0,1-1.84,2.43v0a2,2,0,0,1,1.53,2c.14,1.42.08,2.5.44,2.65v.1h-2c-.25-.11-.28-1.23-.37-2.31a1.71,1.71,0,0,0-2-1.71H510v4h-2Zm2,4.43h2.16c1.11,0,1.65-.57,1.65-1.37s-.51-1.42-1.59-1.42H510Z" transform="translate(-10 -33)"/><path class="cls-9" d="M516.55,480.07a3.56,3.56,0,0,1,3.55-3.78c2.31,0,3.54,1.76,3.54,4.33h-5.21a1.79,1.79,0,0,0,1.83,1.79,1.34,1.34,0,0,0,1.39-.88h1.88a3.09,3.09,0,0,1-3.25,2.35A3.56,3.56,0,0,1,516.55,480.07Zm1.91-.77h3.19a1.51,1.51,0,0,0-1.53-1.54A1.6,1.6,0,0,0,518.46,479.3Z" transform="translate(-10 -33)"/><path class="cls-9" d="M524.07,481.34h1.76a1.39,1.39,0,0,0,1.57,1.2c.84,0,1.32-.33,1.32-.83,0-.69-.91-.76-1.89-.95-1.29-.26-2.55-.61-2.55-2.18s1.29-2.29,2.93-2.29c1.89,0,2.94.94,3.08,2.38h-1.72c-.09-.77-.58-1.05-1.39-1.05s-1.23.28-1.23.8.95.67,2,.88c1.21.25,2.54.59,2.54,2.27,0,1.44-1.24,2.31-3,2.31C525.34,483.88,524.18,482.87,524.07,481.34Z" transform="translate(-10 -33)"/><path class="cls-9" d="M530.75,476.48h1v-2.24h1.87v2.24h1.23v1.27h-1.23v3.8a.63.63,0,0,0,.71.72h.56v1.4s-.43,0-1.19,0c-.92,0-2-.36-2-1.72v-4.21h-1Z" transform="translate(-10 -33)"/><path class="cls-9" d="M540.19,482.87h0a2.2,2.2,0,0,1-2.12,1c-1.47,0-2.5-.77-2.5-2.2s1.28-2.09,2.88-2.31c1.19-.17,1.74-.27,1.74-.81s-.41-.86-1.21-.86-1.33.32-1.38,1h-1.7c.06-1.26,1-2.37,3.1-2.37s3,1,3,2.65v3.66c0,.54.09.86.26,1v.07h-1.84A2,2,0,0,1,540.19,482.87Zm0-1.74v-1.07a6,6,0,0,1-1.33.42c-1,.22-1.49.44-1.49,1.12s.45.91,1.13.91A1.5,1.5,0,0,0,540.2,481.13Z" transform="translate(-10 -33)"/><path class="cls-9" d="M547.73,483.67v-.84h0a2.3,2.3,0,0,1-2.06,1,2.35,2.35,0,0,1-2.49-2.6v-4.79H545V481c0,.84.38,1.31,1.19,1.31a1.45,1.45,0,0,0,1.44-1.63v-4.15h1.91v7.19Z" transform="translate(-10 -33)"/><path class="cls-9" d="M552.63,477.63h0a1.9,1.9,0,0,1,1.77-1.23,1.11,1.11,0,0,1,.45.06v1.66h0a1.82,1.82,0,0,0-2.14,2.05v3.5h-1.9v-7.19h1.83Z" transform="translate(-10 -33)"/><path class="cls-9" d="M559.8,482.87h0a2.19,2.19,0,0,1-2.11,1c-1.47,0-2.51-.77-2.51-2.2s1.29-2.09,2.89-2.31c1.19-.17,1.73-.27,1.73-.81s-.4-.86-1.2-.86-1.33.32-1.39,1h-1.69c0-1.26,1-2.37,3.09-2.37s3,1,3,2.65v3.66c0,.54.08.86.25,1v.07H560A2,2,0,0,1,559.8,482.87Zm0-1.74v-1.07a5.79,5.79,0,0,1-1.33.42c-1,.22-1.48.44-1.48,1.12s.45.91,1.12.91A1.5,1.5,0,0,0,559.81,481.13Z" transform="translate(-10 -33)"/><path class="cls-9" d="M564.67,477.46h0a2.33,2.33,0,0,1,2.13-1.17,2.47,2.47,0,0,1,2.48,2.69v4.69h-1.9v-4.41a1.2,1.2,0,0,0-1.25-1.32,1.5,1.5,0,0,0-1.46,1.65v4.08h-1.9v-7.19h1.86Z" transform="translate(-10 -33)"/><path class="cls-9" d="M569.93,476.48h1v-2.24h1.86v2.24H574v1.27h-1.23v3.8a.63.63,0,0,0,.71.72h.57v1.4s-.44,0-1.19,0c-.93,0-2-.36-2-1.72v-4.21h-1Z" transform="translate(-10 -33)"/><path class="cls-9" d="M360.16,442H363l1.41,5c.35,1.26.63,2.7.63,2.7h0s.27-1.44.62-2.7l1.41-5H370v10h-1.89v-5.75c0-.81.08-2.07.08-2.07h0s-.23,1.18-.44,1.91L366,452h-1.95l-1.68-5.91c-.21-.73-.43-1.91-.43-1.91h0s.08,1.26.08,2.07V452h-1.86Z" transform="translate(-10 -33)"/><path class="cls-9" d="M371.4,442h1.91v1.71H371.4Zm0,2.83h1.91V452H371.4Z" transform="translate(-10 -33)"/><path class="cls-9" d="M374.19,448.45c0-2.24,1.27-3.79,3.07-3.79a2.3,2.3,0,0,1,2,1.06h0V442h1.9v10H379.4v-.94h0a2.38,2.38,0,0,1-2.14,1.15C375.42,452.25,374.19,450.78,374.19,448.45Zm5.18,0c0-1.37-.45-2.29-1.67-2.29-1.05,0-1.58.92-1.58,2.25s.55,2.2,1.53,2.2C378.78,450.65,379.37,449.81,379.37,448.49Z" transform="translate(-10 -33)"/><path class="cls-9" d="M385,442h4.4A3.53,3.53,0,0,1,392,443a3.19,3.19,0,0,1,.89,2.28,3,3,0,0,1-3.35,3.17h-2.46V452H385Zm2.1,4.74h2.1a1.43,1.43,0,0,0,1.62-1.5,1.39,1.39,0,0,0-1.59-1.47h-2.13Z" transform="translate(-10 -33)"/><path class="cls-9" d="M393.76,442h1.91v10h-1.91Z" transform="translate(-10 -33)"/><path class="cls-9" d="M401.22,451.24h0a2.22,2.22,0,0,1-2.12,1c-1.47,0-2.51-.78-2.51-2.2,0-1.59,1.29-2.09,2.89-2.32,1.19-.16,1.74-.26,1.74-.81s-.41-.85-1.21-.85-1.33.32-1.39,1h-1.69c.06-1.26,1-2.37,3.09-2.37s3,1,3,2.65V451c0,.55.09.87.25,1V452h-1.83A2.13,2.13,0,0,1,401.22,451.24Zm0-1.74v-1.08a5.2,5.2,0,0,1-1.33.42c-1,.23-1.49.45-1.49,1.12s.45.91,1.12.91C400.64,450.87,401.24,450.2,401.24,449.5Z" transform="translate(-10 -33)"/><path class="cls-9" d="M403.88,448.45a3.54,3.54,0,0,1,3.59-3.79,3,3,0,0,1,3.26,2.63h-1.86a1.33,1.33,0,0,0-1.32-1.11c-1.15,0-1.74.88-1.74,2.27s.55,2.27,1.71,2.27A1.35,1.35,0,0,0,409,449.5h1.83a3,3,0,0,1-3.23,2.75A3.58,3.58,0,0,1,403.88,448.45Z" transform="translate(-10 -33)"/><path class="cls-9" d="M411.27,448.44a3.56,3.56,0,0,1,3.55-3.78c2.31,0,3.54,1.76,3.54,4.32h-5.21a1.79,1.79,0,0,0,1.84,1.8,1.34,1.34,0,0,0,1.38-.89h1.88a3.09,3.09,0,0,1-3.25,2.36A3.56,3.56,0,0,1,411.27,448.44Zm1.91-.77h3.19a1.51,1.51,0,0,0-1.52-1.54A1.6,1.6,0,0,0,413.18,447.67Z" transform="translate(-10 -33)"/><path class="cls-9" d="M339.29,372.75h2.85l1.42,5c.35,1.26.63,2.71.63,2.71h0s.26-1.45.61-2.71l1.42-5h2.9v10h-1.89V377c0-.82.08-2.08.08-2.08h0s-.22,1.18-.43,1.91l-1.72,5.91h-2l-1.68-5.91c-.21-.73-.44-1.91-.44-1.91h0s.08,1.26.08,2.08v5.74h-1.86Z" transform="translate(-10 -33)"/><path class="cls-9" d="M350.53,372.75h1.9v1.71h-1.9Zm0,2.83h1.9v7.19h-1.9Z" transform="translate(-10 -33)"/><path class="cls-9" d="M353.31,379.18c0-2.24,1.28-3.79,3.07-3.79a2.27,2.27,0,0,1,2,1.06h0v-3.7h1.9v10h-1.83v-.94h0a2.39,2.39,0,0,1-2.15,1.15C354.55,383,353.31,381.51,353.31,379.18Zm5.19.05c0-1.38-.45-2.3-1.67-2.3-1.05,0-1.58.92-1.58,2.25s.54,2.2,1.52,2.2C357.91,381.38,358.5,380.54,358.5,379.23Z" transform="translate(-10 -33)"/><path class="cls-9" d="M364.09,372.75H368c2.68,0,4.4,2.16,4.4,5.12a5,5,0,0,1-1.6,3.93,4.45,4.45,0,0,1-3,1h-3.74Zm3.6,8.27c1.91,0,2.65-1.16,2.65-3.15s-.87-3.38-2.59-3.38h-1.62V381Z" transform="translate(-10 -33)"/><path class="cls-9" d="M373,379.18a3.76,3.76,0,1,1,3.75,3.8A3.65,3.65,0,0,1,373,379.18Zm5.57,0c0-1.4-.65-2.35-1.82-2.35s-1.82.95-1.82,2.35.65,2.34,1.82,2.34S378.57,380.58,378.57,379.18Z" transform="translate(-10 -33)"/><path class="cls-9" d="M381,379.18a3.76,3.76,0,1,1,3.76,3.8A3.65,3.65,0,0,1,381,379.18Zm5.58,0c0-1.4-.66-2.35-1.82-2.35s-1.82.95-1.82,2.35.64,2.34,1.82,2.34S386.61,380.58,386.61,379.18Z" transform="translate(-10 -33)"/><path class="cls-9" d="M391.25,376.73h.05a1.88,1.88,0,0,1,1.76-1.23,1.08,1.08,0,0,1,.45.06v1.66h0a1.81,1.81,0,0,0-2.14,2v3.5h-1.91v-7.19h1.83Z" transform="translate(-10 -33)"/><path class="cls-9" d="M393.89,380.44h1.76a1.38,1.38,0,0,0,1.57,1.19c.84,0,1.32-.32,1.32-.82,0-.69-.91-.76-1.89-.95-1.29-.26-2.55-.61-2.55-2.18s1.28-2.29,2.92-2.29c1.9,0,3,.94,3.09,2.38h-1.73c-.08-.77-.57-1-1.38-1s-1.24.28-1.24.8,1,.67,2,.88c1.2.25,2.53.59,2.53,2.27,0,1.44-1.23,2.31-3,2.31C395.16,383,394,382,393.89,380.44Z" transform="translate(-10 -33)"/><path class="cls-9" d="M221,364.74h4.48a3.6,3.6,0,0,1,2.42.73,2.36,2.36,0,0,1,.8,1.88,2.06,2.06,0,0,1-1.57,2v0a2.71,2.71,0,0,1,1,4.57,3.75,3.75,0,0,1-2.52.8H221Zm4.23,4c.88,0,1.48-.42,1.48-1.21s-.54-1.17-1.44-1.17H223v2.38Zm-2.2,4.3h2.34c1,0,1.57-.55,1.57-1.36a1.44,1.44,0,0,0-1.63-1.44H223Z" transform="translate(-10 -33)"/><path class="cls-9" d="M232.51,364.74h2v8.32h4.71v1.7h-6.74Z" transform="translate(-10 -33)"/><path class="cls-9" d="M240.25,364.74h1.91v1.71h-1.91Zm0,2.83h1.91v7.19h-1.91Z" transform="translate(-10 -33)"/><path class="cls-9" d="M245.25,368.55h0a2.34,2.34,0,0,1,2.13-1.17,2.47,2.47,0,0,1,2.48,2.69v4.69H248v-4.41a1.2,1.2,0,0,0-1.25-1.32,1.5,1.5,0,0,0-1.46,1.65v4.08h-1.9v-7.19h1.86Z" transform="translate(-10 -33)"/><path class="cls-9" d="M253.79,371.48l-.82.86v2.42h-1.89v-10H253v5.55l2.55-2.72h2.28l-2.65,2.73,3,4.46h-2.31Z" transform="translate(-10 -33)"/><path class="cls-9" d="M119.41,203.92h4.48a3.63,3.63,0,0,1,2.43.73,2.39,2.39,0,0,1,.8,1.88,2.07,2.07,0,0,1-1.57,2v.05a2.7,2.7,0,0,1,1,4.56,3.78,3.78,0,0,1-2.52.8h-4.6Zm4.23,4c.88,0,1.49-.42,1.49-1.21s-.55-1.17-1.45-1.17h-2.24V208Zm-2.2,4.3h2.34c1,0,1.57-.55,1.57-1.36a1.43,1.43,0,0,0-1.62-1.44h-2.29Z" transform="translate(-10 -33)"/><path class="cls-9" d="M131,203.92h2v3.93h3.93v-3.93h2v10h-2v-4.41H133v4.41h-2Z" transform="translate(-10 -33)"/><path class="cls-9" d="M144.63,213.14h0a2.2,2.2,0,0,1-2.12,1c-1.47,0-2.5-.77-2.5-2.2s1.29-2.09,2.88-2.31c1.19-.17,1.74-.27,1.74-.81s-.41-.86-1.21-.86-1.33.32-1.38,1h-1.7c.06-1.26,1-2.37,3.1-2.37s3,1,3,2.65v3.66c0,.54.09.86.26,1v.07h-1.84A2,2,0,0,1,144.63,213.14Zm0-1.73v-1.08a6,6,0,0,1-1.33.42c-1,.22-1.48.44-1.48,1.12s.44.91,1.12.91C144,212.78,144.64,212.11,144.64,211.41Z" transform="translate(-10 -33)"/><path class="cls-9" d="M147.66,203.92h1.91v10h-1.91Z" transform="translate(-10 -33)"/><path class="cls-9" d="M150.85,203.92h1.91v10h-1.91Z" transform="translate(-10 -33)"/><path class="cls-9" d="M28.45,268.36h4.48a3.6,3.6,0,0,1,2.42.72,2.37,2.37,0,0,1,.8,1.88,2.08,2.08,0,0,1-1.57,2v0a2.7,2.7,0,0,1,1,4.56,3.75,3.75,0,0,1-2.52.8H28.45Zm4.23,4c.88,0,1.48-.42,1.48-1.2S33.62,270,32.72,270H30.48v2.38Zm-2.2,4.3h2.34c1,0,1.57-.54,1.57-1.36a1.44,1.44,0,0,0-1.63-1.44H30.48Z" transform="translate(-10 -33)"/><path class="cls-9" d="M39.53,275.28h2c.14,1.2.83,1.68,2.26,1.68,1,0,1.95-.37,1.95-1.29s-1-1.18-2.48-1.53c-1.8-.4-3.44-.88-3.44-3s1.62-3,3.84-3,3.71,1.11,3.87,3.13h-2a1.72,1.72,0,0,0-1.93-1.51c-1.09,0-1.81.46-1.81,1.17s.7,1.05,2.19,1.37c2.06.45,3.74.94,3.74,3.1s-1.64,3.17-3.9,3.17C41.15,278.6,39.6,277.39,39.53,275.28Z" transform="translate(-10 -33)"/><path class="cls-9" d="M48.47,274.79a3.54,3.54,0,0,1,3.58-3.8,3.06,3.06,0,0,1,3.27,2.63H53.45a1.3,1.3,0,0,0-1.31-1.1c-1.15,0-1.74.88-1.74,2.27s.55,2.27,1.71,2.27a1.34,1.34,0,0,0,1.44-1.22h1.84a3,3,0,0,1-3.24,2.74A3.57,3.57,0,0,1,48.47,274.79Z" transform="translate(-10 -33)"/><path class="cls-9" d="M58,272.33h.05a1.88,1.88,0,0,1,1.76-1.23,1.28,1.28,0,0,1,.45.06v1.67h0a1.81,1.81,0,0,0-2.15,2v3.5h-1.9v-7.18H58Z" transform="translate(-10 -33)"/><path class="cls-9" d="M60.56,274.77A3.55,3.55,0,0,1,64.11,271c2.31,0,3.54,1.76,3.54,4.33H62.44a1.79,1.79,0,0,0,1.83,1.79,1.33,1.33,0,0,0,1.39-.88h1.88a3.09,3.09,0,0,1-3.25,2.35A3.56,3.56,0,0,1,60.56,274.77Zm1.91-.77h3.19a1.52,1.52,0,0,0-1.53-1.54A1.6,1.6,0,0,0,62.47,274Z" transform="translate(-10 -33)"/><path class="cls-9" d="M68.18,274.77A3.55,3.55,0,0,1,71.72,271c2.31,0,3.55,1.76,3.55,4.33H70.06a1.78,1.78,0,0,0,1.83,1.79,1.34,1.34,0,0,0,1.39-.88h1.87a3.08,3.08,0,0,1-3.25,2.35A3.55,3.55,0,0,1,68.18,274.77Zm1.9-.77h3.2a1.52,1.52,0,0,0-1.53-1.54A1.6,1.6,0,0,0,70.08,274Z" transform="translate(-10 -33)"/><path class="cls-9" d="M78,272.17h0A2.34,2.34,0,0,1,80.18,271a2.48,2.48,0,0,1,2.48,2.69v4.69H80.75V274a1.2,1.2,0,0,0-1.24-1.32,1.51,1.51,0,0,0-1.46,1.66v4.07H76.14v-7.18H78Z" transform="translate(-10 -33)"/><path class="cls-9" d="M192.47,277.85H197a3.53,3.53,0,0,1,2.42.73,2.34,2.34,0,0,1,.8,1.87,2.07,2.07,0,0,1-1.57,2v0a2.69,2.69,0,0,1,1,4.56,3.75,3.75,0,0,1-2.52.8h-4.59Zm4.23,4c.88,0,1.48-.42,1.48-1.2s-.54-1.18-1.44-1.18H194.5v2.38Zm-2.2,4.3h2.34c1,0,1.57-.54,1.57-1.36a1.44,1.44,0,0,0-1.63-1.44H194.5Z" transform="translate(-10 -33)"/><path class="cls-9" d="M203.49,277.85h8v1.71h-3v8.3h-2v-8.3h-3Z" transform="translate(-10 -33)"/><path class="cls-9" d="M210.44,284.28a3.76,3.76,0,1,1,3.76,3.79A3.66,3.66,0,0,1,210.44,284.28Zm5.58,0c0-1.4-.66-2.36-1.82-2.36s-1.82,1-1.82,2.36.64,2.34,1.82,2.34S216,285.68,216,284.28Z" transform="translate(-10 -33)"/><path class="cls-9" d="M218.06,280.68H220l.87,3.33c.15.59.32,1.35.32,1.35h0s.15-.77.31-1.36l.89-3.32H224l.94,3.32c.15.6.33,1.36.33,1.36h0s.17-.76.32-1.35l.91-3.33h1.85l-2.14,7.18H224.5l-.95-3.53c-.15-.57-.32-1.24-.32-1.24h0s-.18.67-.34,1.24l-1,3.53h-1.72Z" transform="translate(-10 -33)"/><path class="cls-9" d="M228.49,284.26a3.55,3.55,0,0,1,3.54-3.78c2.31,0,3.55,1.77,3.55,4.33h-5.21a1.78,1.78,0,0,0,1.83,1.79,1.34,1.34,0,0,0,1.39-.88h1.88a3.1,3.1,0,0,1-3.25,2.35A3.55,3.55,0,0,1,228.49,284.26Zm1.91-.77h3.19a1.52,1.52,0,0,0-1.53-1.54A1.59,1.59,0,0,0,230.4,283.49Z" transform="translate(-10 -33)"/><path class="cls-9" d="M238.29,281.83h0a1.89,1.89,0,0,1,1.77-1.24,1.32,1.32,0,0,1,.45.06v1.67h-.05a1.81,1.81,0,0,0-2.14,2v3.5h-1.9v-7.18h1.83Z" transform="translate(-10 -33)"/><path class="cls-9" d="M226.54,251.1H231a3.55,3.55,0,0,1,2.42.73,2.34,2.34,0,0,1,.8,1.87,2.06,2.06,0,0,1-1.57,2v0a2.51,2.51,0,0,1,1.87,2.48,2.55,2.55,0,0,1-.89,2.09,3.8,3.8,0,0,1-2.52.79h-4.59Zm4.23,4c.88,0,1.48-.42,1.48-1.2s-.54-1.18-1.44-1.18h-2.24v2.38Zm-2.2,4.3h2.34c1,0,1.57-.54,1.57-1.36a1.44,1.44,0,0,0-1.63-1.44h-2.28Z" transform="translate(-10 -33)"/><path class="cls-9" d="M237.55,251.1h8.06v1.71h-3v8.3h-2v-8.3h-3Z" transform="translate(-10 -33)"/><path class="cls-9" d="M250,261.11v-.84h0a2.3,2.3,0,0,1-2.06,1,2.34,2.34,0,0,1-2.49-2.59v-4.79h1.89v4.47c0,.84.38,1.3,1.19,1.3a1.45,1.45,0,0,0,1.44-1.63v-4.14h1.91v7.18Z" transform="translate(-10 -33)"/><path class="cls-9" d="M255,254.91h0a2.34,2.34,0,0,1,2.13-1.18,2.48,2.48,0,0,1,2.48,2.69v4.69H257.7V256.7a1.18,1.18,0,0,0-1.24-1.31A1.5,1.5,0,0,0,255,257v4.07h-1.9v-7.18H255Z" transform="translate(-10 -33)"/><path class="cls-9" d="M262.64,254.91h.05a2.33,2.33,0,0,1,2.13-1.18,2.47,2.47,0,0,1,2.47,2.69v4.69h-1.9V256.7a1.19,1.19,0,0,0-1.25-1.31,1.49,1.49,0,0,0-1.45,1.65v4.07h-1.91v-7.18h1.86Z" transform="translate(-10 -33)"/><path class="cls-9" d="M268.12,257.51a3.56,3.56,0,0,1,3.54-3.78c2.31,0,3.55,1.77,3.55,4.33H270a1.78,1.78,0,0,0,1.84,1.79,1.34,1.34,0,0,0,1.39-.88h1.87a3.07,3.07,0,0,1-3.25,2.35A3.55,3.55,0,0,1,268.12,257.51Zm1.9-.77h3.2a1.52,1.52,0,0,0-1.53-1.54A1.61,1.61,0,0,0,270,256.74Z" transform="translate(-10 -33)"/><path class="cls-9" d="M276.11,251.1H278v10h-1.91Z" transform="translate(-10 -33)"/><path class="cls-9" d="M495.45,149.8h2.1l3.53,10H499l-.68-2.13h-3.61l-.66,2.13H492Zm-.29,6.33h2.64l-.89-2.88c-.17-.54-.41-1.54-.41-1.54h0s-.25,1-.42,1.54Z" transform="translate(-10 -33)"/><path class="cls-9" d="M504.27,149.8h7.17v1.72H506.3v2.41h4.36v1.74H506.3v4.15h-2Z" transform="translate(-10 -33)"/><path class="cls-9" d="M512.46,149.8h1.9v10h-1.9Z" transform="translate(-10 -33)"/><path class="cls-9" d="M515.27,156.23A3.76,3.76,0,1,1,519,160,3.66,3.66,0,0,1,515.27,156.23Zm5.58,0c0-1.4-.66-2.35-1.82-2.35s-1.82,1-1.82,2.35.64,2.34,1.82,2.34S520.85,157.63,520.85,156.23Z" transform="translate(-10 -33)"/><path class="cls-9" d="M522.89,152.63h1.89l.87,3.33c.15.59.32,1.35.32,1.35h0s.15-.77.31-1.36l.89-3.32h1.63l.94,3.32c.15.6.33,1.36.33,1.36h0s.17-.76.32-1.35l.91-3.33h1.85l-2.14,7.19h-1.74l-1-3.53-.32-1.25h0l-.34,1.25-1,3.53H525Z" transform="translate(-10 -33)"/><path class="cls-9" d="M533.32,156.22a3.56,3.56,0,0,1,3.54-3.79c2.31,0,3.55,1.77,3.55,4.33H535.2a1.79,1.79,0,0,0,1.83,1.8,1.35,1.35,0,0,0,1.39-.89h1.87A3.08,3.08,0,0,1,537,160,3.55,3.55,0,0,1,533.32,156.22Zm1.9-.77h3.2a1.53,1.53,0,0,0-1.53-1.55A1.61,1.61,0,0,0,535.22,155.45Z" transform="translate(-10 -33)"/><path class="cls-9" d="M543.12,153.78h0a1.9,1.9,0,0,1,1.77-1.23,1.36,1.36,0,0,1,.45,0v1.67h0a1.81,1.81,0,0,0-2.14,2v3.51h-1.9v-7.19h1.83Z" transform="translate(-10 -33)"/><path class="cls-9" d="M545.75,157.49h1.77a1.37,1.37,0,0,0,1.56,1.19c.84,0,1.32-.32,1.32-.83,0-.68-.91-.75-1.89-.95-1.29-.25-2.55-.6-2.55-2.17s1.29-2.3,2.93-2.3c1.89,0,2.94.94,3.08,2.39h-1.72c-.09-.78-.58-1.06-1.39-1.06s-1.23.28-1.23.8,1,.68,2,.89c1.21.25,2.54.58,2.54,2.26,0,1.45-1.23,2.32-3,2.32C547,160,545.86,159,545.75,157.49Z" transform="translate(-10 -33)"/><path class="cls-9" d="M571.36,130.68h2.1l3.53,10h-2.11l-.68-2.13h-3.61l-.66,2.13h-2.06Zm-.29,6.33h2.64l-.89-2.89c-.17-.53-.41-1.54-.41-1.54h0s-.25,1-.42,1.54Z" transform="translate(-10 -33)"/><path class="cls-9" d="M579.73,137.6h2c.14,1.2.83,1.68,2.26,1.68,1,0,1.94-.36,1.94-1.29s-.95-1.18-2.48-1.53c-1.79-.4-3.43-.88-3.43-3s1.61-3,3.84-3,3.71,1.1,3.87,3.12h-2a1.73,1.73,0,0,0-1.94-1.51c-1.09,0-1.8.46-1.8,1.17s.7,1.05,2.18,1.38c2.06.44,3.74.94,3.74,3.09s-1.64,3.17-3.89,3.17C581.34,140.92,579.8,139.71,579.73,137.6Z" transform="translate(-10 -33)"/><path class="cls-9" d="M588.66,137.09a3.56,3.56,0,0,1,3.55-3.78c2.31,0,3.54,1.77,3.54,4.33h-5.21a1.78,1.78,0,0,0,1.84,1.79,1.33,1.33,0,0,0,1.38-.88h1.88a3.08,3.08,0,0,1-3.25,2.35A3.56,3.56,0,0,1,588.66,137.09Zm1.91-.77h3.19a1.51,1.51,0,0,0-1.53-1.54A1.6,1.6,0,0,0,590.57,136.32Z" transform="translate(-10 -33)"/><path class="cls-9" d="M596.28,137.11a3.54,3.54,0,0,1,3.58-3.8,3.05,3.05,0,0,1,3.27,2.64h-1.86a1.32,1.32,0,0,0-1.32-1.11c-1.15,0-1.74.88-1.74,2.27s.55,2.27,1.71,2.27a1.34,1.34,0,0,0,1.44-1.22h1.84A3,3,0,0,1,600,140.9,3.57,3.57,0,0,1,596.28,137.11Z" transform="translate(-10 -33)"/><path class="cls-9" d="M605.86,134.66h0a1.87,1.87,0,0,1,1.76-1.24,1.28,1.28,0,0,1,.45.06v1.67h0a1.8,1.8,0,0,0-2.14,2v3.5H604v-7.18h1.84Z" transform="translate(-10 -33)"/><path class="cls-9" d="M608.38,137.09a3.55,3.55,0,0,1,3.54-3.78c2.31,0,3.54,1.77,3.54,4.33h-5.21a1.78,1.78,0,0,0,1.84,1.79,1.33,1.33,0,0,0,1.38-.88h1.88a3.08,3.08,0,0,1-3.25,2.35A3.55,3.55,0,0,1,608.38,137.09Zm1.9-.77h3.19a1.5,1.5,0,0,0-1.52-1.54A1.6,1.6,0,0,0,610.28,136.32Z" transform="translate(-10 -33)"/><path class="cls-9" d="M615.78,133.51h1v-2.24h1.86v2.24h1.23v1.26h-1.23v3.81a.63.63,0,0,0,.71.71h.56v1.4s-.43,0-1.19,0c-.92,0-1.94-.37-1.94-1.73v-4.21h-1Z" transform="translate(-10 -33)"/><path class="cls-9" d="M636.3,212.19h2.11l3.53,10h-2.12l-.67-2.12h-3.62l-.65,2.12h-2.06Zm-.29,6.33h2.65l-.9-2.88c-.17-.54-.4-1.55-.4-1.55h0s-.25,1-.42,1.55Z" transform="translate(-10 -33)"/><path class="cls-9" d="M645.12,212.19H649c2.68,0,4.4,2.16,4.4,5.11a5,5,0,0,1-1.6,3.94,4.5,4.5,0,0,1-3,1h-3.74Zm3.6,8.26c1.91,0,2.65-1.16,2.65-3.15s-.87-3.37-2.59-3.37h-1.62v6.52Z" transform="translate(-10 -33)"/><path class="cls-9" d="M658.92,222.2v-.84h0a2.3,2.3,0,0,1-2.06,1,2.34,2.34,0,0,1-2.49-2.59V215h1.89v4.47c0,.84.38,1.3,1.19,1.3a1.45,1.45,0,0,0,1.45-1.62V215h1.9v7.18Z" transform="translate(-10 -33)"/><path class="cls-9" d="M661.78,222.41h1.89c.16.45.56.8,1.45.8,1.08,0,1.59-.52,1.59-1.5v-.78h0a2.3,2.3,0,0,1-1.88.84,3.23,3.23,0,0,1-3.16-3.43c0-2.14,1.29-3.52,3.11-3.52a2.32,2.32,0,0,1,2,1h0V215h1.83v6.64a2.78,2.78,0,0,1-.85,2.18,3.78,3.78,0,0,1-2.59.82C663.18,224.66,662,223.82,661.78,222.41Zm5-4.11a1.73,1.73,0,0,0-1.71-2c-1,0-1.61.76-1.61,2s.65,1.93,1.63,1.93C666.32,220.24,666.81,219.36,666.81,218.3Z" transform="translate(-10 -33)"/><path class="cls-9" d="M669.47,218.62a3.76,3.76,0,1,1,3.75,3.79A3.66,3.66,0,0,1,669.47,218.62Zm5.57,0c0-1.4-.65-2.35-1.82-2.35s-1.82.95-1.82,2.35.65,2.34,1.82,2.34S675,220,675,218.62Z" transform="translate(-10 -33)"/><path class="cls-9" d="M682.39,222.2v-.84h0a2.3,2.3,0,0,1-2.06,1,2.34,2.34,0,0,1-2.49-2.59V215h1.89v4.47c0,.84.38,1.3,1.19,1.3a1.44,1.44,0,0,0,1.44-1.62V215h1.91v7.18Z" transform="translate(-10 -33)"/><path class="cls-9" d="M685,215h1v-2.24h1.86V215h1.24v1.26h-1.24v3.81a.63.63,0,0,0,.72.71h.56v1.4s-.43,0-1.19,0c-.93,0-2-.37-2-1.72v-4.22h-1Z" transform="translate(-10 -33)"/><path class="cls-9" d="M623.44,356h2.1l3.53,10H627l-.68-2.13h-3.61L622,366H620Zm-.29,6.33h2.64l-.89-2.89c-.17-.53-.41-1.54-.41-1.54h0s-.25,1-.42,1.54Z" transform="translate(-10 -33)"/><path class="cls-9" d="M632.26,356h2.86l1.41,5c.35,1.26.63,2.7.63,2.7h0s.27-1.44.62-2.7l1.41-5h2.9v10h-1.89V360.3c0-.81.08-2.07.08-2.07h0s-.23,1.17-.44,1.9L638.13,366h-2l-1.68-5.91c-.21-.73-.43-1.9-.43-1.9h0s.08,1.26.08,2.07V366h-1.86Z" transform="translate(-10 -33)"/><path class="cls-9" d="M647.8,365.25h0a2.2,2.2,0,0,1-2.11,1c-1.47,0-2.51-.77-2.51-2.2s1.29-2.08,2.89-2.31c1.19-.17,1.73-.26,1.73-.81s-.4-.86-1.2-.86-1.33.33-1.39,1h-1.69c0-1.26,1-2.36,3.09-2.36s3,1,3,2.64V365c0,.55.08.87.25,1V366H648A1.92,1.92,0,0,1,647.8,365.25Zm0-1.74v-1.08a5,5,0,0,1-1.33.42c-1,.22-1.48.45-1.48,1.12s.45.91,1.12.91C647.21,364.88,647.81,364.21,647.81,363.51Z" transform="translate(-10 -33)"/><path class="cls-9" d="M650.81,356h1.9v1.71h-1.9Zm0,2.83h1.9V366h-1.9Z" transform="translate(-10 -33)"/><path class="cls-9" d="M655.81,359.84h0a2.34,2.34,0,0,1,2.13-1.18,2.48,2.48,0,0,1,2.48,2.69V366h-1.91v-4.41a1.2,1.2,0,0,0-1.24-1.32,1.51,1.51,0,0,0-1.46,1.66V366h-1.91v-7.18h1.87Z" transform="translate(-10 -33)"/><path class="cls-9" d="M478.06,356h2.1l3.53,10h-2.12l-.67-2.13h-3.61l-.66,2.13h-2.06Zm-.3,6.33h2.65l-.9-2.89c-.17-.53-.4-1.54-.4-1.54h0s-.25,1-.42,1.54Z" transform="translate(-10 -33)"/><path class="cls-9" d="M489.63,356h2.11l3.53,10h-2.12l-.67-2.13h-3.62l-.65,2.13h-2.06Zm-.29,6.33H492l-.9-2.89c-.17-.53-.41-1.54-.41-1.54h0s-.26,1-.42,1.54Z" transform="translate(-10 -33)"/><path class="cls-9" d="M497.78,360h0a1.89,1.89,0,0,1,1.77-1.24,1.32,1.32,0,0,1,.45.06v1.67H500a1.81,1.81,0,0,0-2.14,2V366H496v-7.18h1.83Z" transform="translate(-10 -33)"/><path class="cls-9" d="M500.51,358.86h1v-2.24h1.87v2.24h1.23v1.26h-1.23v3.81a.63.63,0,0,0,.71.71h.56V366s-.43,0-1.19,0c-.92,0-1.95-.37-1.95-1.73v-4.21h-1Z" transform="translate(-10 -33)"/><path class="cls-9" d="M474.44,251.1h2.1l3.53,10H478l-.67-2.13h-3.61l-.66,2.13H471Zm-.3,6.33h2.65l-.9-2.89c-.17-.53-.4-1.54-.4-1.54h0s-.25,1-.42,1.54Z" transform="translate(-10 -33)"/><path class="cls-9" d="M483.25,251.1h2v8.32H490v1.69h-6.74Z" transform="translate(-10 -33)"/><path class="cls-9" d="M491,251.1h1.9v1.71H491Zm0,2.83h1.9v7.18H491Z" transform="translate(-10 -33)"/><path class="cls-9" d="M496,254.91h0a2.34,2.34,0,0,1,2.13-1.18,2.48,2.48,0,0,1,2.48,2.69v4.69h-1.91V256.7a1.19,1.19,0,0,0-1.25-1.31A1.49,1.49,0,0,0,496,257v4.07h-1.91v-7.18H496Z" transform="translate(-10 -33)"/><path class="cls-9" d="M504.54,257.84l-.83.85v2.42h-1.89v-10h1.89v5.55l2.55-2.72h2.28l-2.65,2.73,3,4.45h-2.31Z" transform="translate(-10 -33)"/><path class="cls-9" d="M320.36,255.58h2.86l1.41,5c.35,1.26.63,2.7.63,2.7h0s.27-1.44.62-2.7l1.41-5h2.9v10h-1.89v-5.75c0-.81.09-2.07.09-2.07h0s-.23,1.18-.44,1.91l-1.72,5.91h-2l-1.68-5.91c-.21-.73-.43-1.91-.43-1.91h0s.08,1.26.08,2.07v5.75h-1.86Z" transform="translate(-10 -33)"/><path class="cls-9" d="M331.6,255.58h1.91v1.71H331.6Zm0,2.83h1.91v7.19H331.6Z" transform="translate(-10 -33)"/><path class="cls-9" d="M334.39,262c0-2.24,1.27-3.79,3.07-3.79a2.3,2.3,0,0,1,2,1.06h0v-3.7h1.9v10H339.6v-.94h0a2.38,2.38,0,0,1-2.14,1.15C335.62,265.81,334.39,264.34,334.39,262Zm5.18,0c0-1.37-.45-2.29-1.67-2.29-1,0-1.58.92-1.58,2.25s.55,2.2,1.53,2.2S339.57,263.37,339.57,262.05Z" transform="translate(-10 -33)"/><path class="cls-9" d="M344.73,260.63c0-3,1.85-5.24,4.81-5.24a3.8,3.8,0,0,1,4.13,3.37h-2a2,2,0,0,0-2.11-1.66c-1.85,0-2.73,1.54-2.73,3.53s1.06,3.51,2.74,3.51a2,2,0,0,0,2.16-1.76h2a3.57,3.57,0,0,1-1.11,2.36,4.2,4.2,0,0,1-3,1.07C346.74,265.81,344.73,263.64,344.73,260.63Z" transform="translate(-10 -33)"/><path class="cls-9" d="M354.31,262a3.76,3.76,0,1,1,3.75,3.8A3.65,3.65,0,0,1,354.31,262Zm5.57,0c0-1.4-.65-2.35-1.82-2.35s-1.82.95-1.82,2.35.65,2.34,1.82,2.34S359.88,263.41,359.88,262Z" transform="translate(-10 -33)"/><path class="cls-9" d="M364.56,259.39h0a2.33,2.33,0,0,1,2.13-1.17,2.48,2.48,0,0,1,2.48,2.69v4.69H367.3v-4.41a1.19,1.19,0,0,0-1.24-1.32,1.5,1.5,0,0,0-1.46,1.65v4.08h-1.9v-7.19h1.86Z" transform="translate(-10 -33)"/><path class="cls-9" d="M372.25,259.39h0a2.33,2.33,0,0,1,2.13-1.17,2.48,2.48,0,0,1,2.48,2.69v4.69H375v-4.41a1.2,1.2,0,0,0-1.25-1.32,1.49,1.49,0,0,0-1.45,1.65v4.08h-1.91v-7.19h1.87Z" transform="translate(-10 -33)"/><path class="cls-9" d="M377.72,262a3.55,3.55,0,0,1,3.54-3.78c2.31,0,3.55,1.76,3.55,4.32h-5.22a1.79,1.79,0,0,0,1.84,1.8,1.35,1.35,0,0,0,1.39-.88h1.87a3.08,3.08,0,0,1-3.25,2.35A3.55,3.55,0,0,1,377.72,262Zm1.9-.77h3.2a1.52,1.52,0,0,0-1.53-1.54A1.6,1.6,0,0,0,379.62,261.23Z" transform="translate(-10 -33)"/><path class="cls-9" d="M385.33,262a3.54,3.54,0,0,1,3.59-3.79,3,3,0,0,1,3.26,2.63h-1.86a1.33,1.33,0,0,0-1.32-1.11c-1.15,0-1.73.89-1.73,2.27s.54,2.27,1.71,2.27a1.34,1.34,0,0,0,1.44-1.22h1.83a3,3,0,0,1-3.23,2.75A3.58,3.58,0,0,1,385.33,262Z" transform="translate(-10 -33)"/><path class="cls-9" d="M392.66,258.41h1v-2.24h1.86v2.24h1.24v1.26h-1.24v3.81a.64.64,0,0,0,.72.72l.56,0v1.4s-.44,0-1.19,0c-.93,0-2-.36-2-1.72v-4.22h-1Z" transform="translate(-10 -33)"/><path class="cls-9" d="M397.3,262a3.76,3.76,0,1,1,3.76,3.8A3.65,3.65,0,0,1,397.3,262Zm5.58,0c0-1.4-.66-2.35-1.82-2.35s-1.82.95-1.82,2.35.64,2.34,1.82,2.34S402.88,263.41,402.88,262Z" transform="translate(-10 -33)"/><path class="cls-9" d="M407.52,259.56h.05a1.88,1.88,0,0,1,1.76-1.23,1.32,1.32,0,0,1,.45.05v1.67h0a1.82,1.82,0,0,0-2.15,2.05v3.5h-1.9v-7.19h1.83Z" transform="translate(-10 -33)"/><path class="cls-9" d="M265.9,161.21h3.91c2.68,0,4.4,2.16,4.4,5.12a5,5,0,0,1-1.6,3.93,4.45,4.45,0,0,1-3,1H265.9Zm3.6,8.27c1.91,0,2.65-1.16,2.65-3.15s-.87-3.38-2.59-3.38h-1.62v6.53Z" transform="translate(-10 -33)"/><path class="cls-9" d="M274.81,167.63a3.55,3.55,0,0,1,3.54-3.78c2.31,0,3.55,1.76,3.55,4.33h-5.21a1.78,1.78,0,0,0,1.83,1.79,1.35,1.35,0,0,0,1.39-.88h1.87a3.08,3.08,0,0,1-3.25,2.35A3.55,3.55,0,0,1,274.81,167.63Zm1.9-.77h3.2a1.52,1.52,0,0,0-1.53-1.54A1.6,1.6,0,0,0,276.71,166.86Z" transform="translate(-10 -33)"/><path class="cls-9" d="M282.21,164h1v-.64c0-1.75,1.36-2.37,3.2-2.17v1.47c-.9,0-1.29.07-1.29.81V164h1.29v1.32H285.1v5.87h-1.91v-5.87h-1Z" transform="translate(-10 -33)"/><path class="cls-9" d="M286.69,167.63a3.56,3.56,0,0,1,3.55-3.78c2.31,0,3.54,1.76,3.54,4.33h-5.21a1.79,1.79,0,0,0,1.84,1.79,1.34,1.34,0,0,0,1.38-.88h1.88a3.09,3.09,0,0,1-3.25,2.35A3.56,3.56,0,0,1,286.69,167.63Zm1.91-.77h3.19a1.51,1.51,0,0,0-1.52-1.54A1.6,1.6,0,0,0,288.6,166.86Z" transform="translate(-10 -33)"/><path class="cls-9" d="M296.52,165h0a2.34,2.34,0,0,1,2.13-1.17,2.47,2.47,0,0,1,2.48,2.69v4.69h-1.9v-4.41A1.2,1.2,0,0,0,298,165.5a1.5,1.5,0,0,0-1.46,1.65v4.08h-1.9V164h1.86Z" transform="translate(-10 -33)"/><path class="cls-9" d="M301.9,168.91h1.76a1.39,1.39,0,0,0,1.57,1.19c.84,0,1.32-.33,1.32-.83,0-.69-.91-.76-1.89-1-1.29-.26-2.55-.61-2.55-2.17s1.29-2.3,2.93-2.3c1.89,0,2.94.94,3.08,2.38h-1.73c-.08-.77-.57-1-1.38-1s-1.24.28-1.24.8,1,.67,2,.88c1.2.25,2.54.59,2.54,2.27,0,1.44-1.24,2.31-3,2.31C303.17,171.44,302,170.43,301.9,168.91Z" transform="translate(-10 -33)"/><path class="cls-9" d="M308.85,167.63a3.56,3.56,0,0,1,3.55-3.78c2.31,0,3.54,1.76,3.54,4.33h-5.21a1.79,1.79,0,0,0,1.84,1.79,1.34,1.34,0,0,0,1.38-.88h1.88a3.09,3.09,0,0,1-3.25,2.35A3.56,3.56,0,0,1,308.85,167.63Zm1.91-.77H314a1.5,1.5,0,0,0-1.52-1.54A1.6,1.6,0,0,0,310.76,166.86Z" transform="translate(-10 -33)"/><path class="cls-9" d="M319.33,161.21h4.59c1.93,0,3.22,1.13,3.22,2.79a2.3,2.3,0,0,1-1.83,2.43v0a2,2,0,0,1,1.52,2c.15,1.42.09,2.5.44,2.65v.1h-1.95c-.25-.11-.28-1.23-.36-2.31a1.71,1.71,0,0,0-2-1.71h-1.64v4h-2Zm2,4.43h2.16c1.1,0,1.65-.57,1.65-1.37s-.52-1.42-1.6-1.42h-2.21Z" transform="translate(-10 -33)"/><path class="cls-9" d="M327.87,167.63a3.55,3.55,0,0,1,3.54-3.78c2.31,0,3.54,1.76,3.54,4.33h-5.21a1.79,1.79,0,0,0,1.84,1.79,1.35,1.35,0,0,0,1.39-.88h1.87a3.08,3.08,0,0,1-3.25,2.35A3.55,3.55,0,0,1,327.87,167.63Zm1.9-.77H333a1.52,1.52,0,0,0-1.53-1.54A1.6,1.6,0,0,0,329.77,166.86Z" transform="translate(-10 -33)"/><path class="cls-9" d="M335.48,167.64a3.54,3.54,0,0,1,3.59-3.79,3,3,0,0,1,3.26,2.63h-1.86a1.32,1.32,0,0,0-1.32-1.1c-1.15,0-1.73.88-1.73,2.26s.54,2.27,1.7,2.27a1.34,1.34,0,0,0,1.45-1.21h1.83a3,3,0,0,1-3.23,2.74A3.58,3.58,0,0,1,335.48,167.64Z" transform="translate(-10 -33)"/><path class="cls-9" d="M342.88,167.64a3.75,3.75,0,1,1,3.75,3.8A3.65,3.65,0,0,1,342.88,167.64Zm5.57,0c0-1.4-.66-2.35-1.82-2.35s-1.82,1-1.82,2.35.64,2.34,1.82,2.34S348.45,169.05,348.45,167.64Z" transform="translate(-10 -33)"/><path class="cls-9" d="M353.1,165.19h0A1.88,1.88,0,0,1,354.9,164a1.08,1.08,0,0,1,.45.06v1.66h0a1.81,1.81,0,0,0-2.14,2v3.5h-1.91V164h1.84Z" transform="translate(-10 -33)"/><path class="cls-9" d="M355.62,167.64c0-2.24,1.27-3.79,3.06-3.79a2.27,2.27,0,0,1,2,1.06h.05v-3.7h1.9v10h-1.83v-.94h0a2.39,2.39,0,0,1-2.15,1.15C356.85,171.44,355.62,170,355.62,167.64Zm5.18.05c0-1.38-.45-2.3-1.67-2.3-1.05,0-1.58.92-1.58,2.25s.54,2.2,1.53,2.2S360.8,169,360.8,167.69Z" transform="translate(-10 -33)"/><path class="cls-9" d="M363.44,168.91h1.77a1.38,1.38,0,0,0,1.56,1.19c.85,0,1.32-.33,1.32-.83,0-.69-.91-.76-1.89-1-1.29-.26-2.55-.61-2.55-2.17s1.29-2.3,2.93-2.3c1.89,0,2.94.94,3.08,2.38h-1.72c-.09-.77-.58-1-1.39-1s-1.23.28-1.23.8.95.67,2,.88c1.21.25,2.54.59,2.54,2.27,0,1.44-1.23,2.31-3,2.31C364.72,171.44,363.55,170.43,363.44,168.91Z" transform="translate(-10 -33)"/><path class="cls-9" d="M387.5,210.74h2.07l1.3,5c.2.86.44,2.19.44,2.19h0s.26-1.25.47-2.13l1.09-5h2l1.09,5c.21.89.47,2.15.47,2.15h0s.3-1.33.49-2.2l1.26-5h2l-2.86,10h-1.89l-1.22-5.36c-.17-.73-.35-1.78-.35-1.78h0s-.15,1-.32,1.78l-1.23,5.36h-1.88Z" transform="translate(-10 -33)"/><path class="cls-9" d="M404.4,220h0a2.22,2.22,0,0,1-2.12,1c-1.47,0-2.5-.77-2.5-2.2,0-1.58,1.29-2.08,2.88-2.31,1.19-.17,1.74-.26,1.74-.81s-.41-.85-1.21-.85-1.33.32-1.38,1h-1.7c.06-1.26,1-2.36,3.1-2.36s3,1,3,2.64v3.66c0,.55.09.87.26,1v.06h-1.84A1.92,1.92,0,0,1,404.4,220Zm0-1.74v-1.08a5,5,0,0,1-1.33.42c-1,.23-1.48.45-1.48,1.12s.44.91,1.12.91C403.81,219.59,404.41,218.92,404.41,218.22Z" transform="translate(-10 -33)"/><path class="cls-9" d="M406.84,213.57h1v-2.24h1.86v2.24h1.23v1.26H409.7v3.81a.63.63,0,0,0,.72.71H411v1.4s-.44,0-1.19,0c-.93,0-2-.37-2-1.72v-4.22h-1Z" transform="translate(-10 -33)"/><path class="cls-9" d="M411.49,217.15a3.56,3.56,0,0,1,3.55-3.78c2.31,0,3.54,1.77,3.54,4.33h-5.21a1.78,1.78,0,0,0,1.83,1.79,1.33,1.33,0,0,0,1.39-.88h1.88a3.08,3.08,0,0,1-3.25,2.35A3.56,3.56,0,0,1,411.49,217.15Zm1.91-.77h3.19a1.51,1.51,0,0,0-1.53-1.54A1.6,1.6,0,0,0,413.4,216.38Z" transform="translate(-10 -33)"/><path class="cls-9" d="M421.29,214.72h0a1.91,1.91,0,0,1,1.77-1.24,1.28,1.28,0,0,1,.45.06v1.67h0a1.81,1.81,0,0,0-2.15,2v3.5h-1.9v-7.18h1.83Z" transform="translate(-10 -33)"/><rect class="cls-10" x="92.36" y="209.33" width="62.46" height="83.9"/><polygon class="cls-10" points="637.84 210.47 637.84 235.47 551.15 235.47 551.15 144.22 599.98 144.22 616.26 160.38 616.26 210.47 637.84 210.47"/><path class="cls-11" d="M108.1,295.1h5.1a4.45,4.45,0,0,1,2.8.8,2.94,2.94,0,0,1,.9,2.2,2.35,2.35,0,0,1-1.8,2.3h0a2.8,2.8,0,0,1,2.1,2.8,2.84,2.84,0,0,1-1,2.4,4.37,4.37,0,0,1-2.9.9H108V295.1Zm4.8,4.6c1,0,1.7-.5,1.7-1.4s-.6-1.3-1.7-1.3h-2.6v2.7Zm-2.5,5h2.7a1.58,1.58,0,0,0,1.8-1.6,1.69,1.69,0,0,0-1.9-1.7h-2.6Z" transform="translate(-10 -33)"/><path class="cls-11" d="M120.8,303.1h2.3c.2,1.4.9,1.9,2.6,1.9,1.2,0,2.2-.4,2.2-1.5s-1.1-1.3-2.8-1.8c-2.1-.5-3.9-1-3.9-3.4s1.8-3.4,4.4-3.4,4.3,1.3,4.4,3.6h-2.2c-.1-1.2-1-1.7-2.2-1.7s-2.1.5-2.1,1.3.8,1.2,2.5,1.6c2.4.5,4.3,1.1,4.3,3.5s-1.9,3.6-4.5,3.6C122.6,306.9,120.9,305.5,120.8,303.1Z" transform="translate(-10 -33)"/><path class="cls-11" d="M131.4,295.1h2.2v2h-2.2Zm0,3.3h2.2v8.2h-2.2Z" transform="translate(-10 -33)"/><path class="cls-11" d="M134.5,298.4h1.1v-2.6h2.1v2.6h1.4v1.4h-1.4v4.4c0,.6.3.8.8.8h.6v1.6h-1.4c-1.1,0-2.2-.4-2.2-2v-4.8h-1.1v-1.4Z" transform="translate(-10 -33)"/><path class="cls-11" d="M139.9,302.5a4.1,4.1,0,0,1,4.1-4.3c2.6,0,4.1,2,4.1,5h-6c.2,1.3.9,2.1,2.1,2.1a1.58,1.58,0,0,0,1.6-1H148a3.48,3.48,0,0,1-3.7,2.7A4.33,4.33,0,0,1,139.9,302.5Zm2.2-.9h3.7a1.85,1.85,0,0,0-1.7-1.8C142.8,299.8,142.3,300.5,142.1,301.6Z" transform="translate(-10 -33)"/><path class="cls-11" d="M588.05,248h2.5l4,11.5h-2.4l-.8-2.4h-4.1l-.8,2.4h-2.4Zm-.3,7.3h3l-1-3.3c-.2-.6-.5-1.8-.5-1.8h0s-.3,1.2-.5,1.8Z" transform="translate(-10 -33)"/><path class="cls-11" d="M597.65,256H600c.2,1.4.9,1.9,2.6,1.9,1.2,0,2.2-.4,2.2-1.5s-1.1-1.3-2.8-1.8c-2.1-.5-3.9-1-3.9-3.4s1.8-3.4,4.4-3.4,4.3,1.3,4.4,3.6h-2.2c-.1-1.2-1-1.7-2.2-1.7s-2.1.5-2.1,1.3.8,1.2,2.5,1.6c2.4.5,4.3,1.1,4.3,3.5s-1.9,3.6-4.5,3.6C599.55,259.8,597.75,258.4,597.65,256Z" transform="translate(-10 -33)"/><path class="cls-11" d="M608.35,248h2.2v2h-2.2Zm0,3.3h2.2v8.2h-2.2Z" transform="translate(-10 -33)"/><path class="cls-11" d="M611.45,251.3h1.1v-2.6h2.1v2.6h1.4v1.4h-1.4v4.4c0,.6.3.8.8.8h.6v1.6h-1.4c-1.1,0-2.2-.4-2.2-2v-4.8h-1.1v-1.4Z" transform="translate(-10 -33)"/><path class="cls-11" d="M616.75,255.4a4.1,4.1,0,0,1,4.1-4.3c2.6,0,4.1,2,4.1,5h-6c.2,1.3.9,2.1,2.1,2.1a1.58,1.58,0,0,0,1.6-1h2.2a3.48,3.48,0,0,1-3.7,2.7A4.39,4.39,0,0,1,616.75,255.4Zm2.2-.9h3.7a1.85,1.85,0,0,0-1.7-1.8A1.9,1.9,0,0,0,619,254.5Z" transform="translate(-10 -33)"/></svg>