<?xml version="1.0" encoding="utf-8"?>
<!-- Generator: Adobe Illustrator 25.0.1, SVG Export Plug-In . SVG Version: 6.00 Build 0)  -->
<svg version="1.1" id="Layer_1" xmlns="http://www.w3.org/2000/svg" xmlns:xlink="http://www.w3.org/1999/xlink" x="0px" y="0px"
	 viewBox="0 0 708 708" style="enable-background:new 0 0 708 708;" xml:space="preserve">
<style type="text/css">
	.st0{fill-rule:evenodd;clip-rule:evenodd;fill:#101823;}
	.st1{fill:#161F2F;}
	.st2{display:none;fill:#161F2F;}
	.st3{fill:#161F2F;stroke:#161F2F;}
	.st4{fill:none;stroke:#161F2F;}
	.st5{display:none;fill-rule:evenodd;clip-rule:evenodd;fill:#181B21;}
	.st6{fill:#16E5B4;}
	.st7{fill:#FF4654;}
	.st8{fill:#67748F;}
	.st9{opacity:0.11;fill:#FF4654;enable-background:new    ;}
	.st10{fill:#BDC5CC;}
</style>
<path class="st0" d="M260,145.3v31H108.2c-4.5,0-21.3,5.9-21.3,22.5v32.9h16.3v9.7H55.1L33.5,263v44.5h21.1v20.1H30.9v63.7h26.5V414
	H34.5v55.5h108.1V448h20.3v54h39.9l4-4l6.6,6.6l-7.6,7.6v21.4l13.7,13.7h19.7v-1.8H325v141.7h98.7V631l86.6-86.6v-43.7h-21.7v-42
	H575V350.7h20.5v11.9l9.8,9.8h67.1v-88h-21.8v-20.3h21.8v-66.2h-44.5v2.6h-20.5v-8h-3.8l-12.1-12.1v-4.3h-8.3v-20.2h24.2v-21.2
	c0-5.9-3-23.5-22.3-23.5H462.5l-6.2-6.2V26.2h-60.7c-4.2,0-27.5-3.9-34.9-7.1c-7.4-3.2-14-5.4-24.2-7.2c-8.2-1.4-14.2-1.4-16.2-1.2
	l-8.6,7.2h-15.5c-5.3,1-16.3,2.9-18.2,3.3c-2.4,0.5-4.4,2-6,5.6c-1.7,3.6-4.8,7.7-6.5,9c-0.7,0.6-3.4,3.1-6.4,5.8
	c-3.6,3.3-7.5,6.9-8.9,8.1c-4.8,3.2-6.8,9.4-8.1,13.5c-0.4,1.1-0.7,2.1-1,2.8c-1.4,3-2.7,8.1-2.7,9.9v69.5H260z M303.2,101.9h-20.3
	v95.9h20.6v-10.7h107.9v-85.2h-20.1v21.5h-88.2V101.9z M238.3,199.4v43.1h92v20.1h-48.7v38.1h1.6v5.4h-65.8l-21-21v-85.7H238.3z
	 M137,241v-9.4h36.7v110.9H164V241H137z M77.6,286v41.7h41.9V286H77.6z M104.7,391.3h-8.4v22.8h133.1v61.3l-4.4,4.4l6.7,6.7l6.7-6.7
	v-65.7h87.1v-20.4h-21.7l-22.2-22.2v-42.4h-31.1v43.3h-111l-4.6-8.4l-16.5,8.4l4.8,9.1L104.7,391.3z M389.8,334.4v14.5H379v66.5
	h10.8v14.8h-20.3v-95.9H389.8z M282.9,500.7V459h132.6l19.1-21.2v-22.2H455v129.2l-31.7,31.7h-42.9v7.1h-10.9v-82.9H282.9z
	 M530.4,414.1v-41.7h-20.2v2.6h-44.7V220.7h-96v21.8h-5.3v20.1h5.3v28.1l15.4,15.4h38.5v66.1h-10.7v20.2h41.8V390h55.6v24.1H530.4z
	 M439.9,156h103.9v20.1h-2.6v43.4h-10.6v43.2h-20.4v-16.1h-10.8V237h10.8v-38.5l-22.4-22.4h-47.8V156z M508.2,307.3
	c-2.2,0-8.9,3.5-8.9,8.5v4c0,2.5,4.2,7.9,8.9,7.9h119.6v-87.9h-20.3v67.5H508.2z"/>
<rect x="139" y="209" class="st1" width="11" height="23"/>
<rect x="283" y="197" class="st1" width="11" height="23"/>
<rect x="336" y="197" class="st1" width="22" height="2"/>
<rect x="281" y="263" class="st1" width="44" height="11"/>
<rect x="142" y="240" class="st1" width="23" height="13"/>
<rect x="119" y="306" class="st1" width="12" height="12"/>
<rect x="282" y="447" class="st1" width="22" height="12"/>
<rect x="315" y="534" class="st1" width="11" height="12"/>
<rect x="325" y="681" class="st1" width="7" height="6"/>
<rect x="417" y="681" class="st1" width="7" height="6"/>
<rect x="332" y="682" class="st1" width="10" height="5"/>
<rect x="407" y="682" class="st1" width="10" height="5"/>
<rect x="352" y="682" class="st1" width="11" height="5"/>
<rect x="386" y="682" class="st1" width="11" height="5"/>
<rect x="342" y="683" class="st1" width="10" height="4"/>
<rect x="397" y="683" class="st1" width="10" height="4"/>
<rect x="288" y="442" class="st1" width="11" height="5"/>
<rect x="358" y="398" class="st1" width="11" height="11"/>
<rect x="455" y="209" class="st1" width="11" height="11"/>
<rect x="531" y="139" class="st1" width="11" height="16"/>
<rect x="313.8" y="329.1" transform="matrix(0.7071 -0.7071 0.7071 0.7071 -140.5766 327.9619)" class="st1" width="23.6" height="9.2"/>
<rect x="515" y="414" class="st1" width="11" height="11"/>
<rect x="515" y="296" class="st1" width="11" height="11"/>
<rect x="661" y="284" class="st1" width="12" height="12"/>
<rect x="666" y="294" class="st1" width="7" height="7"/>
<path class="st2" d="M586,182.5v-8h22v23h-7L586,182.5z"/>
<rect x="530" y="215" class="st2" width="33" height="10"/>
<rect x="563.9" y="272.6" transform="matrix(0.7071 -0.7071 0.7071 0.7071 -27.513 489.7769)" class="st1" width="27.1" height="11"/>
<rect x="492.7" y="322.9" transform="matrix(0.7071 -0.7071 0.7071 0.7071 -86.0266 449.1378)" class="st1" width="12.8" height="11"/>
<rect x="450" y="105.9" transform="matrix(0.7071 -0.7071 0.7071 0.7071 54.8996 355.3638)" class="st1" width="12.8" height="11"/>
<rect x="131" y="306" class="st1" width="6" height="6"/>
<rect x="31" y="374" class="st1" width="7" height="5"/>
<rect x="31" y="379" class="st1" width="12" height="13"/>
<rect x="65" y="441" class="st1" width="24" height="11"/>
<path class="st1" d="M192,435c0-1.7,1.3-3,3-3h5c1.7,0,3,1.3,3,3v24c0,1.7-1.3,3-3,3h-5c-1.7,0-3-1.3-3-3V435z"/>
<path class="st1" d="M207,328c0-1.7,1.3-3,3-3h5c1.7,0,3,1.3,3,3v22c0,1.7-1.3,3-3,3h-5c-1.7,0-3-1.3-3-3V328z"/>
<rect x="150" y="215" class="st1" width="6" height="6"/>
<rect x="150" y="220" class="st1" width="11" height="12"/>
<path class="st3" d="M136,306.5h28.5"/>
<path class="st4" d="M368,305.5h28.5"/>
<path class="st4" d="M465,285h12v-43.5h23"/>
<path class="st4" d="M302,197h110"/>
<path class="st5" d="M260,145.3v31H108.2c-4.5,0-21.3,5.9-21.3,22.5v32.9h16.3v9.7H55.1L33.5,263v44.5h21.1v20.1H30.9v63.7h26.5V414
	H34.5v55.5h108.1V448h20.3v54h39.9l4-4l6.6,6.6l-7.6,7.6v21.4l13.7,13.7h19.7v-1.8H325v141.7h98.7V631l86.6-86.6v-43.7h-21.7v-42
	H575V350.7h20.5v11.9l9.8,9.8h67.1v-88h-21.8v-20.3h21.8v-66.2h-44.5v2.6h-20.5v-8h-3.8l-12.1-12.1v-4.3h-8.3v-20.2h24.2v-21.2
	c0-5.9-3-23.5-22.3-23.5H462.5l-6.2-6.2V26.2h-60.7c-4.2,0-27.5-3.9-34.9-7.1c-7.4-3.2-14-5.4-24.2-7.2c-8.2-1.4-14.2-1.4-16.2-1.2
	l-8.6,7.2h-15.5c-5.3,1-16.3,2.9-18.2,3.3c-2.4,0.5-4.4,2-6,5.6c-1.7,3.6-4.8,7.7-6.5,9c-0.7,0.6-3.4,3.1-6.4,5.8
	c-3.6,3.3-7.5,6.9-8.9,8.1c-4.8,3.2-6.8,9.4-8.1,13.5c-0.4,1.1-0.7,2.1-1,2.8c-1.4,3-2.7,8.1-2.7,9.9v69.5H260z M303.2,101.9h-20.3
	v95.9h20.6v-10.7h107.9v-85.2h-20.1v21.5h-88.2V101.9z M238.3,199.4v43.1h92v20.1h-48.7v38.1h1.6v5.4h-65.8l-21-21v-85.7H238.3z
	 M137,241v-9.4h36.7v110.9H164V241H137z M77.6,286v41.7h41.9V286H77.6z M104.7,391.3h-8.4v22.8h133.1v61.3l-4.4,4.4l6.7,6.7l6.7-6.7
	v-65.7h87.1v-20.4h-21.7l-22.2-22.2v-42.4h-31.1v43.3h-111l-4.6-8.4l-16.5,8.4l4.8,9.1L104.7,391.3z M389.8,334.4v14.5H379v66.5
	h10.8v14.8h-20.3v-95.9H389.8z M282.9,500.7V459h132.6l19.1-21.2v-22.2H455v129.2l-31.7,31.7h-42.9v7.1h-10.9v-82.9H282.9z
	 M530.4,414.1v-41.7h-20.2v2.6h-44.7V220.7h-96v21.8h-5.3v20.1h5.3v28.1l15.4,15.4h38.5v66.1h-10.7v20.2h41.8V390h55.6v24.1H530.4z
	 M439.9,156h103.9v20.1h-2.6v43.4h-10.6v43.2h-20.4v-16.1h-10.8V237h10.8v-38.5l-22.4-22.4h-47.8V156z M508.2,307.3
	c-2.2,0-8.9,3.5-8.9,8.5v4c0,2.5,4.2,7.9,8.9,7.9h119.6v-87.9h-20.3v67.5H508.2z"/>
<path class="st2" d="M586,182.5l22,15h-7L586,182.5z"/>
<polygon class="st1" points="586,176.1 591.4,176.1 591.4,180.4 603.6,192.5 607.3,192.5 607.3,197.5 601,197.5 586,182.5 "/>
<g>
	<path class="st6" d="M318.9,59.4h4.5c3.1,0,5,2.5,5,5.9c0,1.9-0.6,3.5-1.8,4.5c-0.9,0.7-2,1.1-3.4,1.1h-4.3L318.9,59.4L318.9,59.4z
		 M323,68.9c2.2,0,3-1.3,3-3.6c0-2.3-1-3.9-3-3.9h-1.9v7.5H323z"/>
	<path class="st6" d="M329.1,66.8c0-2.4,1.7-4.3,4.1-4.3c2.7,0,4.1,2,4.1,5h-6c0.2,1.3,0.9,2.1,2.1,2.1c0.9,0,1.4-0.4,1.6-1h2.2
		c-0.3,1.5-1.6,2.7-3.7,2.7C330.7,71.1,329.1,69.2,329.1,66.8z M331.3,65.9h3.7c-0.1-1-0.8-1.8-1.8-1.8
		C332.1,64.1,331.5,64.8,331.3,65.9z"/>
	<path class="st6" d="M337.6,62.6h1.1v-0.7c0-2,1.6-2.7,3.7-2.5v1.7c-1,0-1.5,0.1-1.5,0.9v0.6h1.5v1.5h-1.5v6.7h-2.2v-6.7h-1.1V62.6
		z"/>
	<path class="st6" d="M342.8,66.8c0-2.4,1.7-4.3,4.1-4.3c2.7,0,4.1,2,4.1,5h-6c0.2,1.3,0.9,2.1,2.1,2.1c0.9,0,1.4-0.4,1.6-1h2.2
		c-0.3,1.5-1.6,2.7-3.7,2.7C344.3,71.1,342.8,69.2,342.8,66.8z M345,65.9h3.7c-0.1-1-0.8-1.8-1.8-1.8
		C345.7,64.1,345.2,64.8,345,65.9z"/>
	<path class="st6" d="M354.1,63.8L354.1,63.8c0.6-0.9,1.4-1.4,2.5-1.4c1.7,0,2.8,1.3,2.8,3.1v5.4h-2.2v-5.1c0-0.9-0.5-1.5-1.4-1.5
		c-1,0-1.7,0.8-1.7,1.9v4.7h-2.2v-8.3h2.1v1.2H354.1z"/>
	<path class="st6" d="M360.2,68.2h2c0.1,0.9,0.8,1.4,1.8,1.4s1.5-0.4,1.5-0.9c0-0.8-1-0.9-2.2-1.1c-1.5-0.3-2.9-0.7-2.9-2.5
		c0-1.8,1.5-2.6,3.4-2.6c2.2,0,3.4,1.1,3.5,2.7h-2c-0.1-0.9-0.7-1.2-1.6-1.2s-1.4,0.3-1.4,0.9c0,0.7,1.1,0.8,2.3,1
		c1.4,0.3,2.9,0.7,2.9,2.6c0,1.7-1.4,2.7-3.5,2.7C361.7,71.1,360.4,70,360.2,68.2z"/>
	<path class="st6" d="M368.2,66.8c0-2.4,1.7-4.3,4.1-4.3c2.7,0,4.1,2,4.1,5h-6c0.2,1.3,0.9,2.1,2.1,2.1c0.9,0,1.4-0.4,1.6-1h2.2
		c-0.3,1.5-1.6,2.7-3.7,2.7C369.8,71.1,368.2,69.2,368.2,66.8z M370.4,65.9h3.7c-0.1-1-0.8-1.8-1.8-1.8
		C371.2,64.1,370.6,64.8,370.4,65.9z"/>
</g>
<g>
	<path class="st7" d="M356.4,637.7h2.4l4.1,11.5h-2.4l-0.8-2.4h-4.1l-0.8,2.4h-2.4L356.4,637.7z M356,645h3l-1-3.3
		c-0.2-0.6-0.5-1.8-0.5-1.8l0,0c0,0-0.3,1.2-0.5,1.8L356,645z"/>
	<path class="st7" d="M362.8,640.9h1.1v-2.6h2.1v2.6h1.4v1.4H366v4.4c0,0.6,0.3,0.8,0.8,0.8c0.3,0,0.6,0,0.6,0v1.6c0,0-0.5,0-1.4,0
		c-1.1,0-2.2-0.4-2.2-2v-4.8h-1.1v-1.4H362.8z"/>
	<path class="st7" d="M367.8,640.9h1.1v-2.6h2.1v2.6h1.4v1.4H371v4.4c0,0.6,0.3,0.8,0.8,0.8c0.3,0,0.6,0,0.6,0v1.6c0,0-0.5,0-1.4,0
		c-1.1,0-2.2-0.4-2.2-2v-4.8h-1.1v-1.4H367.8z"/>
	<path class="st7" d="M378.8,648.3L378.8,648.3c-0.5,0.6-1,1.1-2.5,1.1c-1.7,0-2.9-0.9-2.9-2.5c0-1.8,1.5-2.4,3.3-2.7
		c1.4-0.2,2-0.3,2-0.9c0-0.6-0.5-1-1.4-1c-1,0-1.5,0.4-1.6,1.2h-1.9c0.1-1.4,1.1-2.7,3.6-2.7s3.5,1.1,3.5,3v4.2c0,0.6,0.1,1,0.3,1.1
		v0.1H379C378.8,649,378.8,648.7,378.8,648.3z M378.8,646.3v-1.2c-0.4,0.2-1,0.4-1.5,0.5c-1.1,0.3-1.7,0.5-1.7,1.3s0.5,1,1.3,1
		C378,647.9,378.8,647.1,378.8,646.3z"/>
	<path class="st7" d="M381.8,645.1c0-2.5,1.6-4.4,4.1-4.4c2.1,0,3.5,1.2,3.7,3h-2.1c-0.1-0.7-0.7-1.3-1.5-1.3c-1.3,0-2,1-2,2.6
		s0.6,2.6,2,2.6c0.9,0,1.5-0.5,1.7-1.4h2.1c-0.1,1.8-1.5,3.2-3.7,3.2C383.3,649.4,381.8,647.5,381.8,645.1z"/>
	<path class="st7" d="M393.8,645.4l-0.9,1v2.8h-2.2v-11.5h2.2v6.4l2.9-3.1h2.6l-3,3.1l3.4,5.1H396L393.8,645.4z"/>
</g>
<g>
	<path class="st8" d="M234.9,512.7h4.5c1.1,0,1.9,0.3,2.4,0.7c0.5,0.5,0.8,1.1,0.8,1.9c0,1-0.6,1.7-1.6,2v0c1.1,0.3,1.9,1.2,1.9,2.5
		c0,0.9-0.3,1.6-0.9,2.1c-0.6,0.5-1.5,0.8-2.5,0.8h-4.6V512.7z M239.2,516.7c0.9,0,1.5-0.4,1.5-1.2c0-0.7-0.5-1.2-1.4-1.2H237v2.4
		H239.2z M237,521h2.3c1,0,1.6-0.5,1.6-1.4c0-1-0.7-1.4-1.6-1.4H237V521z"/>
	<path class="st8" d="M246.5,512.7h2v8.3h4.7v1.7h-6.7V512.7z"/>
	<path class="st8" d="M253.6,519.1c0-2.1,1.5-3.8,3.8-3.8c2.2,0,3.8,1.7,3.8,3.8c0,2.1-1.5,3.8-3.8,3.8
		C255.2,522.9,253.6,521.2,253.6,519.1z M259.2,519.1c0-1.4-0.7-2.4-1.8-2.4c-1.2,0-1.8,1-1.8,2.4c0,1.4,0.6,2.3,1.8,2.3
		C258.6,521.4,259.2,520.5,259.2,519.1z"/>
	<path class="st8" d="M263.9,521.8L263.9,521.8l0,0.9H262v-10h1.9v3.7h0c0.4-0.6,1-1.1,2-1.1c1.8,0,3.1,1.6,3.1,3.8
		c0,2.3-1.2,3.8-3,3.8C265,522.9,264.3,522.5,263.9,521.8z M267.1,519.1c0-1.3-0.5-2.3-1.6-2.3c-1.2,0-1.7,1-1.7,2.3
		c0,1.3,0.7,2.2,1.7,2.2C266.6,521.3,267.1,520.5,267.1,519.1z"/>
	<path class="st8" d="M271.8,521.8L271.8,521.8l0,0.9H270v-10h1.9v3.7h0c0.4-0.6,1-1.1,2-1.1c1.8,0,3.1,1.6,3.1,3.8
		c0,2.3-1.2,3.8-3,3.8C272.9,522.9,272.2,522.5,271.8,521.8z M275.1,519.1c0-1.3-0.5-2.3-1.6-2.3c-1.2,0-1.7,1-1.7,2.3
		c0,1.3,0.7,2.2,1.7,2.2C274.5,521.3,275.1,520.5,275.1,519.1z"/>
	<path class="st8" d="M277.8,523.5h0.7c0.8,0,1.1-0.4,1.1-1c0-0.4-0.1-0.9-0.5-1.9l-1.9-5.1h2l1.1,3.2c0.2,0.7,0.5,1.6,0.5,1.6h0
		c0,0,0.2-0.9,0.4-1.6l1-3.2h1.9l-2.5,7.4c-0.5,1.6-1.1,2.2-2.5,2.2h-1.1V523.5z"/>
</g>
<g>
	<path class="st8" d="M126.5,423h4.5c1.1,0,1.9,0.3,2.4,0.7c0.5,0.5,0.8,1.1,0.8,1.9c0,1-0.6,1.7-1.6,2v0c1.1,0.3,1.9,1.2,1.9,2.5
		c0,0.9-0.3,1.6-0.9,2.1c-0.6,0.5-1.5,0.8-2.5,0.8h-4.6V423z M130.8,427c0.9,0,1.5-0.4,1.5-1.2c0-0.7-0.5-1.2-1.4-1.2h-2.2v2.4
		H130.8z M128.6,431.3h2.3c1,0,1.6-0.5,1.6-1.4c0-1-0.7-1.4-1.6-1.4h-2.3V431.3z"/>
	<path class="st8" d="M138.1,423h2.9l1.4,5c0.4,1.3,0.6,2.7,0.6,2.7h0c0,0,0.3-1.4,0.6-2.7l1.4-5h2.9v10H146v-5.7
		c0-0.8,0.1-2.1,0.1-2.1h0c0,0-0.2,1.2-0.4,1.9l-1.7,5.9H142l-1.7-5.9c-0.2-0.7-0.4-1.9-0.4-1.9h0c0,0,0.1,1.3,0.1,2.1v5.7h-1.9V423
		z"/>
	<path class="st8" d="M153.6,432.2L153.6,432.2c-0.4,0.5-0.9,1-2.1,1c-1.5,0-2.5-0.8-2.5-2.2c0-1.6,1.3-2.1,2.9-2.3
		c1.2-0.2,1.7-0.3,1.7-0.8c0-0.5-0.4-0.9-1.2-0.9c-0.9,0-1.3,0.3-1.4,1h-1.7c0.1-1.3,1-2.4,3.1-2.4c2.2,0,3,1,3,2.6v3.7
		c0,0.5,0.1,0.9,0.3,1v0.1h-1.8C153.7,432.9,153.7,432.5,153.6,432.2z M153.6,430.5v-1.1c-0.3,0.2-0.9,0.3-1.3,0.4
		c-1,0.2-1.5,0.4-1.5,1.1c0,0.7,0.4,0.9,1.1,0.9C153,431.8,153.6,431.2,153.6,430.5z"/>
	<path class="st8" d="M156.6,423h1.9v1.7h-1.9V423z M156.6,425.8h1.9v7.2h-1.9V425.8z"/>
	<path class="st8" d="M161.6,426.8L161.6,426.8c0.5-0.8,1.2-1.2,2.2-1.2c1.5,0,2.5,1.1,2.5,2.7v4.7h-1.9v-4.4c0-0.8-0.4-1.3-1.2-1.3
		c-0.8,0-1.5,0.7-1.5,1.7v4.1h-1.9v-7.2h1.9V426.8z"/>
</g>
<g>
	<path class="st8" d="M370.9,375.5h2.9l1.4,5c0.4,1.3,0.6,2.7,0.6,2.7h0c0,0,0.3-1.4,0.6-2.7l1.4-5h2.9v10h-1.9v-5.7
		c0-0.8,0.1-2.1,0.1-2.1h0c0,0-0.2,1.2-0.4,1.9l-1.7,5.9h-1.9l-1.7-5.9c-0.2-0.7-0.4-1.9-0.4-1.9h0c0,0,0.1,1.3,0.1,2.1v5.7h-1.9
		V375.5z"/>
	<path class="st8" d="M382.1,375.5h1.9v1.7h-1.9V375.5z M382.1,378.3h1.9v7.2h-1.9V378.3z"/>
	<path class="st8" d="M384.9,381.9c0-2.2,1.3-3.8,3.1-3.8c1,0,1.6,0.5,2,1.1h0v-3.7h1.9v10h-1.8v-0.9h0c-0.4,0.7-1.1,1.1-2.1,1.1
		C386.1,385.7,384.9,384.2,384.9,381.9z M390.1,382c0-1.4-0.4-2.3-1.7-2.3c-1.1,0-1.6,0.9-1.6,2.3c0,1.4,0.5,2.2,1.5,2.2
		C389.5,384.1,390.1,383.3,390.1,382z"/>
	<path class="st8" d="M395.2,375.5h8.1v1.7h-3v8.3h-2v-8.3h-3V375.5z"/>
	<path class="st8" d="M404.1,375.5h1.9v1.7h-1.9V375.5z M404.1,378.3h1.9v7.2h-1.9V378.3z"/>
	<path class="st8" d="M407.2,375.5h1.9v10h-1.9V375.5z"/>
	<path class="st8" d="M410.1,381.9c0-2.1,1.4-3.8,3.5-3.8c2.3,0,3.5,1.8,3.5,4.3h-5.2c0.1,1.1,0.8,1.8,1.8,1.8
		c0.7,0,1.2-0.3,1.4-0.9h1.9c-0.3,1.3-1.4,2.4-3.2,2.4C411.4,385.7,410.1,384,410.1,381.9z M412,381.1h3.2c-0.1-0.9-0.7-1.5-1.5-1.5
		C412.6,379.6,412.1,380.2,412,381.1z"/>
	<path class="st8" d="M417.6,383.2h1.8c0.1,0.8,0.7,1.2,1.6,1.2c0.8,0,1.3-0.3,1.3-0.8c0-0.7-0.9-0.8-1.9-1
		c-1.3-0.3-2.5-0.6-2.5-2.2c0-1.6,1.3-2.3,2.9-2.3c1.9,0,2.9,0.9,3.1,2.4h-1.7c-0.1-0.8-0.6-1.1-1.4-1.1c-0.7,0-1.2,0.3-1.2,0.8
		c0,0.6,1,0.7,2,0.9c1.2,0.3,2.5,0.6,2.5,2.3c0,1.4-1.2,2.3-3,2.3C418.8,385.7,417.7,384.7,417.6,383.2z"/>
</g>
<g>
	<path class="st8" d="M511.1,347.4h2.1l3.5,10h-2.1l-0.7-2.1h-3.6l-0.7,2.1h-2.1L511.1,347.4z M510.8,353.7h2.6l-0.9-2.9
		c-0.2-0.5-0.4-1.5-0.4-1.5h0c0,0-0.3,1-0.4,1.5L510.8,353.7z"/>
	<path class="st8" d="M519.9,347.4h2.9l1.4,5c0.4,1.3,0.6,2.7,0.6,2.7h0c0,0,0.3-1.4,0.6-2.7l1.4-5h2.9v10h-1.9v-5.7
		c0-0.8,0.1-2.1,0.1-2.1h0c0,0-0.2,1.2-0.4,1.9l-1.7,5.9h-1.9l-1.7-5.9c-0.2-0.7-0.4-1.9-0.4-1.9h0c0,0,0.1,1.3,0.1,2.1v5.7h-1.9
		V347.4z"/>
	<path class="st8" d="M535.5,356.6L535.5,356.6c-0.4,0.5-0.9,1-2.1,1c-1.5,0-2.5-0.8-2.5-2.2c0-1.6,1.3-2.1,2.9-2.3
		c1.2-0.2,1.7-0.3,1.7-0.8c0-0.5-0.4-0.9-1.2-0.9c-0.9,0-1.3,0.3-1.4,1h-1.7c0.1-1.3,1-2.4,3.1-2.4c2.2,0,3,1,3,2.6v3.7
		c0,0.5,0.1,0.9,0.3,1v0.1h-1.8C535.6,357.2,535.5,356.9,535.5,356.6z M535.5,354.8v-1.1c-0.3,0.2-0.9,0.3-1.3,0.4
		c-1,0.2-1.5,0.4-1.5,1.1c0,0.7,0.4,0.9,1.1,0.9C534.9,356.2,535.5,355.5,535.5,354.8z"/>
	<path class="st8" d="M538.5,347.4h1.9v1.7h-1.9V347.4z M538.5,350.2h1.9v7.2h-1.9V350.2z"/>
	<path class="st8" d="M543.5,351.2L543.5,351.2c0.5-0.8,1.2-1.2,2.2-1.2c1.5,0,2.5,1.1,2.5,2.7v4.7h-1.9V353c0-0.8-0.4-1.3-1.2-1.3
		c-0.8,0-1.5,0.7-1.5,1.7v4.1h-1.9v-7.2h1.9V351.2z"/>
</g>
<g>
	<path class="st8" d="M621,268.1h2.1l3.5,10h-2.1l-0.7-2.1h-3.6l-0.7,2.1h-2.1L621,268.1z M620.7,274.4h2.6l-0.9-2.9
		c-0.2-0.5-0.4-1.5-0.4-1.5h0c0,0-0.3,1-0.4,1.5L620.7,274.4z"/>
	<path class="st8" d="M629.9,268.1h7.4v1.7h-5.3v2.2h4.7v1.7h-4.7v2.7h5.4v1.7h-7.4V268.1z"/>
	<path class="st8" d="M638.4,268.1h1.9v10h-1.9V268.1z"/>
	<path class="st8" d="M643.4,277.2L643.4,277.2l0,0.9h-1.8v-10h1.9v3.7h0c0.4-0.6,1-1.1,2-1.1c1.8,0,3.1,1.6,3.1,3.8
		c0,2.3-1.2,3.8-3,3.8C644.6,278.3,643.8,277.9,643.4,277.2z M646.7,274.5c0-1.3-0.5-2.3-1.6-2.3c-1.2,0-1.7,1-1.7,2.3
		c0,1.3,0.7,2.2,1.7,2.2C646.1,276.7,646.7,275.9,646.7,274.5z"/>
	<path class="st8" d="M649.1,274.5c0-2.1,1.5-3.8,3.8-3.8c2.2,0,3.8,1.7,3.8,3.8s-1.5,3.8-3.8,3.8
		C650.7,278.3,649.1,276.7,649.1,274.5z M654.7,274.5c0-1.4-0.7-2.4-1.8-2.4c-1.2,0-1.8,1-1.8,2.4s0.6,2.3,1.8,2.3
		C654,276.9,654.7,275.9,654.7,274.5z"/>
	<path class="st8" d="M656.7,270.9h1.9l0.9,3.3c0.2,0.6,0.3,1.3,0.3,1.3h0c0,0,0.2-0.8,0.3-1.4l0.9-3.3h1.6l0.9,3.3
		c0.2,0.6,0.3,1.4,0.3,1.4h0c0,0,0.2-0.8,0.3-1.3l0.9-3.3h1.8l-2.1,7.2h-1.7l-1-3.5c-0.2-0.6-0.3-1.2-0.3-1.2h0c0,0-0.2,0.7-0.3,1.2
		l-1,3.5h-1.7L656.7,270.9z"/>
</g>
<g>
	<path class="st8" d="M451.5,187h2.1l3.5,10H455l-0.7-2.1h-3.6l-0.7,2.1H448L451.5,187z M451.2,193.3h2.6l-0.9-2.9
		c-0.2-0.5-0.4-1.5-0.4-1.5h0c0,0-0.3,1-0.4,1.5L451.2,193.3z"/>
	<path class="st8" d="M460.3,187h2v8.3h4.7v1.7h-6.7V187z"/>
	<path class="st8" d="M468.1,187h1.9v1.7h-1.9V187z M468.1,189.8h1.9v7.2h-1.9V189.8z"/>
	<path class="st8" d="M473.1,190.8L473.1,190.8c0.5-0.8,1.2-1.2,2.2-1.2c1.5,0,2.5,1.1,2.5,2.7v4.7h-1.9v-4.4c0-0.8-0.4-1.3-1.2-1.3
		c-0.8,0-1.5,0.7-1.5,1.7v4.1h-1.9v-7.2h1.9V190.8z"/>
	<path class="st8" d="M481.6,193.7l-0.8,0.9v2.4h-1.9v-10h1.9v5.5l2.5-2.7h2.3l-2.6,2.7l3,4.5h-2.3L481.6,193.7z"/>
</g>
<g>
	<path class="st8" d="M518.5,120.5h2.1l3.5,10H522l-0.7-2.1h-3.6l-0.7,2.1H515L518.5,120.5z M518.2,126.8h2.6L520,124
		c-0.2-0.5-0.4-1.5-0.4-1.5h0c0,0-0.3,1-0.4,1.5L518.2,126.8z"/>
	<path class="st8" d="M530.1,120.5h2.1l3.5,10h-2.1l-0.7-2.1h-3.6l-0.7,2.1h-2.1L530.1,120.5z M529.8,126.8h2.6l-0.9-2.9
		c-0.2-0.5-0.4-1.5-0.4-1.5h0c0,0-0.3,1-0.4,1.5L529.8,126.8z"/>
	<path class="st8" d="M536.4,120.5h1.9v10h-1.9V120.5z"/>
	<path class="st8" d="M539.6,120.5h1.9v10h-1.9V120.5z"/>
	<path class="st8" d="M542.5,126.9c0-2.1,1.4-3.8,3.5-3.8c2.3,0,3.5,1.8,3.5,4.3h-5.2c0.1,1.1,0.8,1.8,1.8,1.8
		c0.7,0,1.2-0.3,1.4-0.9h1.9c-0.3,1.3-1.4,2.4-3.2,2.4C543.8,130.7,542.5,129.1,542.5,126.9z M544.4,126.1h3.2
		c-0.1-0.9-0.7-1.5-1.5-1.5C545,124.6,544.5,125.2,544.4,126.1z"/>
	<path class="st8" d="M550.4,131.4h0.7c0.8,0,1.1-0.4,1.1-1c0-0.4-0.1-0.9-0.5-1.9l-1.9-5.1h2l1.1,3.2c0.2,0.7,0.5,1.6,0.5,1.6h0
		c0,0,0.2-0.9,0.4-1.6l1-3.2h1.9l-2.5,7.4c-0.5,1.6-1.1,2.2-2.5,2.2h-1.1V131.4z"/>
</g>
<g>
	<path class="st8" d="M288.8,310.3h2.9l1.4,5c0.4,1.3,0.6,2.7,0.6,2.7h0c0,0,0.3-1.4,0.6-2.7l1.4-5h2.9v10h-1.9v-5.7
		c0-0.8,0.1-2.1,0.1-2.1h0c0,0-0.2,1.2-0.4,1.9l-1.7,5.9h-1.9l-1.7-5.9c-0.2-0.7-0.4-1.9-0.4-1.9h0c0,0,0.1,1.3,0.1,2.1v5.7h-1.9
		V310.3z"/>
	<path class="st8" d="M300,310.3h1.9v1.7H300V310.3z M300,313.2h1.9v7.2H300V313.2z"/>
	<path class="st8" d="M302.8,316.8c0-2.2,1.3-3.8,3.1-3.8c1,0,1.6,0.5,2,1.1h0v-3.7h1.9v10H308v-0.9h0c-0.4,0.7-1.1,1.1-2.1,1.1
		C304,320.6,302.8,319.1,302.8,316.8z M308,316.8c0-1.4-0.4-2.3-1.7-2.3c-1.1,0-1.6,0.9-1.6,2.3c0,1.4,0.5,2.2,1.5,2.2
		C307.4,319,308,318.1,308,316.8z"/>
	<path class="st8" d="M313.1,315.4c0-3,1.8-5.2,4.8-5.2c2.5,0,3.9,1.5,4.1,3.4h-2c-0.2-1-0.9-1.7-2.1-1.7c-1.8,0-2.7,1.5-2.7,3.5
		c0,2,1.1,3.5,2.7,3.5c1.2,0,2-0.7,2.2-1.8h2c-0.1,0.9-0.4,1.7-1.1,2.4c-0.7,0.6-1.7,1.1-3,1.1C315.1,320.6,313.1,318.4,313.1,315.4
		z"/>
	<path class="st8" d="M322.7,316.8c0-2.1,1.5-3.8,3.8-3.8c2.2,0,3.8,1.7,3.8,3.8s-1.5,3.8-3.8,3.8
		C324.2,320.6,322.7,318.9,322.7,316.8z M328.3,316.8c0-1.4-0.7-2.4-1.8-2.4c-1.2,0-1.8,1-1.8,2.4s0.6,2.3,1.8,2.3
		C327.6,319.1,328.3,318.2,328.3,316.8z"/>
	<path class="st8" d="M335.6,320.4v-0.8h0c-0.5,0.7-1,1-2.1,1c-1.6,0-2.5-1-2.5-2.6v-4.8h1.9v4.5c0,0.8,0.4,1.3,1.2,1.3
		c0.9,0,1.4-0.7,1.4-1.6v-4.1h1.9v7.2H335.6z"/>
	<path class="st8" d="M340.5,314.3L340.5,314.3c0.5-0.8,1-1.2,1.8-1.2c0.2,0,0.3,0,0.4,0.1v1.7h0c-1.2-0.1-2.1,0.5-2.1,2v3.5h-1.9
		v-7.2h1.8V314.3z"/>
	<path class="st8" d="M343.3,313.2h1v-2.2h1.9v2.2h1.2v1.3h-1.2v3.8c0,0.5,0.3,0.7,0.7,0.7c0.2,0,0.6,0,0.6,0v1.4c0,0-0.4,0-1.2,0
		c-0.9,0-1.9-0.4-1.9-1.7v-4.2h-1V313.2z"/>
	<path class="st8" d="M348.6,321.2h0.7c0.8,0,1.1-0.4,1.1-1c0-0.4-0.1-0.9-0.5-1.9l-1.9-5.1h2l1.1,3.2c0.2,0.7,0.5,1.6,0.5,1.6h0
		c0,0,0.2-0.9,0.4-1.6l1-3.2h1.9l-2.5,7.4c-0.5,1.6-1.1,2.2-2.5,2.2h-1.1V321.2z"/>
	<path class="st8" d="M359.5,319.6L359.5,319.6c-0.4,0.5-0.9,1-2.1,1c-1.5,0-2.5-0.8-2.5-2.2c0-1.6,1.3-2.1,2.9-2.3
		c1.2-0.2,1.7-0.3,1.7-0.8c0-0.5-0.4-0.9-1.2-0.9c-0.9,0-1.3,0.3-1.4,1h-1.7c0.1-1.3,1-2.4,3.1-2.4c2.2,0,3,1,3,2.6v3.7
		c0,0.5,0.1,0.9,0.3,1v0.1h-1.8C359.6,320.2,359.6,319.9,359.5,319.6z M359.5,317.8v-1.1c-0.3,0.2-0.9,0.3-1.3,0.4
		c-1,0.2-1.5,0.4-1.5,1.1s0.4,0.9,1.1,0.9C358.9,319.2,359.5,318.5,359.5,317.8z"/>
	<path class="st8" d="M364.4,314.3L364.4,314.3c0.5-0.8,1-1.2,1.8-1.2c0.2,0,0.3,0,0.4,0.1v1.7h0c-1.2-0.1-2.1,0.5-2.1,2v3.5h-1.9
		v-7.2h1.8V314.3z"/>
	<path class="st8" d="M366.9,316.8c0-2.2,1.3-3.8,3.1-3.8c1,0,1.6,0.5,2,1.1h0v-3.7h1.9v10h-1.8v-0.9h0c-0.4,0.7-1.1,1.1-2.1,1.1
		C368.1,320.6,366.9,319.1,366.9,316.8z M372.1,316.8c0-1.4-0.4-2.3-1.7-2.3c-1.1,0-1.6,0.9-1.6,2.3c0,1.4,0.5,2.2,1.5,2.2
		C371.5,319,372.1,318.1,372.1,316.8z"/>
</g>
<g>
	<path class="st8" d="M310.8,216h2.9l1.4,5c0.4,1.3,0.6,2.7,0.6,2.7h0c0,0,0.3-1.4,0.6-2.7l1.4-5h2.9v10h-1.9v-5.7
		c0-0.8,0.1-2.1,0.1-2.1h0c0,0-0.2,1.2-0.4,1.9l-1.7,5.9h-1.9l-1.7-5.9c-0.2-0.7-0.4-1.9-0.4-1.9h0c0,0,0.1,1.3,0.1,2.1v5.7h-1.9
		V216z"/>
	<path class="st8" d="M322,216h1.9v1.7H322V216z M322,218.8h1.9v7.2H322V218.8z"/>
	<path class="st8" d="M324.8,222.4c0-2.2,1.3-3.8,3.1-3.8c1,0,1.6,0.5,2,1.1h0V216h1.9v10H330v-0.9h0c-0.4,0.7-1.1,1.1-2.1,1.1
		C326,226.2,324.8,224.7,324.8,222.4z M330,222.5c0-1.4-0.4-2.3-1.7-2.3c-1.1,0-1.6,0.9-1.6,2.3c0,1.4,0.5,2.2,1.5,2.2
		C329.4,224.6,330,223.8,330,222.5z"/>
	<path class="st8" d="M335,216h8.1v1.7h-3v8.3h-2v-8.3h-3V216z"/>
	<path class="st8" d="M342,222.4c0-2.1,1.5-3.8,3.8-3.8c2.2,0,3.8,1.7,3.8,3.8c0,2.1-1.5,3.8-3.8,3.8
		C343.5,226.2,342,224.6,342,222.4z M347.6,222.4c0-1.4-0.7-2.4-1.8-2.4c-1.2,0-1.8,1-1.8,2.4c0,1.4,0.6,2.3,1.8,2.3
		C346.9,224.8,347.6,223.8,347.6,222.4z"/>
	<path class="st8" d="M350.4,218.8h1.8v0.9h0c0.5-0.6,1.1-1.1,2.1-1.1c1.9,0,3.1,1.6,3.1,3.8c0,2.3-1.3,3.8-3.1,3.8
		c-1,0-1.7-0.4-2.1-1h0v3.2h-1.9V218.8z M355.6,222.5c0-1.4-0.5-2.3-1.7-2.3c-1.2,0-1.7,1-1.7,2.3c0,1.3,0.6,2.2,1.7,2.2
		C355,224.6,355.6,223.8,355.6,222.5z"/>
</g>
<g>
	<path class="st8" d="M126.5,188h4.5c1.1,0,1.9,0.3,2.4,0.7c0.5,0.5,0.8,1.1,0.8,1.9c0,1-0.6,1.7-1.6,2v0c1.1,0.3,1.9,1.2,1.9,2.5
		c0,0.9-0.3,1.6-0.9,2.1c-0.6,0.5-1.5,0.8-2.5,0.8h-4.6V188z M130.8,192c0.9,0,1.5-0.4,1.5-1.2c0-0.7-0.5-1.2-1.4-1.2h-2.2v2.4
		H130.8z M128.6,196.3h2.3c1,0,1.6-0.5,1.6-1.4c0-1-0.7-1.4-1.6-1.4h-2.3V196.3z"/>
	<path class="st8" d="M138.1,188h4.5c1.1,0,1.9,0.3,2.4,0.7c0.5,0.5,0.8,1.1,0.8,1.9c0,1-0.6,1.7-1.6,2v0c1.1,0.3,1.9,1.2,1.9,2.5
		c0,0.9-0.3,1.6-0.9,2.1c-0.6,0.5-1.5,0.8-2.5,0.8h-4.6V188z M142.3,192c0.9,0,1.5-0.4,1.5-1.2c0-0.7-0.5-1.2-1.4-1.2h-2.2v2.4
		H142.3z M140.1,196.3h2.3c1,0,1.6-0.5,1.6-1.4c0-1-0.7-1.4-1.6-1.4h-2.3V196.3z"/>
	<path class="st8" d="M146.9,194.4c0-2.1,1.5-3.8,3.8-3.8c2.2,0,3.8,1.7,3.8,3.8s-1.5,3.8-3.8,3.8
		C148.4,198.2,146.9,196.6,146.9,194.4z M152.5,194.4c0-1.4-0.7-2.4-1.8-2.4c-1.2,0-1.8,1-1.8,2.4s0.6,2.3,1.8,2.3
		C151.8,196.8,152.5,195.8,152.5,194.4z"/>
	<path class="st8" d="M157.1,197.1L157.1,197.1l0,0.9h-1.8v-10h1.9v3.7h0c0.4-0.6,1-1.1,2-1.1c1.8,0,3.1,1.6,3.1,3.8
		c0,2.3-1.2,3.8-3,3.8C158.3,198.2,157.6,197.8,157.1,197.1z M160.4,194.4c0-1.3-0.5-2.3-1.6-2.3c-1.2,0-1.7,1-1.7,2.3
		c0,1.3,0.7,2.2,1.7,2.2C159.8,196.6,160.4,195.8,160.4,194.4z"/>
	<path class="st8" d="M167.5,197.2L167.5,197.2c-0.4,0.5-0.9,1-2.1,1c-1.5,0-2.5-0.8-2.5-2.2c0-1.6,1.3-2.1,2.9-2.3
		c1.2-0.2,1.7-0.3,1.7-0.8c0-0.5-0.4-0.9-1.2-0.9c-0.9,0-1.3,0.3-1.4,1h-1.7c0.1-1.3,1-2.4,3.1-2.4c2.2,0,3,1,3,2.6v3.7
		c0,0.5,0.1,0.9,0.3,1v0.1h-1.8C167.6,197.9,167.5,197.5,167.5,197.2z M167.5,195.5v-1.1c-0.3,0.2-0.9,0.3-1.3,0.4
		c-1,0.2-1.5,0.4-1.5,1.1s0.4,0.9,1.1,0.9C166.9,196.8,167.5,196.2,167.5,195.5z"/>
</g>
<g>
	<path class="st8" d="M185.7,337.6h4.5c1.1,0,1.9,0.3,2.4,0.7c0.5,0.5,0.8,1.1,0.8,1.9c0,1-0.6,1.7-1.6,2v0c1.1,0.3,1.9,1.2,1.9,2.5
		c0,0.9-0.3,1.6-0.9,2.1c-0.6,0.5-1.5,0.8-2.5,0.8h-4.6V337.6z M189.9,341.6c0.9,0,1.5-0.4,1.5-1.2c0-0.7-0.5-1.2-1.4-1.2h-2.2v2.4
		H189.9z M187.7,345.9h2.3c1,0,1.6-0.5,1.6-1.4c0-1-0.7-1.4-1.6-1.4h-2.3V345.9z"/>
	<path class="st8" d="M197.2,337.6h2.9l1.4,5c0.4,1.3,0.6,2.7,0.6,2.7h0c0,0,0.3-1.4,0.6-2.7l1.4-5h2.9v10h-1.9v-5.7
		c0-0.8,0.1-2.1,0.1-2.1h0c0,0-0.2,1.2-0.4,1.9l-1.7,5.9h-1.9l-1.7-5.9c-0.2-0.7-0.4-1.9-0.4-1.9h0c0,0,0.1,1.3,0.1,2.1v5.7h-1.9
		V337.6z"/>
	<path class="st8" d="M212.8,346.8L212.8,346.8c-0.4,0.5-0.9,1-2.1,1c-1.5,0-2.5-0.8-2.5-2.2c0-1.6,1.3-2.1,2.9-2.3
		c1.2-0.2,1.7-0.3,1.7-0.8c0-0.5-0.4-0.9-1.2-0.9c-0.9,0-1.3,0.3-1.4,1h-1.7c0.1-1.3,1-2.4,3.1-2.4c2.2,0,3,1,3,2.6v3.7
		c0,0.5,0.1,0.9,0.3,1v0.1H213C212.9,347.4,212.8,347.1,212.8,346.8z M212.8,345V344c-0.3,0.2-0.9,0.3-1.3,0.4
		c-1,0.2-1.5,0.4-1.5,1.1s0.4,0.9,1.1,0.9C212.2,346.4,212.8,345.7,212.8,345z"/>
	<path class="st8" d="M217.6,341.5L217.6,341.5c0.5-0.8,1-1.2,1.8-1.2c0.2,0,0.3,0,0.4,0.1v1.7h0c-1.2-0.1-2.1,0.5-2.1,2v3.5h-1.9
		v-7.2h1.8V341.5z"/>
	<path class="st8" d="M223.4,344.3l-0.8,0.9v2.4h-1.9v-10h1.9v5.5l2.5-2.7h2.3l-2.6,2.7l3,4.5h-2.3L223.4,344.3z"/>
	<path class="st8" d="M227.5,344c0-2.1,1.4-3.8,3.5-3.8c2.3,0,3.5,1.8,3.5,4.3h-5.2c0.1,1.1,0.8,1.8,1.8,1.8c0.7,0,1.2-0.3,1.4-0.9
		h1.9c-0.3,1.3-1.4,2.4-3.2,2.4C228.8,347.8,227.5,346.1,227.5,344z M229.4,343.2h3.2c-0.1-0.9-0.7-1.5-1.5-1.5
		C230,341.7,229.6,342.3,229.4,343.2z"/>
	<path class="st8" d="M234.9,340.4h1v-2.2h1.9v2.2h1.2v1.3h-1.2v3.8c0,0.5,0.3,0.7,0.7,0.7c0.2,0,0.6,0,0.6,0v1.4c0,0-0.4,0-1.2,0
		c-0.9,0-1.9-0.4-1.9-1.7v-4.2h-1V340.4z"/>
</g>
<polygon class="st1" points="541.2,215 541.2,219.5 530.5,219.5 530.5,225 563,225 563,215 "/>
<path class="st9" d="M54.6,263v90H142v-90H54.6z M119.5,327.7H77.6V286h41.9V327.7z"/>
<g>
	<path class="st10" d="M60.9,336H66c1.2,0,2.2,0.3,2.8,0.8c0.6,0.6,0.9,1.3,0.9,2.2c0,1.2-0.7,1.9-1.8,2.3l0,0
		c1.3,0.4,2.1,1.4,2.1,2.8c0,1.1-0.3,1.8-1,2.4s-1.7,0.9-2.9,0.9h-5.3L60.9,336L60.9,336L60.9,336z M65.7,340.6c1,0,1.7-0.5,1.7-1.4
		s-0.6-1.3-1.7-1.3h-2.6v2.7L65.7,340.6L65.7,340.6z M63.2,345.6h2.7c1.1,0,1.8-0.6,1.8-1.6c0-1.1-0.8-1.7-1.9-1.7h-2.6V345.6z"/>
	<path class="st10" d="M73.6,344h2.3c0.2,1.4,0.9,1.9,2.6,1.9c1.2,0,2.2-0.4,2.2-1.5s-1.1-1.3-2.8-1.8c-2.1-0.5-3.9-1-3.9-3.4
		c0-2.3,1.8-3.4,4.4-3.4s4.3,1.3,4.4,3.6h-2.2c-0.1-1.2-1-1.7-2.2-1.7c-1.3,0-2.1,0.5-2.1,1.3c0,0.9,0.8,1.2,2.5,1.6
		c2.4,0.5,4.3,1.1,4.3,3.5c0,2.3-1.9,3.6-4.5,3.6C75.4,347.8,73.7,346.4,73.6,344z"/>
	<path class="st10" d="M84.2,336h2.2v2h-2.2V336z M84.2,339.3h2.2v8.2h-2.2V339.3z"/>
	<path class="st10" d="M87.3,339.3h1.1v-2.6h2.1v2.6h1.4v1.4h-1.4v4.4c0,0.6,0.3,0.8,0.8,0.8c0.3,0,0.6,0,0.6,0v1.6c0,0-0.5,0-1.4,0
		c-1.1,0-2.2-0.4-2.2-2v-4.8h-1.1L87.3,339.3L87.3,339.3z"/>
	<path class="st10" d="M92.7,343.4c0-2.4,1.7-4.3,4.1-4.3c2.6,0,4.1,2,4.1,5h-6c0.2,1.3,0.9,2.1,2.1,2.1c0.9,0,1.3-0.4,1.6-1h2.2
		c-0.3,1.5-1.6,2.7-3.7,2.7C94.2,347.7,92.7,345.8,92.7,343.4z M94.9,342.5h3.7c-0.1-1-0.8-1.8-1.7-1.8
		C95.6,340.7,95.1,341.4,94.9,342.5z"/>
</g>
<rect x="530.5" y="219.5" class="st9" width="77" height="87.8"/>
<g>
	<path class="st10" d="M540.7,290.1h2.5l4,11.5h-2.4l-0.8-2.4h-4.1l-0.8,2.4h-2.4L540.7,290.1z M540.4,297.5h3l-1-3.3
		c-0.2-0.6-0.5-1.8-0.5-1.8l0,0c0,0-0.3,1.2-0.5,1.8L540.4,297.5z"/>
	<path class="st10" d="M550.3,298.1h2.3c0.2,1.4,0.9,1.9,2.6,1.9c1.2,0,2.2-0.4,2.2-1.5s-1.1-1.3-2.8-1.8c-2.1-0.5-3.9-1-3.9-3.4
		c0-2.3,1.8-3.4,4.4-3.4c2.6,0,4.3,1.3,4.4,3.6h-2.2c-0.1-1.2-1-1.7-2.2-1.7c-1.3,0-2.1,0.5-2.1,1.3c0,0.9,0.8,1.2,2.5,1.6
		c2.4,0.5,4.3,1.1,4.3,3.5c0,2.3-1.9,3.6-4.5,3.6C552.2,301.9,550.4,300.5,550.3,298.1z"/>
	<path class="st10" d="M561,290.1h2.2v2H561V290.1z M561,293.5h2.2v8.2H561V293.5z"/>
	<path class="st10" d="M564.1,293.5h1.1v-2.6h2.1v2.6h1.4v1.4h-1.4v4.4c0,0.6,0.3,0.8,0.8,0.8c0.3,0,0.6,0,0.6,0v1.6
		c0,0-0.5,0-1.4,0c-1.1,0-2.2-0.4-2.2-2v-4.8H564v-1.4H564.1z"/>
	<path class="st10" d="M569.4,297.5c0-2.4,1.7-4.3,4.1-4.3c2.6,0,4.1,2,4.1,5h-6c0.2,1.3,0.9,2.1,2.1,2.1c0.9,0,1.3-0.4,1.6-1h2.2
		c-0.3,1.5-1.6,2.7-3.7,2.7C571,301.9,569.4,299.9,569.4,297.5z M571.6,296.6h3.7c-0.1-1-0.8-1.8-1.7-1.8
		C572.4,294.9,571.8,295.5,571.6,296.6z"/>
</g>
<rect x="330.4" y="242.6" class="st6" width="33.8" height="3.9"/>
<rect x="250.6" y="306.1" class="st6" width="3.9" height="23"/>
<rect x="57.3" y="405.7" class="st6" width="39" height="3.9"/>
<rect x="465.5" y="316.1" class="st6" width="33.9" height="3.9"/>
<rect x="627.9" y="280.5" class="st6" width="22.6" height="3.9"/>
<g>
	<rect x="518.5" y="414.1" class="st7" width="3.9" height="44.8"/>
</g>
<g>
	<path class="st8" d="M495.4,434.5h2.1l3.5,10h-2.1l-0.7-2.1h-3.6l-0.7,2.1h-2.1L495.4,434.5z M495.1,440.8h2.6l-0.9-2.9
		c-0.2-0.5-0.4-1.5-0.4-1.5h0c0,0-0.3,1-0.4,1.5L495.1,440.8z"/>
	<path class="st8" d="M504.2,434.5h2v8.3h4.7v1.7h-6.7V434.5z"/>
	<path class="st8" d="M511.4,440.9c0-2.1,1.5-3.8,3.8-3.8s3.8,1.7,3.8,3.8c0,2.1-1.5,3.8-3.8,3.8S511.4,443.1,511.4,440.9z
		 M517,440.9c0-1.4-0.7-2.4-1.8-2.4c-1.2,0-1.8,1-1.8,2.4c0,1.4,0.6,2.3,1.8,2.3C516.3,443.3,517,442.3,517,440.9z"/>
	<path class="st8" d="M521.6,443.6L521.6,443.6l0,0.9h-1.8v-10h1.9v3.7h0c0.4-0.6,1-1.1,2-1.1c1.8,0,3.1,1.6,3.1,3.8
		c0,2.3-1.2,3.8-3,3.8C522.8,444.7,522,444.3,521.6,443.6z M524.9,440.9c0-1.3-0.5-2.3-1.6-2.3c-1.2,0-1.7,1-1.7,2.3
		c0,1.3,0.7,2.2,1.7,2.2C524.3,443.1,524.9,442.3,524.9,440.9z"/>
	<path class="st8" d="M529.5,443.6L529.5,443.6l0,0.9h-1.8v-10h1.9v3.7h0c0.4-0.6,1-1.1,2-1.1c1.8,0,3.1,1.6,3.1,3.8
		c0,2.3-1.2,3.8-3,3.8C530.7,444.7,530,444.3,529.5,443.6z M532.8,440.9c0-1.3-0.5-2.3-1.6-2.3c-1.2,0-1.7,1-1.7,2.3
		c0,1.3,0.7,2.2,1.7,2.2C532.3,443.1,532.8,442.3,532.8,440.9z"/>
	<path class="st8" d="M535.6,445.4h0.7c0.8,0,1.1-0.4,1.1-1c0-0.4-0.1-0.9-0.5-1.9l-1.9-5.1h2l1.1,3.2c0.2,0.7,0.5,1.6,0.5,1.6h0
		c0,0,0.2-0.9,0.4-1.6l1-3.2h1.9l-2.5,7.4c-0.5,1.6-1.1,2.2-2.5,2.2h-1.1V445.4z"/>
</g>
<g>
	<rect x="450.7" y="392.4" class="st7" width="3.9" height="23.2"/>
</g>
<g>
	<rect x="293" y="414.1" class="st7" width="3.9" height="44.9"/>
</g>
<g>
	<path class="st8" d="M257.6,422h2.9l1.4,5c0.4,1.3,0.6,2.7,0.6,2.7h0c0,0,0.3-1.4,0.6-2.7l1.4-5h2.9v10h-1.9v-5.7
		c0-0.8,0.1-2.1,0.1-2.1h0c0,0-0.2,1.2-0.4,1.9l-1.7,5.9h-1.9l-1.7-5.9c-0.2-0.7-0.4-1.9-0.4-1.9h0c0,0,0.1,1.3,0.1,2.1v5.7h-1.9
		V422z"/>
	<path class="st8" d="M268.8,422h1.9v1.7h-1.9V422z M268.8,424.8h1.9v7.2h-1.9V424.8z"/>
	<path class="st8" d="M271.6,428.4c0-2.2,1.3-3.8,3.1-3.8c1,0,1.6,0.5,2,1.1h0V422h1.9v10h-1.8v-0.9h0c-0.4,0.7-1.1,1.1-2.1,1.1
		C272.8,432.2,271.6,430.7,271.6,428.4z M276.8,428.5c0-1.4-0.4-2.3-1.7-2.3c-1.1,0-1.6,0.9-1.6,2.3c0,1.4,0.5,2.2,1.5,2.2
		C276.2,430.6,276.8,429.8,276.8,428.5z"/>
	<path class="st8" d="M282.4,422h4.5c1.1,0,1.9,0.3,2.4,0.7c0.5,0.5,0.8,1.1,0.8,1.9c0,1-0.6,1.7-1.6,2v0c1.1,0.3,1.9,1.2,1.9,2.5
		c0,0.9-0.3,1.6-0.9,2.1c-0.6,0.5-1.5,0.8-2.5,0.8h-4.6V422z M286.6,426c0.9,0,1.5-0.4,1.5-1.2c0-0.7-0.5-1.2-1.4-1.2h-2.2v2.4
		H286.6z M284.4,430.3h2.3c1,0,1.6-0.5,1.6-1.4c0-1-0.7-1.4-1.6-1.4h-2.3V430.3z"/>
	<path class="st8" d="M291.2,428.4c0-2.1,1.5-3.8,3.8-3.8c2.2,0,3.8,1.7,3.8,3.8c0,2.1-1.5,3.8-3.8,3.8
		C292.7,432.2,291.2,430.6,291.2,428.4z M296.8,428.4c0-1.4-0.7-2.4-1.8-2.4c-1.2,0-1.8,1-1.8,2.4c0,1.4,0.6,2.3,1.8,2.3
		C296.1,430.8,296.8,429.8,296.8,428.4z"/>
	<path class="st8" d="M299,424.8h1v-2.2h1.9v2.2h1.2v1.3h-1.2v3.8c0,0.5,0.3,0.7,0.7,0.7c0.2,0,0.6,0,0.6,0v1.4c0,0-0.4,0-1.2,0
		c-0.9,0-1.9-0.4-1.9-1.7v-4.2h-1V424.8z"/>
	<path class="st8" d="M303.5,424.8h1v-2.2h1.9v2.2h1.2v1.3h-1.2v3.8c0,0.5,0.3,0.7,0.7,0.7c0.2,0,0.6,0,0.6,0v1.4c0,0-0.4,0-1.2,0
		c-0.9,0-1.9-0.4-1.9-1.7v-4.2h-1V424.8z"/>
	<path class="st8" d="M308.2,428.4c0-2.1,1.5-3.8,3.8-3.8c2.2,0,3.8,1.7,3.8,3.8c0,2.1-1.5,3.8-3.8,3.8
		C309.7,432.2,308.2,430.6,308.2,428.4z M313.8,428.4c0-1.4-0.7-2.4-1.8-2.4c-1.2,0-1.8,1-1.8,2.4c0,1.4,0.6,2.3,1.8,2.3
		C313.1,430.8,313.8,429.8,313.8,428.4z"/>
	<path class="st8" d="M316.6,424.8h1.8v1h0c0.4-0.7,1.1-1.2,2.1-1.2c0.9,0,1.6,0.5,2,1.3h0c0.5-0.8,1.2-1.3,2.2-1.3
		c1.5,0,2.4,1,2.4,2.5v4.8h-1.9v-4.5c0-0.8-0.4-1.2-1.1-1.2c-0.8,0-1.3,0.6-1.3,1.6v4.2h-1.9v-4.5c0-0.8-0.4-1.2-1.1-1.2
		c-0.8,0-1.3,0.6-1.3,1.6v4.2h-1.9V424.8z"/>
</g>
<g>
	
		<rect x="206.5" y="490.5" transform="matrix(0.7071 -0.7071 0.7071 0.7071 -283.9418 299.4143)" class="st7" width="25.9" height="3.9"/>
</g>
<g>
	<rect x="232" y="433" class="st7" width="3.9" height="26"/>
</g>
<g>
	<rect x="465.5" y="380.4" class="st7" width="26.4" height="3.9"/>
</g>
</svg>
